<?xml version="1.0" encoding="utf-8"?>
<!-- Generator: Adobe Illustrator 22.0.1, SVG Export Plug-In . SVG Version: 6.00 Build 0)  -->
<svg version="1.1" id="圖層_1" xmlns="http://www.w3.org/2000/svg" xmlns:xlink="http://www.w3.org/1999/xlink" x="0px" y="0px"
	 viewBox="0 0 425.2 425.2" style="enable-background:new 0 0 425.2 425.2;" xml:space="preserve">
<style type="text/css">
	.st0{fill:#231815;}
	.st1{fill:#F1F2F2;}
	.st2{fill:#414042;}
	.st3{fill:#2D5873;}
	.st4{fill:#E6E7E8;}
	.st5{fill:#7BA696;}
	.st6{fill:#D83A46;}
	.st7{fill:#BCBEC0;}
	.st8{fill:#FFFFFF;}
	.st9{fill:#F4BABF;}
	.st10{fill:#22CEFC;}
</style>
<path class="st0" d="M334.5,353.7H217.9c-11.7,0-21.2-7.5-21.2-16.8v-10.1c0-8.2-8.4-14.8-18.7-14.8h-130v-2h130
	c11.7,0,21.2,7.5,21.2,16.8v10.1c0,8.2,8.4,14.8,18.7,14.8h116.7c10.3,0,18.7-6.6,18.7-14.8V143.6c0-8.2-8.4-14.8-18.7-14.8H188.8
	c-11.7,0-21.2-7.5-21.2-16.8V50.4c0-8.2-8.4-14.8-18.7-14.8H40v-2h108.8c11.7,0,21.2,7.5,21.2,16.8v61.7c0,8.2,8.4,14.8,18.7,14.8
	h145.8c11.7,0,21.2,7.5,21.2,16.8v193.3C355.8,346.1,346.2,353.7,334.5,353.7z"/>
<g>
	<rect x="2.4" y="31.2" class="st1" width="313.8" height="205.8"/>
	<path class="st2" d="M318.5,239.4H0V28.8h318.5V239.4z M4.8,234.6h309v-201H4.8V234.6z"/>
</g>
<g>
	<rect x="17.4" y="46.9" class="st3" width="283.7" height="145.2"/>
	<path class="st3" d="M303.5,194.5H15v-150h288.5V194.5z M19.8,189.7h279V49.3h-279V189.7z"/>
</g>
<g>
	<rect x="40" y="66.3" class="st4" width="238.5" height="125.8"/>
	<path class="st2" d="M280.9,194.5H37.6V63.9h243.3V194.5z M42.4,189.7h233.7v-121H42.4V189.7z"/>
</g>
<rect x="122.9" y="237" class="st3" width="72.8" height="43.3"/>
<path class="st2" d="M198.1,282.7h-77.6v-48.1h77.6V282.7z M125.3,277.9h68v-38.5h-68V277.9z"/>
<polygon class="st5" points="217.4,280.3 101.2,280.3 101.1,297.1 217.4,297.1 "/>
<path class="st2" d="M219.8,299.5H98.7l0.1-21.6h121V299.5z M103.6,294.7H215v-12H103.6L103.6,294.7z"/>
<g>
	<rect x="40" y="66.3" class="st4" width="238.5" height="14.5"/>
	<path class="st2" d="M280.9,83.2H37.6V63.9h243.3V83.2z M42.4,78.4h233.7v-9.7H42.4V78.4z"/>
</g>
<path class="st6" d="M51.2,73.5c0,1.4-1.1,2.5-2.5,2.5c-1.4,0-2.5-1.1-2.5-2.5c0-1.4,1.1-2.5,2.5-2.5C50,71,51.2,72.1,51.2,73.5z"/>
<path class="st7" d="M58.7,73.5c0,1.4-1.1,2.5-2.5,2.5c-1.4,0-2.5-1.1-2.5-2.5c0-1.4,1.1-2.5,2.5-2.5C57.6,71,58.7,72.1,58.7,73.5z"
	/>
<path class="st5" d="M66.3,73.5c0,1.4-1.1,2.5-2.5,2.5c-1.4,0-2.5-1.1-2.5-2.5c0-1.4,1.1-2.5,2.5-2.5C65.2,71,66.3,72.1,66.3,73.5z"
	/>
<rect x="40" y="115.6" class="st5" width="18.8" height="76.5"/>
<path class="st2" d="M61.3,194.5H37.6v-81.3h23.6V194.5z M42.4,189.7h14V118h-14V189.7z"/>
<g>
	<rect x="73.8" y="115.7" class="st8" width="171.2" height="76.4"/>
	<path class="st2" d="M247.3,194.5h-176v-81.2h176V194.5z M76.2,189.7h166.4v-71.6H76.2V189.7z"/>
</g>
<rect x="40" y="80.8" class="st5" width="238.2" height="20.4"/>
<path class="st2" d="M283.1,107.2h-243V82h243V107.2z M44.9,102.4h233.4V86.8H44.9V102.4z"/>
<rect x="88.1" y="131" class="st6" width="146" height="15"/>
<path class="st2" d="M236.5,148.5H85.7v-19.8h150.8V148.5z M90.5,143.7h141.2v-10.2H90.5V143.7z"/>
<g>
	<rect x="88.1" y="165.2" class="st4" width="42.4" height="26.9"/>
	<path class="st2" d="M133,194.5H85.7v-31.7H133V194.5z M90.5,189.7h37.6v-22.1H90.5V189.7z"/>
</g>
<g>
	<rect x="143" y="165.2" class="st8" width="91.1" height="26.9"/>
	<path class="st2" d="M236.5,194.5h-95.9v-31.7h95.9V194.5z M145.4,189.7h86.3v-22.1h-86.3V189.7z"/>
</g>
<rect x="211.8" y="115.7" class="st5" width="66.6" height="37.1"/>
<path class="st2" d="M280.7,155.2h-71.3v-41.9h71.3V155.2z M214.2,150.4h61.8v-32.3h-61.8V150.4z"/>
<rect x="211.8" y="163.8" class="st5" width="66.6" height="28.3"/>
<path class="st2" d="M280.7,194.5h-71.3v-33.1h71.3V194.5z M214.2,189.7h61.8v-23.5h-61.8V189.7z"/>
<rect x="159.2" y="256.1" class="st5" width="82" height="82"/>
<path class="st2" d="M243.6,340.5h-86.8v-86.8h86.8V340.5z M161.6,335.7h77.2v-77.2h-77.2V335.7z"/>
<g>
	<path class="st2" d="M188,300.7v7h-4.8v-20.5h8.3c2.4,0,4.4,0.6,5.8,1.9c1.4,1.2,2.1,2.9,2.1,4.9c0,2-0.7,3.6-2.1,4.9
		s-3.3,1.8-5.8,1.8H188z M188,297h3.5c1,0,1.8-0.3,2.4-0.8c0.5-0.6,0.8-1.3,0.8-2.2c0-0.9-0.3-1.7-0.8-2.2c-0.5-0.6-1.3-0.9-2.4-0.9
		H188V297z"/>
	<path class="st2" d="M213,302.3c0-0.7-0.2-1.3-0.7-1.7c-0.5-0.4-1.3-0.8-2.6-1.3c-2.6-0.8-4.5-1.7-5.7-2.6c-1.2-0.9-1.9-2.3-1.9-4
		c0-1.7,0.7-3.1,2.2-4.2c1.5-1.1,3.4-1.6,5.7-1.6c2.3,0,4.1,0.6,5.6,1.7c1.4,1.2,2.1,2.7,2.1,4.5l0,0.1H213c0-0.8-0.3-1.5-0.8-2
		c-0.6-0.5-1.3-0.8-2.3-0.8c-1,0-1.7,0.2-2.2,0.6s-0.8,0.9-0.8,1.6c0,0.6,0.3,1.1,0.8,1.4c0.5,0.4,1.6,0.8,3.1,1.4
		c2.3,0.7,4.1,1.5,5.2,2.6c1.2,1,1.8,2.4,1.8,4.2c0,1.8-0.7,3.2-2.1,4.2c-1.4,1-3.3,1.5-5.6,1.5c-2.3,0-4.3-0.6-6-1.7
		c-1.7-1.2-2.5-2.8-2.5-5l0-0.1h4.6c0,1.2,0.3,2,1,2.5c0.6,0.5,1.6,0.8,2.9,0.8c1,0,1.7-0.2,2.2-0.6
		C212.8,303.4,213,302.9,213,302.3z"/>
</g>
<g>
	<rect x="300.8" y="301.9" class="st8" width="122.9" height="91.6"/>
	<path class="st2" d="M425.2,395H299.3v-94.7h125.9V395z M302.3,392h119.9v-88.6H302.3V392z"/>
</g>
<rect x="318.4" y="313.8" class="st9" width="11" height="79.7"/>
<rect x="333.7" y="313.8" class="st9" width="11" height="79.7"/>
<rect x="349.1" y="313.8" class="st9" width="11" height="79.7"/>
<rect x="364.4" y="313.8" class="st9" width="11" height="79.7"/>
<rect x="379.8" y="313.8" class="st9" width="11" height="79.7"/>
<rect x="395.1" y="313.8" class="st9" width="11" height="79.7"/>
<g>
	<rect x="300.8" y="301.9" class="st4" width="122.9" height="11.9"/>
	<path class="st2" d="M425.2,315.3H299.3v-14.9h125.9V315.3z M302.3,312.3h119.9v-8.9H302.3V312.3z"/>
</g>
<path class="st6" d="M309.9,307.8c0,1.1-0.9,2.1-2.1,2.1c-1.1,0-2.1-0.9-2.1-2.1c0-1.1,0.9-2.1,2.1-2.1
	C309,305.8,309.9,306.7,309.9,307.8z"/>
<path class="st7" d="M316.1,307.8c0,1.1-0.9,2.1-2.1,2.1c-1.1,0-2.1-0.9-2.1-2.1c0-1.1,0.9-2.1,2.1-2.1
	C315.2,305.8,316.1,306.7,316.1,307.8z"/>
<path class="st5" d="M322.3,307.8c0,1.1-0.9,2.1-2.1,2.1s-2.1-0.9-2.1-2.1c0-1.1,0.9-2.1,2.1-2.1S322.3,306.7,322.3,307.8z"/>
<rect x="300.8" y="325.6" class="st10" width="122.9" height="1.2"/>
<rect x="300.8" y="360.8" class="st10" width="122.9" height="1.2"/>
<rect x="300.8" y="371.4" class="st10" width="122.9" height="1.2"/>
<path class="st2" d="M425.2,395H299.3v-94.7h125.9V395z M302.3,392h119.9v-88.6H302.3V392z"/>
<g>
	<polygon class="st2" points="57.8,326.4 24.5,326.4 24.5,293.2 27.7,293.2 27.7,323.2 57.8,323.2 	"/>
	<polygon class="st2" points="50.6,333.7 47.4,333.7 47.4,303.6 17.3,303.6 17.3,300.4 50.6,300.4 	"/>
	
		<rect x="18.4" y="307.3" transform="matrix(0.7041 -0.7101 0.7101 0.7041 -206.0083 121.5632)" class="st2" width="48.9" height="1.4"/>
</g>
</svg>
