<?xml version="1.0" encoding="utf-8"?>
<!-- Generator: Adobe Illustrator 22.0.1, SVG Export Plug-In . SVG Version: 6.00 Build 0)  -->
<svg version="1.1" id="圖層_1" xmlns="http://www.w3.org/2000/svg" xmlns:xlink="http://www.w3.org/1999/xlink" x="0px" y="0px"
	 viewBox="0 0 425.2 425.2" style="enable-background:new 0 0 425.2 425.2;" xml:space="preserve">
<style type="text/css">
	.st0{fill:#231815;}
	.st1{fill:#58595B;}
	.st2{fill:#E6E7E8;}
	.st3{fill:#414042;}
	.st4{fill:#FFFFFF;}
	.st5{fill:#D83A46;}
	.st6{fill:#6CD1F4;}
	.st7{fill:#D1D3D4;}
	.st8{fill:#BFBA9F;}
	.st9{fill:#BCBEC0;}
	.st10{fill:#7BA696;}
	.st11{fill:#2D5873;}
</style>
<path class="st0" d="M281,327.4c7.8,0,14.1-6.3,14.1-14.1v-40.6c0-7.8-6.3-14.1-14.1-14.1H38.6c-8.8,0-16-7.2-16-16v-47.1
	c0-8.8,7.2-16,16-16h143c7.8,0,14.1-6.3,14.1-14.1V56.6c0-7.8-6.3-14.1-14.1-14.1h-80.7l-0.1-1.5l80.8-0.4c8.8,0,16,7.2,16,16v108.8
	c0,8.8-7.2,16-16,16h-143c-7.8,0-14.1,6.3-14.1,14.1v47.1c0,7.8,6.3,14.1,14.1,14.1H281c8.8,0,16,7.2,16,16v40.6c0,8.8-7.2,16-16,16
	"/>
<polyline class="st1" points="99.8,41.6 99.8,32 159,32 159,62.4 99.8,62.4 99.8,41.6 "/>
<g>
	<g>
		<rect x="289.4" y="287.4" class="st2" width="113.9" height="72.8"/>
		<path class="st3" d="M404.5,361.3H288.2v-75.1h116.3V361.3z M290.6,359h111.5v-70.4H290.6V359z"/>
	</g>
	<g>
		<rect x="302.3" y="294.4" class="st4" width="93.3" height="58.5"/>
		<path class="st3" d="M396.8,354h-95.7v-60.8h95.7V354z M303.5,351.6h91v-56.1h-91V351.6z"/>
	</g>
	<rect x="294.6" y="315.4" class="st3" width="2.4" height="15.9"/>
</g>
<g>
	<g>
		<rect x="272.2" y="323.8" class="st2" width="47.2" height="70.9"/>
		<path class="st3" d="M271,327.4v-4.7h49.5V396H271V327.4 M273.4,393.6h44.8V325h-44.8V393.6z"/>
	</g>
	<g>
		<g>
			<rect x="278.9" y="330.9" class="st4" width="33.4" height="50.5"/>
			<path class="st3" d="M313.5,382.7h-35.8v-52.9h35.8V382.7z M280.1,380.3h31v-48.1h-31V380.3z"/>
		</g>
	</g>
	<rect x="288.1" y="386.8" class="st3" width="13.3" height="2.4"/>
</g>
<rect x="295.3" y="349.5" transform="matrix(0.7071 -0.7071 0.7071 0.7071 -160.0541 315.6246)" class="st5" width="11.2" height="3"/>
<path class="st3" d="M303.9,346.8l1.3,1.3l-7.2,7.2l-1.3-1.3L303.9,346.8L303.9,346.8z M303.9,345.2l-0.8,0.8l-7.2,7.2l-0.8,0.8
	l0.8,0.8l1.3,1.3l0.8,0.8l0.8-0.8l7.2-7.2l0.8-0.8l-0.8-0.8l-1.3-1.3L303.9,345.2L303.9,345.2z"/>
<polygon class="st5" points="298.2,344.2 307.8,344.2 307.8,353.7 "/>
<path class="st3" d="M299.6,344.7l7.6,0v7.6L299.6,344.7L299.6,344.7z M296.9,343.6l1.9,1.9l7.6,7.6l1.9,1.9v-2.7v-7.6v-1.1l-1.1,0
	l-7.6,0H296.9L296.9,343.6z"/>
<rect x="284.9" y="359.9" transform="matrix(0.7071 -0.7071 0.7071 0.7071 -170.4413 311.3222)" class="st5" width="11.2" height="3"/>
<path class="st3" d="M293.5,357.1l1.3,1.3l-7.2,7.2l-1.3-1.3L293.5,357.1L293.5,357.1z M293.5,355.6l-0.8,0.8l-7.2,7.2l-0.8,0.8
	l0.8,0.8l1.3,1.3l0.8,0.8l0.8-0.8l7.2-7.2l0.8-0.8l-0.8-0.8l-1.3-1.3L293.5,355.6L293.5,355.6z"/>
<polygon class="st5" points="283.7,368.2 283.7,358.8 293.3,368.2 "/>
<path class="st3" d="M284.3,360.1l7.6,7.6h-7.6L284.3,360.1L284.3,360.1z M283.2,357.4v2.7l0,7.6v1.1h1.1h7.6h2.7l-1.9-1.9l-7.6-7.6
	L283.2,357.4L283.2,357.4z"/>
<rect x="289.1" y="345.4" transform="matrix(0.707 -0.7072 0.7072 0.707 -163.103 308.3488)" class="st5" width="3" height="11.2"/>
<path class="st3" d="M287.7,346.8l7.2,7.2l-1.3,1.3l-7.2-7.2L287.7,346.8L287.7,346.8z M287.7,345.2l-0.8,0.8l-1.3,1.3l-0.8,0.8
	l0.8,0.8l7.2,7.2l0.8,0.8l0.8-0.8l1.3-1.3l0.8-0.8l-0.8-0.8l-7.2-7.2L287.7,345.2L287.7,345.2z"/>
<polygon class="st5" points="283.7,344.2 293.3,344.2 283.7,353.7 "/>
<path class="st3" d="M291.9,344.7l-7.6,7.6v-7.6H291.9L291.9,344.7z M294.6,343.6h-2.7h-7.6h-1.1v1.1v7.6v2.7l1.9-1.9l7.6-7.6
	L294.6,343.6L294.6,343.6z"/>
<rect x="299.4" y="355.8" transform="matrix(0.7071 -0.7071 0.7071 0.7071 -167.3978 318.6559)" class="st5" width="3" height="11.2"/>
<path class="st3" d="M298,357.1l7.2,7.2l-1.3,1.3l-7.2-7.2L298,357.1L298,357.1z M298,355.6l-0.8,0.8l-1.3,1.3l-0.8,0.8l0.8,0.8
	l7.2,7.2l0.8,0.8l0.8-0.8l1.3-1.3l0.8-0.8l-0.8-0.8l-7.2-7.2L298,355.6L298,355.6z"/>
<polygon class="st5" points="298.2,368.2 307.8,358.8 307.8,368.2 "/>
<path class="st3" d="M307.2,360.1v7.6h-7.6L307.2,360.1L307.2,360.1z M308.4,357.4l-1.9,1.9l-7.6,7.6l-2,1.9h2.7h7.6h1.1v-1.1v-7.6
	V357.4L308.4,357.4z"/>
<rect x="346.4" y="315" transform="matrix(0.7071 -0.7071 0.7071 0.7071 -120.46 342.6495)" class="st5" width="14" height="3.5"/>
<path class="st3" d="M357.1,311.3l1.7,1.7l-9.1,9.1l-1.7-1.7L357.1,311.3L357.1,311.3z M357.1,309.7l-0.8,0.8l-9.1,9.1l-0.8,0.8
	l0.8,0.8l1.7,1.7l0.8,0.8l0.8-0.8l9.1-9.1l0.8-0.8l-0.8-0.8l-1.7-1.7L357.1,309.7L357.1,309.7z"/>
<polygon class="st5" points="350.3,308.2 361.9,308.2 361.9,319.8 "/>
<path class="st3" d="M351.6,308.7l9.7,0v9.7L351.6,308.7L351.6,308.7z M348.9,307.6l1.9,1.9l9.7,9.7l1.9,1.9v-2.7v-9.7v-1.1h-1.1
	l-9.7,0H348.9L348.9,307.6z"/>
<rect x="333.2" y="328.2" transform="matrix(0.7071 -0.7071 0.7071 0.7071 -133.6817 337.1728)" class="st5" width="14" height="3.5"/>
<path class="st3" d="M343.9,324.5l1.7,1.7l-9.1,9.1l-1.7-1.7L343.9,324.5L343.9,324.5z M343.9,323l-0.8,0.8l-9.1,9.1l-0.8,0.8
	l0.8,0.8l1.7,1.7l0.8,0.8l0.8-0.8l9.1-9.1l0.8-0.8l-0.8-0.8l-1.7-1.7L343.9,323L343.9,323z"/>
<polygon class="st5" points="331.6,338.5 331.6,327 343.2,338.5 "/>
<path class="st3" d="M332.2,328.3l9.7,9.6h-9.7L332.2,328.3L332.2,328.3z M331.1,325.6l0,2.7l0,9.6v1.1h1.1h9.7h2.7l-1.9-1.9
	l-9.7-9.6L331.1,325.6L331.1,325.6z"/>
<rect x="338.4" y="309.7" transform="matrix(0.7071 -0.7072 0.7072 0.7071 -124.3314 333.3351)" class="st5" width="3.5" height="14"/>
<path class="st3" d="M336.5,311.3l9.1,9.1l-1.7,1.7l-9.1-9.1L336.5,311.3L336.5,311.3z M336.5,309.7l-0.8,0.8l-1.7,1.7l-0.8,0.8
	l0.8,0.8l9.1,9.1l0.8,0.8l0.8-0.8l1.7-1.7l0.8-0.8l-0.8-0.8l-9.1-9.1L336.5,309.7L336.5,309.7z"/>
<polygon class="st5" points="331.6,308.2 343.2,308.2 331.6,319.8 "/>
<path class="st3" d="M341.9,308.7l-9.7,9.7v-9.7H341.9L341.9,308.7z M344.6,307.6h-2.7h-9.7h-1.1v1.1v9.7v2.7l1.9-1.9l9.7-9.7
	L344.6,307.6L344.6,307.6z"/>
<rect x="351.6" y="323" transform="matrix(0.7071 -0.7071 0.7071 0.7071 -129.8091 346.522)" class="st5" width="3.5" height="14"/>
<path class="st3" d="M349.7,324.5l9.1,9.1l-1.7,1.7l-9.1-9.1L349.7,324.5L349.7,324.5z M349.7,323l-0.8,0.8l-1.7,1.7l-0.8,0.8
	l0.8,0.8l9.1,9.1l0.8,0.8l0.8-0.8l1.7-1.7l0.8-0.8l-0.8-0.8l-9.1-9.1L349.7,323L349.7,323z"/>
<polygon class="st5" points="350.3,338.5 361.9,327 361.9,338.5 "/>
<path class="st3" d="M361.4,328.3v9.6h-9.7L361.4,328.3L361.4,328.3z M362.5,325.6l-1.9,1.9l-9.7,9.6l-2,1.9h2.7h9.7h1.1v-1.1v-9.6
	V325.6L362.5,325.6z"/>
<g>
	<path class="st6" d="M109.8,47.7l-1.4,0.3v0.1l1.4,0.3l9.3,3.8v3.3l-13.6-6.3v-2.5l13.6-6.3v3.3L109.8,47.7z"/>
	<path class="st6" d="M124.7,59.1h-2.8L132,32.7h2.8L124.7,59.1z"/>
	<path class="st6" d="M138.1,43.7v-3.3l14.3,6.3v2.5l-14.3,6.3v-3.3l10-4l1.4-0.3v-0.1l-1.4-0.3L138.1,43.7z"/>
</g>
<rect x="65.8" y="90.4" class="st7" width="204.5" height="167.3"/>
<path class="st3" d="M272.2,259.5H63.9v-171h208.3V259.5z M67.7,255.8h200.8V92.2H67.7V255.8z"/>
<rect x="65.8" y="90.4" class="st8" width="204.5" height="14.7"/>
<path class="st3" d="M272.2,107H63.9V88.5h208.3V107z M67.7,103.2h200.8v-11H67.7V103.2z"/>
<path class="st5" d="M77.1,97.7c0,1.4-1.1,2.6-2.6,2.6S72,99.1,72,97.7c0-1.4,1.1-2.6,2.6-2.6S77.1,96.3,77.1,97.7z"/>
<path class="st9" d="M84.8,97.7c0,1.4-1.1,2.6-2.6,2.6c-1.4,0-2.6-1.1-2.6-2.6c0-1.4,1.1-2.6,2.6-2.6C83.7,95.2,84.8,96.3,84.8,97.7
	z"/>
<path class="st10" d="M92.5,97.7c0,1.4-1.1,2.6-2.6,2.6c-1.4,0-2.6-1.1-2.6-2.6c0-1.4,1.1-2.6,2.6-2.6
	C91.3,95.2,92.5,96.3,92.5,97.7z"/>
<rect x="86.4" y="124.8" class="st7" width="162.1" height="111.3"/>
<path class="st3" d="M251,237.9H85.1V122.9H251V237.9z M88.9,234.2h158.4V126.6H88.9V234.2z"/>
<rect x="99.8" y="137.6" class="st11" width="110" height="11"/>
<path class="st3" d="M211,149.9H98.4v-13.7H211V149.9z M101.1,147.3h107.3v-8.4H101.1V147.3z"/>
<rect x="216.5" y="137.6" class="st10" width="20.3" height="11"/>
<path class="st3" d="M238.1,149.9h-22.9v-13.7h22.9V149.9z M217.8,147.3h17.7v-8.4h-17.7V147.3z"/>
<rect x="99.8" y="193.2" class="st11" width="56.3" height="11"/>
<path class="st3" d="M157.4,205.6h-59v-13.7h59V205.6z M101.1,203h53.7v-8.4h-53.7V203z"/>
<rect x="162.9" y="193.2" class="st7" width="73.9" height="11"/>
<path class="st3" d="M238.1,205.6h-76.6v-13.7h76.6V205.6z M164.2,203h71.3v-8.4h-71.3V203z"/>
<rect x="99.8" y="156.2" class="st5" width="46.4" height="11"/>
<path class="st3" d="M147.5,168.6H98.4v-13.7h49.1V168.6z M101.1,165.9h43.8v-8.4h-43.8V165.9z"/>
<rect x="152.8" y="156.2" class="st10" width="29.5" height="11"/>
<path class="st3" d="M183.6,168.6h-32.1v-13.7h32.1V168.6z M154.1,165.9H181v-8.4h-26.9V165.9z"/>
<rect x="189.1" y="156.2" class="st11" width="47.7" height="11"/>
<path class="st3" d="M238.1,168.6h-50.4v-13.7h50.4V168.6z M190.4,165.9h45.1v-8.4h-45.1V165.9z"/>
<rect x="99.8" y="212.8" class="st11" width="28.2" height="11"/>
<path class="st3" d="M129.2,225.2H98.4v-13.7h30.8V225.2z M101.1,222.5h25.5v-8.4h-25.5V222.5z"/>
<rect x="134.5" y="212.8" class="st10" width="29.5" height="11"/>
<path class="st3" d="M165.3,225.2h-32.1v-13.7h32.1V225.2z M135.8,222.5h26.9v-8.4h-26.9V222.5z"/>
<rect x="170.8" y="212.8" class="st5" width="47.7" height="11"/>
<path class="st3" d="M219.8,225.2h-50.4v-13.7h50.4V225.2z M172.1,222.5h45.1v-8.4h-45.1V222.5z"/>
<rect x="99.8" y="174.9" class="st7" width="36.8" height="11"/>
<path class="st3" d="M137.8,187.3H98.4v-13.7h39.4V187.3z M101.1,184.7h34.1v-8.4h-34.1V184.7z"/>
<rect x="142.8" y="174.9" class="st10" width="56.6" height="11"/>
<path class="st3" d="M200.8,187.3h-59.2v-13.7h59.2V187.3z M144.2,184.7h54v-8.4h-54V184.7z"/>
<circle class="st8" cx="118.5" cy="257.6" r="33.3"/>
<path class="st3" d="M118.5,292.9c-19.4,0-35.2-15.8-35.2-35.2s15.8-35.2,35.2-35.2s35.2,15.8,35.2,35.2S138,292.9,118.5,292.9z
	 M118.5,226.2c-17.4,0-31.5,14.1-31.5,31.5s14.1,31.5,31.5,31.5S150,275,150,257.6S135.9,226.2,118.5,226.2z"/>
<g>
	<path class="st3" d="M96.8,254.8c0.4-0.7,0.9-1.3,1.6-1.7c0.7-0.4,1.4-0.6,2.3-0.6c1.3,0,2.2,0.4,2.9,1.2c0.7,0.8,1,2,1,3.6v7.3
		h-1.3v-7.4c0-1.3-0.3-2.2-0.8-2.8c-0.5-0.6-1.2-0.8-2.1-0.8c-0.9,0-1.7,0.2-2.3,0.7c-0.6,0.5-1.1,1.1-1.3,1.9v8.4h-1.3v-17.2h1.3
		V254.8z"/>
	<path class="st3" d="M110.1,249.7v3.1h2.6v1.1h-2.6v7.8c0,0.8,0.1,1.3,0.4,1.7c0.3,0.3,0.7,0.5,1.1,0.5c0.2,0,0.4,0,0.6,0
		c0.2,0,0.4,0,0.7-0.1l0.2,1c-0.2,0.1-0.5,0.2-0.8,0.2c-0.3,0.1-0.6,0.1-0.9,0.1c-0.8,0-1.5-0.3-2-0.8c-0.5-0.5-0.7-1.4-0.7-2.5
		v-7.8h-2.1v-1.1h2.1v-3.1H110.1z"/>
	<path class="st3" d="M116.6,252.7l0.1,2c0.4-0.7,0.9-1.2,1.5-1.6c0.6-0.4,1.4-0.6,2.3-0.6c0.9,0,1.7,0.2,2.3,0.7
		c0.6,0.4,1.1,1.1,1.3,2c0.4-0.8,0.9-1.5,1.5-2c0.7-0.5,1.5-0.7,2.4-0.7c1.3,0,2.3,0.4,2.9,1.3c0.7,0.8,1,2.2,1,3.9v7h-1.3v-7
		c0-1.5-0.3-2.5-0.8-3.1c-0.5-0.6-1.2-0.9-2.2-0.9c-1,0-1.8,0.3-2.4,1c-0.6,0.6-0.9,1.5-1,2.5c0,0.1,0,0.1,0,0.2c0,0.1,0,0.2,0,0.2
		v7.2h-1.3v-7c0-1.4-0.3-2.5-0.8-3.1c-0.5-0.6-1.2-0.9-2.2-0.9c-0.9,0-1.7,0.2-2.2,0.7c-0.5,0.5-0.9,1.1-1.2,1.9v8.4h-1.3v-11.9
		H116.6z"/>
	<path class="st3" d="M137,264.6h-1.3v-17.2h1.3V264.6z"/>
</g>
<circle class="st8" cx="168.2" cy="257.6" r="33.3"/>
<path class="st3" d="M168.2,292.9c-19.4,0-35.2-15.8-35.2-35.2s15.8-35.2,35.2-35.2s35.2,15.8,35.2,35.2S187.7,292.9,168.2,292.9z
	 M168.2,226.2c-17.4,0-31.5,14.1-31.5,31.5s14.1,31.5,31.5,31.5s31.5-14.1,31.5-31.5S185.6,226.2,168.2,226.2z"/>
<circle class="st8" cx="217.9" cy="257.6" r="33.3"/>
<path class="st3" d="M217.9,292.9c-19.4,0-35.2-15.8-35.2-35.2s15.8-35.2,35.2-35.2s35.2,15.8,35.2,35.2S237.4,292.9,217.9,292.9z
	 M217.9,226.2c-17.4,0-31.5,14.1-31.5,31.5s14.1,31.5,31.5,31.5c17.4,0,31.5-14.1,31.5-31.5S235.3,226.2,217.9,226.2z"/>
<g>
	<path class="st3" d="M159.3,260.8L159.3,260.8c-0.1,1.7-0.7,2.9-1.7,3.9c-1,0.9-2.4,1.4-4,1.4c-1.8,0-3.2-0.6-4.3-1.9
		c-1.1-1.3-1.6-3-1.6-5v-2.6c0-2,0.5-3.7,1.6-5c1.1-1.3,2.5-1.9,4.3-1.9c1.7,0,3.1,0.5,4.1,1.4c1,0.9,1.6,2.2,1.7,3.8l0,0.1H158
		c-0.2-1.3-0.6-2.3-1.4-3.1s-1.8-1.1-3.1-1.1c-1.4,0-2.5,0.5-3.4,1.6c-0.8,1.1-1.3,2.5-1.3,4.2v2.6c0,1.7,0.4,3.1,1.3,4.2
		c0.8,1.1,2,1.6,3.4,1.6c1.4,0,2.4-0.3,3.1-1c0.7-0.7,1.2-1.7,1.4-3.1H159.3z"/>
	<path class="st3" d="M171.9,261.8c0-0.9-0.3-1.6-1-2.1c-0.7-0.6-1.8-1-3.4-1.5c-1.8-0.4-3.1-1-4-1.7s-1.4-1.7-1.4-2.9
		c0-1.2,0.5-2.2,1.5-3c1-0.8,2.3-1.2,3.9-1.2c1.7,0,3,0.5,4,1.4c1,0.9,1.5,2,1.5,3.4l0,0.1h-1.2c0-1.1-0.4-2-1.1-2.6
		c-0.8-0.7-1.8-1-3.1-1c-1.3,0-2.3,0.3-3,0.9c-0.7,0.6-1.1,1.3-1.1,2.1c0,0.8,0.3,1.5,1,2c0.7,0.5,1.8,1,3.5,1.4
		c1.7,0.4,3,1,3.9,1.8c0.9,0.7,1.3,1.7,1.3,3c0,1.3-0.5,2.3-1.6,3.1c-1,0.8-2.4,1.1-4,1.1c-1.6,0-3-0.4-4.2-1.2s-1.8-2-1.7-3.5
		l0-0.1h1.2c0,1.2,0.5,2.2,1.4,2.8c0.9,0.6,2,0.9,3.3,0.9c1.3,0,2.3-0.3,3.1-0.8C171.5,263.5,171.9,262.7,171.9,261.8z"/>
	<path class="st3" d="M185.4,261.8c0-0.9-0.3-1.6-1-2.1c-0.7-0.6-1.8-1-3.4-1.5c-1.8-0.4-3.1-1-4-1.7c-0.9-0.7-1.4-1.7-1.4-2.9
		c0-1.2,0.5-2.2,1.5-3c1-0.8,2.3-1.2,3.9-1.2c1.7,0,3,0.5,4,1.4c1,0.9,1.5,2,1.5,3.4l0,0.1h-1.2c0-1.1-0.4-2-1.1-2.6
		c-0.8-0.7-1.8-1-3.1-1c-1.3,0-2.3,0.3-3,0.9c-0.7,0.6-1.1,1.3-1.1,2.1c0,0.8,0.3,1.5,1,2c0.7,0.5,1.8,1,3.5,1.4
		c1.7,0.4,3,1,3.9,1.8c0.9,0.7,1.3,1.7,1.3,3c0,1.3-0.5,2.3-1.6,3.1c-1,0.8-2.4,1.1-4,1.1c-1.6,0-3-0.4-4.2-1.2
		c-1.2-0.8-1.8-2-1.7-3.5l0-0.1h1.2c0,1.2,0.5,2.2,1.4,2.8c0.9,0.6,2,0.9,3.3,0.9c1.3,0,2.3-0.3,3.1-0.8
		C185,263.5,185.4,262.7,185.4,261.8z"/>
</g>
<g>
	<path class="st3" d="M210.7,249.7h1.3v11.5c0,1.5-0.4,2.6-1.3,3.5c-0.9,0.9-2,1.3-3.4,1.3c-1.5,0-2.7-0.4-3.6-1.2
		c-0.9-0.8-1.3-1.9-1.3-3.4l0-0.1h1.2c0,1.2,0.3,2,0.9,2.6c0.6,0.6,1.5,0.9,2.6,0.9c1,0,1.8-0.3,2.4-1c0.6-0.7,0.9-1.6,0.9-2.7
		V249.7z"/>
	<path class="st3" d="M225.3,261.8c0-0.9-0.3-1.6-1-2.1c-0.7-0.6-1.8-1-3.4-1.5c-1.8-0.4-3.1-1-4-1.7c-0.9-0.7-1.4-1.7-1.4-2.9
		c0-1.2,0.5-2.2,1.5-3c1-0.8,2.3-1.2,3.9-1.2c1.7,0,3,0.5,4,1.4c1,0.9,1.5,2,1.5,3.4l0,0.1h-1.2c0-1.1-0.4-2-1.1-2.6
		c-0.8-0.7-1.8-1-3.1-1c-1.3,0-2.3,0.3-3,0.9c-0.7,0.6-1.1,1.3-1.1,2.1c0,0.8,0.3,1.5,1,2c0.7,0.5,1.8,1,3.5,1.4
		c1.7,0.4,3,1,3.9,1.8c0.9,0.7,1.3,1.7,1.3,3c0,1.3-0.5,2.3-1.6,3.1c-1,0.8-2.4,1.1-4,1.1c-1.6,0-3-0.4-4.2-1.2
		c-1.2-0.8-1.8-2-1.7-3.5l0-0.1h1.2c0,1.2,0.5,2.2,1.4,2.8c0.9,0.6,2,0.9,3.3,0.9c1.3,0,2.3-0.3,3.1-0.8
		C224.9,263.5,225.3,262.7,225.3,261.8z"/>
</g>
</svg>
