<?xml version="1.0" encoding="utf-8"?>
<!-- Generator: Adobe Illustrator 22.0.1, SVG Export Plug-In . SVG Version: 6.00 Build 0)  -->
<svg version="1.1" id="圖層_1" xmlns="http://www.w3.org/2000/svg" xmlns:xlink="http://www.w3.org/1999/xlink" x="0px" y="0px"
	 viewBox="0 0 425.2 425.2" style="enable-background:new 0 0 425.2 425.2;" xml:space="preserve">
<style type="text/css">
	.st0{fill:#00C5C2;}
	.st1{fill:#007877;}
</style>
<path class="st0" d="M347.1,87.9v4.5h1v1.1h-3.2v-1.1h1v-3.2h-1v-0.8l1.4-0.4H347.1z"/>
<path class="st0" d="M71.3,127.3c0-0.3,0.1-0.6,0.2-0.7c0.2-0.2,0.5-0.2,0.9-0.2h0.9c0.5,0,0.8,0.1,0.9,0.2c0.2,0.2,0.2,0.4,0.2,0.7
	v3.7c0,0.3-0.1,0.6-0.2,0.7c-0.2,0.2-0.5,0.2-0.9,0.2h-0.9c-0.4,0-0.7-0.1-0.9-0.2c-0.2-0.2-0.2-0.4-0.2-0.7V127.3z M72.5,130.7
	c0,0.1,0,0.1,0.1,0.1h0.4c0.1,0,0.1,0,0.1-0.1v-3.1c0-0.1,0-0.1-0.1-0.1h-0.4c-0.1,0-0.1,0-0.1,0.1V130.7z"/>
<path class="st0" d="M82.2,94.6c0-0.3,0.1-0.6,0.2-0.7c0.2-0.2,0.5-0.2,0.9-0.2h0.9c0.5,0,0.8,0.1,0.9,0.2c0.2,0.2,0.2,0.4,0.2,0.7
	v3.7c0,0.3-0.1,0.6-0.2,0.7c-0.2,0.2-0.5,0.2-0.9,0.2h-0.9c-0.4,0-0.8-0.1-0.9-0.2c-0.2-0.2-0.2-0.4-0.2-0.7V94.6z M83.4,98
	c0,0.1,0,0.1,0.1,0.1H84c0.1,0,0.1,0,0.1-0.1v-3.1c0-0.1,0-0.1-0.1-0.1h-0.4c-0.1,0-0.1,0-0.1,0.1V98z"/>
<path class="st0" d="M333.3,74.7v4.5h1v1.1H331v-1.1h1V76h-1v-0.8l1.4-0.4H333.3z"/>
<path class="st0" d="M337.5,116.6v4.5h1v1.1h-3.2v-1.1h1v-3.2h-1v-0.8l1.4-0.4H337.5z"/>
<path class="st0" d="M341.7,136.3c0-0.3,0.1-0.6,0.2-0.7c0.2-0.2,0.5-0.2,0.9-0.2h0.9c0.5,0,0.8,0.1,0.9,0.2
	c0.2,0.2,0.2,0.4,0.2,0.7v3.7c0,0.3-0.1,0.6-0.2,0.7c-0.2,0.2-0.5,0.2-0.9,0.2h-0.9c-0.4,0-0.7-0.1-0.9-0.2
	c-0.2-0.2-0.2-0.4-0.2-0.7V136.3z M342.9,139.7c0,0.1,0,0.1,0.1,0.1h0.4c0.1,0,0.1,0,0.1-0.1v-3.1c0-0.1,0-0.1-0.1-0.1h-0.4
	c-0.1,0-0.1,0-0.1,0.1V139.7z"/>
<path class="st0" d="M69.6,157.9c0-0.3,0.1-0.6,0.2-0.7c0.2-0.2,0.5-0.2,0.9-0.2h0.9c0.5,0,0.8,0.1,0.9,0.2c0.2,0.2,0.2,0.4,0.2,0.7
	v3.7c0,0.3-0.1,0.6-0.2,0.7c-0.2,0.2-0.5,0.2-0.9,0.2h-0.9c-0.4,0-0.8-0.1-0.9-0.2c-0.2-0.2-0.2-0.4-0.2-0.7V157.9z M70.9,161.3
	c0,0.1,0,0.1,0.1,0.1h0.4c0.1,0,0.1,0,0.1-0.1v-3.1c0-0.1,0-0.1-0.1-0.1H71c-0.1,0-0.1,0-0.1,0.1V161.3z"/>
<path class="st0" d="M80.6,147.8v4.5h1v1.1h-3.2v-1.1h1v-3.2h-1v-0.8l1.4-0.4H80.6z"/>
<path class="st0" d="M87.6,132.9c0-0.3,0.1-0.6,0.2-0.7c0.2-0.2,0.5-0.2,0.9-0.2h0.9c0.5,0,0.8,0.1,0.9,0.2c0.2,0.2,0.2,0.4,0.2,0.7
	v3.7c0,0.3-0.1,0.6-0.2,0.7c-0.2,0.2-0.5,0.2-0.9,0.2h-0.9c-0.4,0-0.8-0.1-0.9-0.2c-0.2-0.2-0.2-0.4-0.2-0.7V132.9z M88.9,136.3
	c0,0.1,0,0.1,0.1,0.1h0.4c0.1,0,0.1,0,0.1-0.1v-3.1c0-0.1,0-0.1-0.1-0.1H89c-0.1,0-0.1,0-0.1,0.1V136.3z"/>
<path class="st0" d="M98.8,97.3c0-0.3,0.1-0.6,0.2-0.7c0.2-0.2,0.5-0.2,0.9-0.2h0.9c0.5,0,0.8,0.1,0.9,0.2c0.2,0.2,0.2,0.4,0.2,0.7
	v3.7c0,0.3-0.1,0.6-0.2,0.7c-0.2,0.2-0.5,0.2-0.9,0.2h-0.9c-0.4,0-0.7-0.1-0.9-0.2c-0.2-0.2-0.2-0.4-0.2-0.7V97.3z M100.1,100.7
	c0,0.1,0,0.1,0.1,0.1h0.4c0.1,0,0.1,0,0.1-0.1v-3.1c0-0.1,0-0.1-0.1-0.1h-0.4c-0.1,0-0.1,0-0.1,0.1V100.7z"/>
<path class="st0" d="M318.2,75.7v4.5h1v1.1H316v-1.1h1v-3.2h-1v-0.8l1.4-0.4H318.2z"/>
<path class="st0" d="M319.7,122.6c0-0.3,0.1-0.6,0.2-0.7c0.2-0.2,0.5-0.2,0.9-0.2h0.9c0.5,0,0.8,0.1,0.9,0.2
	c0.2,0.2,0.2,0.4,0.2,0.7v3.7c0,0.3-0.1,0.6-0.2,0.7c-0.2,0.2-0.5,0.2-0.9,0.2h-0.9c-0.4,0-0.7-0.1-0.9-0.2
	c-0.2-0.2-0.2-0.4-0.2-0.7V122.6z M321,126c0,0.1,0,0.1,0.1,0.1h0.4c0.1,0,0.1,0,0.1-0.1v-3.1c0-0.1,0-0.1-0.1-0.1h-0.4
	c-0.1,0-0.1,0-0.1,0.1V126z"/>
<path class="st0" d="M328.3,141.8v4.5h1v1.1H326v-1.1h1V143h-1v-0.8l1.4-0.4H328.3z"/>
<path class="st0" d="M333.1,153.8c0-0.3,0.1-0.6,0.2-0.7c0.2-0.2,0.5-0.2,0.9-0.2h0.9c0.5,0,0.8,0.1,0.9,0.2
	c0.2,0.2,0.2,0.4,0.2,0.7v3.7c0,0.3-0.1,0.6-0.2,0.7c-0.2,0.2-0.5,0.2-0.9,0.2h-0.9c-0.4,0-0.8-0.1-0.9-0.2
	c-0.2-0.2-0.2-0.4-0.2-0.7V153.8z M334.4,157.3c0,0.1,0,0.1,0.1,0.1h0.4c0.1,0,0.1,0,0.1-0.1v-3.1c0-0.1,0-0.1-0.1-0.1h-0.4
	c-0.1,0-0.1,0-0.1,0.1V157.3z"/>
<path class="st0" d="M105.5,145v4.5h1v1.1h-3.2v-1.1h1v-3.2h-1v-0.8l1.4-0.4H105.5z"/>
<path class="st0" d="M115.8,119.7v4.5h1v1.1h-3.2v-1.1h1v-3.2h-1v-0.8l1.4-0.4H115.8z"/>
<path class="st0" d="M300.5,104.9v4.5h1v1.1h-3.2v-1.1h1v-3.2h-1v-0.8l1.4-0.4H300.5z"/>
<path class="st0" d="M305.6,136.8v4.5h1v1.1h-3.2v-1.1h1v-3.2h-1v-0.8l1.4-0.4H305.6z"/>
<path class="st0" d="M312.2,152.9v4.5h1v1.1H310v-1.1h1v-3.2h-1v-0.8l1.4-0.4H312.2z"/>
<path class="st0" d="M127.5,152.2c0-0.3,0.1-0.6,0.2-0.7c0.2-0.2,0.5-0.2,0.9-0.2h0.9c0.5,0,0.8,0.1,0.9,0.2
	c0.2,0.2,0.2,0.4,0.2,0.7v3.7c0,0.3-0.1,0.6-0.2,0.7c-0.2,0.2-0.5,0.2-0.9,0.2h-0.9c-0.4,0-0.7-0.1-0.9-0.2
	c-0.2-0.2-0.2-0.4-0.2-0.7V152.2z M128.8,155.6c0,0.1,0,0.1,0.1,0.1h0.4c0.1,0,0.1,0,0.1-0.1v-3.1c0-0.1,0-0.1-0.1-0.1h-0.4
	c-0.1,0-0.1,0-0.1,0.1V155.6z"/>
<path class="st0" d="M149.8,85c0-0.3,0.1-0.6,0.2-0.7c0.2-0.2,0.5-0.2,0.9-0.2h0.9c0.5,0,0.8,0.1,0.9,0.2c0.2,0.2,0.2,0.4,0.2,0.7
	v3.7c0,0.3-0.1,0.6-0.2,0.7c-0.2,0.2-0.5,0.2-0.9,0.2H151c-0.4,0-0.8-0.1-0.9-0.2c-0.2-0.2-0.2-0.4-0.2-0.7V85z M151.1,88.4
	c0,0.1,0,0.1,0.1,0.1h0.4c0.1,0,0.1,0,0.1-0.1v-3.1c0-0.1,0-0.1-0.1-0.1h-0.4c-0.1,0-0.1,0-0.1,0.1V88.4z"/>
<path class="st0" d="M274,60.5V65h1V66h-3.2V65h1v-3.2h-1v-0.8l1.4-0.4H274z"/>
<path class="st0" d="M276.3,118.6v4.5h1v1.1H274v-1.1h1v-3.2h-1V119l1.4-0.4H276.3z"/>
<path class="st0" d="M168,155.7c0-0.3,0.1-0.6,0.2-0.7c0.2-0.2,0.5-0.2,0.9-0.2h0.9c0.5,0,0.8,0.1,0.9,0.2c0.2,0.2,0.2,0.4,0.2,0.7
	v3.7c0,0.3-0.1,0.6-0.2,0.7c-0.2,0.2-0.5,0.2-0.9,0.2h-0.9c-0.4,0-0.8-0.1-0.9-0.2c-0.2-0.2-0.2-0.4-0.2-0.7V155.7z M169.2,159.1
	c0,0.1,0,0.1,0.1,0.1h0.4c0.1,0,0.1,0,0.1-0.1v-3.1c0-0.1,0-0.1-0.1-0.1h-0.4c-0.1,0-0.1,0-0.1,0.1V159.1z"/>
<path class="st0" d="M176.9,145c0-0.3,0.1-0.6,0.2-0.7c0.2-0.2,0.5-0.2,0.9-0.2h0.9c0.5,0,0.8,0.1,0.9,0.2c0.2,0.2,0.2,0.4,0.2,0.7
	v3.7c0,0.3-0.1,0.6-0.2,0.7c-0.2,0.2-0.5,0.2-0.9,0.2H178c-0.4,0-0.7-0.1-0.9-0.2c-0.2-0.2-0.2-0.4-0.2-0.7V145z M178.1,148.4
	c0,0.1,0,0.1,0.1,0.1h0.4c0.1,0,0.1,0,0.1-0.1v-3.1c0-0.1,0-0.1-0.1-0.1h-0.4c-0.1,0-0.1,0-0.1,0.1V148.4z"/>
<path class="st0" d="M186,133.6c0-0.3,0.1-0.6,0.2-0.7c0.2-0.2,0.5-0.2,0.9-0.2h0.9c0.5,0,0.8,0.1,0.9,0.2c0.2,0.2,0.2,0.4,0.2,0.7
	v3.7c0,0.3-0.1,0.6-0.2,0.7c-0.2,0.2-0.5,0.2-0.9,0.2h-0.9c-0.4,0-0.7-0.1-0.9-0.2c-0.2-0.2-0.2-0.4-0.2-0.7V133.6z M187.2,137
	c0,0.1,0,0.1,0.1,0.1h0.4c0.1,0,0.1,0,0.1-0.1v-3.1c0-0.1,0-0.1-0.1-0.1h-0.4c-0.1,0-0.1,0-0.1,0.1V137z"/>
<path class="st0" d="M197.2,121.9v4.5h1v1.1H195v-1.1h1v-3.2h-1v-0.8l1.4-0.4H197.2z"/>
<path class="st0" d="M203.6,115.8c0-0.3,0.1-0.6,0.2-0.7c0.2-0.2,0.5-0.2,0.9-0.2h0.9c0.5,0,0.8,0.1,0.9,0.2
	c0.2,0.2,0.2,0.4,0.2,0.7v3.7c0,0.3-0.1,0.6-0.2,0.7c-0.2,0.2-0.5,0.2-0.9,0.2h-0.9c-0.4,0-0.7-0.1-0.9-0.2
	c-0.2-0.2-0.2-0.4-0.2-0.7V115.8z M204.9,119.2c0,0.1,0,0.1,0.1,0.1h0.4c0.1,0,0.1,0,0.1-0.1v-3.1c0-0.1,0-0.1-0.1-0.1H205
	c-0.1,0-0.1,0-0.1,0.1V119.2z"/>
<path class="st0" d="M219.2,119.9c0-0.3,0.1-0.6,0.2-0.7c0.2-0.2,0.5-0.2,0.9-0.2h0.9c0.5,0,0.8,0.1,0.9,0.2
	c0.2,0.2,0.2,0.4,0.2,0.7v3.7c0,0.3-0.1,0.6-0.2,0.7c-0.2,0.2-0.5,0.2-0.9,0.2h-0.9c-0.4,0-0.8-0.1-0.9-0.2
	c-0.2-0.2-0.2-0.4-0.2-0.7V119.9z M220.4,123.3c0,0.1,0,0.1,0.1,0.1h0.4c0.1,0,0.1,0,0.1-0.1v-3.1c0-0.1,0-0.1-0.1-0.1h-0.4
	c-0.1,0-0.1,0-0.1,0.1V123.3z"/>
<path class="st0" d="M226.2,129.5c0-0.3,0.1-0.6,0.2-0.7c0.2-0.2,0.5-0.2,0.9-0.2h0.9c0.5,0,0.8,0.1,0.9,0.2
	c0.2,0.2,0.2,0.4,0.2,0.7v3.7c0,0.3-0.1,0.6-0.2,0.7c-0.2,0.2-0.5,0.2-0.9,0.2h-0.9c-0.4,0-0.7-0.1-0.9-0.2
	c-0.2-0.2-0.2-0.4-0.2-0.7V129.5z M227.4,132.9c0,0.1,0,0.1,0.1,0.1h0.4c0.1,0,0.1,0,0.1-0.1v-3.1c0-0.1,0-0.1-0.1-0.1h-0.4
	c-0.1,0-0.1,0-0.1,0.1V132.9z"/>
<path class="st0" d="M233.1,140.6c0-0.3,0.1-0.6,0.2-0.7c0.2-0.2,0.5-0.2,0.9-0.2h0.9c0.5,0,0.8,0.1,0.9,0.2
	c0.2,0.2,0.2,0.4,0.2,0.7v3.7c0,0.3-0.1,0.6-0.2,0.7c-0.2,0.2-0.5,0.2-0.9,0.2h-0.9c-0.4,0-0.7-0.1-0.9-0.2
	c-0.2-0.2-0.2-0.4-0.2-0.7V140.6z M234.4,144c0,0.1,0,0.1,0.1,0.1h0.4c0.1,0,0.1,0,0.1-0.1v-3.1c0-0.1,0-0.1-0.1-0.1h-0.4
	c-0.1,0-0.1,0-0.1,0.1V144z"/>
<path class="st0" d="M240.1,151.4c0-0.3,0.1-0.6,0.2-0.7c0.2-0.2,0.5-0.2,0.9-0.2h0.9c0.5,0,0.8,0.1,0.9,0.2s0.2,0.4,0.2,0.7v3.7
	c0,0.3-0.1,0.6-0.2,0.7c-0.2,0.2-0.5,0.2-0.9,0.2h-0.9c-0.4,0-0.8-0.1-0.9-0.2c-0.2-0.2-0.2-0.4-0.2-0.7V151.4z M241.3,154.9
	c0,0.1,0,0.1,0.1,0.1h0.4c0.1,0,0.1,0,0.1-0.1v-3.1c0-0.1,0-0.1-0.1-0.1h-0.4c-0.1,0-0.1,0-0.1,0.1V154.9z"/>
<path class="st1" d="M352.4,87.5v5.1h1.1v1.2h-3.7v-1.2h1.1V89h-1.1V88l1.6-0.5H352.4z"/>
<path class="st1" d="M66.3,127c0-0.4,0.1-0.7,0.3-0.8c0.2-0.2,0.5-0.3,1.1-0.3h1.1c0.5,0,0.9,0.1,1.1,0.3c0.2,0.2,0.3,0.5,0.3,0.8
	v4.3c0,0.4-0.1,0.7-0.3,0.8c-0.2,0.2-0.5,0.3-1.1,0.3h-1.1c-0.5,0-0.9-0.1-1.1-0.3c-0.2-0.2-0.3-0.5-0.3-0.8V127z M67.8,131
	c0,0.1,0.1,0.2,0.2,0.2h0.5c0.1,0,0.2-0.1,0.2-0.2v-3.7c0-0.1-0.1-0.2-0.2-0.2H68c-0.1,0-0.2,0.1-0.2,0.2V131z"/>
<path class="st1" d="M98.2,94.2c0-0.4,0.1-0.7,0.3-0.9c0.2-0.2,0.6-0.3,1.1-0.3h1.1c0.6,0,0.9,0.1,1.1,0.3c0.2,0.2,0.3,0.5,0.3,0.9
	v4.5c0,0.4-0.1,0.7-0.3,0.9c-0.2,0.2-0.6,0.3-1.1,0.3h-1.1c-0.5,0-0.9-0.1-1.1-0.3c-0.2-0.2-0.3-0.5-0.3-0.9V94.2z M99.7,98.4
	c0,0.1,0.1,0.2,0.2,0.2h0.5c0.1,0,0.2-0.1,0.2-0.2v-3.8c0-0.1-0.1-0.2-0.2-0.2h-0.5c-0.1,0-0.2,0.1-0.2,0.2V98.4z"/>
<path class="st1" d="M350.2,73.9v5.9h1.3v1.4h-4.2v-1.4h1.3v-4.2h-1.3v-1.1l1.8-0.6H350.2z"/>
<path class="st1" d="M336.6,116.2v5.2h1.1v1.3H334v-1.3h1.1v-3.8H334v-1l1.6-0.5H336.6z"/>
<path class="st1" d="M355.4,136.2c0-0.3,0.1-0.6,0.2-0.8c0.2-0.2,0.5-0.2,1-0.2h1c0.5,0,0.8,0.1,1,0.2c0.2,0.2,0.2,0.4,0.2,0.8v3.9
	c0,0.3-0.1,0.6-0.2,0.8c-0.2,0.2-0.5,0.2-1,0.2h-1c-0.5,0-0.8-0.1-1-0.2c-0.2-0.2-0.2-0.4-0.2-0.8V136.2z M356.8,139.8
	c0,0.1,0.1,0.2,0.2,0.2h0.5c0.1,0,0.2-0.1,0.2-0.2v-3.4c0-0.1-0.1-0.2-0.2-0.2h-0.5c-0.1,0-0.2,0.1-0.2,0.2V139.8z"/>
<path class="st1" d="M94.7,157.7c0-0.4,0.1-0.6,0.3-0.8c0.2-0.2,0.5-0.3,1-0.3h1c0.5,0,0.8,0.1,1,0.3c0.2,0.2,0.3,0.4,0.3,0.8v4
	c0,0.3-0.1,0.6-0.3,0.8c-0.2,0.2-0.5,0.3-1,0.3h-1c-0.5,0-0.8-0.1-1-0.3c-0.2-0.2-0.3-0.4-0.3-0.8V157.7z M96,161.4
	c0,0.1,0.1,0.2,0.2,0.2h0.5c0.1,0,0.2-0.1,0.2-0.2V158c0-0.1-0.1-0.2-0.2-0.2h-0.5c-0.1,0-0.2,0.1-0.2,0.2V161.4z"/>
<path class="st1" d="M99.6,146.5v6.7h1.5v1.6h-4.8v-1.6h1.5v-4.8h-1.5v-1.2l2-0.6H99.6z"/>
<path class="st1" d="M98,132.6c0-0.4,0.1-0.7,0.3-0.8c0.2-0.2,0.5-0.3,1-0.3h1.1c0.5,0,0.9,0.1,1,0.3c0.2,0.2,0.3,0.4,0.3,0.8v4.2
	c0,0.4-0.1,0.6-0.3,0.8c-0.2,0.2-0.5,0.3-1,0.3h-1.1c-0.5,0-0.9-0.1-1-0.3c-0.2-0.2-0.3-0.5-0.3-0.8V132.6z M99.5,136.5
	c0,0.1,0.1,0.2,0.2,0.2h0.5c0.1,0,0.2-0.1,0.2-0.2v-3.6c0-0.1-0.1-0.2-0.2-0.2h-0.5c-0.1,0-0.2,0.1-0.2,0.2V136.5z"/>
<path class="st1" d="M111.8,97.3c0-0.3,0.1-0.6,0.2-0.7c0.2-0.2,0.5-0.2,0.9-0.2h0.9c0.5,0,0.8,0.1,0.9,0.2c0.2,0.2,0.2,0.4,0.2,0.7
	v3.7c0,0.3-0.1,0.6-0.2,0.7c-0.2,0.2-0.5,0.2-0.9,0.2h-0.9c-0.4,0-0.8-0.1-0.9-0.2c-0.2-0.2-0.2-0.4-0.2-0.7V97.3z M113,100.7
	c0,0.1,0,0.1,0.1,0.1h0.4c0.1,0,0.1,0,0.1-0.1v-3.1c0-0.1,0-0.1-0.1-0.1h-0.4c-0.1,0-0.1,0-0.1,0.1V100.7z"/>
<path class="st1" d="M327.7,74.3V81h1.5v1.6h-4.8V81h1.5v-4.9h-1.5v-1.2l2.1-0.6H327.7z"/>
<path class="st1" d="M311.3,122.2c0-0.4,0.1-0.7,0.3-0.9c0.2-0.2,0.6-0.3,1.1-0.3h1.2c0.6,0,1,0.1,1.1,0.3c0.2,0.2,0.3,0.5,0.3,0.9
	v4.6c0,0.4-0.1,0.7-0.3,0.9c-0.2,0.2-0.6,0.3-1.1,0.3h-1.2c-0.6,0-0.9-0.1-1.1-0.3c-0.2-0.2-0.3-0.5-0.3-0.9V122.2z M312.9,126.4
	c0,0.1,0.1,0.2,0.2,0.2h0.6c0.1,0,0.2-0.1,0.2-0.2v-3.9c0-0.1-0.1-0.2-0.2-0.2h-0.6c-0.1,0-0.2,0.1-0.2,0.2V126.4z"/>
<path class="st1" d="M304.6,141.1v5.6h1.2v1.3h-4v-1.3h1.2v-4h-1.2v-1l1.7-0.5H304.6z"/>
<path class="st1" d="M350.6,153.7c0-0.3,0.1-0.6,0.2-0.8c0.2-0.2,0.5-0.2,0.9-0.2h1c0.5,0,0.8,0.1,1,0.2c0.2,0.2,0.2,0.4,0.2,0.8
	v3.9c0,0.3-0.1,0.6-0.2,0.8c-0.2,0.2-0.5,0.2-1,0.2h-1c-0.5,0-0.8-0.1-0.9-0.2c-0.2-0.2-0.2-0.4-0.2-0.8V153.7z M351.9,157.3
	c0,0.1,0.1,0.2,0.2,0.2h0.5c0.1,0,0.2-0.1,0.2-0.2V154c0-0.1-0.1-0.2-0.2-0.2h-0.5c-0.1,0-0.2,0.1-0.2,0.2V157.3z"/>
<path class="st1" d="M95.6,144.1v5.9h1.3v1.4h-4.2V150H94v-4.3h-1.3v-1.1l1.8-0.6H95.6z"/>
<path class="st1" d="M138.8,118.7v6.1h1.3v1.5h-4.4v-1.5h1.3v-4.4h-1.3v-1.1l1.9-0.6H138.8z"/>
<path class="st1" d="M310.9,103.7v6.4h1.4v1.5h-4.6v-1.5h1.4v-4.6h-1.4v-1.2l1.9-0.6H310.9z"/>
<path class="st1" d="M308.6,136v5.8h1.3v1.4h-4.1v-1.4h1.3v-4.2h-1.3v-1.1l1.8-0.6H308.6z"/>
<path class="st1" d="M314.5,152.6v5h1.1v1.2H312v-1.2h1.1V154H312V153l1.5-0.5H314.5z"/>
<path class="st1" d="M143.9,151.4c0-0.5,0.1-0.8,0.3-1c0.2-0.2,0.6-0.3,1.3-0.3h1.3c0.6,0,1.1,0.1,1.3,0.3c0.2,0.2,0.3,0.6,0.3,1
	v5.2c0,0.5-0.1,0.8-0.3,1c-0.2,0.2-0.6,0.3-1.3,0.3h-1.3c-0.6,0-1.1-0.1-1.3-0.3c-0.2-0.2-0.3-0.6-0.3-1V151.4z M145.6,156.3
	c0,0.1,0.1,0.2,0.2,0.2h0.6c0.1,0,0.2-0.1,0.2-0.2v-4.4c0-0.1-0.1-0.2-0.2-0.2h-0.6c-0.1,0-0.2,0.1-0.2,0.2V156.3z"/>
<path class="st1" d="M172.1,84.8c0-0.4,0.1-0.6,0.3-0.8c0.2-0.2,0.5-0.3,1-0.3h1c0.5,0,0.8,0.1,1,0.3c0.2,0.2,0.3,0.4,0.3,0.8v4.1
	c0,0.4-0.1,0.6-0.3,0.8c-0.2,0.2-0.5,0.3-1,0.3h-1c-0.5,0-0.8-0.1-1-0.3c-0.2-0.2-0.3-0.4-0.3-0.8V84.8z M173.5,88.6
	c0,0.1,0.1,0.2,0.2,0.2h0.5c0.1,0,0.2-0.1,0.2-0.2v-3.5c0-0.1-0.1-0.2-0.2-0.2h-0.5c-0.1,0-0.2,0.1-0.2,0.2V88.6z"/>
<path class="st1" d="M282,60.1v5.1h1.1v1.2h-3.6v-1.2h1.1v-3.6h-1.1v-0.9l1.5-0.5H282z"/>
<path class="st1" d="M285.4,117.8v5.7h1.2v1.4h-4v-1.4h1.2v-4.1h-1.2v-1l1.7-0.5H285.4z"/>
<path class="st1" d="M144,154.9c0-0.5,0.1-0.8,0.3-1c0.2-0.2,0.6-0.3,1.3-0.3h1.3c0.6,0,1.1,0.1,1.3,0.3c0.2,0.2,0.3,0.5,0.3,1v5.2
	c0,0.4-0.1,0.8-0.3,1c-0.2,0.2-0.6,0.3-1.3,0.3h-1.3c-0.6,0-1.1-0.1-1.3-0.3c-0.2-0.2-0.3-0.6-0.3-1V154.9z M145.7,159.7
	c0,0.1,0.1,0.2,0.2,0.2h0.6c0.1,0,0.2-0.1,0.2-0.2v-4.4c0-0.1-0.1-0.2-0.2-0.2h-0.6c-0.1,0-0.2,0.1-0.2,0.2V159.7z"/>
<path class="st1" d="M185.7,144.2c0-0.5,0.1-0.8,0.3-1c0.2-0.2,0.7-0.3,1.3-0.3h1.4c0.7,0,1.1,0.1,1.3,0.3c0.2,0.2,0.3,0.6,0.3,1
	v5.4c0,0.5-0.1,0.8-0.3,1c-0.2,0.2-0.7,0.3-1.3,0.3h-1.4c-0.6,0-1.1-0.1-1.3-0.3c-0.2-0.2-0.3-0.6-0.3-1V144.2z M187.5,149.1
	c0,0.1,0.1,0.2,0.2,0.2h0.6c0.1,0,0.2-0.1,0.2-0.2v-4.6c0-0.1-0.1-0.2-0.2-0.2h-0.6c-0.1,0-0.2,0.1-0.2,0.2V149.1z"/>
<path class="st1" d="M189.9,132.7c0-0.5,0.1-0.8,0.3-1c0.2-0.2,0.7-0.3,1.3-0.3h1.4c0.7,0,1.1,0.1,1.3,0.3c0.2,0.2,0.3,0.6,0.3,1
	v5.3c0,0.5-0.1,0.8-0.3,1c-0.2,0.2-0.7,0.3-1.3,0.3h-1.4c-0.6,0-1.1-0.1-1.3-0.3c-0.2-0.2-0.3-0.6-0.3-1V132.7z M191.7,137.7
	c0,0.1,0.1,0.2,0.2,0.2h0.6c0.1,0,0.2-0.1,0.2-0.2v-4.6c0-0.1-0.1-0.2-0.2-0.2h-0.6c-0.1,0-0.2,0.1-0.2,0.2V137.7z"/>
<path class="st1" d="M205.6,121.3v5.4h1.2v1.3h-3.8v-1.3h1.2v-3.9h-1.2v-1l1.6-0.5H205.6z"/>
<path class="st1" d="M186.4,115.6c0-0.4,0.1-0.6,0.3-0.8c0.2-0.2,0.5-0.3,1-0.3h1.1c0.5,0,0.8,0.1,1,0.3c0.2,0.2,0.3,0.4,0.3,0.8
	v4.1c0,0.4-0.1,0.6-0.3,0.8c-0.2,0.2-0.5,0.3-1,0.3h-1.1c-0.5,0-0.8-0.1-1-0.3c-0.2-0.2-0.3-0.4-0.3-0.8V115.6z M187.8,119.4
	c0,0.1,0.1,0.2,0.2,0.2h0.5c0.1,0,0.2-0.1,0.2-0.2v-3.5c0-0.1-0.1-0.2-0.2-0.2H188c-0.1,0-0.2,0.1-0.2,0.2V119.4z"/>
<path class="st1" d="M227.5,119.5c0-0.4,0.1-0.7,0.3-0.9c0.2-0.2,0.6-0.3,1.1-0.3h1.2c0.6,0,0.9,0.1,1.1,0.3
	c0.2,0.2,0.3,0.5,0.3,0.9v4.5c0,0.4-0.1,0.7-0.3,0.9c-0.2,0.2-0.6,0.3-1.1,0.3h-1.2c-0.5,0-0.9-0.1-1.1-0.3
	c-0.2-0.2-0.3-0.5-0.3-0.9V119.5z M229,123.7c0,0.1,0.1,0.2,0.2,0.2h0.5c0.1,0,0.2-0.1,0.2-0.2v-3.9c0-0.1-0.1-0.2-0.2-0.2h-0.5
	c-0.1,0-0.2,0.1-0.2,0.2V123.7z"/>
<path class="st1" d="M236.8,129.4c0-0.3,0.1-0.6,0.2-0.8c0.2-0.2,0.5-0.2,1-0.2h1c0.5,0,0.8,0.1,1,0.2c0.2,0.2,0.2,0.4,0.2,0.8v3.9
	c0,0.3-0.1,0.6-0.2,0.8c-0.2,0.2-0.5,0.2-1,0.2h-1c-0.5,0-0.8-0.1-1-0.2c-0.2-0.2-0.2-0.4-0.2-0.8V129.4z M238.1,133
	c0,0.1,0.1,0.2,0.2,0.2h0.5c0.1,0,0.2-0.1,0.2-0.2v-3.3c0-0.1-0.1-0.2-0.2-0.2h-0.5c-0.1,0-0.2,0.1-0.2,0.2V133z"/>
<path class="st1" d="M233.5,140.5c0-0.4,0.1-0.6,0.3-0.8c0.2-0.2,0.5-0.3,1-0.3h1c0.5,0,0.8,0.1,1,0.3c0.2,0.2,0.3,0.4,0.3,0.8v4
	c0,0.3-0.1,0.6-0.3,0.8c-0.2,0.2-0.5,0.3-1,0.3h-1c-0.5,0-0.8-0.1-1-0.3c-0.2-0.2-0.3-0.4-0.3-0.8V140.5z M234.9,144.2
	c0,0.1,0.1,0.2,0.2,0.2h0.5c0.1,0,0.2-0.1,0.2-0.2v-3.4c0-0.1-0.1-0.2-0.2-0.2H235c-0.1,0-0.2,0.1-0.2,0.2V144.2z"/>
<path class="st1" d="M220,151.1c0-0.4,0.1-0.7,0.3-0.8c0.2-0.2,0.5-0.3,1.1-0.3h1.1c0.5,0,0.9,0.1,1.1,0.3c0.2,0.2,0.3,0.5,0.3,0.8
	v4.3c0,0.4-0.1,0.7-0.3,0.8c-0.2,0.2-0.5,0.3-1.1,0.3h-1.1c-0.5,0-0.9-0.1-1.1-0.3c-0.2-0.2-0.3-0.5-0.3-0.8V151.1z M221.4,155.1
	c0,0.1,0.1,0.2,0.2,0.2h0.5c0.1,0,0.2-0.1,0.2-0.2v-3.7c0-0.1-0.1-0.2-0.2-0.2h-0.5c-0.1,0-0.2,0.1-0.2,0.2V155.1z"/>
</svg>
