<?xml version="1.0" encoding="utf-8"?>
<!-- Generator: Adobe Illustrator 22.0.1, SVG Export Plug-In . SVG Version: 6.00 Build 0)  -->
<svg version="1.1" id="圖層_1" xmlns="http://www.w3.org/2000/svg" xmlns:xlink="http://www.w3.org/1999/xlink" x="0px" y="0px"
	 viewBox="0 0 425.2 425.2" style="enable-background:new 0 0 425.2 425.2;" xml:space="preserve">
<style type="text/css">
	.st0{fill:#00C5C2;}
	.st1{fill:#007877;}
</style>
<path class="st0" d="M77.5,176.2c0-0.3,0.1-0.6,0.2-0.7c0.2-0.2,0.5-0.2,0.9-0.2h0.9c0.5,0,0.8,0.1,0.9,0.2c0.2,0.2,0.2,0.4,0.2,0.7
	v3.7c0,0.3-0.1,0.6-0.2,0.7c-0.2,0.2-0.5,0.2-0.9,0.2h-0.9c-0.4,0-0.8-0.1-0.9-0.2c-0.2-0.2-0.2-0.4-0.2-0.7V176.2z M78.7,179.6
	c0,0.1,0,0.1,0.1,0.1h0.4c0.1,0,0.1,0,0.1-0.1v-3.1c0-0.1,0-0.1-0.1-0.1h-0.4c-0.1,0-0.1,0-0.1,0.1V179.6z"/>
<path class="st0" d="M341,172.1c0-0.3,0.1-0.6,0.2-0.7c0.2-0.2,0.5-0.2,0.9-0.2h0.9c0.5,0,0.8,0.1,0.9,0.2c0.2,0.2,0.2,0.4,0.2,0.7
	v3.7c0,0.3-0.1,0.6-0.2,0.7c-0.2,0.2-0.5,0.2-0.9,0.2h-0.9c-0.4,0-0.8-0.1-0.9-0.2c-0.2-0.2-0.2-0.4-0.2-0.7V172.1z M342.2,175.6
	c0,0.1,0,0.1,0.1,0.1h0.4c0.1,0,0.1,0,0.1-0.1v-3.1c0-0.1,0-0.1-0.1-0.1h-0.4c-0.1,0-0.1,0-0.1,0.1V175.6z"/>
<path class="st0" d="M348.4,179.1c0-0.3,0.1-0.6,0.2-0.7c0.2-0.2,0.5-0.2,0.9-0.2h0.9c0.5,0,0.8,0.1,0.9,0.2
	c0.2,0.2,0.2,0.4,0.2,0.7v3.7c0,0.3-0.1,0.6-0.2,0.7c-0.2,0.2-0.5,0.2-0.9,0.2h-0.9c-0.4,0-0.7-0.1-0.9-0.2
	c-0.2-0.2-0.2-0.4-0.2-0.7V179.1z M349.7,182.5c0,0.1,0,0.1,0.1,0.1h0.4c0.1,0,0.1,0,0.1-0.1v-3.1c0-0.1,0-0.1-0.1-0.1h-0.4
	c-0.1,0-0.1,0-0.1,0.1V182.5z"/>
<path class="st0" d="M79.1,193.5v4.5h1v1.1h-3.2V198h1v-3.2h-1v-0.8l1.4-0.4H79.1z"/>
<path class="st0" d="M85.1,190.8c0-0.3,0.1-0.6,0.2-0.7c0.2-0.2,0.5-0.2,0.9-0.2h0.9c0.5,0,0.8,0.1,0.9,0.2c0.2,0.2,0.2,0.4,0.2,0.7
	v3.7c0,0.3-0.1,0.6-0.2,0.7c-0.2,0.2-0.5,0.2-0.9,0.2h-0.9c-0.4,0-0.8-0.1-0.9-0.2c-0.2-0.2-0.2-0.4-0.2-0.7V190.8z M86.4,194.2
	c0,0.1,0,0.1,0.1,0.1h0.4c0.1,0,0.1,0,0.1-0.1V191c0-0.1,0-0.1-0.1-0.1h-0.4c-0.1,0-0.1,0-0.1,0.1V194.2z"/>
<path class="st0" d="M95.7,184.5v4.5h1v1.1h-3.2V189h1v-3.2h-1v-0.8l1.4-0.4H95.7z"/>
<path class="st0" d="M104.3,176.4v4.5h1v1.1h-3.2v-1.1h1v-3.2h-1v-0.8l1.4-0.4H104.3z"/>
<path class="st0" d="M320.1,171.2v4.5h1v1.1h-3.2v-1.1h1v-3.2h-1v-0.8l1.4-0.4H320.1z"/>
<path class="st0" d="M325,181.8c0-0.3,0.1-0.6,0.2-0.7c0.2-0.2,0.5-0.2,0.9-0.2h0.9c0.5,0,0.8,0.1,0.9,0.2c0.2,0.2,0.2,0.4,0.2,0.7
	v3.7c0,0.3-0.1,0.6-0.2,0.7c-0.2,0.2-0.5,0.2-0.9,0.2h-0.9c-0.4,0-0.8-0.1-0.9-0.2c-0.2-0.2-0.2-0.4-0.2-0.7V181.8z M326.3,185.2
	c0,0.1,0,0.1,0.1,0.1h0.4c0.1,0,0.1,0,0.1-0.1v-3.1c0-0.1,0-0.1-0.1-0.1h-0.4c-0.1,0-0.1,0-0.1,0.1V185.2z"/>
<path class="st0" d="M332.5,188.2c0-0.3,0.1-0.6,0.2-0.7c0.2-0.2,0.5-0.2,0.9-0.2h0.9c0.5,0,0.8,0.1,0.9,0.2
	c0.2,0.2,0.2,0.4,0.2,0.7v3.7c0,0.3-0.1,0.6-0.2,0.7c-0.2,0.2-0.5,0.2-0.9,0.2h-0.9c-0.4,0-0.8-0.1-0.9-0.2
	c-0.2-0.2-0.2-0.4-0.2-0.7V188.2z M333.8,191.6c0,0.1,0,0.1,0.1,0.1h0.4c0.1,0,0.1,0,0.1-0.1v-3.1c0-0.1,0-0.1-0.1-0.1h-0.4
	c-0.1,0-0.1,0-0.1,0.1V191.6z"/>
<path class="st0" d="M342.4,191.7v4.5h1v1.1h-3.2v-1.1h1v-3.2h-1v-0.8l1.4-0.4H342.4z"/>
<path class="st0" d="M350.2,194.7v4.5h1v1.1H348v-1.1h1V196h-1v-0.8l1.4-0.4H350.2z"/>
<path class="st0" d="M76.6,208.1c0-0.3,0.1-0.6,0.2-0.7c0.2-0.2,0.5-0.2,0.9-0.2h0.9c0.5,0,0.8,0.1,0.9,0.2c0.2,0.2,0.2,0.4,0.2,0.7
	v3.7c0,0.3-0.1,0.6-0.2,0.7c-0.2,0.2-0.5,0.2-0.9,0.2h-0.9c-0.4,0-0.8-0.1-0.9-0.2c-0.2-0.2-0.2-0.4-0.2-0.7V208.1z M77.9,211.5
	c0,0.1,0,0.1,0.1,0.1h0.4c0.1,0,0.1,0,0.1-0.1v-3.1c0-0.1,0-0.1-0.1-0.1H78c-0.1,0-0.1,0-0.1,0.1V211.5z"/>
<path class="st0" d="M84.7,206.5c0-0.3,0.1-0.6,0.2-0.7c0.2-0.2,0.5-0.2,0.9-0.2h0.9c0.5,0,0.8,0.1,0.9,0.2c0.2,0.2,0.2,0.4,0.2,0.7
	v3.7c0,0.3-0.1,0.6-0.2,0.7c-0.2,0.2-0.5,0.2-0.9,0.2h-0.9c-0.4,0-0.7-0.1-0.9-0.2c-0.2-0.2-0.2-0.4-0.2-0.7V206.5z M86,209.9
	c0,0.1,0,0.1,0.1,0.1h0.4c0.1,0,0.1,0,0.1-0.1v-3.1c0-0.1,0-0.1-0.1-0.1h-0.4c-0.1,0-0.1,0-0.1,0.1V209.9z"/>
<path class="st0" d="M95.1,203.3v4.5h1v1.1h-3.2v-1.1h1v-3.2h-1v-0.8l1.4-0.4H95.1z"/>
<path class="st0" d="M101,201.2c0-0.3,0.1-0.6,0.2-0.7c0.2-0.2,0.5-0.2,0.9-0.2h0.9c0.5,0,0.8,0.1,0.9,0.2c0.2,0.2,0.2,0.4,0.2,0.7
	v3.7c0,0.3-0.1,0.6-0.2,0.7c-0.2,0.2-0.5,0.2-0.9,0.2h-0.9c-0.4,0-0.8-0.1-0.9-0.2c-0.2-0.2-0.2-0.4-0.2-0.7V201.2z M102.3,204.6
	c0,0.1,0,0.1,0.1,0.1h0.4c0.1,0,0.1,0,0.1-0.1v-3.1c0-0.1,0-0.1-0.1-0.1h-0.4c-0.1,0-0.1,0-0.1,0.1V204.6z"/>
<path class="st0" d="M109.3,197c0-0.3,0.1-0.6,0.2-0.7c0.2-0.2,0.5-0.2,0.9-0.2h0.9c0.5,0,0.8,0.1,0.9,0.2c0.2,0.2,0.2,0.4,0.2,0.7
	v3.7c0,0.3-0.1,0.6-0.2,0.7c-0.2,0.2-0.5,0.2-0.9,0.2h-0.9c-0.4,0-0.8-0.1-0.9-0.2c-0.2-0.2-0.2-0.4-0.2-0.7V197z M110.5,200.4
	c0,0.1,0,0.1,0.1,0.1h0.4c0.1,0,0.1,0,0.1-0.1v-3.1c0-0.1,0-0.1-0.1-0.1h-0.4c-0.1,0-0.1,0-0.1,0.1V200.4z"/>
<path class="st0" d="M120,190.3v4.5h1v1.1h-3.2v-1.1h1v-3.2h-1v-0.8l1.4-0.4H120z"/>
<path class="st0" d="M126.3,183c0-0.3,0.1-0.6,0.2-0.7c0.2-0.2,0.5-0.2,0.9-0.2h0.9c0.5,0,0.8,0.1,0.9,0.2c0.2,0.2,0.2,0.4,0.2,0.7
	v3.7c0,0.3-0.1,0.6-0.2,0.7c-0.2,0.2-0.5,0.2-0.9,0.2h-0.9c-0.4,0-0.7-0.1-0.9-0.2c-0.2-0.2-0.2-0.4-0.2-0.7V183z M127.6,186.4
	c0,0.1,0,0.1,0.1,0.1h0.4c0.1,0,0.1,0,0.1-0.1v-3.1c0-0.1,0-0.1-0.1-0.1h-0.4c-0.1,0-0.1,0-0.1,0.1V186.4z"/>
<path class="st0" d="M294.2,178c0-0.3,0.1-0.6,0.2-0.7c0.2-0.2,0.5-0.2,0.9-0.2h0.9c0.5,0,0.8,0.1,0.9,0.2c0.2,0.2,0.2,0.4,0.2,0.7
	v3.7c0,0.3-0.1,0.6-0.2,0.7c-0.2,0.2-0.5,0.2-0.9,0.2h-0.9c-0.4,0-0.8-0.1-0.9-0.2c-0.2-0.2-0.2-0.4-0.2-0.7V178z M295.5,181.4
	c0,0.1,0,0.1,0.1,0.1h0.4c0.1,0,0.1,0,0.1-0.1v-3.1c0-0.1,0-0.1-0.1-0.1h-0.4c-0.1,0-0.1,0-0.1,0.1V181.4z"/>
<path class="st0" d="M301.4,187.5c0-0.3,0.1-0.6,0.2-0.7c0.2-0.2,0.5-0.2,0.9-0.2h0.9c0.5,0,0.8,0.1,0.9,0.2
	c0.2,0.2,0.2,0.4,0.2,0.7v3.7c0,0.3-0.1,0.6-0.2,0.7c-0.2,0.2-0.5,0.2-0.9,0.2h-0.9c-0.4,0-0.8-0.1-0.9-0.2
	c-0.2-0.2-0.2-0.4-0.2-0.7V187.5z M302.7,191c0,0.1,0,0.1,0.1,0.1h0.4c0.1,0,0.1,0,0.1-0.1v-3.1c0-0.1,0-0.1-0.1-0.1h-0.4
	c-0.1,0-0.1,0-0.1,0.1V191z"/>
<path class="st0" d="M311.1,193.3v4.5h1v1.1h-3.2v-1.1h1v-3.2h-1v-0.8l1.4-0.4H311.1z"/>
<path class="st0" d="M316.5,199.1c0-0.3,0.1-0.6,0.2-0.7c0.2-0.2,0.5-0.2,0.9-0.2h0.9c0.5,0,0.8,0.1,0.9,0.2
	c0.2,0.2,0.2,0.4,0.2,0.7v3.7c0,0.3-0.1,0.6-0.2,0.7c-0.2,0.2-0.5,0.2-0.9,0.2h-0.9c-0.4,0-0.7-0.1-0.9-0.2
	c-0.2-0.2-0.2-0.4-0.2-0.7V199.1z M317.7,202.5c0,0.1,0,0.1,0.1,0.1h0.4c0.1,0,0.1,0,0.1-0.1v-3.1c0-0.1,0-0.1-0.1-0.1h-0.4
	c-0.1,0-0.1,0-0.1,0.1V202.5z"/>
<path class="st0" d="M326.5,201.7v4.5h1v1.1h-3.2v-1.1h1V203h-1v-0.8l1.4-0.4H326.5z"/>
<path class="st0" d="M334.3,204.4v4.5h1v1.1H332v-1.1h1v-3.2h-1v-0.8l1.4-0.4H334.3z"/>
<path class="st0" d="M342.1,206.3v4.5h1v1.1h-3.2v-1.1h1v-3.2h-1v-0.8l1.4-0.4H342.1z"/>
<path class="st0" d="M350,207.7v4.5h1v1.1h-3.2v-1.1h1V209h-1v-0.8l1.4-0.4H350z"/>
<path class="st0" d="M78.7,218.6v4.5h1v1.1h-3.2v-1.1h1v-3.2h-1v-0.8l1.4-0.4H78.7z"/>
<path class="st0" d="M86.8,217.9v4.5h1v1.1h-3.2v-1.1h1v-3.2h-1v-0.8l1.4-0.4H86.8z"/>
<path class="st0" d="M94.8,217v4.5h1v1.1h-3.2v-1.1h1v-3.2h-1v-0.8L94,217H94.8z"/>
<path class="st0" d="M102.9,215.6v4.5h1v1.1h-3.2v-1.1h1v-3.2h-1v-0.8l1.4-0.4H102.9z"/>
<path class="st0" d="M108.7,214.9c0-0.3,0.1-0.6,0.2-0.7c0.2-0.2,0.5-0.2,0.9-0.2h0.9c0.5,0,0.8,0.1,0.9,0.2
	c0.2,0.2,0.2,0.4,0.2,0.7v3.7c0,0.3-0.1,0.6-0.2,0.7c-0.2,0.2-0.5,0.2-0.9,0.2h-0.9c-0.4,0-0.7-0.1-0.9-0.2
	c-0.2-0.2-0.2-0.4-0.2-0.7V214.9z M110,218.3c0,0.1,0,0.1,0.1,0.1h0.4c0.1,0,0.1,0,0.1-0.1v-3.1c0-0.1,0-0.1-0.1-0.1h-0.4
	c-0.1,0-0.1,0-0.1,0.1V218.3z"/>
<path class="st0" d="M119.1,211.8v4.5h1v1.1h-3.2v-1.1h1V213h-1v-0.8l1.4-0.4H119.1z"/>
<path class="st0" d="M127.2,209v4.5h1v1.1H125v-1.1h1v-3.2h-1v-0.8l1.4-0.4H127.2z"/>
<path class="st0" d="M135.5,205.6v4.5h1v1.1h-3.2v-1.1h1v-3.2h-1v-0.8l1.4-0.4H135.5z"/>
<path class="st0" d="M152.2,196.2v4.5h1v1.1h-3.2v-1.1h1v-3.2h-1v-0.8l1.4-0.4H152.2z"/>
<path class="st0" d="M160.6,189.9v4.5h1v1.1h-3.2v-1.1h1v-3.2h-1v-0.8l1.4-0.4H160.6z"/>
<path class="st0" d="M169.3,182.2v4.5h1v1.1h-3.2v-1.1h1v-3.2h-1v-0.8l1.4-0.4H169.3z"/>
<path class="st0" d="M175.8,174c0-0.3,0.1-0.6,0.2-0.7c0.2-0.2,0.5-0.2,0.9-0.2h0.9c0.5,0,0.8,0.1,0.9,0.2c0.2,0.2,0.2,0.4,0.2,0.7
	v3.7c0,0.3-0.1,0.6-0.2,0.7c-0.2,0.2-0.5,0.2-0.9,0.2H177c-0.4,0-0.8-0.1-0.9-0.2c-0.2-0.2-0.2-0.4-0.2-0.7V174z M177.1,177.4
	c0,0.1,0,0.1,0.1,0.1h0.4c0.1,0,0.1,0,0.1-0.1v-3.1c0-0.1,0-0.1-0.1-0.1h-0.4c-0.1,0-0.1,0-0.1,0.1V177.4z"/>
<path class="st0" d="M255.1,179.3c0-0.3,0.1-0.6,0.2-0.7c0.2-0.2,0.5-0.2,0.9-0.2h0.9c0.5,0,0.8,0.1,0.9,0.2
	c0.2,0.2,0.2,0.4,0.2,0.7v3.7c0,0.3-0.1,0.6-0.2,0.7c-0.2,0.2-0.5,0.2-0.9,0.2h-0.9c-0.4,0-0.8-0.1-0.9-0.2
	c-0.2-0.2-0.2-0.4-0.2-0.7V179.3z M256.3,182.7c0,0.1,0,0.1,0.1,0.1h0.4c0.1,0,0.1,0,0.1-0.1v-3.1c0-0.1,0-0.1-0.1-0.1h-0.4
	c-0.1,0-0.1,0-0.1,0.1V182.7z"/>
<path class="st0" d="M262.3,187.5c0-0.3,0.1-0.6,0.2-0.7c0.2-0.2,0.5-0.2,0.9-0.2h0.9c0.5,0,0.8,0.1,0.9,0.2
	c0.2,0.2,0.2,0.4,0.2,0.7v3.7c0,0.3-0.1,0.6-0.2,0.7c-0.2,0.2-0.5,0.2-0.9,0.2h-0.9c-0.4,0-0.7-0.1-0.9-0.2
	c-0.2-0.2-0.2-0.4-0.2-0.7V187.5z M263.6,190.9c0,0.1,0,0.1,0.1,0.1h0.4c0.1,0,0.1,0,0.1-0.1v-3.1c0-0.1,0-0.1-0.1-0.1h-0.4
	c-0.1,0-0.1,0-0.1,0.1V190.9z"/>
<path class="st0" d="M269.8,194.3c0-0.3,0.1-0.6,0.2-0.7c0.2-0.2,0.5-0.2,0.9-0.2h0.9c0.5,0,0.8,0.1,0.9,0.2
	c0.2,0.2,0.2,0.4,0.2,0.7v3.7c0,0.3-0.1,0.6-0.2,0.7c-0.2,0.2-0.5,0.2-0.9,0.2h-0.9c-0.4,0-0.8-0.1-0.9-0.2
	c-0.2-0.2-0.2-0.4-0.2-0.7V194.3z M271,197.7c0,0.1,0,0.1,0.1,0.1h0.4c0.1,0,0.1,0,0.1-0.1v-3.1c0-0.1,0-0.1-0.1-0.1h-0.4
	c-0.1,0-0.1,0-0.1,0.1V197.7z"/>
<path class="st0" d="M277.3,199.9c0-0.3,0.1-0.6,0.2-0.7c0.2-0.2,0.5-0.2,0.9-0.2h0.9c0.5,0,0.8,0.1,0.9,0.2
	c0.2,0.2,0.2,0.4,0.2,0.7v3.7c0,0.3-0.1,0.6-0.2,0.7c-0.2,0.2-0.5,0.2-0.9,0.2h-0.9c-0.4,0-0.8-0.1-0.9-0.2
	c-0.2-0.2-0.2-0.4-0.2-0.7V199.9z M278.5,203.3c0,0.1,0,0.1,0.1,0.1h0.4c0.1,0,0.1,0,0.1-0.1v-3.1c0-0.1,0-0.1-0.1-0.1h-0.4
	c-0.1,0-0.1,0-0.1,0.1V203.3z"/>
<path class="st0" d="M294.8,207.3v4.5h1v1.1h-3.2v-1.1h1v-3.2h-1v-0.8l1.4-0.4H294.8z"/>
<path class="st0" d="M302.6,210.4v4.5h1v1.1h-3.2v-1.1h1v-3.2h-1v-0.8l1.4-0.4H302.6z"/>
<path class="st0" d="M310.4,212.8v4.5h1v1.1h-3.2v-1.1h1v-3.2h-1v-0.8l1.4-0.4H310.4z"/>
<path class="st0" d="M318.3,214.8v4.5h1v1.1H316v-1.1h1V216h-1v-0.8l1.4-0.4H318.3z"/>
<path class="st0" d="M323.9,217.2c0-0.3,0.1-0.6,0.2-0.7c0.2-0.2,0.5-0.2,0.9-0.2h0.9c0.5,0,0.8,0.1,0.9,0.2
	c0.2,0.2,0.2,0.4,0.2,0.7v3.7c0,0.3-0.1,0.6-0.2,0.7c-0.2,0.2-0.5,0.2-0.9,0.2H325c-0.4,0-0.8-0.1-0.9-0.2c-0.2-0.2-0.2-0.4-0.2-0.7
	V217.2z M325.1,220.6c0,0.1,0,0.1,0.1,0.1h0.4c0.1,0,0.1,0,0.1-0.1v-3.1c0-0.1,0-0.1-0.1-0.1h-0.4c-0.1,0-0.1,0-0.1,0.1V220.6z"/>
<path class="st0" d="M331.8,218.4c0-0.3,0.1-0.6,0.2-0.7c0.2-0.2,0.5-0.2,0.9-0.2h0.9c0.5,0,0.8,0.1,0.9,0.2
	c0.2,0.2,0.2,0.4,0.2,0.7v3.7c0,0.3-0.1,0.6-0.2,0.7c-0.2,0.2-0.5,0.2-0.9,0.2h-0.9c-0.4,0-0.8-0.1-0.9-0.2
	c-0.2-0.2-0.2-0.4-0.2-0.7V218.4z M333,221.8c0,0.1,0,0.1,0.1,0.1h0.4c0.1,0,0.1,0,0.1-0.1v-3.1c0-0.1,0-0.1-0.1-0.1h-0.4
	c-0.1,0-0.1,0-0.1,0.1V221.8z"/>
<path class="st0" d="M339.7,219.2c0-0.3,0.1-0.6,0.2-0.7c0.2-0.2,0.5-0.2,0.9-0.2h0.9c0.5,0,0.8,0.1,0.9,0.2
	c0.2,0.2,0.2,0.4,0.2,0.7v3.7c0,0.3-0.1,0.6-0.2,0.7c-0.2,0.2-0.5,0.2-0.9,0.2h-0.9c-0.4,0-0.8-0.1-0.9-0.2
	c-0.2-0.2-0.2-0.4-0.2-0.7V219.2z M340.9,222.6c0,0.1,0,0.1,0.1,0.1h0.4c0.1,0,0.1,0,0.1-0.1v-3.1c0-0.1,0-0.1-0.1-0.1h-0.4
	c-0.1,0-0.1,0-0.1,0.1V222.6z"/>
<path class="st0" d="M347.6,219.8c0-0.3,0.1-0.6,0.2-0.7c0.2-0.2,0.5-0.2,0.9-0.2h0.9c0.5,0,0.8,0.1,0.9,0.2
	c0.2,0.2,0.2,0.4,0.2,0.7v3.7c0,0.3-0.1,0.6-0.2,0.7c-0.2,0.2-0.5,0.2-0.9,0.2h-0.9c-0.4,0-0.7-0.1-0.9-0.2
	c-0.2-0.2-0.2-0.4-0.2-0.7V219.8z M348.9,223.2c0,0.1,0,0.1,0.1,0.1h0.4c0.1,0,0.1,0,0.1-0.1v-3.1c0-0.1,0-0.1-0.1-0.1H349
	c-0.1,0-0.1,0-0.1,0.1V223.2z"/>
<path class="st0" d="M78.7,229v4.5h1v1.1h-3.2v-1.1h1v-3.2h-1v-0.8l1.4-0.4H78.7z"/>
<path class="st0" d="M84.4,229.7c0-0.3,0.1-0.6,0.2-0.7c0.2-0.2,0.5-0.2,0.9-0.2h0.9c0.5,0,0.8,0.1,0.9,0.2c0.2,0.2,0.2,0.4,0.2,0.7
	v3.7c0,0.3-0.1,0.6-0.2,0.7c-0.2,0.2-0.5,0.2-0.9,0.2h-0.9c-0.4,0-0.8-0.1-0.9-0.2c-0.2-0.2-0.2-0.4-0.2-0.7V229.7z M85.7,233.1
	c0,0.1,0,0.1,0.1,0.1h0.4c0.1,0,0.1,0,0.1-0.1V230c0-0.1,0-0.1-0.1-0.1h-0.4c-0.1,0-0.1,0-0.1,0.1V233.1z"/>
<path class="st0" d="M92.4,229.3c0-0.3,0.1-0.6,0.2-0.7c0.2-0.2,0.5-0.2,0.9-0.2h0.9c0.5,0,0.8,0.1,0.9,0.2c0.2,0.2,0.2,0.4,0.2,0.7
	v3.7c0,0.3-0.1,0.6-0.2,0.7c-0.2,0.2-0.5,0.2-0.9,0.2h-0.9c-0.4,0-0.7-0.1-0.9-0.2c-0.2-0.2-0.2-0.4-0.2-0.7V229.3z M93.7,232.7
	c0,0.1,0,0.1,0.1,0.1h0.4c0.1,0,0.1,0,0.1-0.1v-3.1c0-0.1,0-0.1-0.1-0.1h-0.4c-0.1,0-0.1,0-0.1,0.1V232.7z"/>
<path class="st0" d="M102.7,227.8v4.5h1v1.1h-3.2v-1.1h1v-3.2h-1v-0.8l1.4-0.4H102.7z"/>
<path class="st0" d="M108.5,228.1c0-0.3,0.1-0.6,0.2-0.7c0.2-0.2,0.5-0.2,0.9-0.2h0.9c0.5,0,0.8,0.1,0.9,0.2
	c0.2,0.2,0.2,0.4,0.2,0.7v3.7c0,0.3-0.1,0.6-0.2,0.7c-0.2,0.2-0.5,0.2-0.9,0.2h-0.9c-0.4,0-0.8-0.1-0.9-0.2
	c-0.2-0.2-0.2-0.4-0.2-0.7V228.1z M109.7,231.5c0,0.1,0,0.1,0.1,0.1h0.4c0.1,0,0.1,0,0.1-0.1v-3.1c0-0.1,0-0.1-0.1-0.1h-0.4
	c-0.1,0-0.1,0-0.1,0.1V231.5z"/>
<path class="st0" d="M116.5,227.2c0-0.3,0.1-0.6,0.2-0.7c0.2-0.2,0.5-0.2,0.9-0.2h0.9c0.5,0,0.8,0.1,0.9,0.2
	c0.2,0.2,0.2,0.4,0.2,0.7v3.7c0,0.3-0.1,0.6-0.2,0.7c-0.2,0.2-0.5,0.2-0.9,0.2h-0.9c-0.4,0-0.8-0.1-0.9-0.2
	c-0.2-0.2-0.2-0.4-0.2-0.7V227.2z M117.7,230.6c0,0.1,0,0.1,0.1,0.1h0.4c0.1,0,0.1,0,0.1-0.1v-3.1c0-0.1,0-0.1-0.1-0.1h-0.4
	c-0.1,0-0.1,0-0.1,0.1V230.6z"/>
<path class="st0" d="M124.6,226.1c0-0.3,0.1-0.6,0.2-0.7c0.2-0.2,0.5-0.2,0.9-0.2h0.9c0.5,0,0.8,0.1,0.9,0.2
	c0.2,0.2,0.2,0.4,0.2,0.7v3.7c0,0.3-0.1,0.6-0.2,0.7c-0.2,0.2-0.5,0.2-0.9,0.2h-0.9c-0.4,0-0.7-0.1-0.9-0.2
	c-0.2-0.2-0.2-0.4-0.2-0.7V226.1z M125.8,229.5c0,0.1,0,0.1,0.1,0.1h0.4c0.1,0,0.1,0,0.1-0.1v-3.1c0-0.1,0-0.1-0.1-0.1h-0.4
	c-0.1,0-0.1,0-0.1,0.1V229.5z"/>
<path class="st0" d="M134.9,223.8v4.5h1v1.1h-3.2v-1.1h1v-3.2h-1v-0.8l1.4-0.4H134.9z"/>
<path class="st0" d="M148.8,221.5c0-0.3,0.1-0.6,0.2-0.7c0.2-0.2,0.5-0.2,0.9-0.2h0.9c0.5,0,0.8,0.1,0.9,0.2
	c0.2,0.2,0.2,0.4,0.2,0.7v3.7c0,0.3-0.1,0.6-0.2,0.7c-0.2,0.2-0.5,0.2-0.9,0.2h-0.9c-0.4,0-0.8-0.1-0.9-0.2
	c-0.2-0.2-0.2-0.4-0.2-0.7V221.5z M150,225c0,0.1,0,0.1,0.1,0.1h0.4c0.1,0,0.1,0,0.1-0.1v-3.1c0-0.1,0-0.1-0.1-0.1h-0.4
	c-0.1,0-0.1,0-0.1,0.1V225z"/>
<path class="st0" d="M156.9,219.7c0-0.3,0.1-0.6,0.2-0.7c0.2-0.2,0.5-0.2,0.9-0.2h0.9c0.5,0,0.8,0.1,0.9,0.2
	c0.2,0.2,0.2,0.4,0.2,0.7v3.7c0,0.3-0.1,0.6-0.2,0.7c-0.2,0.2-0.5,0.2-0.9,0.2H158c-0.4,0-0.7-0.1-0.9-0.2c-0.2-0.2-0.2-0.4-0.2-0.7
	V219.7z M158.1,223.1c0,0.1,0,0.1,0.1,0.1h0.4c0.1,0,0.1,0,0.1-0.1V220c0-0.1,0-0.1-0.1-0.1h-0.4c-0.1,0-0.1,0-0.1,0.1V223.1z"/>
<path class="st0" d="M165,217.7c0-0.3,0.1-0.6,0.2-0.7c0.2-0.2,0.5-0.2,0.9-0.2h0.9c0.5,0,0.8,0.1,0.9,0.2c0.2,0.2,0.2,0.4,0.2,0.7
	v3.7c0,0.3-0.1,0.6-0.2,0.7c-0.2,0.2-0.5,0.2-0.9,0.2h-0.9c-0.4,0-0.7-0.1-0.9-0.2c-0.2-0.2-0.2-0.4-0.2-0.7V217.7z M166.3,221.1
	c0,0.1,0,0.1,0.1,0.1h0.4c0.1,0,0.1,0,0.1-0.1V218c0-0.1,0-0.1-0.1-0.1h-0.4c-0.1,0-0.1,0-0.1,0.1V221.1z"/>
<path class="st0" d="M173.1,215.8c0-0.3,0.1-0.6,0.2-0.7c0.2-0.2,0.5-0.2,0.9-0.2h0.9c0.5,0,0.8,0.1,0.9,0.2
	c0.2,0.2,0.2,0.4,0.2,0.7v3.7c0,0.3-0.1,0.6-0.2,0.7c-0.2,0.2-0.5,0.2-0.9,0.2h-0.9c-0.4,0-0.8-0.1-0.9-0.2
	c-0.2-0.2-0.2-0.4-0.2-0.7V215.8z M174.4,219.2c0,0.1,0,0.1,0.1,0.1h0.4c0.1,0,0.1,0,0.1-0.1V216c0-0.1,0-0.1-0.1-0.1h-0.4
	c-0.1,0-0.1,0-0.1,0.1V219.2z"/>
<path class="st0" d="M183.5,212.9v4.5h1v1.1h-3.2v-1.1h1v-3.2h-1v-0.8l1.4-0.4H183.5z"/>
<path class="st0" d="M189.3,212.3c0-0.3,0.1-0.6,0.2-0.7c0.2-0.2,0.5-0.2,0.9-0.2h0.9c0.5,0,0.8,0.1,0.9,0.2
	c0.2,0.2,0.2,0.4,0.2,0.7v3.7c0,0.3-0.1,0.6-0.2,0.7c-0.2,0.2-0.5,0.2-0.9,0.2h-0.9c-0.4,0-0.7-0.1-0.9-0.2
	c-0.2-0.2-0.2-0.4-0.2-0.7V212.3z M190.6,215.7c0,0.1,0,0.1,0.1,0.1h0.4c0.1,0,0.1,0,0.1-0.1v-3.1c0-0.1,0-0.1-0.1-0.1h-0.4
	c-0.1,0-0.1,0-0.1,0.1V215.7z"/>
<path class="st0" d="M199.7,210.1v4.5h1v1.1h-3.2v-1.1h1v-3.2h-1v-0.8l1.4-0.4H199.7z"/>
<path class="st0" d="M205.4,210.3c0-0.3,0.1-0.6,0.2-0.7c0.2-0.2,0.5-0.2,0.9-0.2h0.9c0.5,0,0.8,0.1,0.9,0.2
	c0.2,0.2,0.2,0.4,0.2,0.7v3.7c0,0.3-0.1,0.6-0.2,0.7c-0.2,0.2-0.5,0.2-0.9,0.2h-0.9c-0.4,0-0.8-0.1-0.9-0.2
	c-0.2-0.2-0.2-0.4-0.2-0.7V210.3z M206.7,213.7c0,0.1,0,0.1,0.1,0.1h0.4c0.1,0,0.1,0,0.1-0.1v-3.1c0-0.1,0-0.1-0.1-0.1h-0.4
	c-0.1,0-0.1,0-0.1,0.1V213.7z"/>
<path class="st0" d="M223.6,209.6v4.5h1v1.1h-3.2v-1.1h1v-3.2h-1V210l1.4-0.4H223.6z"/>
<path class="st0" d="M231.5,210.6v4.5h1v1.1h-3.2v-1.1h1v-3.2h-1V211l1.4-0.4H231.5z"/>
<path class="st0" d="M237.1,213c0-0.3,0.1-0.6,0.2-0.7c0.2-0.2,0.5-0.2,0.9-0.2h0.9c0.5,0,0.8,0.1,0.9,0.2c0.2,0.2,0.2,0.4,0.2,0.7
	v3.7c0,0.3-0.1,0.6-0.2,0.7c-0.2,0.2-0.5,0.2-0.9,0.2h-0.9c-0.4,0-0.7-0.1-0.9-0.2c-0.2-0.2-0.2-0.4-0.2-0.7V213z M238.4,216.4
	c0,0.1,0,0.1,0.1,0.1h0.4c0.1,0,0.1,0,0.1-0.1v-3.1c0-0.1,0-0.1-0.1-0.1h-0.4c-0.1,0-0.1,0-0.1,0.1V216.4z"/>
<path class="st0" d="M247.2,213.8v4.5h1v1.1H245v-1.1h1v-3.2h-1v-0.8l1.4-0.4H247.2z"/>
<path class="st0" d="M252.8,216.7c0-0.3,0.1-0.6,0.2-0.7c0.2-0.2,0.5-0.2,0.9-0.2h0.9c0.5,0,0.8,0.1,0.9,0.2
	c0.2,0.2,0.2,0.4,0.2,0.7v3.7c0,0.3-0.1,0.6-0.2,0.7c-0.2,0.2-0.5,0.2-0.9,0.2h-0.9c-0.4,0-0.7-0.1-0.9-0.2
	c-0.2-0.2-0.2-0.4-0.2-0.7V216.7z M254.1,220.1c0,0.1,0,0.1,0.1,0.1h0.4c0.1,0,0.1,0,0.1-0.1V217c0-0.1,0-0.1-0.1-0.1h-0.4
	c-0.1,0-0.1,0-0.1,0.1V220.1z"/>
<path class="st0" d="M260.6,218.6c0-0.3,0.1-0.6,0.2-0.7c0.2-0.2,0.5-0.2,0.9-0.2h0.9c0.5,0,0.8,0.1,0.9,0.2
	c0.2,0.2,0.2,0.4,0.2,0.7v3.7c0,0.3-0.1,0.6-0.2,0.7c-0.2,0.2-0.5,0.2-0.9,0.2h-0.9c-0.4,0-0.8-0.1-0.9-0.2
	c-0.2-0.2-0.2-0.4-0.2-0.7V218.6z M261.9,222.1c0,0.1,0,0.1,0.1,0.1h0.4c0.1,0,0.1,0,0.1-0.1v-3.1c0-0.1,0-0.1-0.1-0.1H262
	c-0.1,0-0.1,0-0.1,0.1V222.1z"/>
<path class="st0" d="M268.5,220.5c0-0.3,0.1-0.6,0.2-0.7c0.2-0.2,0.5-0.2,0.9-0.2h0.9c0.5,0,0.8,0.1,0.9,0.2
	c0.2,0.2,0.2,0.4,0.2,0.7v3.7c0,0.3-0.1,0.6-0.2,0.7c-0.2,0.2-0.5,0.2-0.9,0.2h-0.9c-0.4,0-0.8-0.1-0.9-0.2
	c-0.2-0.2-0.2-0.4-0.2-0.7V220.5z M269.7,224c0,0.1,0,0.1,0.1,0.1h0.4c0.1,0,0.1,0,0.1-0.1v-3.1c0-0.1,0-0.1-0.1-0.1h-0.4
	c-0.1,0-0.1,0-0.1,0.1V224z"/>
<path class="st0" d="M276.3,222.3c0-0.3,0.1-0.6,0.2-0.7c0.2-0.2,0.5-0.2,0.9-0.2h0.9c0.5,0,0.8,0.1,0.9,0.2
	c0.2,0.2,0.2,0.4,0.2,0.7v3.7c0,0.3-0.1,0.6-0.2,0.7c-0.2,0.2-0.5,0.2-0.9,0.2h-0.9c-0.4,0-0.7-0.1-0.9-0.2
	c-0.2-0.2-0.2-0.4-0.2-0.7V222.3z M277.6,225.7c0,0.1,0,0.1,0.1,0.1h0.4c0.1,0,0.1,0,0.1-0.1v-3.1c0-0.1,0-0.1-0.1-0.1h-0.4
	c-0.1,0-0.1,0-0.1,0.1V225.7z"/>
<path class="st0" d="M294.3,224.4v4.5h1v1.1h-3.2v-1.1h1v-3.2h-1v-0.8l1.4-0.4H294.3z"/>
<path class="st0" d="M300,226.6c0-0.3,0.1-0.6,0.2-0.7c0.2-0.2,0.5-0.2,0.9-0.2h0.9c0.5,0,0.8,0.1,0.9,0.2c0.2,0.2,0.2,0.4,0.2,0.7
	v3.7c0,0.3-0.1,0.6-0.2,0.7c-0.2,0.2-0.5,0.2-0.9,0.2h-0.9c-0.4,0-0.7-0.1-0.9-0.2c-0.2-0.2-0.2-0.4-0.2-0.7V226.6z M301.2,230
	c0,0.1,0,0.1,0.1,0.1h0.4c0.1,0,0.1,0,0.1-0.1v-3.1c0-0.1,0-0.1-0.1-0.1h-0.4c-0.1,0-0.1,0-0.1,0.1V230z"/>
<path class="st0" d="M310.1,226.6v4.5h1v1.1h-3.2v-1.1h1v-3.2h-1v-0.8l1.4-0.4H310.1z"/>
<path class="st0" d="M318,227.4v4.5h1v1.1h-3.2v-1.1h1v-3.2h-1v-0.8l1.4-0.4H318z"/>
<path class="st0" d="M326,228.1v4.5h1v1.1h-3.2v-1.1h1v-3.2h-1v-0.8l1.4-0.4H326z"/>
<path class="st0" d="M333.9,228.5v4.5h1v1.1h-3.2V233h1v-3.2h-1V229l1.4-0.4H333.9z"/>
<path class="st0" d="M339.6,229.8c0-0.3,0.1-0.6,0.2-0.7c0.2-0.2,0.5-0.2,0.9-0.2h0.9c0.5,0,0.8,0.1,0.9,0.2
	c0.2,0.2,0.2,0.4,0.2,0.7v3.7c0,0.3-0.1,0.6-0.2,0.7c-0.2,0.2-0.5,0.2-0.9,0.2h-0.9c-0.4,0-0.8-0.1-0.9-0.2
	c-0.2-0.2-0.2-0.4-0.2-0.7V229.8z M340.9,233.2c0,0.1,0,0.1,0.1,0.1h0.4c0.1,0,0.1,0,0.1-0.1v-3.1c0-0.1,0-0.1-0.1-0.1H341
	c-0.1,0-0.1,0-0.1,0.1V233.2z"/>
<path class="st0" d="M349.8,229.1v4.5h1v1.1h-3.2v-1.1h1v-3.2h-1v-0.8l1.4-0.4H349.8z"/>
<path class="st0" d="M78.7,238.8v4.5h1v1.1h-3.2v-1.1h1v-3.2h-1v-0.8l1.4-0.4H78.7z"/>
<path class="st0" d="M86.7,238.8v4.5h1v1.1h-3.2v-1.1h1V240h-1v-0.8l1.4-0.4H86.7z"/>
<path class="st0" d="M92.4,239.6c0-0.3,0.1-0.6,0.2-0.7c0.2-0.2,0.5-0.2,0.9-0.2h0.9c0.5,0,0.8,0.1,0.9,0.2c0.2,0.2,0.2,0.4,0.2,0.7
	v3.7c0,0.3-0.1,0.6-0.2,0.7c-0.2,0.2-0.5,0.2-0.9,0.2h-0.9c-0.4,0-0.8-0.1-0.9-0.2c-0.2-0.2-0.2-0.4-0.2-0.7V239.6z M93.6,243
	c0,0.1,0,0.1,0.1,0.1h0.4c0.1,0,0.1,0,0.1-0.1v-3.1c0-0.1,0-0.1-0.1-0.1h-0.4c-0.1,0-0.1,0-0.1,0.1V243z"/>
<path class="st0" d="M102.6,238.5v4.5h1v1.1h-3.2V243h1v-3.2h-1v-0.8l1.4-0.4H102.6z"/>
<path class="st0" d="M108.4,239.2c0-0.3,0.1-0.6,0.2-0.7c0.2-0.2,0.5-0.2,0.9-0.2h0.9c0.5,0,0.8,0.1,0.9,0.2
	c0.2,0.2,0.2,0.4,0.2,0.7v3.7c0,0.3-0.1,0.6-0.2,0.7c-0.2,0.2-0.5,0.2-0.9,0.2h-0.9c-0.4,0-0.8-0.1-0.9-0.2
	c-0.2-0.2-0.2-0.4-0.2-0.7V239.2z M109.6,242.6c0,0.1,0,0.1,0.1,0.1h0.4c0.1,0,0.1,0,0.1-0.1v-3.1c0-0.1,0-0.1-0.1-0.1h-0.4
	c-0.1,0-0.1,0-0.1,0.1V242.6z"/>
<path class="st0" d="M116.4,238.8c0-0.3,0.1-0.6,0.2-0.7c0.2-0.2,0.5-0.2,0.9-0.2h0.9c0.5,0,0.8,0.1,0.9,0.2
	c0.2,0.2,0.2,0.4,0.2,0.7v3.7c0,0.3-0.1,0.6-0.2,0.7c-0.2,0.2-0.5,0.2-0.9,0.2h-0.9c-0.4,0-0.8-0.1-0.9-0.2
	c-0.2-0.2-0.2-0.4-0.2-0.7V238.8z M117.6,242.2c0,0.1,0,0.1,0.1,0.1h0.4c0.1,0,0.1,0,0.1-0.1v-3.1c0-0.1,0-0.1-0.1-0.1h-0.4
	c-0.1,0-0.1,0-0.1,0.1V242.2z"/>
<path class="st0" d="M126.6,237.4v4.5h1v1.1h-3.2v-1.1h1v-3.2h-1v-0.8l1.4-0.4H126.6z"/>
<path class="st0" d="M134.6,236.9v4.5h1v1.1h-3.2v-1.1h1v-3.2h-1v-0.8l1.4-0.4H134.6z"/>
<path class="st0" d="M148.4,236.6c0-0.3,0.1-0.6,0.2-0.7c0.2-0.2,0.5-0.2,0.9-0.2h0.9c0.5,0,0.8,0.1,0.9,0.2
	c0.2,0.2,0.2,0.4,0.2,0.7v3.7c0,0.3-0.1,0.6-0.2,0.7c-0.2,0.2-0.5,0.2-0.9,0.2h-0.9c-0.4,0-0.7-0.1-0.9-0.2
	c-0.2-0.2-0.2-0.4-0.2-0.7V236.6z M149.7,240c0,0.1,0,0.1,0.1,0.1h0.4c0.1,0,0.1,0,0.1-0.1v-3.1c0-0.1,0-0.1-0.1-0.1h-0.4
	c-0.1,0-0.1,0-0.1,0.1V240z"/>
<path class="st0" d="M158.7,234.9v4.5h1v1.1h-3.2v-1.1h1v-3.2h-1v-0.8l1.4-0.4H158.7z"/>
<path class="st0" d="M166.7,234.2v4.5h1v1.1h-3.2v-1.1h1v-3.2h-1v-0.8l1.4-0.4H166.7z"/>
<path class="st0" d="M172.5,234.5c0-0.3,0.1-0.6,0.2-0.7c0.2-0.2,0.5-0.2,0.9-0.2h0.9c0.5,0,0.8,0.1,0.9,0.2
	c0.2,0.2,0.2,0.4,0.2,0.7v3.7c0,0.3-0.1,0.6-0.2,0.7c-0.2,0.2-0.5,0.2-0.9,0.2h-0.9c-0.4,0-0.7-0.1-0.9-0.2
	c-0.2-0.2-0.2-0.4-0.2-0.7V234.5z M173.7,237.9c0,0.1,0,0.1,0.1,0.1h0.4c0.1,0,0.1,0,0.1-0.1v-3.1c0-0.1,0-0.1-0.1-0.1h-0.4
	c-0.1,0-0.1,0-0.1,0.1V237.9z"/>
<path class="st0" d="M180.5,233.8c0-0.3,0.1-0.6,0.2-0.7c0.2-0.2,0.5-0.2,0.9-0.2h0.9c0.5,0,0.8,0.1,0.9,0.2
	c0.2,0.2,0.2,0.4,0.2,0.7v3.7c0,0.3-0.1,0.6-0.2,0.7c-0.2,0.2-0.5,0.2-0.9,0.2h-0.9c-0.4,0-0.8-0.1-0.9-0.2
	c-0.2-0.2-0.2-0.4-0.2-0.7V233.8z M181.7,237.2c0,0.1,0,0.1,0.1,0.1h0.4c0.1,0,0.1,0,0.1-0.1v-3.1c0-0.1,0-0.1-0.1-0.1h-0.4
	c-0.1,0-0.1,0-0.1,0.1V237.2z"/>
<path class="st0" d="M190.8,232.3v4.5h1v1.1h-3.2v-1.1h1v-3.2h-1v-0.8l1.4-0.4H190.8z"/>
<path class="st0" d="M196.5,232.9c0-0.3,0.1-0.6,0.2-0.7c0.2-0.2,0.5-0.2,0.9-0.2h0.9c0.5,0,0.8,0.1,0.9,0.2
	c0.2,0.2,0.2,0.4,0.2,0.7v3.7c0,0.3-0.1,0.6-0.2,0.7c-0.2,0.2-0.5,0.2-0.9,0.2h-0.9c-0.4,0-0.8-0.1-0.9-0.2
	c-0.2-0.2-0.2-0.4-0.2-0.7V232.9z M197.8,236.3c0,0.1,0,0.1,0.1,0.1h0.4c0.1,0,0.1,0,0.1-0.1v-3.1c0-0.1,0-0.1-0.1-0.1h-0.4
	c-0.1,0-0.1,0-0.1,0.1V236.3z"/>
<path class="st0" d="M204.5,232.6c0-0.3,0.1-0.6,0.2-0.7c0.2-0.2,0.5-0.2,0.9-0.2h0.9c0.5,0,0.8,0.1,0.9,0.2
	c0.2,0.2,0.2,0.4,0.2,0.7v3.7c0,0.3-0.1,0.6-0.2,0.7c-0.2,0.2-0.5,0.2-0.9,0.2h-0.9c-0.4,0-0.7-0.1-0.9-0.2
	c-0.2-0.2-0.2-0.4-0.2-0.7V232.6z M205.8,236c0,0.1,0,0.1,0.1,0.1h0.4c0.1,0,0.1,0,0.1-0.1v-3.1c0-0.1,0-0.1-0.1-0.1h-0.4
	c-0.1,0-0.1,0-0.1,0.1V236z"/>
<path class="st0" d="M222.7,231.7v4.5h1v1.1h-3.2v-1.1h1V233h-1v-0.8l1.4-0.4H222.7z"/>
<path class="st0" d="M230.7,232.1v4.5h1v1.1h-3.2v-1.1h1v-3.2h-1v-0.8l1.4-0.4H230.7z"/>
<path class="st0" d="M238.6,232.5v4.5h1v1.1h-3.2V237h1v-3.2h-1V233l1.4-0.4H238.6z"/>
<path class="st0" d="M246.5,233.1v4.5h1v1.1h-3.2v-1.1h1v-3.2h-1v-0.8l1.4-0.4H246.5z"/>
<path class="st0" d="M254.5,233.8v4.5h1v1.1h-3.2v-1.1h1v-3.2h-1v-0.8l1.4-0.4H254.5z"/>
<path class="st0" d="M262.4,234.5v4.5h1v1.1h-3.2V239h1v-3.2h-1v-0.8l1.4-0.4H262.4z"/>
<path class="st0" d="M270.3,235.2v4.5h1v1.1h-3.2v-1.1h1v-3.2h-1v-0.8l1.4-0.4H270.3z"/>
<path class="st0" d="M278.2,235.9v4.5h1v1.1H276v-1.1h1v-3.2h-1v-0.8l1.4-0.4H278.2z"/>
<path class="st0" d="M291.9,238.1c0-0.3,0.1-0.6,0.2-0.7c0.2-0.2,0.5-0.2,0.9-0.2h0.9c0.5,0,0.8,0.1,0.9,0.2
	c0.2,0.2,0.2,0.4,0.2,0.7v3.7c0,0.3-0.1,0.6-0.2,0.7c-0.2,0.2-0.5,0.2-0.9,0.2H293c-0.4,0-0.8-0.1-0.9-0.2c-0.2-0.2-0.2-0.4-0.2-0.7
	V238.1z M293.1,241.5c0,0.1,0,0.1,0.1,0.1h0.4c0.1,0,0.1,0,0.1-0.1v-3.1c0-0.1,0-0.1-0.1-0.1h-0.4c-0.1,0-0.1,0-0.1,0.1V241.5z"/>
<path class="st0" d="M302.1,237.6v4.5h1v1.1h-3.2v-1.1h1v-3.2h-1V238l1.4-0.4H302.1z"/>
<path class="st0" d="M307.8,239c0-0.3,0.1-0.6,0.2-0.7c0.2-0.2,0.5-0.2,0.9-0.2h0.9c0.5,0,0.8,0.1,0.9,0.2c0.2,0.2,0.2,0.4,0.2,0.7
	v3.7c0,0.3-0.1,0.6-0.2,0.7c-0.2,0.2-0.5,0.2-0.9,0.2h-0.9c-0.4,0-0.8-0.1-0.9-0.2c-0.2-0.2-0.2-0.4-0.2-0.7V239z M309,242.4
	c0,0.1,0,0.1,0.1,0.1h0.4c0.1,0,0.1,0,0.1-0.1v-3.1c0-0.1,0-0.1-0.1-0.1h-0.4c-0.1,0-0.1,0-0.1,0.1V242.4z"/>
<path class="st0" d="M318,238.3v4.5h1v1.1h-3.2v-1.1h1v-3.2h-1v-0.8l1.4-0.4H318z"/>
<path class="st0" d="M323.7,239.5c0-0.3,0.1-0.6,0.2-0.7c0.2-0.2,0.5-0.2,0.9-0.2h0.9c0.5,0,0.8,0.1,0.9,0.2
	c0.2,0.2,0.2,0.4,0.2,0.7v3.7c0,0.3-0.1,0.6-0.2,0.7c-0.2,0.2-0.5,0.2-0.9,0.2h-0.9c-0.4,0-0.7-0.1-0.9-0.2
	c-0.2-0.2-0.2-0.4-0.2-0.7V239.5z M324.9,242.9c0,0.1,0,0.1,0.1,0.1h0.4c0.1,0,0.1,0,0.1-0.1v-3.1c0-0.1,0-0.1-0.1-0.1h-0.4
	c-0.1,0-0.1,0-0.1,0.1V242.9z"/>
<path class="st0" d="M331.6,239.7c0-0.3,0.1-0.6,0.2-0.7c0.2-0.2,0.5-0.2,0.9-0.2h0.9c0.5,0,0.8,0.1,0.9,0.2
	c0.2,0.2,0.2,0.4,0.2,0.7v3.7c0,0.3-0.1,0.6-0.2,0.7c-0.2,0.2-0.5,0.2-0.9,0.2h-0.9c-0.4,0-0.8-0.1-0.9-0.2
	c-0.2-0.2-0.2-0.4-0.2-0.7V239.7z M332.9,243.1c0,0.1,0,0.1,0.1,0.1h0.4c0.1,0,0.1,0,0.1-0.1v-3.1c0-0.1,0-0.1-0.1-0.1H333
	c-0.1,0-0.1,0-0.1,0.1V243.1z"/>
<path class="st0" d="M341.9,238.8v4.5h1v1.1h-3.2v-1.1h1v-3.2h-1v-0.8l1.4-0.4H341.9z"/>
<path class="st0" d="M349.8,238.9v4.5h1v1.1h-3.2v-1.1h1v-3.2h-1v-0.8l1.4-0.4H349.8z"/>
<path class="st0" d="M133.9,268.5v4.5h1v1.1h-3.2v-1.1h1v-3.2h-1V269l1.4-0.4H133.9z"/>
<path class="st0" d="M150.5,247.4v4.5h1v1.1h-3.2v-1.1h1v-3.2h-1v-0.8l1.4-0.4H150.5z"/>
<path class="st0" d="M156.3,248.1c0-0.3,0.1-0.6,0.2-0.7c0.2-0.2,0.5-0.2,0.9-0.2h0.9c0.5,0,0.8,0.1,0.9,0.2
	c0.2,0.2,0.2,0.4,0.2,0.7v3.7c0,0.3-0.1,0.6-0.2,0.7c-0.2,0.2-0.5,0.2-0.9,0.2h-0.9c-0.4,0-0.8-0.1-0.9-0.2
	c-0.2-0.2-0.2-0.4-0.2-0.7V248.1z M157.5,251.5c0,0.1,0,0.1,0.1,0.1h0.4c0.1,0,0.1,0,0.1-0.1v-3.1c0-0.1,0-0.1-0.1-0.1h-0.4
	c-0.1,0-0.1,0-0.1,0.1V251.5z"/>
<path class="st0" d="M166.5,246.9v4.5h1v1.1h-3.2v-1.1h1v-3.2h-1v-0.8l1.4-0.4H166.5z"/>
<path class="st0" d="M174.5,246.6v4.5h1v1.1h-3.2v-1.1h1v-3.2h-1V247l1.4-0.4H174.5z"/>
<path class="st0" d="M182.5,246.4v4.5h1v1.1h-3.2v-1.1h1v-3.2h-1v-0.8l1.4-0.4H182.5z"/>
<path class="st0" d="M190.5,246.2v4.5h1v1.1h-3.2v-1.1h1v-3.2h-1v-0.8l1.4-0.4H190.5z"/>
<path class="st0" d="M198.5,246v4.5h1v1.1h-3.2v-1.1h1v-3.2h-1v-0.8l1.4-0.4H198.5z"/>
<path class="st0" d="M206.4,245.9v4.5h1v1.1h-3.2v-1.1h1v-3.2h-1v-0.8l1.4-0.4H206.4z"/>
<path class="st0" d="M222.4,245.9v4.5h1v1.1h-3.2v-1.1h1v-3.2h-1v-0.8l1.4-0.4H222.4z"/>
<path class="st0" d="M228.1,247c0-0.3,0.1-0.6,0.2-0.7c0.2-0.2,0.5-0.2,0.9-0.2h0.9c0.5,0,0.8,0.1,0.9,0.2c0.2,0.2,0.2,0.4,0.2,0.7
	v3.7c0,0.3-0.1,0.6-0.2,0.7c-0.2,0.2-0.5,0.2-0.9,0.2h-0.9c-0.4,0-0.7-0.1-0.9-0.2c-0.2-0.2-0.2-0.4-0.2-0.7V247z M229.4,250.4
	c0,0.1,0,0.1,0.1,0.1h0.4c0.1,0,0.1,0,0.1-0.1v-3.1c0-0.1,0-0.1-0.1-0.1h-0.4c-0.1,0-0.1,0-0.1,0.1V250.4z"/>
<path class="st0" d="M234.2,252.6v4.5h1v1.1H232v-1.1h1v-3.2h-1v-0.8l1.4-0.4H234.2z"/>
<path class="st0" d="M239.9,253.8c0-0.3,0.1-0.6,0.2-0.7c0.2-0.2,0.5-0.2,0.9-0.2h0.9c0.5,0,0.8,0.1,0.9,0.2
	c0.2,0.2,0.2,0.4,0.2,0.7v3.7c0,0.3-0.1,0.6-0.2,0.7c-0.2,0.2-0.5,0.2-0.9,0.2h-0.9c-0.4,0-0.8-0.1-0.9-0.2
	c-0.2-0.2-0.2-0.4-0.2-0.7V253.8z M241.2,257.2c0,0.1,0,0.1,0.1,0.1h0.4c0.1,0,0.1,0,0.1-0.1v-3.1c0-0.1,0-0.1-0.1-0.1h-0.4
	c-0.1,0-0.1,0-0.1,0.1V257.2z"/>
<path class="st0" d="M256.9,268.6v4.5h1v1.1h-3.2v-1.1h1v-3.2h-1V269l1.4-0.4H256.9z"/>
<path class="st0" d="M258.1,253.4v4.5h1v1.1h-3.2v-1.1h1v-3.2h-1v-0.8l1.4-0.4H258.1z"/>
<path class="st0" d="M263.8,254.6c0-0.3,0.1-0.6,0.2-0.7c0.2-0.2,0.5-0.2,0.9-0.2h0.9c0.5,0,0.8,0.1,0.9,0.2
	c0.2,0.2,0.2,0.4,0.2,0.7v3.7c0,0.3-0.1,0.6-0.2,0.7c-0.2,0.2-0.5,0.2-0.9,0.2H265c-0.4,0-0.8-0.1-0.9-0.2c-0.2-0.2-0.2-0.4-0.2-0.7
	V254.6z M265.1,258c0,0.1,0,0.1,0.1,0.1h0.4c0.1,0,0.1,0,0.1-0.1v-3.1c0-0.1,0-0.1-0.1-0.1h-0.4c-0.1,0-0.1,0-0.1,0.1V258z"/>
<path class="st0" d="M278.2,282.1v4.5h1v1.1H276v-1.1h1v-3.2h-1v-0.8l1.4-0.4H278.2z"/>
<path class="st0" d="M294.8,265.8v4.5h1v1.1h-3.2v-1.1h1V267h-1v-0.8l1.4-0.4H294.8z"/>
<path class="st1" d="M102.5,176c0-0.4,0.1-0.6,0.3-0.8c0.2-0.2,0.5-0.3,1-0.3h1c0.5,0,0.8,0.1,1,0.3c0.2,0.2,0.3,0.4,0.3,0.8v4
	c0,0.3-0.1,0.6-0.3,0.8c-0.2,0.2-0.5,0.3-1,0.3h-1c-0.5,0-0.8-0.1-1-0.3c-0.2-0.2-0.3-0.4-0.3-0.8V176z M103.9,179.7
	c0,0.1,0.1,0.2,0.2,0.2h0.5c0.1,0,0.2-0.1,0.2-0.2v-3.4c0-0.1-0.1-0.2-0.2-0.2H104c-0.1,0-0.2,0.1-0.2,0.2V179.7z"/>
<path class="st1" d="M358.5,172c0-0.3,0.1-0.6,0.2-0.8c0.2-0.2,0.5-0.2,0.9-0.2h1c0.5,0,0.8,0.1,1,0.2c0.2,0.2,0.2,0.4,0.2,0.8v3.9
	c0,0.3-0.1,0.6-0.2,0.8c-0.2,0.2-0.5,0.2-1,0.2h-1c-0.5,0-0.8-0.1-0.9-0.2c-0.2-0.2-0.2-0.4-0.2-0.8V172z M359.8,175.6
	c0,0.1,0.1,0.2,0.2,0.2h0.5c0.1,0,0.2-0.1,0.2-0.2v-3.3c0-0.1-0.1-0.2-0.2-0.2H360c-0.1,0-0.2,0.1-0.2,0.2V175.6z"/>
<path class="st1" d="M360.5,178.3c0-0.5,0.1-0.8,0.3-1c0.2-0.2,0.6-0.3,1.3-0.3h1.3c0.6,0,1.1,0.1,1.3,0.3c0.2,0.2,0.3,0.6,0.3,1
	v5.2c0,0.5-0.1,0.8-0.3,1c-0.2,0.2-0.6,0.3-1.3,0.3h-1.3c-0.6,0-1.1-0.1-1.3-0.3c-0.2-0.2-0.3-0.6-0.3-1V178.3z M362.3,183.2
	c0,0.1,0.1,0.2,0.2,0.2h0.6c0.1,0,0.2-0.1,0.2-0.2v-4.5c0-0.1-0.1-0.2-0.2-0.2h-0.6c-0.1,0-0.2,0.1-0.2,0.2V183.2z"/>
<path class="st1" d="M74.2,193.5v4.5h1v1.1h-3.2V198h1v-3.3h-1v-0.8l1.4-0.4H74.2z"/>
<path class="st1" d="M97.7,190.6c0-0.4,0.1-0.6,0.3-0.8c0.2-0.2,0.5-0.3,1-0.3h1.1c0.5,0,0.9,0.1,1,0.3c0.2,0.2,0.3,0.4,0.3,0.8v4.1
	c0,0.4-0.1,0.6-0.3,0.8c-0.2,0.2-0.5,0.3-1,0.3h-1.1c-0.5,0-0.8-0.1-1-0.3c-0.2-0.2-0.3-0.4-0.3-0.8V190.6z M99.1,194.4
	c0,0.1,0.1,0.2,0.2,0.2h0.5c0.1,0,0.2-0.1,0.2-0.2v-3.5c0-0.1-0.1-0.2-0.2-0.2h-0.5c-0.1,0-0.2,0.1-0.2,0.2V194.4z"/>
<path class="st1" d="M95.3,183.8v5.7h1.2v1.4h-4v-1.4h1.2v-4.1h-1.2v-1l1.7-0.5H95.3z"/>
<path class="st1" d="M80,175.9v5.4h1.2v1.3h-3.8v-1.3h1.2v-3.9h-1.2v-1l1.6-0.5H80z"/>
<path class="st1" d="M322.3,170.9v5h1.1v1.2h-3.6v-1.2h1.1v-3.6h-1.1v-0.9l1.5-0.5H322.3z"/>
<path class="st1" d="M349.8,181.6c0-0.4,0.1-0.6,0.3-0.8c0.2-0.2,0.5-0.3,1-0.3h1.1c0.5,0,0.9,0.1,1,0.3c0.2,0.2,0.3,0.4,0.3,0.8
	v4.2c0,0.4-0.1,0.6-0.3,0.8c-0.2,0.2-0.5,0.3-1,0.3h-1.1c-0.5,0-0.8-0.1-1-0.3c-0.2-0.2-0.3-0.5-0.3-0.8V181.6z M351.2,185.4
	c0,0.1,0.1,0.2,0.2,0.2h0.5c0.1,0,0.2-0.1,0.2-0.2v-3.6c0-0.1-0.1-0.2-0.2-0.2h-0.5c-0.1,0-0.2,0.1-0.2,0.2V185.4z"/>
<path class="st1" d="M337.6,187.7c0-0.4,0.1-0.7,0.3-0.9c0.2-0.2,0.6-0.3,1.1-0.3h1.2c0.6,0,1,0.1,1.1,0.3c0.2,0.2,0.3,0.5,0.3,0.9
	v4.6c0,0.4-0.1,0.7-0.3,0.9c-0.2,0.2-0.6,0.3-1.1,0.3H339c-0.6,0-0.9-0.1-1.1-0.3c-0.2-0.2-0.3-0.5-0.3-0.9V187.7z M339.1,192
	c0,0.1,0.1,0.2,0.2,0.2h0.6c0.1,0,0.2-0.1,0.2-0.2v-4c0-0.1-0.1-0.2-0.2-0.2h-0.6c-0.1,0-0.2,0.1-0.2,0.2V192z"/>
<path class="st1" d="M358.6,190.9v5.7h1.3v1.4h-4.1v-1.4h1.2v-4.1h-1.2v-1.1l1.7-0.5H358.6z"/>
<path class="st1" d="M357.8,194v5.6h1.2v1.3h-4v-1.3h1.2v-4.1H355v-1l1.7-0.5H357.8z"/>
<path class="st1" d="M86.5,207.5c0-0.4,0.1-0.8,0.3-1c0.2-0.2,0.6-0.3,1.2-0.3h1.3c0.6,0,1,0.1,1.2,0.3c0.2,0.2,0.3,0.5,0.3,1v4.9
	c0,0.4-0.1,0.8-0.3,1c-0.2,0.2-0.6,0.3-1.2,0.3h-1.3c-0.6,0-1-0.1-1.2-0.3c-0.2-0.2-0.3-0.5-0.3-1V207.5z M88.2,212.1
	c0,0.1,0.1,0.2,0.2,0.2H89c0.1,0,0.2-0.1,0.2-0.2v-4.2c0-0.1-0.1-0.2-0.2-0.2h-0.6c-0.1,0-0.2,0.1-0.2,0.2V212.1z"/>
<path class="st1" d="M107.7,206.1c0-0.4,0.1-0.7,0.3-0.8c0.2-0.2,0.5-0.3,1.1-0.3h1.1c0.5,0,0.9,0.1,1.1,0.3
	c0.2,0.2,0.3,0.5,0.3,0.8v4.4c0,0.4-0.1,0.7-0.3,0.8c-0.2,0.2-0.5,0.3-1.1,0.3h-1.1c-0.5,0-0.9-0.1-1.1-0.3
	c-0.2-0.2-0.3-0.5-0.3-0.8V206.1z M109.2,210.2c0,0.1,0.1,0.2,0.2,0.2h0.5c0.1,0,0.2-0.1,0.2-0.2v-3.7c0-0.1-0.1-0.2-0.2-0.2h-0.5
	c-0.1,0-0.2,0.1-0.2,0.2V210.2z"/>
<path class="st1" d="M88.8,202v6.6h1.5v1.6h-4.7v-1.6H87v-4.8h-1.4v-1.2l2-0.6H88.8z"/>
<path class="st1" d="M108.5,200.6c0-0.4,0.1-0.8,0.3-1c0.2-0.2,0.6-0.3,1.2-0.3h1.2c0.6,0,1,0.1,1.2,0.3c0.2,0.2,0.3,0.5,0.3,1v4.9
	c0,0.4-0.1,0.8-0.3,1c-0.2,0.2-0.6,0.3-1.2,0.3H110c-0.6,0-1-0.1-1.2-0.3c-0.2-0.2-0.3-0.5-0.3-1V200.6z M110.1,205.1
	c0,0.1,0.1,0.2,0.2,0.2h0.6c0.1,0,0.2-0.1,0.2-0.2v-4.2c0-0.1-0.1-0.2-0.2-0.2h-0.6c-0.1,0-0.2,0.1-0.2,0.2V205.1z"/>
<path class="st1" d="M87.8,196.8c0-0.4,0.1-0.6,0.3-0.8c0.2-0.2,0.5-0.3,1-0.3h1c0.5,0,0.8,0.1,1,0.3c0.2,0.2,0.3,0.4,0.3,0.8v4.1
	c0,0.4-0.1,0.6-0.3,0.8c-0.2,0.2-0.5,0.3-1,0.3h-1c-0.5,0-0.8-0.1-1-0.3c-0.2-0.2-0.3-0.4-0.3-0.8V196.8z M89.1,200.6
	c0,0.1,0.1,0.2,0.2,0.2h0.5c0.1,0,0.2-0.1,0.2-0.2v-3.5c0-0.1-0.1-0.2-0.2-0.2h-0.5c-0.1,0-0.2,0.1-0.2,0.2V200.6z"/>
<path class="st1" d="M102.2,189.8v5.2h1.2v1.3h-3.7V195h1.1v-3.8h-1.1v-1l1.6-0.5H102.2z"/>
<path class="st1" d="M120.4,182.2c0-0.5,0.1-0.8,0.3-1c0.2-0.2,0.7-0.3,1.3-0.3h1.4c0.7,0,1.1,0.1,1.3,0.3c0.2,0.2,0.3,0.6,0.3,1
	v5.3c0,0.5-0.1,0.8-0.3,1c-0.2,0.2-0.7,0.3-1.3,0.3H122c-0.6,0-1.1-0.1-1.3-0.3c-0.2-0.2-0.3-0.6-0.3-1V182.2z M122.1,187.1
	c0,0.1,0.1,0.2,0.2,0.2h0.6c0.1,0,0.2-0.1,0.2-0.2v-4.5c0-0.1-0.1-0.2-0.2-0.2h-0.6c-0.1,0-0.2,0.1-0.2,0.2V187.1z"/>
<path class="st1" d="M270.3,177.1c0-0.5,0.1-0.8,0.3-1c0.2-0.2,0.7-0.3,1.3-0.3h1.4c0.7,0,1.1,0.1,1.3,0.3c0.2,0.2,0.3,0.6,0.3,1
	v5.3c0,0.5-0.1,0.8-0.3,1c-0.2,0.2-0.7,0.3-1.3,0.3h-1.4c-0.6,0-1.1-0.1-1.3-0.3c-0.2-0.2-0.3-0.6-0.3-1V177.1z M272.1,182.1
	c0,0.1,0.1,0.2,0.2,0.2h0.6c0.1,0,0.2-0.1,0.2-0.2v-4.5c0-0.1-0.1-0.2-0.2-0.2h-0.6c-0.1,0-0.2,0.1-0.2,0.2V182.1z"/>
<path class="st1" d="M277.4,186.9c0-0.4,0.1-0.8,0.3-1c0.2-0.2,0.6-0.3,1.2-0.3h1.3c0.6,0,1,0.1,1.3,0.3c0.2,0.2,0.3,0.5,0.3,1v5.1
	c0,0.4-0.1,0.8-0.3,1c-0.2,0.2-0.6,0.3-1.3,0.3H279c-0.6,0-1-0.1-1.2-0.3c-0.2-0.2-0.3-0.5-0.3-1V186.9z M279.1,191.6
	c0,0.1,0.1,0.2,0.2,0.2h0.6c0.1,0,0.2-0.1,0.2-0.2v-4.3c0-0.1-0.1-0.2-0.2-0.2h-0.6c-0.1,0-0.2,0.1-0.2,0.2V191.6z"/>
<path class="st1" d="M322.3,192v6.5h1.4v1.6H319v-1.6h1.4v-4.7H319v-1.2l2-0.6H322.3z"/>
<path class="st1" d="M333.4,198.2c0-0.5,0.1-0.8,0.3-1.1c0.2-0.2,0.7-0.3,1.3-0.3h1.4c0.7,0,1.1,0.1,1.3,0.3
	c0.2,0.2,0.3,0.6,0.3,1.1v5.4c0,0.5-0.1,0.8-0.3,1.1c-0.2,0.2-0.7,0.3-1.3,0.3H335c-0.7,0-1.1-0.1-1.3-0.3c-0.2-0.2-0.3-0.6-0.3-1.1
	V198.2z M335.2,203.2c0,0.1,0.1,0.2,0.2,0.2h0.6c0.1,0,0.2-0.1,0.2-0.2v-4.6c0-0.1-0.1-0.2-0.2-0.2h-0.6c-0.1,0-0.2,0.1-0.2,0.2
	V203.2z"/>
<path class="st1" d="M335.5,200.7v6.2h1.4v1.5h-4.4v-1.5h1.3v-4.4h-1.3v-1.1l1.9-0.6H335.5z"/>
<path class="st1" d="M322.7,203.8v5.4h1.2v1.3H320v-1.3h1.2v-3.9H320v-1l1.6-0.5H322.7z"/>
<path class="st1" d="M347.6,205v6.6h1.4v1.6h-4.7v-1.6h1.4v-4.7h-1.4v-1.2l2-0.6H347.6z"/>
<path class="st1" d="M338.8,206.6v6.2h1.4v1.5h-4.5v-1.5h1.4v-4.5h-1.4v-1.1l1.9-0.6H338.8z"/>
<path class="st1" d="M93.7,218.3v5h1.1v1.2h-3.6v-1.2h1.1v-3.6h-1.1v-0.9l1.5-0.5H93.7z"/>
<path class="st1" d="M83.7,216.9v6.1h1.3v1.5h-4.4v-1.5H82v-4.4h-1.3v-1.1l1.9-0.6H83.7z"/>
<path class="st1" d="M84.7,216v6H86v1.4h-4.3V222h1.3v-4.3h-1.3v-1.1l1.8-0.6H84.7z"/>
<path class="st1" d="M85.1,214.9v5.7h1.3v1.4h-4.1v-1.4h1.2v-4.1h-1.2v-1.1l1.7-0.5H85.1z"/>
<path class="st1" d="M113.3,214.7c0-0.4,0.1-0.6,0.3-0.8c0.2-0.2,0.5-0.3,1-0.3h1c0.5,0,0.8,0.1,1,0.3c0.2,0.2,0.3,0.4,0.3,0.8v4
	c0,0.4-0.1,0.6-0.3,0.8c-0.2,0.2-0.5,0.3-1,0.3h-1c-0.5,0-0.8-0.1-1-0.3c-0.2-0.2-0.3-0.4-0.3-0.8V214.7z M114.6,218.5
	c0,0.1,0.1,0.2,0.2,0.2h0.5c0.1,0,0.2-0.1,0.2-0.2V215c0-0.1-0.1-0.2-0.2-0.2h-0.5c-0.1,0-0.2,0.1-0.2,0.2V218.5z"/>
<path class="st1" d="M129.3,211.4v5.2h1.1v1.2h-3.7v-1.2h1.1v-3.7h-1.1v-0.9l1.6-0.5H129.3z"/>
<path class="st1" d="M114.2,208.4v5.6h1.2v1.3h-4V214h1.2v-4h-1.2v-1l1.7-0.5H114.2z"/>
<path class="st1" d="M124,204.4v6.4h1.4v1.5h-4.6v-1.5h1.4v-4.6h-1.4v-1.2l2-0.6H124z"/>
<path class="st1" d="M142,194.9v6.7h1.5v1.6h-4.8v-1.6h1.5v-4.8h-1.5v-1.2l2-0.6H142z"/>
<path class="st1" d="M146.1,188.6v6.5h1.4v1.6h-4.7v-1.6h1.4v-4.7h-1.4v-1.2l2-0.6H146.1z"/>
<path class="st1" d="M186.4,180.9v6.5h1.4v1.6h-4.6v-1.6h1.4v-4.7h-1.4v-1.2l2-0.6H186.4z"/>
<path class="st1" d="M151.8,173.2c0-0.5,0.1-0.8,0.3-1c0.2-0.2,0.6-0.3,1.3-0.3h1.3c0.6,0,1.1,0.1,1.3,0.3c0.2,0.2,0.3,0.5,0.3,1
	v5.2c0,0.4-0.1,0.8-0.3,1c-0.2,0.2-0.6,0.3-1.3,0.3h-1.3c-0.6,0-1.1-0.1-1.3-0.3c-0.2-0.2-0.3-0.6-0.3-1V173.2z M153.6,178
	c0,0.1,0.1,0.2,0.2,0.2h0.6c0.1,0,0.2-0.1,0.2-0.2v-4.4c0-0.1-0.1-0.2-0.2-0.2h-0.6c-0.1,0-0.2,0.1-0.2,0.2V178z"/>
<path class="st1" d="M260.8,178.6c0-0.5,0.1-0.8,0.3-1c0.2-0.2,0.6-0.3,1.3-0.3h1.3c0.6,0,1.1,0.1,1.3,0.3c0.2,0.2,0.3,0.6,0.3,1
	v5.2c0,0.5-0.1,0.8-0.3,1c-0.2,0.2-0.6,0.3-1.3,0.3h-1.3c-0.6,0-1.1-0.1-1.3-0.3c-0.2-0.2-0.3-0.6-0.3-1V178.6z M262.6,183.4
	c0,0.1,0.1,0.2,0.2,0.2h0.6c0.1,0,0.2-0.1,0.2-0.2v-4.5c0-0.1-0.1-0.2-0.2-0.2h-0.6c-0.1,0-0.2,0.1-0.2,0.2V183.4z"/>
<path class="st1" d="M270,187.2c0-0.4,0.1-0.7,0.3-0.8c0.2-0.2,0.5-0.3,1-0.3h1.1c0.5,0,0.9,0.1,1.1,0.3c0.2,0.2,0.3,0.5,0.3,0.8
	v4.3c0,0.4-0.1,0.7-0.3,0.8c-0.2,0.2-0.5,0.3-1.1,0.3h-1.1c-0.5,0-0.9-0.1-1-0.3c-0.2-0.2-0.3-0.5-0.3-0.8V187.2z M271.5,191.2
	c0,0.1,0.1,0.2,0.2,0.2h0.5c0.1,0,0.2-0.1,0.2-0.2v-3.6c0-0.1-0.1-0.2-0.2-0.2h-0.5c-0.1,0-0.2,0.1-0.2,0.2V191.2z"/>
<path class="st1" d="M266.3,194c0-0.4,0.1-0.7,0.3-0.8c0.2-0.2,0.5-0.3,1-0.3h1.1c0.5,0,0.9,0.1,1,0.3c0.2,0.2,0.3,0.5,0.3,0.8v4.2
	c0,0.4-0.1,0.7-0.3,0.8c-0.2,0.2-0.5,0.3-1,0.3h-1.1c-0.5,0-0.9-0.1-1-0.3c-0.2-0.2-0.3-0.5-0.3-0.8V194z M267.7,197.9
	c0,0.1,0.1,0.2,0.2,0.2h0.5c0.1,0,0.2-0.1,0.2-0.2v-3.6c0-0.1-0.1-0.2-0.2-0.2h-0.5c-0.1,0-0.2,0.1-0.2,0.2V197.9z"/>
<path class="st1" d="M252.4,199.3c0-0.4,0.1-0.7,0.3-0.9c0.2-0.2,0.6-0.3,1.2-0.3h1.2c0.6,0,1,0.1,1.2,0.3c0.2,0.2,0.3,0.5,0.3,0.9
	v4.9c0,0.4-0.1,0.7-0.3,0.9c-0.2,0.2-0.6,0.3-1.2,0.3h-1.2c-0.6,0-1-0.1-1.2-0.3c-0.2-0.2-0.3-0.5-0.3-0.9V199.3z M254,203.8
	c0,0.1,0.1,0.2,0.2,0.2h0.6c0.1,0,0.2-0.1,0.2-0.2v-4.1c0-0.1-0.1-0.2-0.2-0.2h-0.6c-0.1,0-0.2,0.1-0.2,0.2V203.8z"/>
<path class="st1" d="M304.8,206.1v6.5h1.4v1.5h-4.6v-1.5h1.4v-4.7h-1.4v-1.2l2-0.6H304.8z"/>
<path class="st1" d="M288.4,210.1v4.9h1.1v1.2H286V215h1.1v-3.5H286v-0.9l1.5-0.5H288.4z"/>
<path class="st1" d="M288.6,212.5v5h1.1v1.2h-3.6v-1.2h1.1v-3.6h-1.1V213l1.5-0.5H288.6z"/>
<path class="st1" d="M299.3,213.7v6.2h1.4v1.5h-4.4v-1.5h1.4v-4.5h-1.4v-1.1l1.9-0.6H299.3z"/>
<path class="st1" d="M337.1,217.1c0-0.3,0.1-0.6,0.2-0.8c0.2-0.2,0.5-0.2,1-0.2h1c0.5,0,0.8,0.1,1,0.2c0.2,0.2,0.2,0.4,0.2,0.8v3.9
	c0,0.3-0.1,0.6-0.2,0.8c-0.2,0.2-0.5,0.2-1,0.2h-1c-0.5,0-0.8-0.1-1-0.2c-0.2-0.2-0.2-0.4-0.2-0.8V217.1z M338.4,220.7
	c0,0.1,0.1,0.2,0.2,0.2h0.5c0.1,0,0.2-0.1,0.2-0.2v-3.3c0-0.1-0.1-0.2-0.2-0.2h-0.5c-0.1,0-0.2,0.1-0.2,0.2V220.7z"/>
<path class="st1" d="M331.1,218.9c0-0.5,0.1-0.8,0.3-1.1c0.2-0.2,0.7-0.3,1.3-0.3h1.4c0.7,0,1.1,0.1,1.3,0.3
	c0.2,0.2,0.3,0.6,0.3,1.1v5.4c0,0.5-0.1,0.8-0.3,1.1c-0.2,0.2-0.7,0.3-1.3,0.3h-1.4c-0.7,0-1.1-0.1-1.3-0.3
	c-0.2-0.2-0.3-0.6-0.3-1.1V218.9z M332.9,224c0,0.1,0.1,0.2,0.2,0.2h0.6c0.1,0,0.2-0.1,0.2-0.2v-4.6c0-0.1-0.1-0.2-0.2-0.2h-0.6
	c-0.1,0-0.2,0.1-0.2,0.2V224z"/>
<path class="st1" d="M74,227.8v6.4h1.4v1.5h-4.6v-1.5h1.4v-4.6h-1.4v-1.2l2-0.6H74z"/>
<path class="st1" d="M90.5,229.7c0-0.3,0.1-0.6,0.2-0.7c0.2-0.2,0.5-0.2,0.9-0.2h1c0.5,0,0.8,0.1,0.9,0.2c0.2,0.2,0.2,0.4,0.2,0.7
	v3.8c0,0.3-0.1,0.6-0.2,0.7c-0.2,0.2-0.5,0.2-0.9,0.2h-1c-0.5,0-0.8-0.1-0.9-0.2c-0.2-0.2-0.2-0.4-0.2-0.7V229.7z M91.8,233.1
	c0,0.1,0,0.1,0.1,0.1h0.4c0.1,0,0.1,0,0.1-0.1v-3.2c0-0.1,0-0.1-0.1-0.1h-0.4c-0.1,0-0.1,0.1-0.1,0.1V233.1z"/>
<path class="st1" d="M107.7,228.6c0-0.4,0.1-0.8,0.3-1c0.2-0.2,0.6-0.3,1.2-0.3h1.3c0.6,0,1,0.1,1.2,0.3c0.2,0.2,0.3,0.5,0.3,1v5
	c0,0.4-0.1,0.8-0.3,1c-0.2,0.2-0.6,0.3-1.2,0.3h-1.3c-0.6,0-1-0.1-1.2-0.3c-0.2-0.2-0.3-0.5-0.3-1V228.6z M109.4,233.3
	c0,0.1,0.1,0.2,0.2,0.2h0.6c0.1,0,0.2-0.1,0.2-0.2V229c0-0.1-0.1-0.2-0.2-0.2h-0.6c-0.1,0-0.2,0.1-0.2,0.2V233.3z"/>
<path class="st1" d="M89.5,226.6v6.4h1.4v1.5h-4.6v-1.5h1.4v-4.6h-1.4v-1.2l2-0.6H89.5z"/>
<path class="st1" d="M102.8,228c0-0.3,0.1-0.6,0.2-0.7c0.2-0.2,0.5-0.2,0.9-0.2h1c0.5,0,0.8,0.1,0.9,0.2c0.2,0.2,0.2,0.4,0.2,0.7
	v3.8c0,0.3-0.1,0.6-0.2,0.7c-0.2,0.2-0.5,0.2-0.9,0.2h-1c-0.5,0-0.8-0.1-0.9-0.2c-0.2-0.2-0.2-0.4-0.2-0.7V228z M104.1,231.5
	c0,0.1,0,0.1,0.1,0.1h0.5c0.1,0,0.1,0,0.1-0.1v-3.2c0-0.1,0-0.1-0.1-0.1h-0.5c-0.1,0-0.1,0-0.1,0.1V231.5z"/>
<path class="st1" d="M111,226.3c0-0.5,0.1-0.8,0.3-1.1c0.2-0.2,0.7-0.3,1.3-0.3h1.4c0.7,0,1.1,0.1,1.4,0.3c0.2,0.2,0.3,0.6,0.3,1.1
	v5.5c0,0.5-0.1,0.8-0.3,1.1c-0.2,0.2-0.7,0.3-1.4,0.3h-1.4c-0.7,0-1.1-0.1-1.3-0.3c-0.2-0.2-0.3-0.6-0.3-1.1V226.3z M112.9,231.4
	c0,0.1,0.1,0.2,0.2,0.2h0.7c0.1,0,0.2-0.1,0.2-0.2v-4.7c0-0.1-0.1-0.2-0.2-0.2h-0.7c-0.1,0-0.2,0.1-0.2,0.2V231.4z"/>
<path class="st1" d="M122.4,225.9c0-0.4,0.1-0.6,0.3-0.8c0.2-0.2,0.5-0.3,1-0.3h1c0.5,0,0.8,0.1,1,0.3c0.2,0.2,0.3,0.4,0.3,0.8v4.1
	c0,0.4-0.1,0.6-0.3,0.8c-0.2,0.2-0.5,0.3-1,0.3h-1c-0.5,0-0.8-0.1-1-0.3c-0.2-0.2-0.3-0.4-0.3-0.8V225.9z M123.8,229.7
	c0,0.1,0.1,0.2,0.2,0.2h0.5c0.1,0,0.2-0.1,0.2-0.2v-3.5c0-0.1-0.1-0.2-0.2-0.2h-0.5c-0.1,0-0.2,0.1-0.2,0.2V229.7z"/>
<path class="st1" d="M158.5,223.1v5.7h1.3v1.4h-4.1v-1.4h1.2v-4.1h-1.2v-1l1.7-0.5H158.5z"/>
<path class="st1" d="M127.2,220.7c0-0.5,0.1-0.8,0.3-1c0.2-0.2,0.7-0.3,1.3-0.3h1.4c0.7,0,1.1,0.1,1.3,0.3c0.2,0.2,0.3,0.6,0.3,1
	v5.4c0,0.5-0.1,0.8-0.3,1c-0.2,0.2-0.7,0.3-1.3,0.3h-1.4c-0.6,0-1.1-0.1-1.3-0.3c-0.2-0.2-0.3-0.6-0.3-1V220.7z M129,225.7
	c0,0.1,0.1,0.2,0.2,0.2h0.6c0.1,0,0.2-0.1,0.2-0.2v-4.6c0-0.1-0.1-0.2-0.2-0.2h-0.6c-0.1,0-0.2,0.1-0.2,0.2V225.7z"/>
<path class="st1" d="M172,219.3c0-0.4,0.1-0.7,0.3-0.9c0.2-0.2,0.5-0.3,1.1-0.3h1.1c0.5,0,0.9,0.1,1.1,0.3c0.2,0.2,0.3,0.5,0.3,0.9
	v4.4c0,0.4-0.1,0.7-0.3,0.9c-0.2,0.2-0.5,0.3-1.1,0.3h-1.1c-0.5,0-0.9-0.1-1.1-0.3c-0.2-0.2-0.3-0.5-0.3-0.9V219.3z M173.5,223.4
	c0,0.1,0.1,0.2,0.2,0.2h0.5c0.1,0,0.2-0.1,0.2-0.2v-3.7c0-0.1-0.1-0.2-0.2-0.2h-0.5c-0.1,0-0.2,0.1-0.2,0.2V223.4z"/>
<path class="st1" d="M139.9,217.7c0-0.3,0.1-0.6,0.2-0.7c0.2-0.2,0.5-0.2,0.9-0.2h1c0.5,0,0.8,0.1,0.9,0.2c0.2,0.2,0.2,0.4,0.2,0.7
	v3.8c0,0.3-0.1,0.6-0.2,0.7c-0.2,0.2-0.5,0.2-0.9,0.2h-1c-0.5,0-0.8-0.1-0.9-0.2c-0.2-0.2-0.2-0.4-0.2-0.7V217.7z M141.2,221.2
	c0,0.1,0,0.1,0.1,0.1h0.5c0.1,0,0.1,0,0.1-0.1v-3.2c0-0.1,0-0.1-0.1-0.1h-0.5c-0.1,0-0.1,0.1-0.1,0.1V221.2z"/>
<path class="st1" d="M150.5,215.7c0-0.3,0.1-0.6,0.2-0.7c0.2-0.2,0.5-0.2,0.9-0.2h1c0.5,0,0.8,0.1,0.9,0.2c0.2,0.2,0.2,0.4,0.2,0.7
	v3.8c0,0.3-0.1,0.6-0.2,0.7c-0.2,0.2-0.5,0.2-0.9,0.2h-1c-0.5,0-0.8-0.1-0.9-0.2c-0.2-0.2-0.2-0.4-0.2-0.7V215.7z M151.8,219.2
	c0,0.1,0,0.1,0.1,0.1h0.5c0.1,0,0.1,0,0.1-0.1V216c0-0.1,0-0.1-0.1-0.1H152c-0.1,0-0.1,0.1-0.1,0.1V219.2z"/>
<path class="st1" d="M180,212.9v4.6h1v1.1h-3.3v-1.1h1v-3.3h-1v-0.8l1.4-0.4H180z"/>
<path class="st1" d="M179.5,212c0-0.4,0.1-0.7,0.3-0.8c0.2-0.2,0.5-0.3,1-0.3h1.1c0.5,0,0.9,0.1,1.1,0.3c0.2,0.2,0.3,0.5,0.3,0.8
	v4.3c0,0.4-0.1,0.7-0.3,0.8c-0.2,0.2-0.5,0.3-1.1,0.3h-1.1c-0.5,0-0.9-0.1-1-0.3c-0.2-0.2-0.3-0.5-0.3-0.8V212z M180.9,215.9
	c0,0.1,0.1,0.2,0.2,0.2h0.5c0.1,0,0.2-0.1,0.2-0.2v-3.6c0-0.1-0.1-0.2-0.2-0.2h-0.5c-0.1,0-0.2,0.1-0.2,0.2V215.9z"/>
<path class="st1" d="M177.5,209.2v5.8h1.3v1.4h-4.2v-1.4h1.3v-4.2h-1.3v-1.1l1.8-0.6H177.5z"/>
<path class="st1" d="M230,208.5v6.3h1.4v1.5h-4.5v-1.5h1.4v-4.5h-1.4v-1.2l1.9-0.6H230z"/>
<path class="st1" d="M209.8,210v5.4h1.2v1.3h-3.9v-1.3h1.2v-3.9h-1.2v-1l1.7-0.5H209.8z"/>
<path class="st1" d="M252,212.9c0-0.3,0.1-0.6,0.2-0.8c0.2-0.2,0.5-0.2,0.9-0.2h1c0.5,0,0.8,0.1,1,0.2c0.2,0.2,0.2,0.4,0.2,0.8v3.9
	c0,0.3-0.1,0.6-0.2,0.8c-0.2,0.2-0.5,0.2-1,0.2h-1c-0.5,0-0.8-0.1-0.9-0.2c-0.2-0.2-0.2-0.4-0.2-0.8V212.9z M253.3,216.5
	c0,0.1,0,0.2,0.2,0.2h0.5c0.1,0,0.2-0.1,0.2-0.2v-3.3c0-0.1,0-0.2-0.2-0.2h-0.5c-0.1,0-0.2,0.1-0.2,0.2V216.5z"/>
<path class="st1" d="M253.3,213.3v5.3h1.2v1.3h-3.8v-1.3h1.2v-3.8h-1.2v-1l1.6-0.5H253.3z"/>
<path class="st1" d="M248.6,216.5c0-0.4,0.1-0.6,0.3-0.8c0.2-0.2,0.5-0.3,1-0.3h1c0.5,0,0.8,0.1,1,0.3c0.2,0.2,0.3,0.4,0.3,0.8v4.1
	c0,0.4-0.1,0.6-0.3,0.8c-0.2,0.2-0.5,0.3-1,0.3h-1c-0.5,0-0.8-0.1-1-0.3c-0.2-0.2-0.3-0.4-0.3-0.8V216.5z M250,220.3
	c0,0.1,0.1,0.2,0.2,0.2h0.5c0.1,0,0.2-0.1,0.2-0.2v-3.5c0-0.1-0.1-0.2-0.2-0.2h-0.5c-0.1,0-0.2,0.1-0.2,0.2V220.3z"/>
<path class="st1" d="M261.7,218.2c0-0.4,0.1-0.7,0.3-0.9c0.2-0.2,0.6-0.3,1.1-0.3h1.2c0.6,0,0.9,0.1,1.1,0.3
	c0.2,0.2,0.3,0.5,0.3,0.9v4.5c0,0.4-0.1,0.7-0.3,0.9c-0.2,0.2-0.6,0.3-1.1,0.3h-1.2c-0.5,0-0.9-0.1-1.1-0.3
	c-0.2-0.2-0.3-0.5-0.3-0.9V218.2z M263.2,222.4c0,0.1,0.1,0.2,0.2,0.2h0.5c0.1,0,0.2-0.1,0.2-0.2v-3.8c0-0.1-0.1-0.2-0.2-0.2h-0.5
	c-0.1,0-0.2,0.1-0.2,0.2V222.4z"/>
<path class="st1" d="M260.3,219.7c0-0.5,0.1-0.8,0.3-1.1c0.2-0.2,0.7-0.3,1.3-0.3h1.4c0.7,0,1.1,0.1,1.3,0.3
	c0.2,0.2,0.3,0.6,0.3,1.1v5.4c0,0.5-0.1,0.8-0.3,1.1c-0.2,0.2-0.7,0.3-1.3,0.3h-1.4c-0.7,0-1.1-0.1-1.3-0.3
	c-0.2-0.2-0.3-0.6-0.3-1.1V219.7z M262.1,224.7c0,0.1,0.1,0.2,0.2,0.2h0.6c0.1,0,0.2-0.1,0.2-0.2v-4.6c0-0.1-0.1-0.2-0.2-0.2h-0.6
	c-0.1,0-0.2,0.1-0.2,0.2V224.7z"/>
<path class="st1" d="M253.3,221.5c0-0.5,0.1-0.8,0.3-1c0.2-0.2,0.7-0.3,1.3-0.3h1.4c0.7,0,1.1,0.1,1.3,0.3c0.2,0.2,0.3,0.6,0.3,1
	v5.4c0,0.5-0.1,0.8-0.3,1c-0.2,0.2-0.7,0.3-1.3,0.3h-1.4c-0.6,0-1.1-0.1-1.3-0.3c-0.2-0.2-0.3-0.6-0.3-1V221.5z M255.1,226.5
	c0,0.1,0.1,0.2,0.2,0.2h0.6c0.1,0,0.2-0.1,0.2-0.2v-4.6c0-0.1-0.1-0.2-0.2-0.2h-0.6c-0.1,0-0.2,0.1-0.2,0.2V226.5z"/>
<path class="st1" d="M275.2,223.5v5.9h1.3v1.4h-4.2v-1.4h1.3v-4.3h-1.3v-1.1l1.8-0.6H275.2z"/>
<path class="st1" d="M293.7,226.4c0-0.4,0.1-0.6,0.3-0.8c0.2-0.2,0.5-0.3,1-0.3h1.1c0.5,0,0.8,0.1,1,0.3c0.2,0.2,0.3,0.4,0.3,0.8
	v4.1c0,0.4-0.1,0.6-0.3,0.8c-0.2,0.2-0.5,0.3-1,0.3h-1.1c-0.5,0-0.8-0.1-1-0.3c-0.2-0.2-0.3-0.4-0.3-0.8V226.4z M295.1,230.2
	c0,0.1,0.1,0.2,0.2,0.2h0.5c0.1,0,0.2-0.1,0.2-0.2v-3.5c0-0.1-0.1-0.2-0.2-0.2h-0.5c-0.1,0-0.2,0.1-0.2,0.2V230.2z"/>
<path class="st1" d="M297.3,225.6v6.1h1.3v1.5h-4.3v-1.5h1.3v-4.4h-1.3v-1.1l1.9-0.6H297.3z"/>
<path class="st1" d="M300.5,226.8v5.6h1.2v1.3h-4v-1.3h1.2v-4h-1.2v-1l1.7-0.5H300.5z"/>
<path class="st1" d="M348.9,227.6v5.3h1.2v1.3h-3.8v-1.3h1.1v-3.8h-1.1v-1l1.6-0.5H348.9z"/>
<path class="st1" d="M344.2,227.5v6.2h1.4v1.5h-4.4v-1.5h1.4v-4.5h-1.4v-1.1l1.9-0.6H344.2z"/>
<path class="st1" d="M362.4,228.9c0-0.5,0.1-0.8,0.3-1.1c0.2-0.2,0.7-0.3,1.3-0.3h1.4c0.7,0,1.1,0.1,1.4,0.3
	c0.2,0.2,0.3,0.6,0.3,1.1v5.5c0,0.5-0.1,0.8-0.3,1.1c-0.2,0.2-0.7,0.3-1.4,0.3h-1.4c-0.7,0-1.1-0.1-1.3-0.3
	c-0.2-0.2-0.3-0.6-0.3-1.1V228.9z M364.3,234c0,0.1,0.1,0.2,0.2,0.2h0.7c0.1,0,0.2-0.1,0.2-0.2v-4.7c0-0.1-0.1-0.2-0.2-0.2h-0.7
	c-0.1,0-0.2,0.1-0.2,0.2V234z"/>
<path class="st1" d="M357.7,227.8v6.5h1.4v1.6h-4.7v-1.6h1.4v-4.7h-1.4v-1.2l2-0.6H357.7z"/>
<path class="st1" d="M46.7,240.6v4.7h1v1.1h-3.3v-1.1h1v-3.4h-1V241l1.4-0.4H46.7z"/>
<path class="st1" d="M81.2,238.2v5.5h1.2v1.3h-3.9v-1.3h1.2v-4h-1.2v-1l1.7-0.5H81.2z"/>
<path class="st1" d="M62.6,269.4c0-0.3,0.1-0.6,0.2-0.8c0.2-0.2,0.5-0.2,0.9-0.2h1c0.5,0,0.8,0.1,0.9,0.2c0.2,0.2,0.2,0.4,0.2,0.8
	v3.8c0,0.3-0.1,0.6-0.2,0.7c-0.2,0.2-0.5,0.2-0.9,0.2h-1c-0.5,0-0.8-0.1-0.9-0.2c-0.2-0.2-0.2-0.4-0.2-0.7V269.4z M63.9,273
	c0,0.1,0,0.2,0.1,0.2h0.5c0.1,0,0.2,0,0.2-0.2v-3.3c0-0.1,0-0.1-0.2-0.1h-0.5c-0.1,0-0.1,0.1-0.1,0.1V273z"/>
<path class="st1" d="M121.2,237.7v5.7h1.2v1.4h-4.1v-1.4h1.2v-4.1h-1.2v-1l1.7-0.5H121.2z"/>
<path class="st1" d="M102.9,239.1c0-0.3,0.1-0.6,0.2-0.7c0.2-0.2,0.5-0.2,0.9-0.2h1c0.5,0,0.8,0.1,0.9,0.2c0.2,0.2,0.2,0.4,0.2,0.7
	v3.7c0,0.3-0.1,0.6-0.2,0.7c-0.2,0.2-0.5,0.2-0.9,0.2h-1c-0.5,0-0.8-0.1-0.9-0.2c-0.2-0.2-0.2-0.4-0.2-0.7V239.1z M104.2,242.6
	c0,0.1,0,0.1,0.1,0.1h0.4c0.1,0,0.1,0,0.1-0.1v-3.2c0-0.1,0-0.1-0.1-0.1h-0.4c-0.1,0-0.1,0-0.1,0.1V242.6z"/>
<path class="st1" d="M94.1,238.2c0-0.4,0.1-0.7,0.3-0.9c0.2-0.2,0.6-0.3,1.2-0.3h1.2c0.6,0,1,0.1,1.2,0.3c0.2,0.2,0.3,0.5,0.3,0.9
	v4.9c0,0.4-0.1,0.7-0.3,0.9c-0.2,0.2-0.6,0.3-1.2,0.3h-1.2c-0.6,0-1-0.1-1.2-0.3c-0.2-0.2-0.3-0.5-0.3-0.9V238.2z M95.7,242.7
	c0,0.1,0.1,0.2,0.2,0.2h0.6c0.1,0,0.2-0.1,0.2-0.2v-4.2c0-0.1-0.1-0.2-0.2-0.2h-0.6c-0.1,0-0.2,0.1-0.2,0.2V242.7z"/>
<path class="st1" d="M144.9,236.6v5.9h1.3v1.4H142v-1.4h1.3v-4.2H142v-1.1l1.8-0.6H144.9z"/>
<path class="st1" d="M156.6,264.7v6.2h1.4v1.5h-4.4v-1.5h1.4v-4.5h-1.4v-1.1l1.9-0.6H156.6z"/>
<path class="st1" d="M122.6,236.4c0-0.4,0.1-0.6,0.3-0.8c0.2-0.2,0.5-0.3,1-0.3h1c0.5,0,0.8,0.1,1,0.3c0.2,0.2,0.3,0.4,0.3,0.8v4.1
	c0,0.4-0.1,0.6-0.3,0.8c-0.2,0.2-0.5,0.3-1,0.3h-1c-0.5,0-0.8-0.1-1-0.3c-0.2-0.2-0.3-0.4-0.3-0.8V236.4z M124,240.2
	c0,0.1,0.1,0.2,0.2,0.2h0.5c0.1,0,0.2-0.1,0.2-0.2v-3.5c0-0.1-0.1-0.2-0.2-0.2h-0.5c-0.1,0-0.2,0.1-0.2,0.2V240.2z"/>
<path class="st1" d="M182.7,256.8v5h1.1v1.2h-3.5v-1.2h1.1v-3.6h-1.1v-0.9l1.5-0.5H182.7z"/>
<path class="st1" d="M155.7,234v4.9h1.1v1.2h-3.5v-1.2h1.1v-3.5h-1.1v-0.9l1.5-0.5H155.7z"/>
<path class="st1" d="M168,234.4c0-0.3,0.1-0.6,0.2-0.7c0.2-0.2,0.5-0.2,0.9-0.2h1c0.5,0,0.8,0.1,0.9,0.2c0.2,0.2,0.2,0.4,0.2,0.7
	v3.7c0,0.3-0.1,0.6-0.2,0.7c-0.2,0.2-0.5,0.2-0.9,0.2h-1c-0.5,0-0.8-0.1-0.9-0.2c-0.2-0.2-0.2-0.4-0.2-0.7V234.4z M169.2,237.9
	c0,0.1,0,0.1,0.1,0.1h0.4c0.1,0,0.1,0,0.1-0.1v-3.2c0-0.1,0-0.1-0.1-0.1h-0.4c-0.1,0-0.1,0-0.1,0.1V237.9z"/>
<path class="st1" d="M161.2,233.5c0-0.4,0.1-0.7,0.3-0.8c0.2-0.2,0.5-0.3,1-0.3h1.1c0.5,0,0.9,0.1,1,0.3c0.2,0.2,0.3,0.5,0.3,0.8
	v4.2c0,0.4-0.1,0.7-0.3,0.8c-0.2,0.2-0.5,0.3-1,0.3h-1.1c-0.5,0-0.9-0.1-1-0.3c-0.2-0.2-0.3-0.5-0.3-0.8V233.5z M162.7,237.5
	c0,0.1,0.1,0.2,0.2,0.2h0.5c0.1,0,0.2-0.1,0.2-0.2v-3.6c0-0.1-0.1-0.2-0.2-0.2h-0.5c-0.1,0-0.2,0.1-0.2,0.2V237.5z"/>
<path class="st1" d="M189.2,232.1v4.9h1.1v1.2h-3.5V237h1.1v-3.5h-1.1v-0.9l1.5-0.5H189.2z"/>
<path class="st1" d="M195.5,232.7c0-0.3,0.1-0.6,0.2-0.8c0.2-0.2,0.5-0.2,1-0.2h1c0.5,0,0.8,0.1,1,0.2c0.2,0.2,0.2,0.4,0.2,0.8v3.9
	c0,0.3-0.1,0.6-0.2,0.8c-0.2,0.2-0.5,0.2-1,0.2h-1c-0.5,0-0.8-0.1-1-0.2c-0.2-0.2-0.2-0.4-0.2-0.8V232.7z M196.8,236.4
	c0,0.1,0.1,0.2,0.2,0.2h0.5c0.1,0,0.2-0.1,0.2-0.2V233c0-0.1-0.1-0.2-0.2-0.2h-0.5c-0.1,0-0.2,0.1-0.2,0.2V236.4z"/>
<path class="st1" d="M198.7,232.6c0-0.3,0.1-0.6,0.2-0.7c0.2-0.2,0.5-0.2,0.9-0.2h1c0.5,0,0.8,0.1,0.9,0.2c0.2,0.2,0.2,0.4,0.2,0.7
	v3.8c0,0.3-0.1,0.6-0.2,0.7c-0.2,0.2-0.5,0.2-0.9,0.2h-1c-0.5,0-0.8-0.1-0.9-0.2c-0.2-0.2-0.2-0.4-0.2-0.7V232.6z M200,236.1
	c0,0.1,0,0.1,0.1,0.1h0.5c0.1,0,0.1,0,0.1-0.1v-3.2c0-0.1,0-0.1-0.1-0.1h-0.5c-0.1,0-0.1,0-0.1,0.1V236.1z"/>
<path class="st1" d="M237.8,231.2v5.3h1.2v1.3h-3.8v-1.3h1.2v-3.9h-1.2v-1l1.6-0.5H237.8z"/>
<path class="st1" d="M238.8,231.3v5.8h1.3v1.4h-4.1v-1.4h1.3v-4.2h-1.3v-1.1l1.8-0.6H238.8z"/>
<path class="st1" d="M261.7,231.5v6.1h1.3v1.5h-4.4v-1.5h1.3v-4.4h-1.3v-1.1l1.9-0.6H261.7z"/>
<path class="st1" d="M244.5,232.8v5.1h1.1v1.2H242v-1.2h1.1v-3.6H242v-0.9l1.5-0.5H244.5z"/>
<path class="st1" d="M229.3,232.7v6.4h1.4v1.5h-4.5V239h1.4v-4.6h-1.4v-1.2l1.9-0.6H229.3z"/>
<path class="st1" d="M287.8,234.2v5h1.1v1.2h-3.6v-1.2h1.1v-3.6h-1.1v-0.9l1.5-0.5H287.8z"/>
<path class="st1" d="M257.9,234.8v5.3h1.2v1.3h-3.8V240h1.1v-3.8h-1.1v-1l1.6-0.5H257.9z"/>
<path class="st1" d="M302.6,235.2v5.7h1.3v1.4h-4.1v-1.4h1.2v-4.1h-1.2v-1.1l1.7-0.5H302.6z"/>
<path class="st1" d="M288.3,237.3c0-0.5,0.1-0.8,0.3-1c0.2-0.2,0.7-0.3,1.3-0.3h1.4c0.7,0,1.1,0.1,1.3,0.3c0.2,0.2,0.3,0.6,0.3,1
	v5.3c0,0.5-0.1,0.8-0.3,1c-0.2,0.2-0.7,0.3-1.3,0.3h-1.4c-0.6,0-1.1-0.1-1.3-0.3c-0.2-0.2-0.3-0.6-0.3-1V237.3z M290.1,242.2
	c0,0.1,0.1,0.2,0.2,0.2h0.6c0.1,0,0.2-0.1,0.2-0.2v-4.5c0-0.1-0.1-0.2-0.2-0.2h-0.6c-0.1,0-0.2,0.1-0.2,0.2V242.2z"/>
<path class="st1" d="M283.6,237.1v5.4h1.2v1.3h-3.9v-1.3h1.2v-3.9h-1.2v-1l1.6-0.5H283.6z"/>
<path class="st1" d="M303.8,238.6c0-0.4,0.1-0.7,0.3-0.9c0.2-0.2,0.6-0.3,1.1-0.3h1.1c0.6,0,0.9,0.1,1.1,0.3
	c0.2,0.2,0.3,0.5,0.3,0.9v4.5c0,0.4-0.1,0.7-0.3,0.9c-0.2,0.2-0.6,0.3-1.1,0.3h-1.1c-0.5,0-0.9-0.1-1.1-0.3
	c-0.2-0.2-0.3-0.5-0.3-0.9V238.6z M305.3,242.7c0,0.1,0.1,0.2,0.2,0.2h0.5c0.1,0,0.2-0.1,0.2-0.2v-3.8c0-0.1-0.1-0.2-0.2-0.2h-0.5
	c-0.1,0-0.2,0.1-0.2,0.2V242.7z"/>
<path class="st1" d="M339.5,237v6.7h1.5v1.6h-4.8v-1.6h1.4v-4.8h-1.4v-1.2l2-0.6H339.5z"/>
<path class="st1" d="M311.2,238.6c0-0.5,0.1-0.9,0.3-1.1c0.2-0.2,0.7-0.3,1.4-0.3h1.4c0.7,0,1.1,0.1,1.4,0.3
	c0.2,0.2,0.3,0.6,0.3,1.1v5.5c0,0.5-0.1,0.8-0.3,1.1c-0.2,0.2-0.7,0.3-1.4,0.3h-1.4c-0.7,0-1.1-0.1-1.4-0.3
	c-0.2-0.2-0.3-0.6-0.3-1.1V238.6z M313,243.7c0,0.1,0.1,0.2,0.2,0.2h0.7c0.1,0,0.2-0.1,0.2-0.2V239c0-0.1-0.1-0.2-0.2-0.2h-0.7
	c-0.1,0-0.2,0.1-0.2,0.2V243.7z"/>
<path class="st1" d="M325.1,293.3c0-0.5,0.1-0.8,0.3-1c0.2-0.2,0.7-0.3,1.3-0.3h1.3c0.7,0,1.1,0.1,1.3,0.3c0.2,0.2,0.3,0.6,0.3,1
	v5.3c0,0.5-0.1,0.8-0.3,1c-0.2,0.2-0.7,0.3-1.3,0.3h-1.3c-0.6,0-1.1-0.1-1.3-0.3c-0.2-0.2-0.3-0.6-0.3-1V293.3z M326.9,298.2
	c0,0.1,0.1,0.2,0.2,0.2h0.6c0.1,0,0.2-0.1,0.2-0.2v-4.5c0-0.1-0.1-0.2-0.2-0.2h-0.6c-0.1,0-0.2,0.1-0.2,0.2V298.2z"/>
<path class="st1" d="M338,238v5.8h1.3v1.4h-4.2v-1.4h1.3v-4.2h-1.3v-1.1l1.8-0.6H338z"/>
<path class="st1" d="M356.3,238.7v4.7h1v1.1h-3.4v-1.1h1v-3.4h-1v-0.9l1.4-0.5H356.3z"/>
<path class="st1" d="M73.5,247.7v5.7h1.3v1.4h-4.1v-1.4h1.3v-4.1h-1.3v-1.1l1.7-0.5H73.5z"/>
<path class="st1" d="M64.3,249.1c0-0.4,0.1-0.7,0.3-0.8c0.2-0.2,0.5-0.3,1.1-0.3h1.1c0.5,0,0.9,0.1,1.1,0.3c0.2,0.2,0.3,0.5,0.3,0.8
	v4.3c0,0.4-0.1,0.7-0.3,0.8c-0.2,0.2-0.5,0.3-1.1,0.3h-1.1c-0.5,0-0.9-0.1-1.1-0.3c-0.2-0.2-0.3-0.5-0.3-0.8V249.1z M65.8,253.1
	c0,0.1,0.1,0.2,0.2,0.2h0.5c0.1,0,0.2-0.1,0.2-0.2v-3.7c0-0.1-0.1-0.2-0.2-0.2h-0.5c-0.1,0-0.2,0.1-0.2,0.2V253.1z"/>
<path class="st1" d="M101.4,248.7c0-0.5,0.1-0.8,0.3-1c0.2-0.2,0.6-0.3,1.2-0.3h1.3c0.6,0,1,0.1,1.3,0.3c0.2,0.2,0.3,0.5,0.3,1v5.1
	c0,0.4-0.1,0.8-0.3,1c-0.2,0.2-0.6,0.3-1.3,0.3h-1.3c-0.6,0-1-0.1-1.2-0.3c-0.2-0.2-0.3-0.5-0.3-1V248.7z M103.1,253.4
	c0,0.1,0.1,0.2,0.2,0.2h0.6c0.1,0,0.2-0.1,0.2-0.2v-4.3c0-0.1-0.1-0.2-0.2-0.2h-0.6c-0.1,0-0.2,0.1-0.2,0.2V253.4z"/>
<path class="st1" d="M86.1,247.6v5.8h1.3v1.4h-4.1v-1.4h1.3v-4.2h-1.3v-1.1l1.8-0.6H86.1z"/>
<path class="st1" d="M116.8,247.8v5.3h1.2v1.3h-3.7V253h1.1v-3.8h-1.1v-1l1.6-0.5H116.8z"/>
<path class="st1" d="M114.1,248.5c0-0.4,0.1-0.7,0.3-0.9c0.2-0.2,0.6-0.3,1.1-0.3h1.2c0.6,0,1,0.1,1.2,0.3c0.2,0.2,0.3,0.5,0.3,0.9
	v4.7c0,0.4-0.1,0.7-0.3,0.9c-0.2,0.2-0.6,0.3-1.2,0.3h-1.2c-0.6,0-0.9-0.1-1.1-0.3c-0.2-0.2-0.3-0.5-0.3-0.9V248.5z M115.6,252.9
	c0,0.1,0.1,0.2,0.2,0.2h0.6c0.1,0,0.2-0.1,0.2-0.2v-4c0-0.1-0.1-0.2-0.2-0.2h-0.6c-0.1,0-0.2,0.1-0.2,0.2V252.9z"/>
<path class="st1" d="M108.3,265.7v4.6h1v1.1h-3.3v-1.1h1V267h-1v-0.9l1.4-0.4H108.3z"/>
<path class="st1" d="M152.3,247.1v5h1.1v1.2h-3.6v-1.2h1.1v-3.6h-1.1v-0.9l1.5-0.5H152.3z"/>
<path class="st1" d="M137.7,247.6c0-0.4,0.1-0.7,0.3-0.9c0.2-0.2,0.6-0.3,1.1-0.3h1.2c0.6,0,0.9,0.1,1.1,0.3
	c0.2,0.2,0.3,0.5,0.3,0.9v4.6c0,0.4-0.1,0.7-0.3,0.9c-0.2,0.2-0.6,0.3-1.1,0.3h-1.2c-0.6,0-0.9-0.1-1.1-0.3
	c-0.2-0.2-0.3-0.5-0.3-0.9V247.6z M139.3,251.9c0,0.1,0.1,0.2,0.2,0.2h0.5c0.1,0,0.2-0.1,0.2-0.2V248c0-0.1-0.1-0.2-0.2-0.2h-0.5
	c-0.1,0-0.2,0.1-0.2,0.2V251.9z"/>
<path class="st1" d="M165.9,277v6.4h1.4v1.5h-4.5v-1.5h1.4v-4.6h-1.4v-1.2l1.9-0.6H165.9z"/>
<path class="st1" d="M158.9,245.8v5.8h1.3v1.4H156v-1.4h1.3v-4.2H156v-1.1l1.8-0.6H158.9z"/>
<path class="st1" d="M208.1,245.3v6.2h1.4v1.5h-4.4v-1.5h1.3v-4.5h-1.3v-1.1l1.9-0.6H208.1z"/>
<path class="st1" d="M198.8,271.3v4.8h1v1.1h-3.4v-1.1h1v-3.4h-1v-0.9l1.4-0.5H198.8z"/>
<path class="st1" d="M221.9,244.7v6.6h1.4v1.6h-4.7v-1.6h1.4v-4.7h-1.4v-1.2l2-0.6H221.9z"/>
<path class="st1" d="M228.2,251.1v6.5h1.4v1.6H225v-1.6h1.4v-4.7H225v-1.2l2-0.6H228.2z"/>
<path class="st1" d="M224.3,245.9v4.6h1v1.1H222v-1.1h1v-3.3h-1v-0.8l1.4-0.4H224.3z"/>
<path class="st1" d="M226,253.2c0-0.4,0.1-0.6,0.3-0.8c0.2-0.2,0.5-0.3,1-0.3h1c0.5,0,0.8,0.1,1,0.3c0.2,0.2,0.3,0.4,0.3,0.8v4.1
	c0,0.4-0.1,0.6-0.3,0.8c-0.2,0.2-0.5,0.3-1,0.3h-1c-0.5,0-0.8-0.1-1-0.3c-0.2-0.2-0.3-0.4-0.3-0.8V253.2z M227.4,257
	c0,0.1,0.1,0.2,0.2,0.2h0.5c0.1,0,0.2-0.1,0.2-0.2v-3.5c0-0.1-0.1-0.2-0.2-0.2h-0.5c-0.1,0-0.2,0.1-0.2,0.2V257z"/>
<path class="st1" d="M260.1,251.3v6.7h1.5v1.6h-4.8V258h1.5v-4.9h-1.5v-1.2l2.1-0.6H260.1z"/>
<path class="st1" d="M234.9,253.3c0-0.4,0.1-0.7,0.3-0.9c0.2-0.2,0.6-0.3,1.1-0.3h1.2c0.6,0,1,0.1,1.1,0.3c0.2,0.2,0.3,0.5,0.3,0.9
	v4.6c0,0.4-0.1,0.7-0.3,0.9c-0.2,0.2-0.6,0.3-1.1,0.3h-1.2c-0.6,0-0.9-0.1-1.1-0.3c-0.2-0.2-0.3-0.5-0.3-0.9V253.3z M236.5,257.6
	c0,0.1,0.1,0.2,0.2,0.2h0.6c0.1,0,0.2-0.1,0.2-0.2v-4c0-0.1-0.1-0.2-0.2-0.2h-0.6c-0.1,0-0.2,0.1-0.2,0.2V257.6z"/>
<path class="st1" d="M242.7,281.5v5.5h1.2v1.3H240V287h1.2v-4H240v-1l1.7-0.5H242.7z"/>
<path class="st1" d="M248,252.5v5.9h1.3v1.4h-4.2v-1.4h1.3v-4.2h-1.3v-1.1l1.8-0.6H248z"/>
<path class="st1" d="M241.9,254.4c0-0.4,0.1-0.6,0.3-0.8c0.2-0.2,0.5-0.3,1-0.3h1c0.5,0,0.8,0.1,1,0.3c0.2,0.2,0.3,0.4,0.3,0.8v4.1
	c0,0.4-0.1,0.6-0.3,0.8c-0.2,0.2-0.5,0.3-1,0.3h-1c-0.5,0-0.8-0.1-1-0.3c-0.2-0.2-0.3-0.4-0.3-0.8V254.4z M243.3,258.2
	c0,0.1,0.1,0.2,0.2,0.2h0.5c0.1,0,0.2-0.1,0.2-0.2v-3.5c0-0.1-0.1-0.2-0.2-0.2h-0.5c-0.1,0-0.2,0.1-0.2,0.2V258.2z"/>
<path class="st1" d="M285,247.1v5.2h1.1v1.2h-3.7v-1.2h1.1v-3.8h-1.1v-1l1.6-0.5H285z"/>
<path class="st1" d="M298.9,247.1v5.9h1.3v1.4H296V253h1.3v-4.2H296v-1.1l1.8-0.6H298.9z"/>
<path class="st1" d="M306.2,247.4v5.6h1.2v1.3h-4v-1.3h1.2V249h-1.2v-1l1.7-0.5H306.2z"/>
<path class="st1" d="M303.3,248.8c0-0.4,0.1-0.7,0.3-0.9c0.2-0.2,0.6-0.3,1.1-0.3h1.2c0.6,0,0.9,0.1,1.1,0.3
	c0.2,0.2,0.3,0.5,0.3,0.9v4.5c0,0.4-0.1,0.7-0.3,0.9c-0.2,0.2-0.6,0.3-1.1,0.3h-1.2c-0.6,0-0.9-0.1-1.1-0.3
	c-0.2-0.2-0.3-0.5-0.3-0.9V248.8z M304.8,253c0,0.1,0.1,0.2,0.2,0.2h0.5c0.1,0,0.2-0.1,0.2-0.2v-3.9c0-0.1-0.1-0.2-0.2-0.2H305
	c-0.1,0-0.2,0.1-0.2,0.2V253z"/>
<path class="st1" d="M304.2,248.9c0-0.4,0.1-0.7,0.3-0.9c0.2-0.2,0.6-0.3,1.1-0.3h1.2c0.6,0,0.9,0.1,1.1,0.3
	c0.2,0.2,0.3,0.5,0.3,0.9v4.5c0,0.4-0.1,0.7-0.3,0.9c-0.2,0.2-0.6,0.3-1.1,0.3h-1.2c-0.5,0-0.9-0.1-1.1-0.3
	c-0.2-0.2-0.3-0.5-0.3-0.9V248.9z M305.7,253.1c0,0.1,0.1,0.2,0.2,0.2h0.5c0.1,0,0.2-0.1,0.2-0.2v-3.9c0-0.1-0.1-0.2-0.2-0.2h-0.5
	c-0.1,0-0.2,0.1-0.2,0.2V253.1z"/>
<path class="st1" d="M338.4,248.5c0-0.5,0.1-0.8,0.3-1.1c0.2-0.2,0.7-0.3,1.4-0.3h1.4c0.7,0,1.1,0.1,1.4,0.3
	c0.2,0.2,0.3,0.6,0.3,1.1v5.5c0,0.5-0.1,0.8-0.3,1.1c-0.2,0.2-0.7,0.3-1.4,0.3h-1.4c-0.7,0-1.1-0.1-1.4-0.3
	c-0.2-0.2-0.3-0.6-0.3-1.1V248.5z M340.3,253.6c0,0.1,0.1,0.2,0.2,0.2h0.7c0.1,0,0.2-0.1,0.2-0.2v-4.7c0-0.1-0.1-0.2-0.2-0.2h-0.7
	c-0.1,0-0.2,0.1-0.2,0.2V253.6z"/>
<path class="st1" d="M366.4,247.6v5.8h1.3v1.4h-4.2v-1.4h1.3v-4.2h-1.3v-1.1l1.8-0.6H366.4z"/>
</svg>
