<?xml version="1.0" encoding="utf-8"?>
<!-- Generator: Adobe Illustrator 22.0.1, SVG Export Plug-In . SVG Version: 6.00 Build 0)  -->
<svg version="1.1" id="圖層_1" xmlns="http://www.w3.org/2000/svg" xmlns:xlink="http://www.w3.org/1999/xlink" x="0px" y="0px"
	 viewBox="0 0 425.2 425.2" style="enable-background:new 0 0 425.2 425.2;" xml:space="preserve">
<style type="text/css">
	.st0{fill:#00C5C2;}
	.st1{fill:#007877;}
</style>
<path class="st0" d="M73.8,246.4v4.5h1v1.1h-3.2v-1.1h1v-3.2h-1v-0.8l1.4-0.4H73.8z"/>
<path class="st0" d="M79.5,247.3c0-0.3,0.1-0.6,0.2-0.7c0.2-0.2,0.5-0.2,0.9-0.2h0.9c0.5,0,0.8,0.1,0.9,0.2c0.2,0.2,0.2,0.4,0.2,0.7
	v3.7c0,0.3-0.1,0.6-0.2,0.7c-0.2,0.2-0.5,0.2-0.9,0.2h-0.9c-0.4,0-0.7-0.1-0.9-0.2c-0.2-0.2-0.2-0.4-0.2-0.7V247.3z M80.8,250.7
	c0,0.1,0,0.1,0.1,0.1h0.4c0.1,0,0.1,0,0.1-0.1v-3.1c0-0.1,0-0.1-0.1-0.1h-0.4c-0.1,0-0.1,0-0.1,0.1V250.7z"/>
<path class="st0" d="M87.5,247.3c0-0.3,0.1-0.6,0.2-0.7c0.2-0.2,0.5-0.2,0.9-0.2h0.9c0.5,0,0.8,0.1,0.9,0.2c0.2,0.2,0.2,0.4,0.2,0.7
	v3.7c0,0.3-0.1,0.6-0.2,0.7c-0.2,0.2-0.5,0.2-0.9,0.2h-0.9c-0.4,0-0.8-0.1-0.9-0.2c-0.2-0.2-0.2-0.4-0.2-0.7V247.3z M88.8,250.7
	c0,0.1,0,0.1,0.1,0.1h0.4c0.1,0,0.1,0,0.1-0.1v-3.1c0-0.1,0-0.1-0.1-0.1h-0.4c-0.1,0-0.1,0-0.1,0.1V250.7z"/>
<path class="st0" d="M97.7,246.3v4.5h1v1.1h-3.2v-1.1h1v-3.2h-1v-0.8l1.4-0.4H97.7z"/>
<path class="st0" d="M105.7,246.2v4.5h1v1.1h-3.2v-1.1h1v-3.2h-1v-0.8l1.4-0.4H105.7z"/>
<path class="st0" d="M113.7,246.1v4.5h1v1.1h-3.2v-1.1h1v-3.2h-1v-0.8l1.4-0.4H113.7z"/>
<path class="st0" d="M119.4,246.9c0-0.3,0.1-0.6,0.2-0.7c0.2-0.2,0.5-0.2,0.9-0.2h0.9c0.5,0,0.8,0.1,0.9,0.2
	c0.2,0.2,0.2,0.4,0.2,0.7v3.7c0,0.3-0.1,0.6-0.2,0.7c-0.2,0.2-0.5,0.2-0.9,0.2h-0.9c-0.4,0-0.8-0.1-0.9-0.2
	c-0.2-0.2-0.2-0.4-0.2-0.7V246.9z M120.7,250.3c0,0.1,0,0.1,0.1,0.1h0.4c0.1,0,0.1,0,0.1-0.1v-3.1c0-0.1,0-0.1-0.1-0.1h-0.4
	c-0.1,0-0.1,0-0.1,0.1V250.3z"/>
<path class="st0" d="M341.8,238.8v4.5h1v1.1h-3.2v-1.1h1V240h-1v-0.8l1.4-0.4H341.8z"/>
<path class="st0" d="M349.8,238.9v4.5h1v1.1h-3.2v-1.1h1v-3.2h-1v-0.8l1.4-0.4H349.8z"/>
<path class="st0" d="M315.6,271.1c0-0.3,0.1-0.6,0.2-0.7c0.2-0.2,0.5-0.2,0.9-0.2h0.9c0.5,0,0.8,0.1,0.9,0.2
	c0.2,0.2,0.2,0.4,0.2,0.7v3.7c0,0.3-0.1,0.6-0.2,0.7c-0.2,0.2-0.5,0.2-0.9,0.2h-0.9c-0.4,0-0.7-0.1-0.9-0.2
	c-0.2-0.2-0.2-0.4-0.2-0.7V271.1z M316.9,274.5c0,0.1,0,0.1,0.1,0.1h0.4c0.1,0,0.1,0,0.1-0.1v-3.1c0-0.1,0-0.1-0.1-0.1H317
	c-0.1,0-0.1,0-0.1,0.1V274.5z"/>
<path class="st0" d="M323.6,271.1c0-0.3,0.1-0.6,0.2-0.7c0.2-0.2,0.5-0.2,0.9-0.2h0.9c0.5,0,0.8,0.1,0.9,0.2
	c0.2,0.2,0.2,0.4,0.2,0.7v3.7c0,0.3-0.1,0.6-0.2,0.7c-0.2,0.2-0.5,0.2-0.9,0.2h-0.9c-0.4,0-0.8-0.1-0.9-0.2
	c-0.2-0.2-0.2-0.4-0.2-0.7V271.1z M324.8,274.5c0,0.1,0,0.1,0.1,0.1h0.4c0.1,0,0.1,0,0.1-0.1v-3.1c0-0.1,0-0.1-0.1-0.1H325
	c-0.1,0-0.1,0-0.1,0.1V274.5z"/>
<path class="st0" d="M333.8,270.2v4.5h1v1.1h-3.2v-1.1h1v-3.2h-1v-0.8l1.4-0.4H333.8z"/>
<path class="st0" d="M339.5,271.2c0-0.3,0.1-0.6,0.2-0.7c0.2-0.2,0.5-0.2,0.9-0.2h0.9c0.5,0,0.8,0.1,0.9,0.2
	c0.2,0.2,0.2,0.4,0.2,0.7v3.7c0,0.3-0.1,0.6-0.2,0.7c-0.2,0.2-0.5,0.2-0.9,0.2h-0.9c-0.4,0-0.8-0.1-0.9-0.2
	c-0.2-0.2-0.2-0.4-0.2-0.7V271.2z M340.8,274.6c0,0.1,0,0.1,0.1,0.1h0.4c0.1,0,0.1,0,0.1-0.1v-3.1c0-0.1,0-0.1-0.1-0.1h-0.4
	c-0.1,0-0.1,0-0.1,0.1V274.6z"/>
<path class="st0" d="M71.6,256.9c0-0.3,0.1-0.6,0.2-0.7c0.2-0.2,0.5-0.2,0.9-0.2h0.9c0.5,0,0.8,0.1,0.9,0.2c0.2,0.2,0.2,0.4,0.2,0.7
	v3.7c0,0.3-0.1,0.6-0.2,0.7c-0.2,0.2-0.5,0.2-0.9,0.2h-0.9c-0.4,0-0.8-0.1-0.9-0.2c-0.2-0.2-0.2-0.4-0.2-0.7V256.9z M72.8,260.3
	c0,0.1,0,0.1,0.1,0.1h0.4c0.1,0,0.1,0,0.1-0.1v-3.1c0-0.1,0-0.1-0.1-0.1h-0.4c-0.1,0-0.1,0-0.1,0.1V260.3z"/>
<path class="st0" d="M81.8,256v4.5h1v1.1h-3.2v-1.1h1v-3.2h-1v-0.8l1.4-0.4H81.8z"/>
<path class="st0" d="M89.8,256v4.5h1v1.1h-3.2v-1.1h1v-3.2h-1v-0.8l1.4-0.4H89.8z"/>
<path class="st0" d="M97.7,256v4.5h1v1.1h-3.2v-1.1h1v-3.2h-1v-0.8l1.4-0.4H97.7z"/>
<path class="st0" d="M103.5,256.9c0-0.3,0.1-0.6,0.2-0.7c0.2-0.2,0.5-0.2,0.9-0.2h0.9c0.5,0,0.8,0.1,0.9,0.2
	c0.2,0.2,0.2,0.4,0.2,0.7v3.7c0,0.3-0.1,0.6-0.2,0.7c-0.2,0.2-0.5,0.2-0.9,0.2h-0.9c-0.4,0-0.8-0.1-0.9-0.2
	c-0.2-0.2-0.2-0.4-0.2-0.7V256.9z M104.7,260.3c0,0.1,0,0.1,0.1,0.1h0.4c0.1,0,0.1,0,0.1-0.1v-3.1c0-0.1,0-0.1-0.1-0.1h-0.4
	c-0.1,0-0.1,0-0.1,0.1V260.3z"/>
<path class="st0" d="M93.9,232.3c0-0.3,0.1-0.6,0.2-0.7c0.2-0.2,0.5-0.2,0.9-0.2H96c0.5,0,0.8,0.1,0.9,0.2c0.2,0.2,0.2,0.4,0.2,0.7
	v3.7c0,0.3-0.1,0.6-0.2,0.7c-0.2,0.2-0.5,0.2-0.9,0.2H95c-0.4,0-0.8-0.1-0.9-0.2c-0.2-0.2-0.2-0.4-0.2-0.7V232.3z M95.1,235.7
	c0,0.1,0,0.1,0.1,0.1h0.4c0.1,0,0.1,0,0.1-0.1v-3.1c0-0.1,0-0.1-0.1-0.1h-0.4c-0.1,0-0.1,0-0.1,0.1V235.7z"/>
<path class="st0" d="M119.4,256.8c0-0.3,0.1-0.6,0.2-0.7c0.2-0.2,0.5-0.2,0.9-0.2h0.9c0.5,0,0.8,0.1,0.9,0.2
	c0.2,0.2,0.2,0.4,0.2,0.7v3.7c0,0.3-0.1,0.6-0.2,0.7c-0.2,0.2-0.5,0.2-0.9,0.2h-0.9c-0.4,0-0.8-0.1-0.9-0.2
	c-0.2-0.2-0.2-0.4-0.2-0.7V256.8z M120.7,260.3c0,0.1,0,0.1,0.1,0.1h0.4c0.1,0,0.1,0,0.1-0.1v-3.1c0-0.1,0-0.1-0.1-0.1h-0.4
	c-0.1,0-0.1,0-0.1,0.1V260.3z"/>
<path class="st0" d="M129.6,255.9v4.5h1v1.1h-3.2v-1.1h1v-3.2h-1v-0.8l1.4-0.4H129.6z"/>
<path class="st0" d="M150.4,279.6v4.5h1v1.1h-3.2v-1.1h1v-3.2h-1V280l1.4-0.4H150.4z"/>
<path class="st0" d="M164.1,280.3c0-0.3,0.1-0.6,0.2-0.7c0.2-0.2,0.5-0.2,0.9-0.2h0.9c0.5,0,0.8,0.1,0.9,0.2
	c0.2,0.2,0.2,0.4,0.2,0.7v3.7c0,0.3-0.1,0.6-0.2,0.7c-0.2,0.2-0.5,0.2-0.9,0.2h-0.9c-0.4,0-0.7-0.1-0.9-0.2
	c-0.2-0.2-0.2-0.4-0.2-0.7V280.3z M165.4,283.7c0,0.1,0,0.1,0.1,0.1h0.4c0.1,0,0.1,0,0.1-0.1v-3.1c0-0.1,0-0.1-0.1-0.1h-0.4
	c-0.1,0-0.1,0-0.1,0.1V283.7z"/>
<path class="st0" d="M172.1,280.2c0-0.3,0.1-0.6,0.2-0.7c0.2-0.2,0.5-0.2,0.9-0.2h0.9c0.5,0,0.8,0.1,0.9,0.2
	c0.2,0.2,0.2,0.4,0.2,0.7v3.7c0,0.3-0.1,0.6-0.2,0.7c-0.2,0.2-0.5,0.2-0.9,0.2h-0.9c-0.4,0-0.8-0.1-0.9-0.2
	c-0.2-0.2-0.2-0.4-0.2-0.7V280.2z M173.3,283.7c0,0.1,0,0.1,0.1,0.1h0.4c0.1,0,0.1,0,0.1-0.1v-3.1c0-0.1,0-0.1-0.1-0.1h-0.4
	c-0.1,0-0.1,0-0.1,0.1V283.7z"/>
<path class="st0" d="M182.3,279.2v4.5h1v1.1h-3.2v-1.1h1v-3.2h-1v-0.8l1.4-0.4H182.3z"/>
<path class="st0" d="M190.3,279.1v4.5h1v1.1h-3.2v-1.1h1v-3.2h-1v-0.8l1.4-0.4H190.3z"/>
<path class="st0" d="M196,280c0-0.3,0.1-0.6,0.2-0.7c0.2-0.2,0.5-0.2,0.9-0.2h0.9c0.5,0,0.8,0.1,0.9,0.2c0.2,0.2,0.2,0.4,0.2,0.7
	v3.7c0,0.3-0.1,0.6-0.2,0.7c-0.2,0.2-0.5,0.2-0.9,0.2h-0.9c-0.4,0-0.7-0.1-0.9-0.2c-0.2-0.2-0.2-0.4-0.2-0.7V280z M197.3,283.4
	c0,0.1,0,0.1,0.1,0.1h0.4c0.1,0,0.1,0,0.1-0.1v-3.1c0-0.1,0-0.1-0.1-0.1h-0.4c-0.1,0-0.1,0-0.1,0.1V283.4z"/>
<path class="st0" d="M204,280c0-0.3,0.1-0.6,0.2-0.7c0.2-0.2,0.5-0.2,0.9-0.2h0.9c0.5,0,0.8,0.1,0.9,0.2c0.2,0.2,0.2,0.4,0.2,0.7
	v3.7c0,0.3-0.1,0.6-0.2,0.7c-0.2,0.2-0.5,0.2-0.9,0.2h-0.9c-0.4,0-0.8-0.1-0.9-0.2c-0.2-0.2-0.2-0.4-0.2-0.7V280z M205.3,283.4
	c0,0.1,0,0.1,0.1,0.1h0.4c0.1,0,0.1,0,0.1-0.1v-3.1c0-0.1,0-0.1-0.1-0.1h-0.4c-0.1,0-0.1,0-0.1,0.1V283.4z"/>
<path class="st0" d="M222.2,279.1v4.5h1v1.1H220v-1.1h1v-3.2h-1v-0.8l1.4-0.4H222.2z"/>
<path class="st0" d="M238.2,279.2v4.5h1v1.1h-3.2v-1.1h1v-3.2h-1v-0.8l1.4-0.4H238.2z"/>
<path class="st0" d="M244.6,261.4v4.5h1v1.1h-3.2v-1.1h1v-3.2h-1v-0.8l1.4-0.4H244.6z"/>
<path class="st0" d="M252.6,261.5v4.5h1v1.1h-3.2V266h1v-3.2h-1v-0.8l1.4-0.4H252.6z"/>
<path class="st0" d="M260.6,261.5v4.5h1v1.1h-3.2v-1.1h1v-3.2h-1V262l1.4-0.4H260.6z"/>
<path class="st0" d="M268.6,261.6v4.5h1v1.1h-3.2v-1.1h1v-3.2h-1v-0.8l1.4-0.4H268.6z"/>
<path class="st0" d="M293.9,279.7v4.5h1v1.1h-3.2v-1.1h1V281h-1v-0.8l1.4-0.4H293.9z"/>
<path class="st0" d="M301.9,279.8v4.5h1v1.1h-3.2v-1.1h1V281h-1v-0.8l1.4-0.4H301.9z"/>
<path class="st0" d="M309.9,279.8v4.5h1v1.1h-3.2v-1.1h1V281h-1v-0.8l1.4-0.4H309.9z"/>
<path class="st0" d="M317.9,279.8v4.5h1v1.1h-3.2v-1.1h1v-3.2h-1v-0.8l1.4-0.4H317.9z"/>
<path class="st0" d="M341.8,279.8v4.5h1v1.1h-3.2v-1.1h1v-3.2h-1v-0.8l1.4-0.4H341.8z"/>
<path class="st0" d="M349.8,279.8v4.5h1v1.1h-3.2v-1.1h1v-3.2h-1v-0.8l1.4-0.4H349.8z"/>
<path class="st0" d="M71.6,266.5c0-0.3,0.1-0.6,0.2-0.7c0.2-0.2,0.5-0.2,0.9-0.2h0.9c0.5,0,0.8,0.1,0.9,0.2c0.2,0.2,0.2,0.4,0.2,0.7
	v3.7c0,0.3-0.1,0.6-0.2,0.7c-0.2,0.2-0.5,0.2-0.9,0.2h-0.9c-0.4,0-0.8-0.1-0.9-0.2c-0.2-0.2-0.2-0.4-0.2-0.7V266.5z M72.8,269.9
	c0,0.1,0,0.1,0.1,0.1h0.4c0.1,0,0.1,0,0.1-0.1v-3.1c0-0.1,0-0.1-0.1-0.1h-0.4c-0.1,0-0.1,0-0.1,0.1V269.9z"/>
<path class="st0" d="M81.8,265.5v4.5h1v1.1h-3.2V270h1v-3.2h-1V266l1.4-0.4H81.8z"/>
<path class="st0" d="M87.5,266.5c0-0.3,0.1-0.6,0.2-0.7c0.2-0.2,0.5-0.2,0.9-0.2h0.9c0.5,0,0.8,0.1,0.9,0.2c0.2,0.2,0.2,0.4,0.2,0.7
	v3.7c0,0.3-0.1,0.6-0.2,0.7c-0.2,0.2-0.5,0.2-0.9,0.2h-0.9c-0.4,0-0.8-0.1-0.9-0.2c-0.2-0.2-0.2-0.4-0.2-0.7V266.5z M88.8,269.9
	c0,0.1,0,0.1,0.1,0.1h0.4c0.1,0,0.1,0,0.1-0.1v-3.1c0-0.1,0-0.1-0.1-0.1h-0.4c-0.1,0-0.1,0-0.1,0.1V269.9z"/>
<path class="st0" d="M97.7,265.5v4.5h1v1.1h-3.2V270h1v-3.2h-1V266l1.4-0.4H97.7z"/>
<path class="st0" d="M103.5,266.5c0-0.3,0.1-0.6,0.2-0.7c0.2-0.2,0.5-0.2,0.9-0.2h0.9c0.5,0,0.8,0.1,0.9,0.2
	c0.2,0.2,0.2,0.4,0.2,0.7v3.7c0,0.3-0.1,0.6-0.2,0.7c-0.2,0.2-0.5,0.2-0.9,0.2h-0.9c-0.4,0-0.8-0.1-0.9-0.2
	c-0.2-0.2-0.2-0.4-0.2-0.7V266.5z M104.7,269.9c0,0.1,0,0.1,0.1,0.1h0.4c0.1,0,0.1,0,0.1-0.1v-3.1c0-0.1,0-0.1-0.1-0.1h-0.4
	c-0.1,0-0.1,0-0.1,0.1V269.9z"/>
<path class="st0" d="M111.4,266.5c0-0.3,0.1-0.6,0.2-0.7c0.2-0.2,0.5-0.2,0.9-0.2h0.9c0.5,0,0.8,0.1,0.9,0.2
	c0.2,0.2,0.2,0.4,0.2,0.7v3.7c0,0.3-0.1,0.6-0.2,0.7c-0.2,0.2-0.5,0.2-0.9,0.2h-0.9c-0.4,0-0.8-0.1-0.9-0.2
	c-0.2-0.2-0.2-0.4-0.2-0.7V266.5z M112.7,269.9c0,0.1,0,0.1,0.1,0.1h0.4c0.1,0,0.1,0,0.1-0.1v-3.1c0-0.1,0-0.1-0.1-0.1h-0.4
	c-0.1,0-0.1,0-0.1,0.1V269.9z"/>
<path class="st0" d="M121.7,265.5v4.5h1v1.1h-3.2V270h1v-3.2h-1V266l1.4-0.4H121.7z"/>
<path class="st0" d="M129.6,265.5v4.5h1v1.1h-3.2V270h1v-3.2h-1V266l1.4-0.4H129.6z"/>
<path class="st0" d="M150.4,289.3v4.5h1v1.1h-3.2v-1.1h1v-3.2h-1v-0.8l1.4-0.4H150.4z"/>
<path class="st0" d="M156.1,290.3c0-0.3,0.1-0.6,0.2-0.7c0.2-0.2,0.5-0.2,0.9-0.2h0.9c0.5,0,0.8,0.1,0.9,0.2
	c0.2,0.2,0.2,0.4,0.2,0.7v3.7c0,0.3-0.1,0.6-0.2,0.7c-0.2,0.2-0.5,0.2-0.9,0.2h-0.9c-0.4,0-0.8-0.1-0.9-0.2
	c-0.2-0.2-0.2-0.4-0.2-0.7V290.3z M157.4,293.7c0,0.1,0,0.1,0.1,0.1h0.4c0.1,0,0.1,0,0.1-0.1v-3.1c0-0.1,0-0.1-0.1-0.1h-0.4
	c-0.1,0-0.1,0-0.1,0.1V293.7z"/>
<path class="st0" d="M164.1,290.3c0-0.3,0.1-0.6,0.2-0.7c0.2-0.2,0.5-0.2,0.9-0.2h0.9c0.5,0,0.8,0.1,0.9,0.2
	c0.2,0.2,0.2,0.4,0.2,0.7v3.7c0,0.3-0.1,0.6-0.2,0.7c-0.2,0.2-0.5,0.2-0.9,0.2h-0.9c-0.4,0-0.7-0.1-0.9-0.2
	c-0.2-0.2-0.2-0.4-0.2-0.7V290.3z M165.3,293.7c0,0.1,0,0.1,0.1,0.1h0.4c0.1,0,0.1,0,0.1-0.1v-3.1c0-0.1,0-0.1-0.1-0.1h-0.4
	c-0.1,0-0.1,0-0.1,0.1V293.7z"/>
<path class="st0" d="M174.3,289.3v4.5h1v1.1h-3.2v-1.1h1v-3.2h-1v-0.8l1.4-0.4H174.3z"/>
<path class="st0" d="M182.3,289.3v4.5h1v1.1h-3.2v-1.1h1v-3.2h-1v-0.8l1.4-0.4H182.3z"/>
<path class="st0" d="M196,290.2c0-0.3,0.1-0.6,0.2-0.7c0.2-0.2,0.5-0.2,0.9-0.2h0.9c0.5,0,0.8,0.1,0.9,0.2c0.2,0.2,0.2,0.4,0.2,0.7
	v3.7c0,0.3-0.1,0.6-0.2,0.7c-0.2,0.2-0.5,0.2-0.9,0.2h-0.9c-0.4,0-0.7-0.1-0.9-0.2c-0.2-0.2-0.2-0.4-0.2-0.7V290.2z M197.2,293.6
	c0,0.1,0,0.1,0.1,0.1h0.4c0.1,0,0.1,0,0.1-0.1v-3.1c0-0.1,0-0.1-0.1-0.1h-0.4c-0.1,0-0.1,0-0.1,0.1V293.6z"/>
<path class="st0" d="M204,290.2c0-0.3,0.1-0.6,0.2-0.7c0.2-0.2,0.5-0.2,0.9-0.2h0.9c0.5,0,0.8,0.1,0.9,0.2c0.2,0.2,0.2,0.4,0.2,0.7
	v3.7c0,0.3-0.1,0.6-0.2,0.7c-0.2,0.2-0.5,0.2-0.9,0.2h-0.9c-0.4,0-0.8-0.1-0.9-0.2c-0.2-0.2-0.2-0.4-0.2-0.7V290.2z M205.2,293.6
	c0,0.1,0,0.1,0.1,0.1h0.4c0.1,0,0.1,0,0.1-0.1v-3.1c0-0.1,0-0.1-0.1-0.1h-0.4c-0.1,0-0.1,0-0.1,0.1V293.6z"/>
<path class="st0" d="M227.9,290.2c0-0.3,0.1-0.6,0.2-0.7c0.2-0.2,0.5-0.2,0.9-0.2h0.9c0.5,0,0.8,0.1,0.9,0.2
	c0.2,0.2,0.2,0.4,0.2,0.7v3.7c0,0.3-0.1,0.6-0.2,0.7c-0.2,0.2-0.5,0.2-0.9,0.2H229c-0.4,0-0.7-0.1-0.9-0.2c-0.2-0.2-0.2-0.4-0.2-0.7
	V290.2z M229.1,293.6c0,0.1,0,0.1,0.1,0.1h0.4c0.1,0,0.1,0,0.1-0.1v-3.1c0-0.1,0-0.1-0.1-0.1h-0.4c-0.1,0-0.1,0-0.1,0.1V293.6z"/>
<path class="st0" d="M235.9,290.2c0-0.3,0.1-0.6,0.2-0.7c0.2-0.2,0.5-0.2,0.9-0.2h0.9c0.5,0,0.8,0.1,0.9,0.2
	c0.2,0.2,0.2,0.4,0.2,0.7v3.7c0,0.3-0.1,0.6-0.2,0.7c-0.2,0.2-0.5,0.2-0.9,0.2H237c-0.4,0-0.8-0.1-0.9-0.2c-0.2-0.2-0.2-0.4-0.2-0.7
	V290.2z M237.1,293.6c0,0.1,0,0.1,0.1,0.1h0.4c0.1,0,0.1,0,0.1-0.1v-3.1c0-0.1,0-0.1-0.1-0.1h-0.4c-0.1,0-0.1,0-0.1,0.1V293.6z"/>
<path class="st0" d="M242.4,272.4c0-0.3,0.1-0.6,0.2-0.7c0.2-0.2,0.5-0.2,0.9-0.2h0.9c0.5,0,0.8,0.1,0.9,0.2
	c0.2,0.2,0.2,0.4,0.2,0.7v3.7c0,0.3-0.1,0.6-0.2,0.7c-0.2,0.2-0.5,0.2-0.9,0.2h-0.9c-0.4,0-0.8-0.1-0.9-0.2
	c-0.2-0.2-0.2-0.4-0.2-0.7V272.4z M243.6,275.8c0,0.1,0,0.1,0.1,0.1h0.4c0.1,0,0.1,0,0.1-0.1v-3.1c0-0.1,0-0.1-0.1-0.1h-0.4
	c-0.1,0-0.1,0-0.1,0.1V275.8z"/>
<path class="st0" d="M252.6,271.4v4.5h1v1.1h-3.2v-1.1h1v-3.2h-1v-0.8l1.4-0.4H252.6z"/>
<path class="st0" d="M260.6,271.4v4.5h1v1.1h-3.2V276h1v-3.2h-1v-0.8l1.4-0.4H260.6z"/>
<path class="st0" d="M268.5,271.5v4.5h1v1.1h-3.2V276h1v-3.2h-1v-0.8l1.4-0.4H268.5z"/>
<path class="st0" d="M276.5,271.5v4.5h1v1.1h-3.2V276h1v-3.2h-1v-0.8l1.4-0.4H276.5z"/>
<path class="st0" d="M291.7,290.3c0-0.3,0.1-0.6,0.2-0.7c0.2-0.2,0.5-0.2,0.9-0.2h0.9c0.5,0,0.8,0.1,0.9,0.2
	c0.2,0.2,0.2,0.4,0.2,0.7v3.7c0,0.3-0.1,0.6-0.2,0.7c-0.2,0.2-0.5,0.2-0.9,0.2h-0.9c-0.4,0-0.8-0.1-0.9-0.2
	c-0.2-0.2-0.2-0.4-0.2-0.7V290.3z M292.9,293.7c0,0.1,0,0.1,0.1,0.1h0.4c0.1,0,0.1,0,0.1-0.1v-3.1c0-0.1,0-0.1-0.1-0.1h-0.4
	c-0.1,0-0.1,0-0.1,0.1V293.7z"/>
<path class="st0" d="M301.9,289.4v4.5h1v1.1h-3.2v-1.1h1v-3.2h-1v-0.8l1.4-0.4H301.9z"/>
<path class="st0" d="M315.6,290.3c0-0.3,0.1-0.6,0.2-0.7c0.2-0.2,0.5-0.2,0.9-0.2h0.9c0.5,0,0.8,0.1,0.9,0.2
	c0.2,0.2,0.2,0.4,0.2,0.7v3.7c0,0.3-0.1,0.6-0.2,0.7c-0.2,0.2-0.5,0.2-0.9,0.2h-0.9c-0.4,0-0.7-0.1-0.9-0.2
	c-0.2-0.2-0.2-0.4-0.2-0.7V290.3z M316.9,293.7c0,0.1,0,0.1,0.1,0.1h0.4c0.1,0,0.1,0,0.1-0.1v-3.1c0-0.1,0-0.1-0.1-0.1H317
	c-0.1,0-0.1,0-0.1,0.1V293.7z"/>
<path class="st0" d="M325.8,289.4v4.5h1v1.1h-3.2v-1.1h1v-3.2h-1v-0.8l1.4-0.4H325.8z"/>
<path class="st0" d="M333.8,289.4v4.5h1v1.1h-3.2v-1.1h1v-3.2h-1v-0.8l1.4-0.4H333.8z"/>
<path class="st0" d="M349.8,289.4v4.5h1v1.1h-3.2v-1.1h1v-3.2h-1v-0.8l1.4-0.4H349.8z"/>
<path class="st0" d="M78.6,298.9v4.5h1v1.1h-3.2v-1.1h1v-3.2h-1v-0.8l1.4-0.4H78.6z"/>
<path class="st0" d="M84.3,299.9c0-0.3,0.1-0.6,0.2-0.7c0.2-0.2,0.5-0.2,0.9-0.2h0.9c0.5,0,0.8,0.1,0.9,0.2c0.2,0.2,0.2,0.4,0.2,0.7
	v3.7c0,0.3-0.1,0.6-0.2,0.7c-0.2,0.2-0.5,0.2-0.9,0.2h-0.9c-0.4,0-0.7-0.1-0.9-0.2c-0.2-0.2-0.2-0.4-0.2-0.7V299.9z M85.6,303.3
	c0,0.1,0,0.1,0.1,0.1h0.4c0.1,0,0.1,0,0.1-0.1v-3.1c0-0.1,0-0.1-0.1-0.1h-0.4c-0.1,0-0.1,0-0.1,0.1V303.3z"/>
<path class="st0" d="M92.3,299.9c0-0.3,0.1-0.6,0.2-0.7c0.2-0.2,0.5-0.2,0.9-0.2h0.9c0.5,0,0.8,0.1,0.9,0.2c0.2,0.2,0.2,0.4,0.2,0.7
	v3.7c0,0.3-0.1,0.6-0.2,0.7c-0.2,0.2-0.5,0.2-0.9,0.2h-0.9c-0.4,0-0.8-0.1-0.9-0.2c-0.2-0.2-0.2-0.4-0.2-0.7V299.9z M93.6,303.3
	c0,0.1,0,0.1,0.1,0.1h0.4c0.1,0,0.1,0,0.1-0.1v-3.1c0-0.1,0-0.1-0.1-0.1h-0.4c-0.1,0-0.1,0-0.1,0.1V303.3z"/>
<path class="st0" d="M100.3,299.9c0-0.3,0.1-0.6,0.2-0.7c0.2-0.2,0.5-0.2,0.9-0.2h0.9c0.5,0,0.8,0.1,0.9,0.2
	c0.2,0.2,0.2,0.4,0.2,0.7v3.7c0,0.3-0.1,0.6-0.2,0.7c-0.2,0.2-0.5,0.2-0.9,0.2h-0.9c-0.4,0-0.7-0.1-0.9-0.2
	c-0.2-0.2-0.2-0.4-0.2-0.7V299.9z M101.5,303.3c0,0.1,0,0.1,0.1,0.1h0.4c0.1,0,0.1,0,0.1-0.1v-3.1c0-0.1,0-0.1-0.1-0.1h-0.4
	c-0.1,0-0.1,0-0.1,0.1V303.3z"/>
<path class="st0" d="M110.5,298.9v4.5h1v1.1h-3.2v-1.1h1v-3.2h-1v-0.8l1.4-0.4H110.5z"/>
<path class="st0" d="M118.5,298.9v4.5h1v1.1h-3.2v-1.1h1v-3.2h-1v-0.8l1.4-0.4H118.5z"/>
<path class="st0" d="M126.5,298.9v4.5h1v1.1h-3.2v-1.1h1v-3.2h-1v-0.8l1.4-0.4H126.5z"/>
<path class="st0" d="M134.4,298.9v4.5h1v1.1h-3.2v-1.1h1v-3.2h-1v-0.8l1.4-0.4H134.4z"/>
<path class="st0" d="M148.1,299.9c0-0.3,0.1-0.6,0.2-0.7c0.2-0.2,0.5-0.2,0.9-0.2h0.9c0.5,0,0.8,0.1,0.9,0.2
	c0.2,0.2,0.2,0.4,0.2,0.7v3.7c0,0.3-0.1,0.6-0.2,0.7c-0.2,0.2-0.5,0.2-0.9,0.2h-0.9c-0.4,0-0.8-0.1-0.9-0.2
	c-0.2-0.2-0.2-0.4-0.2-0.7V299.9z M149.4,303.3c0,0.1,0,0.1,0.1,0.1h0.4c0.1,0,0.1,0,0.1-0.1v-3.1c0-0.1,0-0.1-0.1-0.1h-0.4
	c-0.1,0-0.1,0-0.1,0.1V303.3z"/>
<path class="st0" d="M158.4,298.9v4.5h1v1.1h-3.2v-1.1h1v-3.2h-1v-0.8l1.4-0.4H158.4z"/>
<path class="st0" d="M166.3,298.9v4.5h1v1.1h-3.2v-1.1h1v-3.2h-1v-0.8l1.4-0.4H166.3z"/>
<path class="st0" d="M190.3,298.9v4.5h1v1.1H188v-1.1h1v-3.2h-1v-0.8l1.4-0.4H190.3z"/>
<path class="st0" d="M198.2,298.9v4.5h1v1.1H196v-1.1h1v-3.2h-1v-0.8l1.4-0.4H198.2z"/>
<path class="st0" d="M206.2,298.9v4.5h1v1.1H204v-1.1h1v-3.2h-1v-0.8l1.4-0.4H206.2z"/>
<path class="st0" d="M219.9,299.9c0-0.3,0.1-0.6,0.2-0.7c0.2-0.2,0.5-0.2,0.9-0.2h0.9c0.5,0,0.8,0.1,0.9,0.2
	c0.2,0.2,0.2,0.4,0.2,0.7v3.7c0,0.3-0.1,0.6-0.2,0.7c-0.2,0.2-0.5,0.2-0.9,0.2H221c-0.4,0-0.8-0.1-0.9-0.2c-0.2-0.2-0.2-0.4-0.2-0.7
	V299.9z M221.2,303.3c0,0.1,0,0.1,0.1,0.1h0.4c0.1,0,0.1,0,0.1-0.1v-3.1c0-0.1,0-0.1-0.1-0.1h-0.4c-0.1,0-0.1,0-0.1,0.1V303.3z"/>
<path class="st0" d="M230.1,298.9v4.5h1v1.1h-3.2v-1.1h1v-3.2h-1v-0.8l1.4-0.4H230.1z"/>
<path class="st0" d="M235.9,299.9c0-0.3,0.1-0.6,0.2-0.7c0.2-0.2,0.5-0.2,0.9-0.2h0.9c0.5,0,0.8,0.1,0.9,0.2
	c0.2,0.2,0.2,0.4,0.2,0.7v3.7c0,0.3-0.1,0.6-0.2,0.7c-0.2,0.2-0.5,0.2-0.9,0.2H237c-0.4,0-0.8-0.1-0.9-0.2c-0.2-0.2-0.2-0.4-0.2-0.7
	V299.9z M237.1,303.3c0,0.1,0,0.1,0.1,0.1h0.4c0.1,0,0.1,0,0.1-0.1v-3.1c0-0.1,0-0.1-0.1-0.1h-0.4c-0.1,0-0.1,0-0.1,0.1V303.3z"/>
<path class="st0" d="M246.1,298.9v4.5h1v1.1h-3.2v-1.1h1v-3.2h-1v-0.8l1.4-0.4H246.1z"/>
<path class="st0" d="M251.8,299.9c0-0.3,0.1-0.6,0.2-0.7c0.2-0.2,0.5-0.2,0.9-0.2h0.9c0.5,0,0.8,0.1,0.9,0.2
	c0.2,0.2,0.2,0.4,0.2,0.7v3.7c0,0.3-0.1,0.6-0.2,0.7c-0.2,0.2-0.5,0.2-0.9,0.2h-0.9c-0.4,0-0.7-0.1-0.9-0.2
	c-0.2-0.2-0.2-0.4-0.2-0.7V299.9z M253.1,303.3c0,0.1,0,0.1,0.1,0.1h0.4c0.1,0,0.1,0,0.1-0.1v-3.1c0-0.1,0-0.1-0.1-0.1h-0.4
	c-0.1,0-0.1,0-0.1,0.1V303.3z"/>
<path class="st0" d="M259.8,299.9c0-0.3,0.1-0.6,0.2-0.7c0.2-0.2,0.5-0.2,0.9-0.2h0.9c0.5,0,0.8,0.1,0.9,0.2
	c0.2,0.2,0.2,0.4,0.2,0.7v3.7c0,0.3-0.1,0.6-0.2,0.7c-0.2,0.2-0.5,0.2-0.9,0.2h-0.9c-0.4,0-0.8-0.1-0.9-0.2
	c-0.2-0.2-0.2-0.4-0.2-0.7V299.9z M261,303.3c0,0.1,0,0.1,0.1,0.1h0.4c0.1,0,0.1,0,0.1-0.1v-3.1c0-0.1,0-0.1-0.1-0.1h-0.4
	c-0.1,0-0.1,0-0.1,0.1V303.3z"/>
<path class="st0" d="M270,298.9v4.5h1v1.1h-3.2v-1.1h1v-3.2h-1v-0.8l1.4-0.4H270z"/>
<path class="st0" d="M278,298.9v4.5h1v1.1h-3.2v-1.1h1v-3.2h-1v-0.8l1.4-0.4H278z"/>
<path class="st0" d="M293.9,298.9v4.5h1v1.1h-3.2v-1.1h1v-3.2h-1v-0.8l1.4-0.4H293.9z"/>
<path class="st0" d="M299.7,299.9c0-0.3,0.1-0.6,0.2-0.7c0.2-0.2,0.5-0.2,0.9-0.2h0.9c0.5,0,0.8,0.1,0.9,0.2
	c0.2,0.2,0.2,0.4,0.2,0.7v3.7c0,0.3-0.1,0.6-0.2,0.7c-0.2,0.2-0.5,0.2-0.9,0.2h-0.9c-0.4,0-0.8-0.1-0.9-0.2
	c-0.2-0.2-0.2-0.4-0.2-0.7V299.9z M300.9,303.3c0,0.1,0,0.1,0.1,0.1h0.4c0.1,0,0.1,0,0.1-0.1v-3.1c0-0.1,0-0.1-0.1-0.1h-0.4
	c-0.1,0-0.1,0-0.1,0.1V303.3z"/>
<path class="st0" d="M307.6,299.9c0-0.3,0.1-0.6,0.2-0.7c0.2-0.2,0.5-0.2,0.9-0.2h0.9c0.5,0,0.8,0.1,0.9,0.2
	c0.2,0.2,0.2,0.4,0.2,0.7v3.7c0,0.3-0.1,0.6-0.2,0.7c-0.2,0.2-0.5,0.2-0.9,0.2h-0.9c-0.4,0-0.8-0.1-0.9-0.2
	c-0.2-0.2-0.2-0.4-0.2-0.7V299.9z M308.9,303.3c0,0.1,0,0.1,0.1,0.1h0.4c0.1,0,0.1,0,0.1-0.1v-3.1c0-0.1,0-0.1-0.1-0.1H309
	c-0.1,0-0.1,0-0.1,0.1V303.3z"/>
<path class="st0" d="M315.6,299.9c0-0.3,0.1-0.6,0.2-0.7c0.2-0.2,0.5-0.2,0.9-0.2h0.9c0.5,0,0.8,0.1,0.9,0.2
	c0.2,0.2,0.2,0.4,0.2,0.7v3.7c0,0.3-0.1,0.6-0.2,0.7c-0.2,0.2-0.5,0.2-0.9,0.2h-0.9c-0.4,0-0.7-0.1-0.9-0.2
	c-0.2-0.2-0.2-0.4-0.2-0.7V299.9z M316.9,303.3c0,0.1,0,0.1,0.1,0.1h0.4c0.1,0,0.1,0,0.1-0.1v-3.1c0-0.1,0-0.1-0.1-0.1H317
	c-0.1,0-0.1,0-0.1,0.1V303.3z"/>
<path class="st0" d="M325.8,298.9v4.5h1v1.1h-3.2v-1.1h1v-3.2h-1v-0.8l1.4-0.4H325.8z"/>
<path class="st0" d="M333.8,298.9v4.5h1v1.1h-3.2v-1.1h1v-3.2h-1v-0.8l1.4-0.4H333.8z"/>
<path class="st0" d="M339.5,299.9c0-0.3,0.1-0.6,0.2-0.7c0.2-0.2,0.5-0.2,0.9-0.2h0.9c0.5,0,0.8,0.1,0.9,0.2
	c0.2,0.2,0.2,0.4,0.2,0.7v3.7c0,0.3-0.1,0.6-0.2,0.7c-0.2,0.2-0.5,0.2-0.9,0.2h-0.9c-0.4,0-0.8-0.1-0.9-0.2
	c-0.2-0.2-0.2-0.4-0.2-0.7V299.9z M340.8,303.3c0,0.1,0,0.1,0.1,0.1h0.4c0.1,0,0.1,0,0.1-0.1v-3.1c0-0.1,0-0.1-0.1-0.1h-0.4
	c-0.1,0-0.1,0-0.1,0.1V303.3z"/>
<path class="st0" d="M347.5,299.9c0-0.3,0.1-0.6,0.2-0.7c0.2-0.2,0.5-0.2,0.9-0.2h0.9c0.5,0,0.8,0.1,0.9,0.2
	c0.2,0.2,0.2,0.4,0.2,0.7v3.7c0,0.3-0.1,0.6-0.2,0.7c-0.2,0.2-0.5,0.2-0.9,0.2h-0.9c-0.4,0-0.7-0.1-0.9-0.2
	c-0.2-0.2-0.2-0.4-0.2-0.7V299.9z M348.8,303.3c0,0.1,0,0.1,0.1,0.1h0.4c0.1,0,0.1,0,0.1-0.1v-3.1c0-0.1,0-0.1-0.1-0.1h-0.4
	c-0.1,0-0.1,0-0.1,0.1V303.3z"/>
<path class="st0" d="M78.6,308.5v4.5h1v1.1h-3.2V313h1v-3.2h-1v-0.8l1.4-0.4H78.6z"/>
<path class="st0" d="M86.6,308.5v4.5h1v1.1h-3.2V313h1v-3.2h-1v-0.8l1.4-0.4H86.6z"/>
<path class="st0" d="M92.3,309.5c0-0.3,0.1-0.6,0.2-0.7c0.2-0.2,0.5-0.2,0.9-0.2h0.9c0.5,0,0.8,0.1,0.9,0.2c0.2,0.2,0.2,0.4,0.2,0.7
	v3.7c0,0.3-0.1,0.6-0.2,0.7c-0.2,0.2-0.5,0.2-0.9,0.2h-0.9c-0.4,0-0.8-0.1-0.9-0.2c-0.2-0.2-0.2-0.4-0.2-0.7V309.5z M93.6,312.9
	c0,0.1,0,0.1,0.1,0.1h0.4c0.1,0,0.1,0,0.1-0.1v-3.1c0-0.1,0-0.1-0.1-0.1h-0.4c-0.1,0-0.1,0-0.1,0.1V312.9z"/>
<path class="st0" d="M100.3,309.5c0-0.3,0.1-0.6,0.2-0.7c0.2-0.2,0.5-0.2,0.9-0.2h0.9c0.5,0,0.8,0.1,0.9,0.2
	c0.2,0.2,0.2,0.4,0.2,0.7v3.7c0,0.3-0.1,0.6-0.2,0.7c-0.2,0.2-0.5,0.2-0.9,0.2h-0.9c-0.4,0-0.7-0.1-0.9-0.2
	c-0.2-0.2-0.2-0.4-0.2-0.7V309.5z M101.5,312.9c0,0.1,0,0.1,0.1,0.1h0.4c0.1,0,0.1,0,0.1-0.1v-3.1c0-0.1,0-0.1-0.1-0.1h-0.4
	c-0.1,0-0.1,0-0.1,0.1V312.9z"/>
<path class="st0" d="M110.5,308.5v4.5h1v1.1h-3.2V313h1v-3.2h-1v-0.8l1.4-0.4H110.5z"/>
<path class="st0" d="M116.2,309.5c0-0.3,0.1-0.6,0.2-0.7c0.2-0.2,0.5-0.2,0.9-0.2h0.9c0.5,0,0.8,0.1,0.9,0.2
	c0.2,0.2,0.2,0.4,0.2,0.7v3.7c0,0.3-0.1,0.6-0.2,0.7c-0.2,0.2-0.5,0.2-0.9,0.2h-0.9c-0.4,0-0.8-0.1-0.9-0.2
	c-0.2-0.2-0.2-0.4-0.2-0.7V309.5z M117.5,312.9c0,0.1,0,0.1,0.1,0.1h0.4c0.1,0,0.1,0,0.1-0.1v-3.1c0-0.1,0-0.1-0.1-0.1h-0.4
	c-0.1,0-0.1,0-0.1,0.1V312.9z"/>
<path class="st0" d="M126.5,308.5v4.5h1v1.1h-3.2V313h1v-3.2h-1v-0.8l1.4-0.4H126.5z"/>
<path class="st0" d="M132.2,309.5c0-0.3,0.1-0.6,0.2-0.7c0.2-0.2,0.5-0.2,0.9-0.2h0.9c0.5,0,0.8,0.1,0.9,0.2
	c0.2,0.2,0.2,0.4,0.2,0.7v3.7c0,0.3-0.1,0.6-0.2,0.7c-0.2,0.2-0.5,0.2-0.9,0.2h-0.9c-0.4,0-0.7-0.1-0.9-0.2
	c-0.2-0.2-0.2-0.4-0.2-0.7V309.5z M133.4,312.9c0,0.1,0,0.1,0.1,0.1h0.4c0.1,0,0.1,0,0.1-0.1v-3.1c0-0.1,0-0.1-0.1-0.1h-0.4
	c-0.1,0-0.1,0-0.1,0.1V312.9z"/>
<path class="st0" d="M150.4,308.5v4.5h1v1.1h-3.2V313h1v-3.2h-1v-0.8l1.4-0.4H150.4z"/>
<path class="st0" d="M156.1,309.5c0-0.3,0.1-0.6,0.2-0.7c0.2-0.2,0.5-0.2,0.9-0.2h0.9c0.5,0,0.8,0.1,0.9,0.2
	c0.2,0.2,0.2,0.4,0.2,0.7v3.7c0,0.3-0.1,0.6-0.2,0.7c-0.2,0.2-0.5,0.2-0.9,0.2h-0.9c-0.4,0-0.8-0.1-0.9-0.2
	c-0.2-0.2-0.2-0.4-0.2-0.7V309.5z M157.4,312.9c0,0.1,0,0.1,0.1,0.1h0.4c0.1,0,0.1,0,0.1-0.1v-3.1c0-0.1,0-0.1-0.1-0.1h-0.4
	c-0.1,0-0.1,0-0.1,0.1V312.9z"/>
<path class="st0" d="M166.3,308.5v4.5h1v1.1h-3.2V313h1v-3.2h-1v-0.8l1.4-0.4H166.3z"/>
<path class="st0" d="M172.1,309.5c0-0.3,0.1-0.6,0.2-0.7c0.2-0.2,0.5-0.2,0.9-0.2h0.9c0.5,0,0.8,0.1,0.9,0.2
	c0.2,0.2,0.2,0.4,0.2,0.7v3.7c0,0.3-0.1,0.6-0.2,0.7c-0.2,0.2-0.5,0.2-0.9,0.2h-0.9c-0.4,0-0.8-0.1-0.9-0.2
	c-0.2-0.2-0.2-0.4-0.2-0.7V309.5z M173.3,312.9c0,0.1,0,0.1,0.1,0.1h0.4c0.1,0,0.1,0,0.1-0.1v-3.1c0-0.1,0-0.1-0.1-0.1h-0.4
	c-0.1,0-0.1,0-0.1,0.1V312.9z"/>
<path class="st0" d="M180,309.5c0-0.3,0.1-0.6,0.2-0.7c0.2-0.2,0.5-0.2,0.9-0.2h0.9c0.5,0,0.8,0.1,0.9,0.2c0.2,0.2,0.2,0.4,0.2,0.7
	v3.7c0,0.3-0.1,0.6-0.2,0.7c-0.2,0.2-0.5,0.2-0.9,0.2h-0.9c-0.4,0-0.7-0.1-0.9-0.2c-0.2-0.2-0.2-0.4-0.2-0.7V309.5z M181.3,312.9
	c0,0.1,0,0.1,0.1,0.1h0.4c0.1,0,0.1,0,0.1-0.1v-3.1c0-0.1,0-0.1-0.1-0.1h-0.4c-0.1,0-0.1,0-0.1,0.1V312.9z"/>
<path class="st0" d="M188,309.5c0-0.3,0.1-0.6,0.2-0.7c0.2-0.2,0.5-0.2,0.9-0.2h0.9c0.5,0,0.8,0.1,0.9,0.2c0.2,0.2,0.2,0.4,0.2,0.7
	v3.7c0,0.3-0.1,0.6-0.2,0.7c-0.2,0.2-0.5,0.2-0.9,0.2h-0.9c-0.4,0-0.8-0.1-0.9-0.2c-0.2-0.2-0.2-0.4-0.2-0.7V309.5z M189.3,312.9
	c0,0.1,0,0.1,0.1,0.1h0.4c0.1,0,0.1,0,0.1-0.1v-3.1c0-0.1,0-0.1-0.1-0.1h-0.4c-0.1,0-0.1,0-0.1,0.1V312.9z"/>
<path class="st0" d="M198.2,308.5v4.5h1v1.1H196V313h1v-3.2h-1v-0.8l1.4-0.4H198.2z"/>
<path class="st0" d="M206.2,308.5v4.5h1v1.1H204V313h1v-3.2h-1v-0.8l1.4-0.4H206.2z"/>
<path class="st0" d="M230.1,308.5v4.5h1v1.1h-3.2V313h1v-3.2h-1v-0.8l1.4-0.4H230.1z"/>
<path class="st0" d="M238.1,308.5v4.5h1v1.1h-3.2V313h1v-3.2h-1v-0.8l1.4-0.4H238.1z"/>
<path class="st0" d="M246.1,308.5v4.5h1v1.1h-3.2V313h1v-3.2h-1v-0.8l1.4-0.4H246.1z"/>
<path class="st0" d="M254.1,308.5v4.5h1v1.1h-3.2V313h1v-3.2h-1v-0.8l1.4-0.4H254.1z"/>
<path class="st0" d="M267.8,309.5c0-0.3,0.1-0.6,0.2-0.7c0.2-0.2,0.5-0.2,0.9-0.2h0.9c0.5,0,0.8,0.1,0.9,0.2
	c0.2,0.2,0.2,0.4,0.2,0.7v3.7c0,0.3-0.1,0.6-0.2,0.7c-0.2,0.2-0.5,0.2-0.9,0.2h-0.9c-0.4,0-0.8-0.1-0.9-0.2
	c-0.2-0.2-0.2-0.4-0.2-0.7V309.5z M269,312.9c0,0.1,0,0.1,0.1,0.1h0.4c0.1,0,0.1,0,0.1-0.1v-3.1c0-0.1,0-0.1-0.1-0.1h-0.4
	c-0.1,0-0.1,0-0.1,0.1V312.9z"/>
<path class="st0" d="M275.7,309.5c0-0.3,0.1-0.6,0.2-0.7c0.2-0.2,0.5-0.2,0.9-0.2h0.9c0.5,0,0.8,0.1,0.9,0.2
	c0.2,0.2,0.2,0.4,0.2,0.7v3.7c0,0.3-0.1,0.6-0.2,0.7c-0.2,0.2-0.5,0.2-0.9,0.2h-0.9c-0.4,0-0.8-0.1-0.9-0.2
	c-0.2-0.2-0.2-0.4-0.2-0.7V309.5z M277,312.9c0,0.1,0,0.1,0.1,0.1h0.4c0.1,0,0.1,0,0.1-0.1v-3.1c0-0.1,0-0.1-0.1-0.1h-0.4
	c-0.1,0-0.1,0-0.1,0.1V312.9z"/>
<path class="st0" d="M293.9,308.5v4.5h1v1.1h-3.2V313h1v-3.2h-1v-0.8l1.4-0.4H293.9z"/>
<path class="st0" d="M299.7,309.5c0-0.3,0.1-0.6,0.2-0.7c0.2-0.2,0.5-0.2,0.9-0.2h0.9c0.5,0,0.8,0.1,0.9,0.2
	c0.2,0.2,0.2,0.4,0.2,0.7v3.7c0,0.3-0.1,0.6-0.2,0.7c-0.2,0.2-0.5,0.2-0.9,0.2h-0.9c-0.4,0-0.8-0.1-0.9-0.2
	c-0.2-0.2-0.2-0.4-0.2-0.7V309.5z M300.9,312.9c0,0.1,0,0.1,0.1,0.1h0.4c0.1,0,0.1,0,0.1-0.1v-3.1c0-0.1,0-0.1-0.1-0.1h-0.4
	c-0.1,0-0.1,0-0.1,0.1V312.9z"/>
<path class="st0" d="M307.6,309.5c0-0.3,0.1-0.6,0.2-0.7c0.2-0.2,0.5-0.2,0.9-0.2h0.9c0.5,0,0.8,0.1,0.9,0.2
	c0.2,0.2,0.2,0.4,0.2,0.7v3.7c0,0.3-0.1,0.6-0.2,0.7c-0.2,0.2-0.5,0.2-0.9,0.2h-0.9c-0.4,0-0.8-0.1-0.9-0.2
	c-0.2-0.2-0.2-0.4-0.2-0.7V309.5z M308.9,312.9c0,0.1,0,0.1,0.1,0.1h0.4c0.1,0,0.1,0,0.1-0.1v-3.1c0-0.1,0-0.1-0.1-0.1H309
	c-0.1,0-0.1,0-0.1,0.1V312.9z"/>
<path class="st0" d="M317.9,308.5v4.5h1v1.1h-3.2V313h1v-3.2h-1v-0.8l1.4-0.4H317.9z"/>
<path class="st0" d="M323.6,309.5c0-0.3,0.1-0.6,0.2-0.7c0.2-0.2,0.5-0.2,0.9-0.2h0.9c0.5,0,0.8,0.1,0.9,0.2
	c0.2,0.2,0.2,0.4,0.2,0.7v3.7c0,0.3-0.1,0.6-0.2,0.7c-0.2,0.2-0.5,0.2-0.9,0.2h-0.9c-0.4,0-0.8-0.1-0.9-0.2
	c-0.2-0.2-0.2-0.4-0.2-0.7V309.5z M324.8,312.9c0,0.1,0,0.1,0.1,0.1h0.4c0.1,0,0.1,0,0.1-0.1v-3.1c0-0.1,0-0.1-0.1-0.1H325
	c-0.1,0-0.1,0-0.1,0.1V312.9z"/>
<path class="st0" d="M333.8,308.5v4.5h1v1.1h-3.2V313h1v-3.2h-1v-0.8l1.4-0.4H333.8z"/>
<path class="st0" d="M341.8,308.5v4.5h1v1.1h-3.2V313h1v-3.2h-1v-0.8l1.4-0.4H341.8z"/>
<path class="st0" d="M347.5,309.5c0-0.3,0.1-0.6,0.2-0.7c0.2-0.2,0.5-0.2,0.9-0.2h0.9c0.5,0,0.8,0.1,0.9,0.2
	c0.2,0.2,0.2,0.4,0.2,0.7v3.7c0,0.3-0.1,0.6-0.2,0.7c-0.2,0.2-0.5,0.2-0.9,0.2h-0.9c-0.4,0-0.7-0.1-0.9-0.2
	c-0.2-0.2-0.2-0.4-0.2-0.7V309.5z M348.8,312.9c0,0.1,0,0.1,0.1,0.1h0.4c0.1,0,0.1,0,0.1-0.1v-3.1c0-0.1,0-0.1-0.1-0.1h-0.4
	c-0.1,0-0.1,0-0.1,0.1V312.9z"/>
<path class="st0" d="M78.6,318.1v4.5h1v1.1h-3.2v-1.1h1v-3.2h-1v-0.8l1.4-0.4H78.6z"/>
<path class="st0" d="M84.3,319c0-0.3,0.1-0.6,0.2-0.7c0.2-0.2,0.5-0.2,0.9-0.2h0.9c0.5,0,0.8,0.1,0.9,0.2c0.2,0.2,0.2,0.4,0.2,0.7
	v3.7c0,0.3-0.1,0.6-0.2,0.7c-0.2,0.2-0.5,0.2-0.9,0.2h-0.9c-0.4,0-0.7-0.1-0.9-0.2c-0.2-0.2-0.2-0.4-0.2-0.7V319z M85.6,322.4
	c0,0.1,0,0.1,0.1,0.1h0.4c0.1,0,0.1,0,0.1-0.1v-3.1c0-0.1,0-0.1-0.1-0.1h-0.4c-0.1,0-0.1,0-0.1,0.1V322.4z"/>
<path class="st0" d="M92.3,319c0-0.3,0.1-0.6,0.2-0.7c0.2-0.2,0.5-0.2,0.9-0.2h0.9c0.5,0,0.8,0.1,0.9,0.2c0.2,0.2,0.2,0.4,0.2,0.7
	v3.7c0,0.3-0.1,0.6-0.2,0.7c-0.2,0.2-0.5,0.2-0.9,0.2h-0.9c-0.4,0-0.8-0.1-0.9-0.2c-0.2-0.2-0.2-0.4-0.2-0.7V319z M93.6,322.4
	c0,0.1,0,0.1,0.1,0.1h0.4c0.1,0,0.1,0,0.1-0.1v-3.1c0-0.1,0-0.1-0.1-0.1h-0.4c-0.1,0-0.1,0-0.1,0.1V322.4z"/>
<path class="st0" d="M100.3,319c0-0.3,0.1-0.6,0.2-0.7c0.2-0.2,0.5-0.2,0.9-0.2h0.9c0.5,0,0.8,0.1,0.9,0.2c0.2,0.2,0.2,0.4,0.2,0.7
	v3.7c0,0.3-0.1,0.6-0.2,0.7c-0.2,0.2-0.5,0.2-0.9,0.2h-0.9c-0.4,0-0.7-0.1-0.9-0.2c-0.2-0.2-0.2-0.4-0.2-0.7V319z M101.5,322.4
	c0,0.1,0,0.1,0.1,0.1h0.4c0.1,0,0.1,0,0.1-0.1v-3.1c0-0.1,0-0.1-0.1-0.1h-0.4c-0.1,0-0.1,0-0.1,0.1V322.4z"/>
<path class="st0" d="M108.3,319c0-0.3,0.1-0.6,0.2-0.7c0.2-0.2,0.5-0.2,0.9-0.2h0.9c0.5,0,0.8,0.1,0.9,0.2c0.2,0.2,0.2,0.4,0.2,0.7
	v3.7c0,0.3-0.1,0.6-0.2,0.7c-0.2,0.2-0.5,0.2-0.9,0.2h-0.9c-0.4,0-0.8-0.1-0.9-0.2c-0.2-0.2-0.2-0.4-0.2-0.7V319z M109.5,322.4
	c0,0.1,0,0.1,0.1,0.1h0.4c0.1,0,0.1,0,0.1-0.1v-3.1c0-0.1,0-0.1-0.1-0.1h-0.4c-0.1,0-0.1,0-0.1,0.1V322.4z"/>
<path class="st0" d="M118.5,318.1v4.5h1v1.1h-3.2v-1.1h1v-3.2h-1v-0.8l1.4-0.4H118.5z"/>
<path class="st0" d="M124.2,319c0-0.3,0.1-0.6,0.2-0.7c0.2-0.2,0.5-0.2,0.9-0.2h0.9c0.5,0,0.8,0.1,0.9,0.2c0.2,0.2,0.2,0.4,0.2,0.7
	v3.7c0,0.3-0.1,0.6-0.2,0.7c-0.2,0.2-0.5,0.2-0.9,0.2h-0.9c-0.4,0-0.8-0.1-0.9-0.2c-0.2-0.2-0.2-0.4-0.2-0.7V319z M125.5,322.4
	c0,0.1,0,0.1,0.1,0.1h0.4c0.1,0,0.1,0,0.1-0.1v-3.1c0-0.1,0-0.1-0.1-0.1h-0.4c-0.1,0-0.1,0-0.1,0.1V322.4z"/>
<path class="st0" d="M132.2,319c0-0.3,0.1-0.6,0.2-0.7c0.2-0.2,0.5-0.2,0.9-0.2h0.9c0.5,0,0.8,0.1,0.9,0.2c0.2,0.2,0.2,0.4,0.2,0.7
	v3.7c0,0.3-0.1,0.6-0.2,0.7c-0.2,0.2-0.5,0.2-0.9,0.2h-0.9c-0.4,0-0.7-0.1-0.9-0.2c-0.2-0.2-0.2-0.4-0.2-0.7V319z M133.4,322.4
	c0,0.1,0,0.1,0.1,0.1h0.4c0.1,0,0.1,0,0.1-0.1v-3.1c0-0.1,0-0.1-0.1-0.1h-0.4c-0.1,0-0.1,0-0.1,0.1V322.4z"/>
<path class="st0" d="M148.1,319c0-0.3,0.1-0.6,0.2-0.7c0.2-0.2,0.5-0.2,0.9-0.2h0.9c0.5,0,0.8,0.1,0.9,0.2c0.2,0.2,0.2,0.4,0.2,0.7
	v3.7c0,0.3-0.1,0.6-0.2,0.7c-0.2,0.2-0.5,0.2-0.9,0.2h-0.9c-0.4,0-0.8-0.1-0.9-0.2c-0.2-0.2-0.2-0.4-0.2-0.7V319z M149.4,322.4
	c0,0.1,0,0.1,0.1,0.1h0.4c0.1,0,0.1,0,0.1-0.1v-3.1c0-0.1,0-0.1-0.1-0.1h-0.4c-0.1,0-0.1,0-0.1,0.1V322.4z"/>
<path class="st0" d="M158.4,318.1v4.5h1v1.1h-3.2v-1.1h1v-3.2h-1v-0.8l1.4-0.4H158.4z"/>
<path class="st0" d="M164.1,319c0-0.3,0.1-0.6,0.2-0.7c0.2-0.2,0.5-0.2,0.9-0.2h0.9c0.5,0,0.8,0.1,0.9,0.2c0.2,0.2,0.2,0.4,0.2,0.7
	v3.7c0,0.3-0.1,0.6-0.2,0.7c-0.2,0.2-0.5,0.2-0.9,0.2h-0.9c-0.4,0-0.7-0.1-0.9-0.2c-0.2-0.2-0.2-0.4-0.2-0.7V319z M165.3,322.4
	c0,0.1,0,0.1,0.1,0.1h0.4c0.1,0,0.1,0,0.1-0.1v-3.1c0-0.1,0-0.1-0.1-0.1h-0.4c-0.1,0-0.1,0-0.1,0.1V322.4z"/>
<path class="st0" d="M174.3,318.1v4.5h1v1.1h-3.2v-1.1h1v-3.2h-1v-0.8l1.4-0.4H174.3z"/>
<path class="st0" d="M180,319c0-0.3,0.1-0.6,0.2-0.7c0.2-0.2,0.5-0.2,0.9-0.2h0.9c0.5,0,0.8,0.1,0.9,0.2c0.2,0.2,0.2,0.4,0.2,0.7
	v3.7c0,0.3-0.1,0.6-0.2,0.7c-0.2,0.2-0.5,0.2-0.9,0.2h-0.9c-0.4,0-0.7-0.1-0.9-0.2c-0.2-0.2-0.2-0.4-0.2-0.7V319z M181.3,322.4
	c0,0.1,0,0.1,0.1,0.1h0.4c0.1,0,0.1,0,0.1-0.1v-3.1c0-0.1,0-0.1-0.1-0.1h-0.4c-0.1,0-0.1,0-0.1,0.1V322.4z"/>
<path class="st0" d="M188,319c0-0.3,0.1-0.6,0.2-0.7c0.2-0.2,0.5-0.2,0.9-0.2h0.9c0.5,0,0.8,0.1,0.9,0.2c0.2,0.2,0.2,0.4,0.2,0.7
	v3.7c0,0.3-0.1,0.6-0.2,0.7c-0.2,0.2-0.5,0.2-0.9,0.2h-0.9c-0.4,0-0.8-0.1-0.9-0.2c-0.2-0.2-0.2-0.4-0.2-0.7V319z M189.3,322.4
	c0,0.1,0,0.1,0.1,0.1h0.4c0.1,0,0.1,0,0.1-0.1v-3.1c0-0.1,0-0.1-0.1-0.1h-0.4c-0.1,0-0.1,0-0.1,0.1V322.4z"/>
<path class="st0" d="M198.2,318.1v4.5h1v1.1H196v-1.1h1v-3.2h-1v-0.8l1.4-0.4H198.2z"/>
<path class="st0" d="M204,319c0-0.3,0.1-0.6,0.2-0.7c0.2-0.2,0.5-0.2,0.9-0.2h0.9c0.5,0,0.8,0.1,0.9,0.2c0.2,0.2,0.2,0.4,0.2,0.7
	v3.7c0,0.3-0.1,0.6-0.2,0.7c-0.2,0.2-0.5,0.2-0.9,0.2h-0.9c-0.4,0-0.8-0.1-0.9-0.2c-0.2-0.2-0.2-0.4-0.2-0.7V319z M205.2,322.4
	c0,0.1,0,0.1,0.1,0.1h0.4c0.1,0,0.1,0,0.1-0.1v-3.1c0-0.1,0-0.1-0.1-0.1h-0.4c-0.1,0-0.1,0-0.1,0.1V322.4z"/>
<path class="st0" d="M222.2,318.1v4.5h1v1.1h-3.2v-1.1h1v-3.2h-1v-0.8l1.4-0.4H222.2z"/>
<path class="st0" d="M227.9,319c0-0.3,0.1-0.6,0.2-0.7c0.2-0.2,0.5-0.2,0.9-0.2h0.9c0.5,0,0.8,0.1,0.9,0.2c0.2,0.2,0.2,0.4,0.2,0.7
	v3.7c0,0.3-0.1,0.6-0.2,0.7c-0.2,0.2-0.5,0.2-0.9,0.2H229c-0.4,0-0.7-0.1-0.9-0.2c-0.2-0.2-0.2-0.4-0.2-0.7V319z M229.1,322.4
	c0,0.1,0,0.1,0.1,0.1h0.4c0.1,0,0.1,0,0.1-0.1v-3.1c0-0.1,0-0.1-0.1-0.1h-0.4c-0.1,0-0.1,0-0.1,0.1V322.4z"/>
<path class="st0" d="M238.1,318.1v4.5h1v1.1h-3.2v-1.1h1v-3.2h-1v-0.8l1.4-0.4H238.1z"/>
<path class="st0" d="M246.1,318.1v4.5h1v1.1h-3.2v-1.1h1v-3.2h-1v-0.8l1.4-0.4H246.1z"/>
<path class="st0" d="M251.8,319c0-0.3,0.1-0.6,0.2-0.7c0.2-0.2,0.5-0.2,0.9-0.2h0.9c0.5,0,0.8,0.1,0.9,0.2c0.2,0.2,0.2,0.4,0.2,0.7
	v3.7c0,0.3-0.1,0.6-0.2,0.7c-0.2,0.2-0.5,0.2-0.9,0.2h-0.9c-0.4,0-0.7-0.1-0.9-0.2c-0.2-0.2-0.2-0.4-0.2-0.7V319z M253.1,322.4
	c0,0.1,0,0.1,0.1,0.1h0.4c0.1,0,0.1,0,0.1-0.1v-3.1c0-0.1,0-0.1-0.1-0.1h-0.4c-0.1,0-0.1,0-0.1,0.1V322.4z"/>
<path class="st0" d="M259.8,319c0-0.3,0.1-0.6,0.2-0.7c0.2-0.2,0.5-0.2,0.9-0.2h0.9c0.5,0,0.8,0.1,0.9,0.2c0.2,0.2,0.2,0.4,0.2,0.7
	v3.7c0,0.3-0.1,0.6-0.2,0.7c-0.2,0.2-0.5,0.2-0.9,0.2h-0.9c-0.4,0-0.8-0.1-0.9-0.2c-0.2-0.2-0.2-0.4-0.2-0.7V319z M261,322.4
	c0,0.1,0,0.1,0.1,0.1h0.4c0.1,0,0.1,0,0.1-0.1v-3.1c0-0.1,0-0.1-0.1-0.1h-0.4c-0.1,0-0.1,0-0.1,0.1V322.4z"/>
<path class="st0" d="M271.8,333v4.5h1v1.1h-3.2v-1.1h1v-3.2h-1v-0.8l1.4-0.4H271.8z"/>
<path class="st0" d="M279.8,333v4.5h1v1.1h-3.2v-1.1h1v-3.2h-1v-0.8l1.4-0.4H279.8z"/>
<path class="st0" d="M293.5,334c0-0.3,0.1-0.6,0.2-0.7c0.2-0.2,0.5-0.2,0.9-0.2h0.9c0.5,0,0.8,0.1,0.9,0.2c0.2,0.2,0.2,0.4,0.2,0.7
	v3.7c0,0.3-0.1,0.6-0.2,0.7c-0.2,0.2-0.5,0.2-0.9,0.2h-0.9c-0.4,0-0.8-0.1-0.9-0.2c-0.2-0.2-0.2-0.4-0.2-0.7V334z M294.7,337.4
	c0,0.1,0,0.1,0.1,0.1h0.4c0.1,0,0.1,0,0.1-0.1v-3.1c0-0.1,0-0.1-0.1-0.1h-0.4c-0.1,0-0.1,0-0.1,0.1V337.4z"/>
<path class="st0" d="M303.7,333v4.5h1v1.1h-3.2v-1.1h1v-3.2h-1v-0.8l1.4-0.4H303.7z"/>
<path class="st0" d="M311.7,333v4.5h1v1.1h-3.2v-1.1h1v-3.2h-1v-0.8l1.4-0.4H311.7z"/>
<path class="st0" d="M317.4,334c0-0.3,0.1-0.6,0.2-0.7c0.2-0.2,0.5-0.2,0.9-0.2h0.9c0.5,0,0.8,0.1,0.9,0.2c0.2,0.2,0.2,0.4,0.2,0.7
	v3.7c0,0.3-0.1,0.6-0.2,0.7c-0.2,0.2-0.5,0.2-0.9,0.2h-0.9c-0.4,0-0.7-0.1-0.9-0.2c-0.2-0.2-0.2-0.4-0.2-0.7V334z M318.7,337.4
	c0,0.1,0,0.1,0.1,0.1h0.4c0.1,0,0.1,0,0.1-0.1v-3.1c0-0.1,0-0.1-0.1-0.1h-0.4c-0.1,0-0.1,0-0.1,0.1V337.4z"/>
<path class="st0" d="M327.7,333v4.5h1v1.1h-3.2v-1.1h1v-3.2h-1v-0.8l1.4-0.4H327.7z"/>
<path class="st0" d="M333.4,334c0-0.3,0.1-0.6,0.2-0.7c0.2-0.2,0.5-0.2,0.9-0.2h0.9c0.5,0,0.8,0.1,0.9,0.2c0.2,0.2,0.2,0.4,0.2,0.7
	v3.7c0,0.3-0.1,0.6-0.2,0.7c-0.2,0.2-0.5,0.2-0.9,0.2h-0.9c-0.4,0-0.8-0.1-0.9-0.2c-0.2-0.2-0.2-0.4-0.2-0.7V334z M334.6,337.4
	c0,0.1,0,0.1,0.1,0.1h0.4c0.1,0,0.1,0,0.1-0.1v-3.1c0-0.1,0-0.1-0.1-0.1h-0.4c-0.1,0-0.1,0-0.1,0.1V337.4z"/>
<path class="st0" d="M341.3,334c0-0.3,0.1-0.6,0.2-0.7c0.2-0.2,0.5-0.2,0.9-0.2h0.9c0.5,0,0.8,0.1,0.9,0.2c0.2,0.2,0.2,0.4,0.2,0.7
	v3.7c0,0.3-0.1,0.6-0.2,0.7c-0.2,0.2-0.5,0.2-0.9,0.2h-0.9c-0.4,0-0.8-0.1-0.9-0.2c-0.2-0.2-0.2-0.4-0.2-0.7V334z M342.6,337.4
	c0,0.1,0,0.1,0.1,0.1h0.4c0.1,0,0.1,0,0.1-0.1v-3.1c0-0.1,0-0.1-0.1-0.1h-0.4c-0.1,0-0.1,0-0.1,0.1V337.4z"/>
<path class="st0" d="M351.6,333v4.5h1v1.1h-3.2v-1.1h1v-3.2h-1v-0.8l1.4-0.4H351.6z"/>
<path class="st0" d="M78.6,327.6v4.5h1v1.1h-3.2v-1.1h1v-3.2h-1v-0.8l1.4-0.4H78.6z"/>
<path class="st0" d="M86.6,327.6v4.5h1v1.1h-3.2v-1.1h1v-3.2h-1v-0.8l1.4-0.4H86.6z"/>
<path class="st0" d="M94.6,327.6v4.5h1v1.1h-3.2v-1.1h1v-3.2h-1v-0.8l1.4-0.4H94.6z"/>
<path class="st0" d="M102.5,327.6v4.5h1v1.1h-3.2v-1.1h1v-3.2h-1v-0.8l1.4-0.4H102.5z"/>
<path class="st0" d="M108.3,328.6c0-0.3,0.1-0.6,0.2-0.7c0.2-0.2,0.5-0.2,0.9-0.2h0.9c0.5,0,0.8,0.1,0.9,0.2
	c0.2,0.2,0.2,0.4,0.2,0.7v3.7c0,0.3-0.1,0.6-0.2,0.7c-0.2,0.2-0.5,0.2-0.9,0.2h-0.9c-0.4,0-0.8-0.1-0.9-0.2
	c-0.2-0.2-0.2-0.4-0.2-0.7V328.6z M109.5,332c0,0.1,0,0.1,0.1,0.1h0.4c0.1,0,0.1,0,0.1-0.1v-3.1c0-0.1,0-0.1-0.1-0.1h-0.4
	c-0.1,0-0.1,0-0.1,0.1V332z"/>
<path class="st0" d="M116.2,328.6c0-0.3,0.1-0.6,0.2-0.7c0.2-0.2,0.5-0.2,0.9-0.2h0.9c0.5,0,0.8,0.1,0.9,0.2
	c0.2,0.2,0.2,0.4,0.2,0.7v3.7c0,0.3-0.1,0.6-0.2,0.7c-0.2,0.2-0.5,0.2-0.9,0.2h-0.9c-0.4,0-0.8-0.1-0.9-0.2
	c-0.2-0.2-0.2-0.4-0.2-0.7V328.6z M117.5,332c0,0.1,0,0.1,0.1,0.1h0.4c0.1,0,0.1,0,0.1-0.1v-3.1c0-0.1,0-0.1-0.1-0.1h-0.4
	c-0.1,0-0.1,0-0.1,0.1V332z"/>
<path class="st0" d="M126.5,327.6v4.5h1v1.1h-3.2v-1.1h1v-3.2h-1v-0.8l1.4-0.4H126.5z"/>
<path class="st0" d="M134.4,327.6v4.5h1v1.1h-3.2v-1.1h1v-3.2h-1v-0.8l1.4-0.4H134.4z"/>
<path class="st0" d="M150.4,327.6v4.5h1v1.1h-3.2v-1.1h1v-3.2h-1v-0.8l1.4-0.4H150.4z"/>
<path class="st0" d="M156.1,328.6c0-0.3,0.1-0.6,0.2-0.7c0.2-0.2,0.5-0.2,0.9-0.2h0.9c0.5,0,0.8,0.1,0.9,0.2
	c0.2,0.2,0.2,0.4,0.2,0.7v3.7c0,0.3-0.1,0.6-0.2,0.7c-0.2,0.2-0.5,0.2-0.9,0.2h-0.9c-0.4,0-0.8-0.1-0.9-0.2
	c-0.2-0.2-0.2-0.4-0.2-0.7V328.6z M157.4,332c0,0.1,0,0.1,0.1,0.1h0.4c0.1,0,0.1,0,0.1-0.1v-3.1c0-0.1,0-0.1-0.1-0.1h-0.4
	c-0.1,0-0.1,0-0.1,0.1V332z"/>
<path class="st0" d="M166.3,327.6v4.5h1v1.1h-3.2v-1.1h1v-3.2h-1v-0.8l1.4-0.4H166.3z"/>
<path class="st0" d="M172.1,328.6c0-0.3,0.1-0.6,0.2-0.7c0.2-0.2,0.5-0.2,0.9-0.2h0.9c0.5,0,0.8,0.1,0.9,0.2
	c0.2,0.2,0.2,0.4,0.2,0.7v3.7c0,0.3-0.1,0.6-0.2,0.7c-0.2,0.2-0.5,0.2-0.9,0.2h-0.9c-0.4,0-0.8-0.1-0.9-0.2
	c-0.2-0.2-0.2-0.4-0.2-0.7V328.6z M173.3,332c0,0.1,0,0.1,0.1,0.1h0.4c0.1,0,0.1,0,0.1-0.1v-3.1c0-0.1,0-0.1-0.1-0.1h-0.4
	c-0.1,0-0.1,0-0.1,0.1V332z"/>
<path class="st0" d="M182.3,327.6v4.5h1v1.1h-3.2v-1.1h1v-3.2h-1v-0.8l1.4-0.4H182.3z"/>
<path class="st0" d="M190.3,327.6v4.5h1v1.1H188v-1.1h1v-3.2h-1v-0.8l1.4-0.4H190.3z"/>
<path class="st0" d="M198.2,327.6v4.5h1v1.1H196v-1.1h1v-3.2h-1v-0.8l1.4-0.4H198.2z"/>
<path class="st0" d="M206.2,327.6v4.5h1v1.1H204v-1.1h1v-3.2h-1v-0.8l1.4-0.4H206.2z"/>
<path class="st0" d="M219.9,328.6c0-0.3,0.1-0.6,0.2-0.7c0.2-0.2,0.5-0.2,0.9-0.2h0.9c0.5,0,0.8,0.1,0.9,0.2
	c0.2,0.2,0.2,0.4,0.2,0.7v3.7c0,0.3-0.1,0.6-0.2,0.7c-0.2,0.2-0.5,0.2-0.9,0.2H221c-0.4,0-0.8-0.1-0.9-0.2c-0.2-0.2-0.2-0.4-0.2-0.7
	V328.6z M221.2,332c0,0.1,0,0.1,0.1,0.1h0.4c0.1,0,0.1,0,0.1-0.1v-3.1c0-0.1,0-0.1-0.1-0.1h-0.4c-0.1,0-0.1,0-0.1,0.1V332z"/>
<path class="st0" d="M227.9,328.6c0-0.3,0.1-0.6,0.2-0.7c0.2-0.2,0.5-0.2,0.9-0.2h0.9c0.5,0,0.8,0.1,0.9,0.2
	c0.2,0.2,0.2,0.4,0.2,0.7v3.7c0,0.3-0.1,0.6-0.2,0.7c-0.2,0.2-0.5,0.2-0.9,0.2H229c-0.4,0-0.7-0.1-0.9-0.2c-0.2-0.2-0.2-0.4-0.2-0.7
	V328.6z M229.1,332c0,0.1,0,0.1,0.1,0.1h0.4c0.1,0,0.1,0,0.1-0.1v-3.1c0-0.1,0-0.1-0.1-0.1h-0.4c-0.1,0-0.1,0-0.1,0.1V332z"/>
<path class="st0" d="M238.1,327.6v4.5h1v1.1h-3.2v-1.1h1v-3.2h-1v-0.8l1.4-0.4H238.1z"/>
<path class="st0" d="M243.8,328.6c0-0.3,0.1-0.6,0.2-0.7c0.2-0.2,0.5-0.2,0.9-0.2h0.9c0.5,0,0.8,0.1,0.9,0.2
	c0.2,0.2,0.2,0.4,0.2,0.7v3.7c0,0.3-0.1,0.6-0.2,0.7c-0.2,0.2-0.5,0.2-0.9,0.2H245c-0.4,0-0.8-0.1-0.9-0.2c-0.2-0.2-0.2-0.4-0.2-0.7
	V328.6z M245.1,332c0,0.1,0,0.1,0.1,0.1h0.4c0.1,0,0.1,0,0.1-0.1v-3.1c0-0.1,0-0.1-0.1-0.1h-0.4c-0.1,0-0.1,0-0.1,0.1V332z"/>
<path class="st0" d="M251.8,328.6c0-0.3,0.1-0.6,0.2-0.7c0.2-0.2,0.5-0.2,0.9-0.2h0.9c0.5,0,0.8,0.1,0.9,0.2
	c0.2,0.2,0.2,0.4,0.2,0.7v3.7c0,0.3-0.1,0.6-0.2,0.7c-0.2,0.2-0.5,0.2-0.9,0.2h-0.9c-0.4,0-0.7-0.1-0.9-0.2
	c-0.2-0.2-0.2-0.4-0.2-0.7V328.6z M253.1,332c0,0.1,0,0.1,0.1,0.1h0.4c0.1,0,0.1,0,0.1-0.1v-3.1c0-0.1,0-0.1-0.1-0.1h-0.4
	c-0.1,0-0.1,0-0.1,0.1V332z"/>
<path class="st0" d="M259.8,328.6c0-0.3,0.1-0.6,0.2-0.7c0.2-0.2,0.5-0.2,0.9-0.2h0.9c0.5,0,0.8,0.1,0.9,0.2
	c0.2,0.2,0.2,0.4,0.2,0.7v3.7c0,0.3-0.1,0.6-0.2,0.7c-0.2,0.2-0.5,0.2-0.9,0.2h-0.9c-0.4,0-0.8-0.1-0.9-0.2
	c-0.2-0.2-0.2-0.4-0.2-0.7V328.6z M261,332c0,0.1,0,0.1,0.1,0.1h0.4c0.1,0,0.1,0,0.1-0.1v-3.1c0-0.1,0-0.1-0.1-0.1h-0.4
	c-0.1,0-0.1,0-0.1,0.1V332z"/>
<path class="st0" d="M269.6,343.5c0-0.3,0.1-0.6,0.2-0.7c0.2-0.2,0.5-0.2,0.9-0.2h0.9c0.5,0,0.8,0.1,0.9,0.2
	c0.2,0.2,0.2,0.4,0.2,0.7v3.7c0,0.3-0.1,0.6-0.2,0.7c-0.2,0.2-0.5,0.2-0.9,0.2h-0.9c-0.4,0-0.8-0.1-0.9-0.2
	c-0.2-0.2-0.2-0.4-0.2-0.7V343.5z M270.8,347c0,0.1,0,0.1,0.1,0.1h0.4c0.1,0,0.1,0,0.1-0.1v-3.1c0-0.1,0-0.1-0.1-0.1H271
	c-0.1,0-0.1,0-0.1,0.1V347z"/>
<path class="st0" d="M279.8,342.6v4.5h1v1.1h-3.2v-1.1h1v-3.2h-1V343l1.4-0.4H279.8z"/>
<path class="st0" d="M293.5,343.5c0-0.3,0.1-0.6,0.2-0.7c0.2-0.2,0.5-0.2,0.9-0.2h0.9c0.5,0,0.8,0.1,0.9,0.2
	c0.2,0.2,0.2,0.4,0.2,0.7v3.7c0,0.3-0.1,0.6-0.2,0.7c-0.2,0.2-0.5,0.2-0.9,0.2h-0.9c-0.4,0-0.8-0.1-0.9-0.2
	c-0.2-0.2-0.2-0.4-0.2-0.7V343.5z M294.7,347c0,0.1,0,0.1,0.1,0.1h0.4c0.1,0,0.1,0,0.1-0.1v-3.1c0-0.1,0-0.1-0.1-0.1h-0.4
	c-0.1,0-0.1,0-0.1,0.1V347z"/>
<path class="st0" d="M301.5,343.5c0-0.3,0.1-0.6,0.2-0.7c0.2-0.2,0.5-0.2,0.9-0.2h0.9c0.5,0,0.8,0.1,0.9,0.2
	c0.2,0.2,0.2,0.4,0.2,0.7v3.7c0,0.3-0.1,0.6-0.2,0.7c-0.2,0.2-0.5,0.2-0.9,0.2h-0.9c-0.4,0-0.8-0.1-0.9-0.2
	c-0.2-0.2-0.2-0.4-0.2-0.7V343.5z M302.7,347c0,0.1,0,0.1,0.1,0.1h0.4c0.1,0,0.1,0,0.1-0.1v-3.1c0-0.1,0-0.1-0.1-0.1h-0.4
	c-0.1,0-0.1,0-0.1,0.1V347z"/>
<path class="st0" d="M311.7,342.6v4.5h1v1.1h-3.2v-1.1h1v-3.2h-1V343l1.4-0.4H311.7z"/>
<path class="st0" d="M317.4,343.5c0-0.3,0.1-0.6,0.2-0.7c0.2-0.2,0.5-0.2,0.9-0.2h0.9c0.5,0,0.8,0.1,0.9,0.2
	c0.2,0.2,0.2,0.4,0.2,0.7v3.7c0,0.3-0.1,0.6-0.2,0.7c-0.2,0.2-0.5,0.2-0.9,0.2h-0.9c-0.4,0-0.7-0.1-0.9-0.2
	c-0.2-0.2-0.2-0.4-0.2-0.7V343.5z M318.7,347c0,0.1,0,0.1,0.1,0.1h0.4c0.1,0,0.1,0,0.1-0.1v-3.1c0-0.1,0-0.1-0.1-0.1h-0.4
	c-0.1,0-0.1,0-0.1,0.1V347z"/>
<path class="st0" d="M325.4,343.5c0-0.3,0.1-0.6,0.2-0.7c0.2-0.2,0.5-0.2,0.9-0.2h0.9c0.5,0,0.8,0.1,0.9,0.2
	c0.2,0.2,0.2,0.4,0.2,0.7v3.7c0,0.3-0.1,0.6-0.2,0.7c-0.2,0.2-0.5,0.2-0.9,0.2h-0.9c-0.4,0-0.8-0.1-0.9-0.2
	c-0.2-0.2-0.2-0.4-0.2-0.7V343.5z M326.6,347c0,0.1,0,0.1,0.1,0.1h0.4c0.1,0,0.1,0,0.1-0.1v-3.1c0-0.1,0-0.1-0.1-0.1h-0.4
	c-0.1,0-0.1,0-0.1,0.1V347z"/>
<path class="st0" d="M333.4,343.5c0-0.3,0.1-0.6,0.2-0.7c0.2-0.2,0.5-0.2,0.9-0.2h0.9c0.5,0,0.8,0.1,0.9,0.2
	c0.2,0.2,0.2,0.4,0.2,0.7v3.7c0,0.3-0.1,0.6-0.2,0.7c-0.2,0.2-0.5,0.2-0.9,0.2h-0.9c-0.4,0-0.8-0.1-0.9-0.2
	c-0.2-0.2-0.2-0.4-0.2-0.7V343.5z M334.6,347c0,0.1,0,0.1,0.1,0.1h0.4c0.1,0,0.1,0,0.1-0.1v-3.1c0-0.1,0-0.1-0.1-0.1h-0.4
	c-0.1,0-0.1,0-0.1,0.1V347z"/>
<path class="st0" d="M341.3,343.5c0-0.3,0.1-0.6,0.2-0.7c0.2-0.2,0.5-0.2,0.9-0.2h0.9c0.5,0,0.8,0.1,0.9,0.2
	c0.2,0.2,0.2,0.4,0.2,0.7v3.7c0,0.3-0.1,0.6-0.2,0.7c-0.2,0.2-0.5,0.2-0.9,0.2h-0.9c-0.4,0-0.8-0.1-0.9-0.2
	c-0.2-0.2-0.2-0.4-0.2-0.7V343.5z M342.6,347c0,0.1,0,0.1,0.1,0.1h0.4c0.1,0,0.1,0,0.1-0.1v-3.1c0-0.1,0-0.1-0.1-0.1h-0.4
	c-0.1,0-0.1,0-0.1,0.1V347z"/>
<path class="st0" d="M351.6,342.6v4.5h1v1.1h-3.2v-1.1h1v-3.2h-1V343l1.4-0.4H351.6z"/>
<path class="st1" d="M127.4,271.1v5.7h1.3v1.4h-4.1v-1.4h1.3v-4.1h-1.3v-1.1l1.7-0.5H127.4z"/>
<path class="st1" d="M64.2,270.9c0-0.4,0.1-0.7,0.3-0.8c0.2-0.2,0.5-0.3,1.1-0.3h1.1c0.5,0,0.9,0.1,1.1,0.3c0.2,0.2,0.3,0.5,0.3,0.8
	v4.3c0,0.4-0.1,0.7-0.3,0.8c-0.2,0.2-0.5,0.3-1.1,0.3h-1.1c-0.5,0-0.9-0.1-1.1-0.3c-0.2-0.2-0.3-0.5-0.3-0.8V270.9z M65.7,274.9
	c0,0.1,0.1,0.2,0.2,0.2h0.5c0.1,0,0.2-0.1,0.2-0.2v-3.7c0-0.1-0.1-0.2-0.2-0.2h-0.5c-0.1,0-0.2,0.1-0.2,0.2V274.9z"/>
<path class="st1" d="M96.5,246.6c0-0.5,0.1-0.8,0.3-1c0.2-0.2,0.6-0.3,1.2-0.3h1.3c0.6,0,1,0.1,1.3,0.3c0.2,0.2,0.3,0.5,0.3,1v5.1
	c0,0.4-0.1,0.8-0.3,1c-0.2,0.2-0.6,0.3-1.3,0.3h-1.3c-0.6,0-1-0.1-1.2-0.3c-0.2-0.2-0.3-0.5-0.3-1V246.6z M98.2,251.3
	c0,0.1,0.1,0.2,0.2,0.2H99c0.1,0,0.2-0.1,0.2-0.2V247c0-0.1-0.1-0.2-0.2-0.2h-0.6c-0.1,0-0.2,0.1-0.2,0.2V251.3z"/>
<path class="st1" d="M81.3,245.5v5.8h1.3v1.4h-4.1v-1.4h1.3v-4.2h-1.3v-1.1l1.8-0.6H81.3z"/>
<path class="st1" d="M123.8,246.2v4.6h1v1.1h-3.2v-1.1h1v-3.3h-1v-0.8l1.4-0.4H123.8z"/>
<path class="st1" d="M111.9,245.7v5.3h1.2v1.3h-3.7v-1.3h1.1v-3.8h-1.1v-1l1.6-0.5H111.9z"/>
<path class="st1" d="M106.7,245.7v4.6h1v1.1h-3.3v-1.1h1V247h-1v-0.9l1.4-0.4H106.7z"/>
<path class="st1" d="M174,267.5v6.4h1.4v1.5h-4.5v-1.5h1.4v-4.6h-1.4v-1.2l1.9-0.6H174z"/>
<path class="st1" d="M332.8,237.9v5.2h1.1v1.2h-3.7v-1.2h1.1v-3.8h-1.1v-1l1.6-0.5H332.8z"/>
<path class="st1" d="M346.6,237.9v5.9h1.3v1.4h-4.2v-1.4h1.3v-4.2h-1.3v-1.1l1.8-0.6H346.6z"/>
<path class="st1" d="M306.1,269.2v5.6h1.2v1.3h-4v-1.3h1.2v-4.1h-1.2v-1l1.7-0.5H306.1z"/>
<path class="st1" d="M303.2,270.5c0-0.4,0.1-0.7,0.3-0.9c0.2-0.2,0.6-0.3,1.1-0.3h1.2c0.6,0,0.9,0.1,1.1,0.3
	c0.2,0.2,0.3,0.5,0.3,0.9v4.5c0,0.4-0.1,0.7-0.3,0.9c-0.2,0.2-0.6,0.3-1.1,0.3h-1.2c-0.6,0-0.9-0.1-1.1-0.3
	c-0.2-0.2-0.3-0.5-0.3-0.9V270.5z M304.7,274.8c0,0.1,0.1,0.2,0.2,0.2h0.5c0.1,0,0.2-0.1,0.2-0.2v-3.9c0-0.1-0.1-0.2-0.2-0.2h-0.5
	c-0.1,0-0.2,0.1-0.2,0.2V274.8z"/>
<path class="st1" d="M320.9,270.9c0-0.4,0.1-0.6,0.2-0.8c0.2-0.2,0.5-0.2,1-0.2h1c0.5,0,0.8,0.1,1,0.2c0.2,0.2,0.2,0.4,0.2,0.8v4
	c0,0.3-0.1,0.6-0.2,0.8c-0.2,0.2-0.5,0.2-1,0.2h-1c-0.5,0-0.8-0.1-1-0.2c-0.2-0.2-0.2-0.4-0.2-0.8V270.9z M322.2,274.6
	c0,0.1,0.1,0.2,0.2,0.2h0.5c0.1,0,0.2-0.1,0.2-0.2v-3.4c0-0.1-0.1-0.2-0.2-0.2h-0.5c-0.1,0-0.2,0.1-0.2,0.2V274.6z"/>
<path class="st1" d="M338.5,270.1v4.7h1v1.1h-3.3v-1.1h1v-3.4h-1v-0.9l1.4-0.4H338.5z"/>
<path class="st1" d="M338.4,270.3c0-0.5,0.1-0.8,0.3-1.1c0.2-0.2,0.7-0.3,1.4-0.3h1.4c0.7,0,1.1,0.1,1.4,0.3
	c0.2,0.2,0.3,0.6,0.3,1.1v5.5c0,0.5-0.1,0.8-0.3,1.1c-0.2,0.2-0.7,0.3-1.4,0.3h-1.4c-0.7,0-1.1-0.1-1.4-0.3
	c-0.2-0.2-0.3-0.6-0.3-1.1V270.3z M340.2,275.4c0,0.1,0.1,0.2,0.2,0.2h0.7c0.1,0,0.2-0.1,0.2-0.2v-4.7c0-0.1-0.1-0.2-0.2-0.2h-0.7
	c-0.1,0-0.2,0.1-0.2,0.2V275.4z"/>
<path class="st1" d="M366.4,269.4v5.8h1.3v1.4h-4.2v-1.4h1.3V271h-1.3V270l1.8-0.6H366.4z"/>
<path class="st1" d="M70.4,256.7c0-0.4,0.1-0.6,0.3-0.8c0.2-0.2,0.5-0.3,1-0.3h1c0.5,0,0.8,0.1,1,0.3c0.2,0.2,0.3,0.4,0.3,0.8v4
	c0,0.3-0.1,0.6-0.3,0.8c-0.2,0.2-0.5,0.3-1,0.3h-1c-0.5,0-0.8-0.1-1-0.3c-0.2-0.2-0.3-0.4-0.3-0.8V256.7z M71.7,260.5
	c0,0.1,0.1,0.2,0.2,0.2h0.5c0.1,0,0.2-0.1,0.2-0.2V257c0-0.1-0.1-0.2-0.2-0.2h-0.5c-0.1,0-0.2,0.1-0.2,0.2V260.5z"/>
<path class="st1" d="M88,255.2v5.7h1.2v1.4h-4.1v-1.4h1.2v-4.1h-1.2v-1l1.7-0.5H88z"/>
<path class="st1" d="M69.4,255v6h1.3v1.4h-4.3V261h1.3v-4.3h-1.3v-1.1l1.8-0.6H69.4z"/>
<path class="st1" d="M101.5,255.9v4.6h1v1.1h-3.3v-1.1h1v-3.3h-1v-0.9l1.4-0.4H101.5z"/>
<path class="st1" d="M95.9,256.3c0-0.4,0.1-0.8,0.3-1c0.2-0.2,0.6-0.3,1.2-0.3h1.3c0.6,0,1,0.1,1.2,0.3c0.2,0.2,0.3,0.5,0.3,1v5
	c0,0.4-0.1,0.8-0.3,1c-0.2,0.2-0.6,0.3-1.2,0.3h-1.3c-0.6,0-1-0.1-1.2-0.3c-0.2-0.2-0.3-0.5-0.3-1V256.3z M97.6,260.9
	c0,0.1,0.1,0.2,0.2,0.2h0.6c0.1,0,0.2-0.1,0.2-0.2v-4.2c0-0.1-0.1-0.2-0.2-0.2h-0.6c-0.1,0-0.2,0.1-0.2,0.2V260.9z"/>
<path class="st1" d="M100.6,256c0-0.5,0.1-0.8,0.3-1.1c0.2-0.2,0.7-0.3,1.3-0.3h1.4c0.7,0,1.1,0.1,1.3,0.3c0.2,0.2,0.3,0.6,0.3,1.1
	v5.4c0,0.5-0.1,0.8-0.3,1.1c-0.2,0.2-0.7,0.3-1.3,0.3h-1.4c-0.7,0-1.1-0.1-1.3-0.3c-0.2-0.2-0.3-0.6-0.3-1.1V256z M102.4,261
	c0,0.1,0.1,0.2,0.2,0.2h0.6c0.1,0,0.2-0.1,0.2-0.2v-4.6c0-0.1-0.1-0.2-0.2-0.2h-0.6c-0.1,0-0.2,0.1-0.2,0.2V261z"/>
<path class="st1" d="M140.1,280.3c0-0.4,0.1-0.7,0.3-0.9c0.2-0.2,0.6-0.3,1.1-0.3h1.1c0.6,0,0.9,0.1,1.1,0.3
	c0.2,0.2,0.3,0.5,0.3,0.9v4.5c0,0.4-0.1,0.7-0.3,0.9c-0.2,0.2-0.6,0.3-1.1,0.3h-1.1c-0.5,0-0.9-0.1-1.1-0.3
	c-0.2-0.2-0.3-0.5-0.3-0.9V280.3z M141.6,284.4c0,0.1,0.1,0.2,0.2,0.2h0.5c0.1,0,0.2-0.1,0.2-0.2v-3.8c0-0.1-0.1-0.2-0.2-0.2h-0.5
	c-0.1,0-0.2,0.1-0.2,0.2V284.4z"/>
<path class="st1" d="M116.8,255.2v5.5h1.2v1.3h-4v-1.3h1.2v-4h-1.2v-1l1.7-0.5H116.8z"/>
<path class="st1" d="M122.7,255v5.7h1.3v1.4h-4.1v-1.4h1.2v-4.1h-1.2v-1.1l1.7-0.5H122.7z"/>
<path class="st1" d="M132.1,254.6v6.2h1.4v1.5h-4.4v-1.5h1.3v-4.5h-1.3v-1.1l1.9-0.6H132.1z"/>
<path class="st1" d="M172.7,279.8c0-0.4,0.1-0.7,0.3-0.9c0.2-0.2,0.6-0.3,1.2-0.3h1.2c0.6,0,1,0.1,1.2,0.3c0.2,0.2,0.3,0.5,0.3,0.9
	v4.7c0,0.4-0.1,0.7-0.3,0.9c-0.2,0.2-0.6,0.3-1.2,0.3h-1.2c-0.6,0-1-0.1-1.2-0.3c-0.2-0.2-0.3-0.5-0.3-0.9V279.8z M174.3,284.2
	c0,0.1,0.1,0.2,0.2,0.2h0.6c0.1,0,0.2-0.1,0.2-0.2v-4c0-0.1-0.1-0.2-0.2-0.2h-0.6c-0.1,0-0.2,0.1-0.2,0.2V284.2z"/>
<path class="st1" d="M182.4,279.6c0-0.4,0.1-0.8,0.3-1c0.2-0.2,0.6-0.3,1.2-0.3h1.3c0.6,0,1,0.1,1.2,0.3c0.2,0.2,0.3,0.5,0.3,1v5
	c0,0.4-0.1,0.8-0.3,1c-0.2,0.2-0.6,0.3-1.2,0.3h-1.3c-0.6,0-1-0.1-1.2-0.3c-0.2-0.2-0.3-0.5-0.3-1V279.6z M184.1,284.2
	c0,0.1,0.1,0.2,0.2,0.2h0.6c0.1,0,0.2-0.1,0.2-0.2v-4.3c0-0.1-0.1-0.2-0.2-0.2h-0.6c-0.1,0-0.2,0.1-0.2,0.2V284.2z"/>
<path class="st1" d="M186.7,279.1v4.6h1v1.1h-3.3v-1.1h1v-3.3h-1v-0.8l1.4-0.4H186.7z"/>
<path class="st1" d="M193.7,278.2v5.9h1.3v1.4h-4.2v-1.4h1.3v-4.3h-1.3v-1.1l1.8-0.6H193.7z"/>
<path class="st1" d="M201.1,279.7c0-0.4,0.1-0.7,0.3-0.9c0.2-0.2,0.5-0.3,1.1-0.3h1.1c0.5,0,0.9,0.1,1.1,0.3
	c0.2,0.2,0.3,0.5,0.3,0.9v4.4c0,0.4-0.1,0.7-0.3,0.9c-0.2,0.2-0.5,0.3-1.1,0.3h-1.1c-0.5,0-0.9-0.1-1.1-0.3
	c-0.2-0.2-0.3-0.5-0.3-0.9V279.7z M202.6,283.8c0,0.1,0.1,0.2,0.2,0.2h0.5c0.1,0,0.2-0.1,0.2-0.2V280c0-0.1-0.1-0.2-0.2-0.2h-0.5
	c-0.1,0-0.2,0.1-0.2,0.2V283.8z"/>
<path class="st1" d="M200.9,279.7c0-0.4,0.1-0.6,0.3-0.8c0.2-0.2,0.5-0.3,1-0.3h1.1c0.5,0,0.9,0.1,1,0.3c0.2,0.2,0.3,0.4,0.3,0.8
	v4.2c0,0.4-0.1,0.6-0.3,0.8c-0.2,0.2-0.5,0.3-1,0.3h-1.1c-0.5,0-0.9-0.1-1-0.3c-0.2-0.2-0.3-0.5-0.3-0.8V279.7z M202.4,283.6
	c0,0.1,0.1,0.2,0.2,0.2h0.5c0.1,0,0.2-0.1,0.2-0.2V280c0-0.1-0.1-0.2-0.2-0.2h-0.5c-0.1,0-0.2,0.1-0.2,0.2V283.6z"/>
<path class="st1" d="M199.3,278v6.2h1.4v1.5h-4.4v-1.5h1.4v-4.5h-1.4v-1.1l1.9-0.6H199.3z"/>
<path class="st1" d="M217.3,279.8c0-0.4,0.1-0.6,0.3-0.8c0.2-0.2,0.5-0.3,1-0.3h1.1c0.5,0,0.9,0.1,1,0.3c0.2,0.2,0.3,0.4,0.3,0.8
	v4.2c0,0.4-0.1,0.6-0.3,0.8c-0.2,0.2-0.5,0.3-1,0.3h-1.1c-0.5,0-0.9-0.1-1-0.3c-0.2-0.2-0.3-0.5-0.3-0.8V279.8z M218.8,283.7
	c0,0.1,0.1,0.2,0.2,0.2h0.5c0.1,0,0.2-0.1,0.2-0.2v-3.6c0-0.1-0.1-0.2-0.2-0.2h-0.5c-0.1,0-0.2,0.1-0.2,0.2V283.7z"/>
<path class="st1" d="M289.4,247v6.4h1.4v1.5h-4.6v-1.5h1.4v-4.6h-1.4v-1.2l2-0.6H289.4z"/>
<path class="st1" d="M292.4,247.1v6.4h1.4v1.5h-4.6v-1.5h1.4v-4.6h-1.4v-1.2l2-0.6H292.4z"/>
<path class="st1" d="M306.1,247.6v5.8h1.3v1.4h-4.2v-1.4h1.3v-4.2h-1.3v-1.1l1.8-0.6H306.1z"/>
<path class="st1" d="M268.9,260.9v5.6h1.2v1.3h-4v-1.3h1.2v-4h-1.2v-1l1.7-0.5H268.9z"/>
<path class="st1" d="M336.2,247.6v6h1.3v1.4h-4.3v-1.4h1.3v-4.3h-1.3v-1.1l1.8-0.6H336.2z"/>
<path class="st1" d="M285.2,260.9v5.9h1.3v1.4h-4.2v-1.4h1.3v-4.2h-1.3v-1.1l1.8-0.6H285.2z"/>
<path class="st1" d="M284.3,261.8v4.5h1v1.1h-3.2v-1.1h1v-3.3h-1v-0.8l1.4-0.4H284.3z"/>
<path class="st1" d="M289.8,278.8v6h1.3v1.4h-4.3v-1.4h1.3v-4.4h-1.3v-1.1l1.8-0.6H289.8z"/>
<path class="st1" d="M315.7,278.6v6.5h1.4v1.5h-4.6V285h1.4v-4.7h-1.4v-1.2l2-0.6H315.7z"/>
<path class="st1" d="M312.8,278.7v6.3h1.4v1.5h-4.5V285h1.4v-4.5h-1.4v-1.2l1.9-0.6H312.8z"/>
<path class="st1" d="M345.8,279.4v5.2h1.1v1.2h-3.7v-1.2h1.1v-3.7h-1.1v-1l1.6-0.5H345.8z"/>
<path class="st1" d="M360.2,278.7v6.4h1.4v1.5H357V285h1.4v-4.6H357v-1.2l1.9-0.6H360.2z"/>
<path class="st1" d="M357.5,279.7v4.6h1v1.1h-3.3v-1.1h1V281h-1v-0.8l1.4-0.4H357.5z"/>
<path class="st1" d="M71.2,266.4c0-0.3,0.1-0.6,0.2-0.8c0.2-0.2,0.5-0.2,1-0.2h1c0.5,0,0.8,0.1,1,0.2c0.2,0.2,0.2,0.4,0.2,0.8v3.9
	c0,0.3-0.1,0.6-0.2,0.8c-0.2,0.2-0.5,0.2-1,0.2h-1c-0.5,0-0.8-0.1-1-0.2c-0.2-0.2-0.2-0.4-0.2-0.8V266.4z M72.6,270
	c0,0.1,0.1,0.2,0.2,0.2h0.5c0.1,0,0.2-0.1,0.2-0.2v-3.3c0-0.1-0.1-0.2-0.2-0.2h-0.5c-0.1,0-0.2,0.1-0.2,0.2V270z"/>
<path class="st1" d="M66.3,265.4v4.7h1v1.1h-3.4v-1.1h1v-3.4h-1v-0.9l1.4-0.5H66.3z"/>
<path class="st1" d="M70.4,265.8c0-0.4,0.1-0.8,0.3-1c0.2-0.2,0.6-0.3,1.2-0.3h1.3c0.6,0,1,0.1,1.2,0.3c0.2,0.2,0.3,0.5,0.3,1v5
	c0,0.4-0.1,0.8-0.3,1c-0.2,0.2-0.6,0.3-1.2,0.3h-1.3c-0.6,0-1-0.1-1.2-0.3c-0.2-0.2-0.3-0.5-0.3-1V265.8z M72.1,270.5
	c0,0.1,0.1,0.2,0.2,0.2h0.6c0.1,0,0.2-0.1,0.2-0.2v-4.3c0-0.1-0.1-0.2-0.2-0.2h-0.6c-0.1,0-0.2,0.1-0.2,0.2V270.5z"/>
<path class="st1" d="M105.5,265.2v5h1.1v1.2H103v-1.2h1.1v-3.6H103v-0.9l1.5-0.5H105.5z"/>
<path class="st1" d="M122.1,266.1c0-0.4,0.1-0.7,0.3-0.9c0.2-0.2,0.6-0.3,1.1-0.3h1.1c0.6,0,0.9,0.1,1.1,0.3
	c0.2,0.2,0.3,0.5,0.3,0.9v4.5c0,0.4-0.1,0.7-0.3,0.9c-0.2,0.2-0.6,0.3-1.1,0.3h-1.1c-0.5,0-0.9-0.1-1.1-0.3
	c-0.2-0.2-0.3-0.5-0.3-0.9V266.1z M123.7,270.2c0,0.1,0.1,0.2,0.2,0.2h0.5c0.1,0,0.2-0.1,0.2-0.2v-3.8c0-0.1-0.1-0.2-0.2-0.2h-0.5
	c-0.1,0-0.2,0.1-0.2,0.2V270.2z"/>
<path class="st1" d="M100.6,266.2c0-0.4,0.1-0.6,0.3-0.8c0.2-0.2,0.5-0.3,1-0.3h1.1c0.5,0,0.9,0.1,1,0.3c0.2,0.2,0.3,0.4,0.3,0.8
	v4.2c0,0.4-0.1,0.6-0.3,0.8c-0.2,0.2-0.5,0.3-1,0.3h-1.1c-0.5,0-0.9-0.1-1-0.3c-0.2-0.2-0.3-0.5-0.3-0.8V266.2z M102,270.1
	c0,0.1,0.1,0.2,0.2,0.2h0.5c0.1,0,0.2-0.1,0.2-0.2v-3.6c0-0.1-0.1-0.2-0.2-0.2h-0.5c-0.1,0-0.2,0.1-0.2,0.2V270.1z"/>
<path class="st1" d="M119.4,265.3v4.9h1.1v1.2H117v-1.2h1.1v-3.5H117v-0.9l1.5-0.5H119.4z"/>
<path class="st1" d="M117.6,264.6v6h1.3v1.4h-4.3v-1.4h1.3v-4.3h-1.3v-1.1l1.8-0.6H117.6z"/>
<path class="st1" d="M129,265.7c0-0.5,0.1-0.8,0.3-1c0.2-0.2,0.6-0.3,1.3-0.3h1.3c0.6,0,1.1,0.1,1.3,0.3c0.2,0.2,0.3,0.5,0.3,1v5.2
	c0,0.4-0.1,0.8-0.3,1c-0.2,0.2-0.6,0.3-1.3,0.3h-1.3c-0.6,0-1-0.1-1.3-0.3c-0.2-0.2-0.3-0.6-0.3-1V265.7z M130.7,270.5
	c0,0.1,0.1,0.2,0.2,0.2h0.6c0.1,0,0.2-0.1,0.2-0.2v-4.4c0-0.1-0.1-0.2-0.2-0.2h-0.6c-0.1,0-0.2,0.1-0.2,0.2V270.5z"/>
<path class="st1" d="M174.5,288.5v5.8h1.3v1.4h-4.1v-1.4h1.3v-4.2h-1.3V289l1.8-0.6H174.5z"/>
<path class="st1" d="M196.5,290.1c0-0.3,0.1-0.6,0.2-0.7c0.2-0.2,0.5-0.2,0.9-0.2h1c0.5,0,0.8,0.1,0.9,0.2c0.2,0.2,0.2,0.4,0.2,0.7
	v3.8c0,0.3-0.1,0.6-0.2,0.7c-0.2,0.2-0.5,0.2-0.9,0.2h-1c-0.5,0-0.8-0.1-0.9-0.2c-0.2-0.2-0.2-0.4-0.2-0.7V290.1z M197.8,293.7
	c0,0.1,0,0.1,0.1,0.1h0.5c0.1,0,0.2,0,0.2-0.1v-3.3c0-0.1,0-0.2-0.2-0.2h-0.5c-0.1,0-0.1,0.1-0.1,0.2V293.7z"/>
<path class="st1" d="M204.8,289.8c0-0.4,0.1-0.7,0.3-0.9c0.2-0.2,0.5-0.3,1.1-0.3h1.1c0.5,0,0.9,0.1,1.1,0.3
	c0.2,0.2,0.3,0.5,0.3,0.9v4.4c0,0.4-0.1,0.7-0.3,0.9c-0.2,0.2-0.5,0.3-1.1,0.3h-1.1c-0.5,0-0.9-0.1-1.1-0.3
	c-0.2-0.2-0.3-0.5-0.3-0.9V289.8z M206.3,293.9c0,0.1,0.1,0.2,0.2,0.2h0.5c0.1,0,0.2-0.1,0.2-0.2v-3.8c0-0.1-0.1-0.2-0.2-0.2h-0.5
	c-0.1,0-0.2,0.1-0.2,0.2V293.9z"/>
<path class="st1" d="M178,289.5c0-0.4,0.1-0.8,0.3-1c0.2-0.2,0.6-0.3,1.2-0.3h1.3c0.6,0,1,0.1,1.2,0.3c0.2,0.2,0.3,0.5,0.3,1v4.9
	c0,0.4-0.1,0.8-0.3,1c-0.2,0.2-0.6,0.3-1.2,0.3h-1.3c-0.6,0-1-0.1-1.2-0.3c-0.2-0.2-0.3-0.5-0.3-1V289.5z M179.6,294.1
	c0,0.1,0.1,0.2,0.2,0.2h0.6c0.1,0,0.2-0.1,0.2-0.2v-4.2c0-0.1-0.1-0.2-0.2-0.2h-0.6c-0.1,0-0.2,0.1-0.2,0.2V294.1z"/>
<path class="st1" d="M215.8,288.1v6.3h1.4v1.5h-4.5v-1.5h1.4v-4.5h-1.4v-1.2l1.9-0.6H215.8z"/>
<path class="st1" d="M249.8,272.3c0-0.3,0.1-0.6,0.2-0.7c0.2-0.2,0.5-0.2,0.9-0.2h1c0.5,0,0.8,0.1,0.9,0.2c0.2,0.2,0.2,0.4,0.2,0.7
	v3.8c0,0.3-0.1,0.6-0.2,0.7c-0.2,0.2-0.5,0.2-0.9,0.2h-1c-0.5,0-0.8-0.1-0.9-0.2c-0.2-0.2-0.2-0.4-0.2-0.7V272.3z M251.1,275.8
	c0,0.1,0,0.1,0.1,0.1h0.5c0.1,0,0.1,0,0.1-0.1v-3.2c0-0.1,0-0.1-0.1-0.1h-0.5c-0.1,0-0.1,0.1-0.1,0.1V275.8z"/>
<path class="st1" d="M251.9,272.2c0-0.4,0.1-0.6,0.3-0.8c0.2-0.2,0.5-0.3,1-0.3h1c0.5,0,0.8,0.1,1,0.3c0.2,0.2,0.3,0.4,0.3,0.8v4
	c0,0.3-0.1,0.6-0.3,0.8c-0.2,0.2-0.5,0.3-1,0.3h-1c-0.5,0-0.8-0.1-1-0.3c-0.2-0.2-0.3-0.4-0.3-0.8V272.2z M253.3,275.9
	c0,0.1,0.1,0.2,0.2,0.2h0.5c0.1,0,0.2-0.1,0.2-0.2v-3.4c0-0.1-0.1-0.2-0.2-0.2h-0.5c-0.1,0-0.2,0.1-0.2,0.2V275.9z"/>
<path class="st1" d="M250,270.7v5.6h1.2v1.3h-4v-1.3h1.2v-4h-1.2v-1l1.7-0.5H250z"/>
<path class="st1" d="M248.3,270.8v5.6h1.2v1.3h-4v-1.3h1.2v-4h-1.2v-1l1.7-0.5H248.3z"/>
<path class="st1" d="M279.4,271v5.2h1.1v1.3h-3.7v-1.3h1.1v-3.8h-1.1v-1l1.6-0.5H279.4z"/>
<path class="st1" d="M271.4,270.9v5.4h1.2v1.3h-3.8v-1.3h1.2v-3.9h-1.2v-1l1.6-0.5H271.4z"/>
<path class="st1" d="M280.7,272c0-0.4,0.1-0.7,0.3-0.9c0.2-0.2,0.6-0.3,1.1-0.3h1.2c0.6,0,1,0.1,1.1,0.3c0.2,0.2,0.3,0.5,0.3,0.9
	v4.6c0,0.4-0.1,0.7-0.3,0.9c-0.2,0.2-0.6,0.3-1.1,0.3h-1.2c-0.6,0-0.9-0.1-1.1-0.3c-0.2-0.2-0.3-0.5-0.3-0.9V272z M282.2,276.3
	c0,0.1,0.1,0.2,0.2,0.2h0.6c0.1,0,0.2-0.1,0.2-0.2v-4c0-0.1-0.1-0.2-0.2-0.2h-0.6c-0.1,0-0.2,0.1-0.2,0.2V276.3z"/>
<path class="st1" d="M285.4,270.8v5.5h1.2v1.3h-4v-1.3h1.2v-4h-1.2v-1l1.7-0.5H285.4z"/>
<path class="st1" d="M334.3,288.4v6h1.3v1.4h-4.3v-1.4h1.3v-4.3h-1.3V289l1.8-0.6H334.3z"/>
<path class="st1" d="M324.3,289.4c0-0.5,0.1-0.8,0.3-1.1c0.2-0.2,0.7-0.3,1.3-0.3h1.4c0.7,0,1.1,0.1,1.3,0.3
	c0.2,0.2,0.3,0.6,0.3,1.1v5.4c0,0.5-0.1,0.8-0.3,1.1c-0.2,0.2-0.7,0.3-1.3,0.3h-1.4c-0.7,0-1.1-0.1-1.3-0.3
	c-0.2-0.2-0.3-0.6-0.3-1.1V289.4z M326.1,294.5c0,0.1,0.1,0.2,0.2,0.2h0.6c0.1,0,0.2-0.1,0.2-0.2v-4.6c0-0.1-0.1-0.2-0.2-0.2h-0.6
	c-0.1,0-0.2,0.1-0.2,0.2V294.5z"/>
<path class="st1" d="M335.7,288.3v6.2h1.4v1.5h-4.4v-1.5h1.3v-4.4h-1.3v-1.1l1.9-0.6H335.7z"/>
<path class="st1" d="M330.4,289.1v4.9h1.1v1.2H328V294h1.1v-3.5H328v-0.9l1.5-0.5H330.4z"/>
<path class="st1" d="M73.9,298v6.1h1.3v1.5h-4.3V304h1.3v-4.4h-1.3v-1.1l1.8-0.6H73.9z"/>
<path class="st1" d="M90.1,299.4c0-0.4,0.1-0.7,0.3-0.9c0.2-0.2,0.6-0.3,1.1-0.3h1.2c0.6,0,1,0.1,1.2,0.3c0.2,0.2,0.3,0.5,0.3,0.9
	v4.7c0,0.4-0.1,0.7-0.3,0.9c-0.2,0.2-0.6,0.3-1.2,0.3h-1.2c-0.6,0-1-0.1-1.1-0.3c-0.2-0.2-0.3-0.5-0.3-0.9V299.4z M91.7,303.7
	c0,0.1,0.1,0.2,0.2,0.2h0.6c0.1,0,0.2-0.1,0.2-0.2v-4c0-0.1-0.1-0.2-0.2-0.2h-0.6c-0.1,0-0.2,0.1-0.2,0.2V303.7z"/>
<path class="st1" d="M88,299.1c0-0.5,0.1-0.8,0.3-1c0.2-0.2,0.6-0.3,1.3-0.3h1.3c0.6,0,1.1,0.1,1.3,0.3c0.2,0.2,0.3,0.6,0.3,1v5.2
	c0,0.5-0.1,0.8-0.3,1c-0.2,0.2-0.6,0.3-1.3,0.3h-1.3c-0.6,0-1.1-0.1-1.3-0.3c-0.2-0.2-0.3-0.6-0.3-1V299.1z M89.7,304
	c0,0.1,0.1,0.2,0.2,0.2h0.6c0.1,0,0.2-0.1,0.2-0.2v-4.5c0-0.1-0.1-0.2-0.2-0.2H90c-0.1,0-0.2,0.1-0.2,0.2V304z"/>
<path class="st1" d="M85.8,299.6c0-0.4,0.1-0.7,0.3-0.8c0.2-0.2,0.5-0.3,1.1-0.3h1.1c0.5,0,0.9,0.1,1.1,0.3c0.2,0.2,0.3,0.5,0.3,0.8
	v4.3c0,0.4-0.1,0.7-0.3,0.8c-0.2,0.2-0.5,0.3-1.1,0.3h-1.1c-0.5,0-0.9-0.1-1.1-0.3c-0.2-0.2-0.3-0.5-0.3-0.8V299.6z M87.3,303.6
	c0,0.1,0.1,0.2,0.2,0.2H88c0.1,0,0.2-0.1,0.2-0.2v-3.7c0-0.1-0.1-0.2-0.2-0.2h-0.5c-0.1,0-0.2,0.1-0.2,0.2V303.6z"/>
<path class="st1" d="M118.7,298.5v5.2h1.1v1.2h-3.7v-1.2h1.1V300h-1.1v-1l1.6-0.5H118.7z"/>
<path class="st1" d="M98.5,297.7v6.6h1.4v1.6h-4.7v-1.6h1.4v-4.7h-1.4v-1.2l2-0.6H98.5z"/>
<path class="st1" d="M121.2,298.8v4.7h1v1.1h-3.3v-1.1h1v-3.4h-1v-0.9l1.4-0.4H121.2z"/>
<path class="st1" d="M149.5,297.6v6.7h1.5v1.6h-4.8v-1.6h1.5v-4.8h-1.5v-1.2l2-0.6H149.5z"/>
<path class="st1" d="M157.6,299.4c0-0.4,0.1-0.7,0.3-0.9c0.2-0.2,0.6-0.3,1.1-0.3h1.2c0.6,0,1,0.1,1.1,0.3c0.2,0.2,0.3,0.5,0.3,0.9
	v4.6c0,0.4-0.1,0.7-0.3,0.9c-0.2,0.2-0.6,0.3-1.1,0.3H159c-0.6,0-0.9-0.1-1.1-0.3c-0.2-0.2-0.3-0.5-0.3-0.9V299.4z M159.2,303.7
	c0,0.1,0.1,0.2,0.2,0.2h0.6c0.1,0,0.2-0.1,0.2-0.2v-3.9c0-0.1-0.1-0.2-0.2-0.2h-0.6c-0.1,0-0.2,0.1-0.2,0.2V303.7z"/>
<path class="st1" d="M153.7,297.8v6.4h1.4v1.5h-4.5v-1.5h1.4v-4.6h-1.4v-1.2l1.9-0.6H153.7z"/>
<path class="st1" d="M199.8,299.3c0-0.4,0.1-0.8,0.3-1c0.2-0.2,0.6-0.3,1.2-0.3h1.3c0.6,0,1,0.1,1.2,0.3c0.2,0.2,0.3,0.5,0.3,1v4.9
	c0,0.4-0.1,0.8-0.3,1c-0.2,0.2-0.6,0.3-1.2,0.3h-1.3c-0.6,0-1-0.1-1.2-0.3c-0.2-0.2-0.3-0.5-0.3-1V299.3z M201.4,303.8
	c0,0.1,0.1,0.2,0.2,0.2h0.6c0.1,0,0.2-0.1,0.2-0.2v-4.2c0-0.1-0.1-0.2-0.2-0.2h-0.6c-0.1,0-0.2,0.1-0.2,0.2V303.8z"/>
<path class="st1" d="M192.2,298v6h1.3v1.4h-4.3V304h1.3v-4.3h-1.3v-1.1l1.8-0.6H192.2z"/>
<path class="st1" d="M197.6,298.5v5.2h1.1v1.2H195v-1.2h1.1V300H195v-1l1.6-0.5H197.6z"/>
<path class="st1" d="M215.1,298.8v4.8h1.1v1.1h-3.4v-1.1h1v-3.5h-1v-0.9l1.5-0.5H215.1z"/>
<path class="st1" d="M213.3,299.3c0-0.4,0.1-0.7,0.3-0.9c0.2-0.2,0.6-0.3,1.2-0.3h1.2c0.6,0,1,0.1,1.2,0.3c0.2,0.2,0.3,0.5,0.3,0.9
	v4.8c0,0.4-0.1,0.7-0.3,0.9c-0.2,0.2-0.6,0.3-1.2,0.3h-1.2c-0.6,0-1-0.1-1.2-0.3c-0.2-0.2-0.3-0.5-0.3-0.9V299.3z M215,303.8
	c0,0.1,0.1,0.2,0.2,0.2h0.6c0.1,0,0.2-0.1,0.2-0.2v-4.1c0-0.1-0.1-0.2-0.2-0.2h-0.6c-0.1,0-0.2,0.1-0.2,0.2V303.8z"/>
<path class="st1" d="M205.4,298.7v4.9h1.1v1.2h-3.5v-1.2h1.1v-3.5h-1.1v-0.9l1.5-0.5H205.4z"/>
<path class="st1" d="M241.4,281.3c0-0.5,0.1-0.8,0.3-1c0.2-0.2,0.6-0.3,1.3-0.3h1.3c0.6,0,1.1,0.1,1.3,0.3c0.2,0.2,0.3,0.6,0.3,1
	v5.2c0,0.5-0.1,0.8-0.3,1c-0.2,0.2-0.6,0.3-1.3,0.3H243c-0.6,0-1.1-0.1-1.3-0.3c-0.2-0.2-0.3-0.6-0.3-1V281.3z M243.2,286.1
	c0,0.1,0.1,0.2,0.2,0.2h0.6c0.1,0,0.2-0.1,0.2-0.2v-4.4c0-0.1-0.1-0.2-0.2-0.2h-0.6c-0.1,0-0.2,0.1-0.2,0.2V286.1z"/>
<path class="st1" d="M267.2,280v6.2h1.4v1.5h-4.4v-1.5h1.3v-4.4h-1.3v-1.1l1.9-0.6H267.2z"/>
<path class="st1" d="M270.7,299.8c0-0.3,0.1-0.6,0.2-0.8c0.2-0.2,0.5-0.2,0.9-0.2h1c0.5,0,0.8,0.1,1,0.2c0.2,0.2,0.2,0.4,0.2,0.8
	v3.9c0,0.3-0.1,0.6-0.2,0.8c-0.2,0.2-0.5,0.2-1,0.2h-1c-0.5,0-0.8-0.1-0.9-0.2c-0.2-0.2-0.2-0.4-0.2-0.8V299.8z M272,303.4
	c0,0.1,0.1,0.2,0.1,0.2h0.5c0.1,0,0.2-0.1,0.2-0.2v-3.3c0-0.1,0-0.2-0.2-0.2h-0.5c-0.1,0-0.1,0.1-0.1,0.2V303.4z"/>
<path class="st1" d="M246.9,299.7c0-0.4,0.1-0.6,0.2-0.8c0.2-0.2,0.5-0.2,1-0.2h1c0.5,0,0.8,0.1,1,0.2c0.2,0.2,0.2,0.4,0.2,0.8v4
	c0,0.3-0.1,0.6-0.2,0.8c-0.2,0.2-0.5,0.2-1,0.2h-1c-0.5,0-0.8-0.1-1-0.2c-0.2-0.2-0.2-0.4-0.2-0.8V299.7z M248.3,303.4
	c0,0.1,0.1,0.2,0.2,0.2h0.5c0.1,0,0.2-0.1,0.2-0.2V300c0-0.1-0.1-0.2-0.2-0.2h-0.5c-0.1,0-0.2,0.1-0.2,0.2V303.4z"/>
<path class="st1" d="M288.9,298.6v5.1h1.1v1.2h-3.6v-1.2h1.1V300h-1.1v-0.9l1.5-0.5H288.9z"/>
<path class="st1" d="M297.7,298.6v5h1.1v1.2h-3.6v-1.2h1.1V300h-1.1v-0.9l1.5-0.5H297.7z"/>
<path class="st1" d="M267.1,280v6.2h1.4v1.5h-4.4v-1.5h1.3v-4.5h-1.3v-1.1l1.9-0.6H267.1z"/>
<path class="st1" d="M285.9,299.1c0-0.5,0.1-0.8,0.3-1c0.2-0.2,0.6-0.3,1.3-0.3h1.3c0.6,0,1.1,0.1,1.3,0.3c0.2,0.2,0.3,0.5,0.3,1
	v5.2c0,0.4-0.1,0.8-0.3,1c-0.2,0.2-0.6,0.3-1.3,0.3h-1.3c-0.6,0-1.1-0.1-1.3-0.3c-0.2-0.2-0.3-0.6-0.3-1V299.1z M287.7,303.9
	c0,0.1,0.1,0.2,0.2,0.2h0.6c0.1,0,0.2-0.1,0.2-0.2v-4.4c0-0.1-0.1-0.2-0.2-0.2h-0.6c-0.1,0-0.2,0.1-0.2,0.2V303.9z"/>
<path class="st1" d="M345.8,297.8v6.4h1.4v1.5h-4.6v-1.5h1.4v-4.6h-1.4v-1.2l2-0.6H345.8z"/>
<path class="st1" d="M53.7,307.9v5.5h1.2v1.3h-4v-1.3h1.2v-4h-1.2v-1l1.7-0.5H53.7z"/>
<path class="st1" d="M67.4,307.6v6h1.3v1.4h-4.3v-1.4h1.3v-4.3h-1.3v-1.1l1.8-0.6H67.4z"/>
<path class="st1" d="M114.8,308.7c0-0.5,0.1-0.8,0.3-1c0.2-0.2,0.6-0.3,1.3-0.3h1.3c0.6,0,1.1,0.1,1.3,0.3c0.2,0.2,0.3,0.6,0.3,1
	v5.2c0,0.5-0.1,0.8-0.3,1c-0.2,0.2-0.6,0.3-1.3,0.3h-1.3c-0.6,0-1.1-0.1-1.3-0.3c-0.2-0.2-0.3-0.6-0.3-1V308.7z M116.6,313.5
	c0,0.1,0.1,0.2,0.2,0.2h0.6c0.1,0,0.2-0.1,0.2-0.2v-4.4c0-0.1-0.1-0.2-0.2-0.2h-0.6c-0.1,0-0.2,0.1-0.2,0.2V313.5z"/>
<path class="st1" d="M91.2,308.7c0-0.5,0.1-0.8,0.3-1c0.2-0.2,0.6-0.3,1.3-0.3h1.3c0.6,0,1.1,0.1,1.3,0.3c0.2,0.2,0.3,0.5,0.3,1v5.1
	c0,0.4-0.1,0.8-0.3,1c-0.2,0.2-0.6,0.3-1.3,0.3h-1.3c-0.6,0-1-0.1-1.3-0.3c-0.2-0.2-0.3-0.6-0.3-1V308.7z M92.9,313.5
	c0,0.1,0.1,0.2,0.2,0.2h0.6c0.1,0,0.2-0.1,0.2-0.2v-4.4c0-0.1-0.1-0.2-0.2-0.2h-0.6c-0.1,0-0.2,0.1-0.2,0.2V313.5z"/>
<path class="st1" d="M102.9,308.3v4.8h1.1v1.1h-3.4v-1.1h1v-3.4h-1v-0.9l1.5-0.5H102.9z"/>
<path class="st1" d="M163.6,307.9v5.5h1.2v1.3h-3.9v-1.3h1.2v-3.9h-1.2v-1l1.7-0.5H163.6z"/>
<path class="st1" d="M170.5,309.1c0-0.4,0.1-0.7,0.3-0.8c0.2-0.2,0.5-0.3,1.1-0.3h1.1c0.5,0,0.9,0.1,1.1,0.3
	c0.2,0.2,0.3,0.5,0.3,0.8v4.3c0,0.4-0.1,0.7-0.3,0.8c-0.2,0.2-0.5,0.3-1.1,0.3h-1.1c-0.5,0-0.9-0.1-1.1-0.3
	c-0.2-0.2-0.3-0.5-0.3-0.8V309.1z M172,313.1c0,0.1,0.1,0.2,0.2,0.2h0.5c0.1,0,0.2-0.1,0.2-0.2v-3.7c0-0.1-0.1-0.2-0.2-0.2h-0.5
	c-0.1,0-0.2,0.1-0.2,0.2V313.1z"/>
<path class="st1" d="M219.2,355.5v5.7h1.3v1.4h-4.1v-1.4h1.2v-4.1h-1.2v-1.1l1.7-0.5H219.2z"/>
<path class="st1" d="M196.5,309.1c0-0.4,0.1-0.7,0.3-0.8c0.2-0.2,0.5-0.3,1.1-0.3h1.1c0.5,0,0.9,0.1,1.1,0.3
	c0.2,0.2,0.3,0.5,0.3,0.8v4.3c0,0.4-0.1,0.7-0.3,0.8c-0.2,0.2-0.5,0.3-1.1,0.3h-1.1c-0.5,0-0.9-0.1-1.1-0.3
	c-0.2-0.2-0.3-0.5-0.3-0.8V309.1z M198,313.2c0,0.1,0.1,0.2,0.2,0.2h0.5c0.1,0,0.2-0.1,0.2-0.2v-3.7c0-0.1-0.1-0.2-0.2-0.2h-0.5
	c-0.1,0-0.2,0.1-0.2,0.2V313.2z"/>
<path class="st1" d="M195.8,307.3v6.4h1.4v1.5h-4.6v-1.5h1.4v-4.6h-1.4v-1.2l2-0.6H195.8z"/>
<path class="st1" d="M188.9,308.1v5.1h1.1v1.2h-3.6v-1.2h1.1v-3.7h-1.1v-0.9l1.6-0.5H188.9z"/>
<path class="st1" d="M235.1,308.7c0-0.5,0.1-0.8,0.3-1c0.2-0.2,0.6-0.3,1.3-0.3h1.3c0.6,0,1.1,0.1,1.3,0.3c0.2,0.2,0.3,0.6,0.3,1
	v5.2c0,0.5-0.1,0.8-0.3,1c-0.2,0.2-0.6,0.3-1.3,0.3h-1.3c-0.6,0-1.1-0.1-1.3-0.3c-0.2-0.2-0.3-0.6-0.3-1V308.7z M236.8,313.5
	c0,0.1,0.1,0.2,0.2,0.2h0.6c0.1,0,0.2-0.1,0.2-0.2v-4.4c0-0.1-0.1-0.2-0.2-0.2H237c-0.1,0-0.2,0.1-0.2,0.2V313.5z"/>
<path class="st1" d="M227.7,307.6v5.9h1.3v1.4h-4.2v-1.4h1.3v-4.3h-1.3v-1.1l1.8-0.6H227.7z"/>
<path class="st1" d="M242.4,308.4v4.7h1v1.1h-3.3v-1.1h1v-3.4h-1v-0.9l1.4-0.4H242.4z"/>
<path class="st1" d="M275.6,307.3v6.5h1.4v1.5h-4.6v-1.5h1.4v-4.7h-1.4v-1.2l2-0.6H275.6z"/>
<path class="st1" d="M274.9,309.4c0-0.3,0.1-0.6,0.2-0.7c0.2-0.2,0.5-0.2,0.9-0.2h1c0.5,0,0.8,0.1,0.9,0.2c0.2,0.2,0.2,0.4,0.2,0.7
	v3.7c0,0.3-0.1,0.6-0.2,0.7c-0.2,0.2-0.5,0.2-0.9,0.2h-1c-0.5,0-0.8-0.1-0.9-0.2c-0.2-0.2-0.2-0.4-0.2-0.7V309.4z M276.2,312.9
	c0,0.1,0,0.1,0.1,0.1h0.4c0.1,0,0.1,0,0.1-0.1v-3.2c0-0.1,0-0.1-0.1-0.1h-0.4c-0.1,0-0.1,0-0.1,0.1V312.9z"/>
<path class="st1" d="M304,307.8v5.7h1.3v1.4h-4.1v-1.4h1.2v-4.1h-1.2v-1.1l1.7-0.5H304z"/>
<path class="st1" d="M290.5,309c0-0.4,0.1-0.7,0.3-0.9c0.2-0.2,0.6-0.3,1.1-0.3h1.2c0.6,0,1,0.1,1.1,0.3c0.2,0.2,0.3,0.5,0.3,0.9
	v4.6c0,0.4-0.1,0.7-0.3,0.9c-0.2,0.2-0.6,0.3-1.1,0.3h-1.2c-0.6,0-0.9-0.1-1.1-0.3c-0.2-0.2-0.3-0.5-0.3-0.9V309z M292,313.3
	c0,0.1,0.1,0.2,0.2,0.2h0.6c0.1,0,0.2-0.1,0.2-0.2v-4c0-0.1-0.1-0.2-0.2-0.2h-0.6c-0.1,0-0.2,0.1-0.2,0.2V313.3z"/>
<path class="st1" d="M311.8,307.9v5.4h1.2v1.3h-3.9v-1.3h1.2v-3.9h-1.2v-1l1.6-0.5H311.8z"/>
<path class="st1" d="M328,309.2c0-0.4,0.1-0.7,0.3-0.8c0.2-0.2,0.5-0.3,1-0.3h1.1c0.5,0,0.9,0.1,1.1,0.3c0.2,0.2,0.3,0.5,0.3,0.8
	v4.3c0,0.4-0.1,0.7-0.3,0.8c-0.2,0.2-0.5,0.3-1.1,0.3h-1.1c-0.5,0-0.9-0.1-1-0.3c-0.2-0.2-0.3-0.5-0.3-0.8V309.2z M329.5,313.1
	c0,0.1,0.1,0.2,0.2,0.2h0.5c0.1,0,0.2-0.1,0.2-0.2v-3.7c0-0.1-0.1-0.2-0.2-0.2h-0.5c-0.1,0-0.2,0.1-0.2,0.2V313.1z"/>
<path class="st1" d="M331.3,308.5v4.6h1v1.1H329V313h1v-3.3h-1v-0.8l1.4-0.4H331.3z"/>
<path class="st1" d="M361.9,308.3v4.9h1.1v1.2h-3.5v-1.2h1.1v-3.5h-1.1v-0.9l1.5-0.5H361.9z"/>
<path class="st1" d="M367.6,308.9c0-0.4,0.1-0.7,0.3-0.9c0.2-0.2,0.6-0.3,1.2-0.3h1.2c0.6,0,1,0.1,1.2,0.3c0.2,0.2,0.3,0.5,0.3,0.9
	v4.8c0,0.4-0.1,0.7-0.3,0.9c-0.2,0.2-0.6,0.3-1.2,0.3H369c-0.6,0-1-0.1-1.2-0.3c-0.2-0.2-0.3-0.5-0.3-0.9V308.9z M369.2,313.3
	c0,0.1,0.1,0.2,0.2,0.2h0.6c0.1,0,0.2-0.1,0.2-0.2v-4.1c0-0.1-0.1-0.2-0.2-0.2h-0.6c-0.1,0-0.2,0.1-0.2,0.2V313.3z"/>
<path class="st1" d="M102.5,317.8v5h1.1v1.2H100v-1.2h1.1v-3.6H100v-0.9l1.5-0.5H102.5z"/>
<path class="st1" d="M79.1,318.5c0-0.4,0.1-0.7,0.3-0.9c0.2-0.2,0.6-0.3,1.2-0.3h1.2c0.6,0,1,0.1,1.2,0.3c0.2,0.2,0.3,0.5,0.3,0.9
	v4.8c0,0.4-0.1,0.7-0.3,0.9c-0.2,0.2-0.6,0.3-1.2,0.3h-1.2c-0.6,0-1-0.1-1.2-0.3c-0.2-0.2-0.3-0.5-0.3-0.9V318.5z M80.8,322.9
	c0,0.1,0.1,0.2,0.2,0.2h0.6c0.1,0,0.2-0.1,0.2-0.2v-4.1c0-0.1-0.1-0.2-0.2-0.2h-0.6c-0.1,0-0.2,0.1-0.2,0.2V322.9z"/>
<path class="st1" d="M88.7,318.6c0-0.4,0.1-0.7,0.3-0.9c0.2-0.2,0.6-0.3,1.1-0.3h1.2c0.6,0,0.9,0.1,1.1,0.3c0.2,0.2,0.3,0.5,0.3,0.9
	v4.6c0,0.4-0.1,0.7-0.3,0.9c-0.2,0.2-0.6,0.3-1.1,0.3h-1.2c-0.6,0-0.9-0.1-1.1-0.3c-0.2-0.2-0.3-0.5-0.3-0.9V318.6z M90.3,322.8
	c0,0.1,0.1,0.2,0.2,0.2H91c0.1,0,0.2-0.1,0.2-0.2v-3.9c0-0.1-0.1-0.2-0.2-0.2h-0.5c-0.1,0-0.2,0.1-0.2,0.2V322.8z"/>
<path class="st1" d="M86.8,319c0-0.3,0.1-0.6,0.2-0.7c0.2-0.2,0.5-0.2,0.9-0.2h1c0.5,0,0.8,0.1,0.9,0.2c0.2,0.2,0.2,0.4,0.2,0.7v3.8
	c0,0.3-0.1,0.6-0.2,0.7c-0.2,0.2-0.5,0.2-0.9,0.2h-1c-0.5,0-0.8-0.1-0.9-0.2c-0.2-0.2-0.2-0.4-0.2-0.7V319z M88.1,322.5
	c0,0.1,0,0.1,0.1,0.1h0.5c0.1,0,0.1,0,0.1-0.1v-3.2c0-0.1,0-0.1-0.1-0.1h-0.5c-0.1,0-0.1,0-0.1,0.1V322.5z"/>
<path class="st1" d="M129.8,318.6c0-0.4,0.1-0.7,0.3-0.9c0.2-0.2,0.5-0.3,1.1-0.3h1.1c0.6,0,0.9,0.1,1.1,0.3
	c0.2,0.2,0.3,0.5,0.3,0.9v4.5c0,0.4-0.1,0.7-0.3,0.9c-0.2,0.2-0.5,0.3-1.1,0.3h-1.1c-0.5,0-0.9-0.1-1.1-0.3
	c-0.2-0.2-0.3-0.5-0.3-0.9V318.6z M131.3,322.8c0,0.1,0.1,0.2,0.2,0.2h0.5c0.1,0,0.2-0.1,0.2-0.2V319c0-0.1-0.1-0.2-0.2-0.2h-0.5
	c-0.1,0-0.2,0.1-0.2,0.2V322.8z"/>
<path class="st1" d="M129.2,317.1v6.1h1.3v1.5h-4.4v-1.5h1.3v-4.4h-1.3v-1.1l1.9-0.6H129.2z"/>
<path class="st1" d="M116.8,318.9c0-0.4,0.1-0.6,0.3-0.8c0.2-0.2,0.5-0.3,1-0.3h1c0.5,0,0.8,0.1,1,0.3c0.2,0.2,0.3,0.4,0.3,0.8v4
	c0,0.3-0.1,0.6-0.3,0.8c-0.2,0.2-0.5,0.3-1,0.3h-1c-0.5,0-0.8-0.1-1-0.3c-0.2-0.2-0.3-0.4-0.3-0.8V318.9z M118.1,322.6
	c0,0.1,0.1,0.2,0.2,0.2h0.5c0.1,0,0.2-0.1,0.2-0.2v-3.4c0-0.1-0.1-0.2-0.2-0.2h-0.5c-0.1,0-0.2,0.1-0.2,0.2V322.6z"/>
<path class="st1" d="M143.1,318.2c0-0.5,0.1-0.8,0.3-1c0.2-0.2,0.6-0.3,1.3-0.3h1.3c0.6,0,1.1,0.1,1.3,0.3c0.2,0.2,0.3,0.6,0.3,1
	v5.3c0,0.5-0.1,0.8-0.3,1c-0.2,0.2-0.6,0.3-1.3,0.3h-1.3c-0.6,0-1.1-0.1-1.3-0.3c-0.2-0.2-0.3-0.6-0.3-1V318.2z M144.9,323.1
	c0,0.1,0.1,0.2,0.2,0.2h0.6c0.1,0,0.2-0.1,0.2-0.2v-4.5c0-0.1-0.1-0.2-0.2-0.2h-0.6c-0.1,0-0.2,0.1-0.2,0.2V323.1z"/>
<path class="st1" d="M154.2,317.8v5h1.1v1.2h-3.5v-1.2h1.1v-3.6h-1.1v-0.9l1.5-0.5H154.2z"/>
<path class="st1" d="M148,318.4c0-0.4,0.1-0.8,0.3-1c0.2-0.2,0.6-0.3,1.2-0.3h1.3c0.6,0,1,0.1,1.2,0.3c0.2,0.2,0.3,0.5,0.3,1v4.9
	c0,0.4-0.1,0.8-0.3,1c-0.2,0.2-0.6,0.3-1.2,0.3h-1.3c-0.6,0-1-0.1-1.2-0.3c-0.2-0.2-0.3-0.5-0.3-1V318.4z M149.6,323
	c0,0.1,0.1,0.2,0.2,0.2h0.6c0.1,0,0.2-0.1,0.2-0.2v-4.2c0-0.1-0.1-0.2-0.2-0.2h-0.6c-0.1,0-0.2,0.1-0.2,0.2V323z"/>
<path class="st1" d="M174.7,318.9c0-0.4,0.1-0.6,0.3-0.8c0.2-0.2,0.5-0.3,1-0.3h1c0.5,0,0.8,0.1,1,0.3c0.2,0.2,0.3,0.4,0.3,0.8v4
	c0,0.3-0.1,0.6-0.3,0.8c-0.2,0.2-0.5,0.3-1,0.3h-1c-0.5,0-0.8-0.1-1-0.3c-0.2-0.2-0.3-0.4-0.3-0.8V318.9z M176,322.6
	c0,0.1,0.1,0.2,0.2,0.2h0.5c0.1,0,0.2-0.1,0.2-0.2v-3.4c0-0.1-0.1-0.2-0.2-0.2h-0.5c-0.1,0-0.2,0.1-0.2,0.2V322.6z"/>
<path class="st1" d="M190.5,318.9c0-0.3,0.1-0.6,0.2-0.8c0.2-0.2,0.5-0.2,0.9-0.2h1c0.5,0,0.8,0.1,1,0.2c0.2,0.2,0.2,0.4,0.2,0.8
	v3.9c0,0.3-0.1,0.6-0.2,0.8c-0.2,0.2-0.5,0.2-1,0.2h-1c-0.5,0-0.8-0.1-0.9-0.2c-0.2-0.2-0.2-0.4-0.2-0.8V318.9z M191.8,322.5
	c0,0.1,0,0.2,0.1,0.2h0.5c0.1,0,0.2-0.1,0.2-0.2v-3.3c0-0.1-0.1-0.2-0.2-0.2h-0.5c-0.1,0-0.1,0.1-0.1,0.2V322.5z"/>
<path class="st1" d="M184.8,337.2v5.4h1.2v1.3h-3.8v-1.3h1.2v-3.9h-1.2v-1l1.6-0.5H184.8z"/>
<path class="st1" d="M208,317.5v5.4h1.2v1.3h-3.8v-1.3h1.2V319h-1.2v-1l1.6-0.5H208z"/>
<path class="st1" d="M213,317.5v5.5h1.2v1.3h-3.9V323h1.2V319h-1.2v-1l1.7-0.5H213z"/>
<path class="st1" d="M274,333.2c0-0.5,0.1-0.8,0.3-1c0.2-0.2,0.6-0.3,1.3-0.3h1.3c0.6,0,1.1,0.1,1.3,0.3c0.2,0.2,0.3,0.5,0.3,1v5.2
	c0,0.4-0.1,0.8-0.3,1c-0.2,0.2-0.6,0.3-1.3,0.3h-1.3c-0.6,0-1.1-0.1-1.3-0.3c-0.2-0.2-0.3-0.6-0.3-1V333.2z M275.8,338
	c0,0.1,0.1,0.2,0.2,0.2h0.6c0.1,0,0.2-0.1,0.2-0.2v-4.4c0-0.1-0.1-0.2-0.2-0.2H276c-0.1,0-0.2,0.1-0.2,0.2V338z"/>
<path class="st1" d="M280,333.2c0-0.5,0.1-0.8,0.3-1c0.2-0.2,0.6-0.3,1.3-0.3h1.3c0.6,0,1.1,0.1,1.3,0.3c0.2,0.2,0.3,0.6,0.3,1v5.2
	c0,0.5-0.1,0.8-0.3,1c-0.2,0.2-0.6,0.3-1.3,0.3h-1.3c-0.6,0-1.1-0.1-1.3-0.3c-0.2-0.2-0.3-0.6-0.3-1V333.2z M281.8,338
	c0,0.1,0.1,0.2,0.2,0.2h0.6c0.1,0,0.2-0.1,0.2-0.2v-4.4c0-0.1-0.1-0.2-0.2-0.2H282c-0.1,0-0.2,0.1-0.2,0.2V338z"/>
<path class="st1" d="M267,317.2v6h1.3v1.4H264v-1.4h1.3v-4.3H264v-1.1l1.8-0.6H267z"/>
<path class="st1" d="M300,332.6v5.2h1.2v1.3h-3.7v-1.3h1.1V334h-1.1v-1l1.6-0.5H300z"/>
<path class="st1" d="M295.3,333.1c0-0.5,0.1-0.8,0.3-1.1c0.2-0.2,0.7-0.3,1.3-0.3h1.4c0.7,0,1.1,0.1,1.4,0.3
	c0.2,0.2,0.3,0.6,0.3,1.1v5.5c0,0.5-0.1,0.8-0.3,1.1c-0.2,0.2-0.7,0.3-1.4,0.3H297c-0.7,0-1.1-0.1-1.3-0.3c-0.2-0.2-0.3-0.6-0.3-1.1
	V333.1z M297.1,338.2c0,0.1,0.1,0.2,0.2,0.2h0.7c0.1,0,0.2-0.1,0.2-0.2v-4.7c0-0.1-0.1-0.2-0.2-0.2h-0.7c-0.1,0-0.2,0.1-0.2,0.2
	V338.2z"/>
<path class="st1" d="M324.4,332.3v5.7h1.2v1.4h-4.1V338h1.2v-4.1h-1.2v-1l1.7-0.5H324.4z"/>
<path class="st1" d="M349,332.9v4.8h1v1.1h-3.4v-1.1h1v-3.4h-1v-0.9l1.5-0.5H349z"/>
<path class="st1" d="M320.4,333.6c0-0.4,0.1-0.7,0.3-0.9c0.2-0.2,0.5-0.3,1.1-0.3h1.1c0.5,0,0.9,0.1,1.1,0.3
	c0.2,0.2,0.3,0.5,0.3,0.9v4.4c0,0.4-0.1,0.7-0.3,0.9c-0.2,0.2-0.5,0.3-1.1,0.3h-1.1c-0.5,0-0.9-0.1-1.1-0.3
	c-0.2-0.2-0.3-0.5-0.3-0.9V333.6z M321.9,337.7c0,0.1,0.1,0.2,0.2,0.2h0.5c0.1,0,0.2-0.1,0.2-0.2v-3.8c0-0.1-0.1-0.2-0.2-0.2h-0.5
	c-0.1,0-0.2,0.1-0.2,0.2V337.7z"/>
<path class="st1" d="M365.9,317.7v5.1h1.1v1.2h-3.7v-1.2h1.1v-3.7h-1.1v-0.9l1.6-0.5H365.9z"/>
<path class="st1" d="M91.9,326.4v6.6h1.4v1.6h-4.7v-1.6h1.4v-4.7h-1.4V327l2-0.6H91.9z"/>
<path class="st1" d="M94.5,326.4v6.4h1.4v1.5h-4.6v-1.5h1.4v-4.6h-1.4v-1.2l2-0.6H94.5z"/>
<path class="st1" d="M78.1,326.7v6h1.3v1.4h-4.3v-1.4h1.3v-4.3h-1.3v-1.1l1.8-0.6H78.1z"/>
<path class="st1" d="M98.1,326.7v6.1h1.3v1.5h-4.4v-1.5h1.3v-4.4h-1.3v-1.1l1.9-0.6H98.1z"/>
<path class="st1" d="M118.1,328.2c0-0.4,0.1-0.7,0.3-0.9c0.2-0.2,0.6-0.3,1.1-0.3h1.1c0.6,0,0.9,0.1,1.1,0.3
	c0.2,0.2,0.3,0.5,0.3,0.9v4.5c0,0.4-0.1,0.7-0.3,0.9c-0.2,0.2-0.6,0.3-1.1,0.3h-1.1c-0.5,0-0.9-0.1-1.1-0.3
	c-0.2-0.2-0.3-0.5-0.3-0.9V328.2z M119.6,332.3c0,0.1,0.1,0.2,0.2,0.2h0.5c0.1,0,0.2-0.1,0.2-0.2v-3.8c0-0.1-0.1-0.2-0.2-0.2h-0.5
	c-0.1,0-0.2,0.1-0.2,0.2V332.3z"/>
<path class="st1" d="M125,328.3c0-0.4,0.1-0.6,0.3-0.8c0.2-0.2,0.5-0.3,1-0.3h1.1c0.5,0,0.9,0.1,1,0.3c0.2,0.2,0.3,0.4,0.3,0.8v4.2
	c0,0.4-0.1,0.6-0.3,0.8c-0.2,0.2-0.5,0.3-1,0.3h-1.1c-0.5,0-0.9-0.1-1-0.3c-0.2-0.2-0.3-0.5-0.3-0.8V328.3z M126.4,332.2
	c0,0.1,0.1,0.2,0.2,0.2h0.5c0.1,0,0.2-0.1,0.2-0.2v-3.6c0-0.1-0.1-0.2-0.2-0.2h-0.5c-0.1,0-0.2,0.1-0.2,0.2V332.2z"/>
<path class="st1" d="M110.8,327.1v5.4h1.2v1.3h-3.9v-1.3h1.2v-3.9h-1.2v-1l1.6-0.5H110.8z"/>
<path class="st1" d="M114.8,326.3v6.6h1.5v1.6h-4.7V333h1.4v-4.8h-1.4V327l2-0.6H114.8z"/>
<path class="st1" d="M126.5,327v5.5h1.2v1.3h-3.9v-1.3h1.2v-4h-1.2v-1l1.7-0.5H126.5z"/>
<path class="st1" d="M179.5,328c0-0.4,0.1-0.7,0.3-0.9c0.2-0.2,0.6-0.3,1.2-0.3h1.2c0.6,0,1,0.1,1.2,0.3c0.2,0.2,0.3,0.5,0.3,0.9
	v4.9c0,0.4-0.1,0.7-0.3,0.9c-0.2,0.2-0.6,0.3-1.2,0.3H181c-0.6,0-1-0.1-1.2-0.3c-0.2-0.2-0.3-0.5-0.3-0.9V328z M181.1,332.5
	c0,0.1,0.1,0.2,0.2,0.2h0.6c0.1,0,0.2-0.1,0.2-0.2v-4.1c0-0.1-0.1-0.2-0.2-0.2h-0.6c-0.1,0-0.2,0.1-0.2,0.2V332.5z"/>
<path class="st1" d="M154.6,327.4v4.9h1.1v1.2h-3.5v-1.2h1.1v-3.6h-1.1v-0.9l1.5-0.5H154.6z"/>
<path class="st1" d="M177.8,328.5c0-0.3,0.1-0.6,0.2-0.8c0.2-0.2,0.5-0.2,0.9-0.2h1c0.5,0,0.8,0.1,1,0.2c0.2,0.2,0.2,0.4,0.2,0.8
	v3.9c0,0.3-0.1,0.6-0.2,0.8c-0.2,0.2-0.5,0.2-1,0.2h-1c-0.5,0-0.8-0.1-0.9-0.2c-0.2-0.2-0.2-0.4-0.2-0.8V328.5z M179.1,332.1
	c0,0.1,0.1,0.2,0.2,0.2h0.5c0.1,0,0.2,0,0.2-0.2v-3.3c0-0.1-0.1-0.2-0.2-0.2h-0.5c-0.1,0-0.2,0.1-0.2,0.2V332.1z"/>
<path class="st1" d="M157.9,326.9v5.7h1.3v1.4h-4.1v-1.4h1.2v-4.1h-1.2v-1l1.7-0.5H157.9z"/>
<path class="st1" d="M196.1,326.9v5.8h1.3v1.4h-4.1v-1.4h1.3v-4.2h-1.3v-1.1l1.8-0.6H196.1z"/>
<path class="st1" d="M223.4,346.8v5.8h1.3v1.4h-4.2v-1.4h1.3v-4.2h-1.3v-1.1l1.8-0.6H223.4z"/>
<path class="st1" d="M183.3,327.5v4.8h1v1.1H181v-1.1h1v-3.4h-1v-0.9l1.5-0.5H183.3z"/>
<path class="st1" d="M195.7,328.3c0-0.4,0.1-0.7,0.3-0.9c0.2-0.2,0.5-0.3,1.1-0.3h1.1c0.5,0,0.9,0.1,1.1,0.3
	c0.2,0.2,0.3,0.5,0.3,0.9v4.4c0,0.4-0.1,0.7-0.3,0.9c-0.2,0.2-0.5,0.3-1.1,0.3h-1.1c-0.5,0-0.9-0.1-1.1-0.3
	c-0.2-0.2-0.3-0.5-0.3-0.9V328.3z M197.2,332.3c0,0.1,0.1,0.2,0.2,0.2h0.5c0.1,0,0.2-0.1,0.2-0.2v-3.7c0-0.1-0.1-0.2-0.2-0.2h-0.5
	c-0.1,0-0.2,0.1-0.2,0.2V332.3z"/>
<path class="st1" d="M235.6,328.4c0-0.4,0.1-0.6,0.3-0.8c0.2-0.2,0.5-0.3,1-0.3h1c0.5,0,0.8,0.1,1,0.3c0.2,0.2,0.3,0.4,0.3,0.8v4
	c0,0.3-0.1,0.6-0.3,0.8c-0.2,0.2-0.5,0.3-1,0.3h-1c-0.5,0-0.8-0.1-1-0.3c-0.2-0.2-0.3-0.4-0.3-0.8V328.4z M236.9,332.2
	c0,0.1,0.1,0.2,0.2,0.2h0.5c0.1,0,0.2-0.1,0.2-0.2v-3.4c0-0.1-0.1-0.2-0.2-0.2h-0.5c-0.1,0-0.2,0.1-0.2,0.2V332.2z"/>
<path class="st1" d="M219.6,326.3v6.7h1.5v1.6h-4.8V333h1.5v-4.8h-1.5v-1.2l2-0.6H219.6z"/>
<path class="st1" d="M230.9,328c0-0.4,0.1-0.7,0.3-0.9c0.2-0.2,0.6-0.3,1.2-0.3h1.2c0.6,0,1,0.1,1.2,0.3c0.2,0.2,0.3,0.5,0.3,0.9
	v4.8c0,0.4-0.1,0.7-0.3,0.9c-0.2,0.2-0.6,0.3-1.2,0.3h-1.2c-0.6,0-1-0.1-1.2-0.3c-0.2-0.2-0.3-0.5-0.3-0.9V328z M232.5,332.5
	c0,0.1,0.1,0.2,0.2,0.2h0.6c0.1,0,0.2-0.1,0.2-0.2v-4.1c0-0.1-0.1-0.2-0.2-0.2h-0.6c-0.1,0-0.2,0.1-0.2,0.2V332.5z"/>
<path class="st1" d="M234.2,328.2c0-0.4,0.1-0.7,0.3-0.9c0.2-0.2,0.5-0.3,1.1-0.3h1.1c0.5,0,0.9,0.1,1.1,0.3
	c0.2,0.2,0.3,0.5,0.3,0.9v4.4c0,0.4-0.1,0.7-0.3,0.9c-0.2,0.2-0.5,0.3-1.1,0.3h-1.1c-0.5,0-0.9-0.1-1.1-0.3
	c-0.2-0.2-0.3-0.5-0.3-0.9V328.2z M235.7,332.3c0,0.1,0.1,0.2,0.2,0.2h0.5c0.1,0,0.2-0.1,0.2-0.2v-3.8c0-0.1-0.1-0.2-0.2-0.2h-0.5
	c-0.1,0-0.2,0.1-0.2,0.2V332.3z"/>
<path class="st1" d="M269.2,343.5c0-0.3,0.1-0.6,0.2-0.7c0.2-0.2,0.5-0.2,0.9-0.2h1c0.5,0,0.8,0.1,0.9,0.2c0.2,0.2,0.2,0.4,0.2,0.7
	v3.8c0,0.3-0.1,0.6-0.2,0.7c-0.2,0.2-0.5,0.2-0.9,0.2h-1c-0.5,0-0.8-0.1-0.9-0.2c-0.2-0.2-0.2-0.4-0.2-0.7V343.5z M270.5,347
	c0,0.1,0,0.1,0.1,0.1h0.5c0.1,0,0.2,0,0.2-0.1v-3.3c0-0.1-0.1-0.1-0.2-0.1h-0.5c-0.1,0-0.1,0.1-0.1,0.1V347z"/>
<path class="st1" d="M282.4,343c0-0.4,0.1-0.7,0.3-0.9c0.2-0.2,0.6-0.3,1.2-0.3h1.2c0.6,0,1,0.1,1.2,0.3c0.2,0.2,0.3,0.5,0.3,0.9
	v4.8c0,0.4-0.1,0.7-0.3,0.9c-0.2,0.2-0.6,0.3-1.2,0.3h-1.2c-0.6,0-1-0.1-1.2-0.3c-0.2-0.2-0.3-0.5-0.3-0.9V343z M284,347.4
	c0,0.1,0.1,0.2,0.2,0.2h0.6c0.1,0,0.2-0.1,0.2-0.2v-4.1c0-0.1-0.1-0.2-0.2-0.2h-0.6c-0.1,0-0.2,0.1-0.2,0.2V347.4z"/>
<path class="st1" d="M258.2,326.7v6.1h1.3v1.5h-4.3v-1.5h1.3v-4.4h-1.3v-1.1l1.8-0.6H258.2z"/>
<path class="st1" d="M302,343c0-0.4,0.1-0.7,0.3-0.9c0.2-0.2,0.6-0.3,1.2-0.3h1.2c0.6,0,1,0.1,1.2,0.3c0.2,0.2,0.3,0.5,0.3,0.9v4.7
	c0,0.4-0.1,0.7-0.3,0.9c-0.2,0.2-0.6,0.3-1.2,0.3h-1.2c-0.6,0-1-0.1-1.2-0.3c-0.2-0.2-0.3-0.5-0.3-0.9V343z M303.6,347.4
	c0,0.1,0.1,0.2,0.2,0.2h0.6c0.1,0,0.2-0.1,0.2-0.2v-4c0-0.1-0.1-0.2-0.2-0.2h-0.6c-0.1,0-0.2,0.1-0.2,0.2V347.4z"/>
<path class="st1" d="M318.5,341.6v6.2h1.4v1.5h-4.4v-1.5h1.3v-4.5h-1.3v-1.1l1.9-0.6H318.5z"/>
<path class="st1" d="M332.7,343.4c0-0.4,0.1-0.6,0.3-0.8c0.2-0.2,0.5-0.3,1-0.3h1c0.5,0,0.8,0.1,1,0.3c0.2,0.2,0.3,0.4,0.3,0.8v4
	c0,0.3-0.1,0.6-0.3,0.8c-0.2,0.2-0.5,0.3-1,0.3h-1c-0.5,0-0.8-0.1-1-0.3c-0.2-0.2-0.3-0.4-0.3-0.8V343.4z M334,347.1
	c0,0.1,0.1,0.2,0.2,0.2h0.5c0.1,0,0.2-0.1,0.2-0.2v-3.4c0-0.1-0.1-0.2-0.2-0.2h-0.5c-0.1,0-0.2,0.1-0.2,0.2V347.1z"/>
<path class="st1" d="M336.5,343.3c0-0.4,0.1-0.6,0.3-0.8c0.2-0.2,0.5-0.3,1-0.3h1c0.5,0,0.8,0.1,1,0.3c0.2,0.2,0.3,0.4,0.3,0.8v4.1
	c0,0.4-0.1,0.6-0.3,0.8c-0.2,0.2-0.5,0.3-1,0.3h-1c-0.5,0-0.8-0.1-1-0.3c-0.2-0.2-0.3-0.4-0.3-0.8V343.3z M337.9,347.1
	c0,0.1,0.1,0.2,0.2,0.2h0.5c0.1,0,0.2-0.1,0.2-0.2v-3.5c0-0.1-0.1-0.2-0.2-0.2h-0.5c-0.1,0-0.2,0.1-0.2,0.2V347.1z"/>
<path class="st1" d="M337.6,342.4v4.8h1v1.1h-3.4v-1.1h1v-3.4h-1v-0.9l1.4-0.5H337.6z"/>
<path class="st0" d="M300.8,217.4v4.5h1v1.1h-3.2v-1.1h1v-3.2h-1v-0.8l1.4-0.4H300.8z"/>
<path class="st0" d="M308.8,217.5v4.5h1v1.1h-3.2V222h1v-3.2h-1v-0.8l1.4-0.4H308.8z"/>
<path class="st0" d="M316.7,217.6v4.5h1v1.1h-3.2v-1.1h1v-3.2h-1V218l1.4-0.4H316.7z"/>
<path class="st0" d="M324.7,217.7v4.5h1v1.1h-3.2v-1.1h1v-3.2h-1v-0.8l1.4-0.4H324.7z"/>
<path class="st0" d="M332.7,217.8v4.5h1v1.1h-3.2v-1.1h1V219h-1v-0.8l1.4-0.4H332.7z"/>
<path class="st0" d="M298.5,228.4c0-0.3,0.1-0.6,0.2-0.7c0.2-0.2,0.5-0.2,0.9-0.2h0.9c0.5,0,0.8,0.1,0.9,0.2
	c0.2,0.2,0.2,0.4,0.2,0.7v3.7c0,0.3-0.1,0.6-0.2,0.7c-0.2,0.2-0.5,0.2-0.9,0.2h-0.9c-0.4,0-0.8-0.1-0.9-0.2
	c-0.2-0.2-0.2-0.4-0.2-0.7V228.4z M299.8,231.8c0,0.1,0,0.1,0.1,0.1h0.4c0.1,0,0.1,0,0.1-0.1v-3.1c0-0.1,0-0.1-0.1-0.1h-0.4
	c-0.1,0-0.1,0-0.1,0.1V231.8z"/>
<path class="st0" d="M308.7,227.5v4.5h1v1.1h-3.2V232h1v-3.2h-1v-0.8l1.4-0.4H308.7z"/>
<path class="st0" d="M316.7,227.5v4.5h1v1.1h-3.2V232h1v-3.2h-1v-0.8l1.4-0.4H316.7z"/>
<path class="st0" d="M324.7,227.5v4.5h1v1.1h-3.2V232h1v-3.2h-1v-0.8l1.4-0.4H324.7z"/>
<path class="st0" d="M332.7,227.5v4.5h1v1.1h-3.2V232h1v-3.2h-1V228l1.4-0.4H332.7z"/>
<path class="st0" d="M300.8,237.1v4.5h1v1.1h-3.2v-1.1h1v-3.2h-1v-0.8l1.4-0.4H300.8z"/>
<path class="st0" d="M306.5,238.1c0-0.3,0.1-0.6,0.2-0.7c0.2-0.2,0.5-0.2,0.9-0.2h0.9c0.5,0,0.8,0.1,0.9,0.2
	c0.2,0.2,0.2,0.4,0.2,0.7v3.7c0,0.3-0.1,0.6-0.2,0.7c-0.2,0.2-0.5,0.2-0.9,0.2h-0.9c-0.4,0-0.7-0.1-0.9-0.2
	c-0.2-0.2-0.2-0.4-0.2-0.7V238.1z M307.7,241.5c0,0.1,0,0.1,0.1,0.1h0.4c0.1,0,0.1,0,0.1-0.1v-3.1c0-0.1,0-0.1-0.1-0.1h-0.4
	c-0.1,0-0.1,0-0.1,0.1V241.5z"/>
<path class="st0" d="M314.5,238.1c0-0.3,0.1-0.6,0.2-0.7c0.2-0.2,0.5-0.2,0.9-0.2h0.9c0.5,0,0.8,0.1,0.9,0.2
	c0.2,0.2,0.2,0.4,0.2,0.7v3.7c0,0.3-0.1,0.6-0.2,0.7c-0.2,0.2-0.5,0.2-0.9,0.2h-0.9c-0.4,0-0.8-0.1-0.9-0.2
	c-0.2-0.2-0.2-0.4-0.2-0.7V238.1z M315.7,241.5c0,0.1,0,0.1,0.1,0.1h0.4c0.1,0,0.1,0,0.1-0.1v-3.1c0-0.1,0-0.1-0.1-0.1h-0.4
	c-0.1,0-0.1,0-0.1,0.1V241.5z"/>
<path class="st0" d="M324.7,237.1v4.5h1v1.1h-3.2v-1.1h1v-3.2h-1v-0.8l1.4-0.4H324.7z"/>
<path class="st0" d="M332.7,237.1v4.5h1v1.1h-3.2v-1.1h1v-3.2h-1v-0.8l1.4-0.4H332.7z"/>
<path class="st1" d="M339.6,207v5.2h1.1v1.2h-3.7v-1.2h1.1v-3.8h-1.1v-1l1.6-0.5H339.6z"/>
<path class="st1" d="M296.2,216.2v6.4h1.4v1.5h-4.6v-1.5h1.4V218h-1.4v-1.2l2-0.6H296.2z"/>
<path class="st1" d="M299.2,216.2v6.4h1.4v1.5h-4.6v-1.5h1.4V218h-1.4v-1.2l2-0.6H299.2z"/>
<path class="st1" d="M312.9,216.7v5.8h1.3v1.4H310v-1.4h1.3v-4.2H310v-1.1l1.8-0.6H312.9z"/>
<path class="st1" d="M325.1,216.9v5.6h1.2v1.3h-4v-1.3h1.2v-4h-1.2v-1l1.7-0.5H325.1z"/>
<path class="st1" d="M343,216.8v6h1.3v1.4h-4.3v-1.4h1.3v-4.3h-1.3v-1.1l1.8-0.6H343z"/>
<path class="st1" d="M341.3,216.9v5.9h1.3v1.4h-4.2v-1.4h1.3v-4.2h-1.3v-1.1l1.8-0.6H341.3z"/>
<path class="st1" d="M340.5,217.9v4.5h1v1.1h-3.2v-1.1h1v-3.3h-1v-0.8l1.4-0.4H340.5z"/>
<path class="st1" d="M344.5,217v6h1.3v1.4h-4.3V223h1.3v-4.4h-1.3v-1.1l1.8-0.6H344.5z"/>
<path class="st1" d="M305.9,228.3c0-0.3,0.1-0.6,0.2-0.7c0.2-0.2,0.5-0.2,0.9-0.2h1c0.5,0,0.8,0.1,0.9,0.2c0.2,0.2,0.2,0.4,0.2,0.7
	v3.8c0,0.3-0.1,0.6-0.2,0.7c-0.2,0.2-0.5,0.2-0.9,0.2h-1c-0.5,0-0.8-0.1-0.9-0.2c-0.2-0.2-0.2-0.4-0.2-0.7V228.3z M307.2,231.8
	c0,0.1,0,0.1,0.1,0.1h0.5c0.1,0,0.1,0,0.1-0.1v-3.2c0-0.1,0-0.1-0.1-0.1h-0.5c-0.1,0-0.1,0.1-0.1,0.1V231.8z"/>
<path class="st1" d="M314.7,227.5c0-0.5,0.1-0.8,0.3-1.1c0.2-0.2,0.7-0.3,1.3-0.3h1.4c0.7,0,1.1,0.1,1.4,0.3
	c0.2,0.2,0.3,0.6,0.3,1.1v5.5c0,0.5-0.1,0.8-0.3,1.1c-0.2,0.2-0.7,0.3-1.4,0.3h-1.4c-0.7,0-1.1-0.1-1.3-0.3
	c-0.2-0.2-0.3-0.6-0.3-1.1V227.5z M316.5,232.6c0,0.1,0.1,0.2,0.2,0.2h0.7c0.1,0,0.2-0.1,0.2-0.2v-4.7c0-0.1-0.1-0.2-0.2-0.2h-0.7
	c-0.1,0-0.2,0.1-0.2,0.2V232.6z"/>
<path class="st1" d="M306.2,226.8v5.6h1.2v1.3h-4v-1.3h1.2v-4h-1.2v-1l1.7-0.5H306.2z"/>
<path class="st1" d="M304.5,226.8v5.6h1.2v1.3h-4v-1.3h1.2v-4h-1.2v-1l1.7-0.5H304.5z"/>
<path class="st1" d="M335.5,227.1v5.2h1.1v1.3h-3.7v-1.3h1.1v-3.8h-1.1v-1l1.6-0.5H335.5z"/>
<path class="st1" d="M270.1,205.6v5.4h1.2v1.3h-3.8V211h1.2v-3.9h-1.2v-1l1.6-0.5H270.1z"/>
<path class="st1" d="M341.6,226.9v5.5h1.2v1.3h-4v-1.3h1.2v-4h-1.2v-1l1.7-0.5H341.6z"/>
<path class="st1" d="M297.6,237.3c0-0.5,0.1-0.8,0.3-1c0.2-0.2,0.6-0.3,1.3-0.3h1.3c0.6,0,1.1,0.1,1.3,0.3c0.2,0.2,0.3,0.6,0.3,1
	v5.2c0,0.5-0.1,0.8-0.3,1c-0.2,0.2-0.6,0.3-1.3,0.3h-1.3c-0.6,0-1.1-0.1-1.3-0.3c-0.2-0.2-0.3-0.6-0.3-1V237.3z M299.3,242.1
	c0,0.1,0.1,0.2,0.2,0.2h0.6c0.1,0,0.2-0.1,0.2-0.2v-4.4c0-0.1-0.1-0.2-0.2-0.2h-0.6c-0.1,0-0.2,0.1-0.2,0.2V242.1z"/>
<path class="st1" d="M323.4,236.1v6.2h1.4v1.5h-4.4v-1.5h1.3v-4.4h-1.3v-1.1l1.9-0.6H323.4z"/>
<path class="st1" d="M325.4,238c0-0.3,0.1-0.6,0.2-0.8c0.2-0.2,0.5-0.2,0.9-0.2h1c0.5,0,0.8,0.1,1,0.2c0.2,0.2,0.2,0.4,0.2,0.8v3.9
	c0,0.3-0.1,0.6-0.2,0.8c-0.2,0.2-0.5,0.2-1,0.2h-1c-0.5,0-0.8-0.1-0.9-0.2c-0.2-0.2-0.2-0.4-0.2-0.8V238z M326.7,241.5
	c0,0.1,0.1,0.2,0.1,0.2h0.5c0.1,0,0.2-0.1,0.2-0.2v-3.3c0-0.1,0-0.2-0.2-0.2h-0.5c-0.1,0-0.1,0.1-0.1,0.2V241.5z"/>
<path class="st1" d="M343.6,236.7v5.1h1.1v1.2h-3.6v-1.2h1.1v-3.7h-1.1v-0.9l1.5-0.5H343.6z"/>
<path class="st1" d="M323.3,236.1v6.2h1.4v1.5h-4.4v-1.5h1.3v-4.5h-1.3v-1.1l1.9-0.6H323.3z"/>
<path class="st1" d="M340.6,237.3c0-0.5,0.1-0.8,0.3-1c0.2-0.2,0.6-0.3,1.3-0.3h1.3c0.6,0,1.1,0.1,1.3,0.3c0.2,0.2,0.3,0.5,0.3,1
	v5.2c0,0.4-0.1,0.8-0.3,1c-0.2,0.2-0.6,0.3-1.3,0.3h-1.3c-0.6,0-1.1-0.1-1.3-0.3c-0.2-0.2-0.3-0.6-0.3-1V237.3z M342.3,242.1
	c0,0.1,0.1,0.2,0.2,0.2h0.6c0.1,0,0.2-0.1,0.2-0.2v-4.4c0-0.1-0.1-0.2-0.2-0.2h-0.6c-0.1,0-0.2,0.1-0.2,0.2V242.1z"/>
<path class="st0" d="M197.1,246.8v4.5h1v1.1h-3.2v-1.1h1v-3.2h-1v-0.8l1.4-0.4H197.1z"/>
<path class="st0" d="M205.1,246.9v4.5h1v1.1h-3.2v-1.1h1v-3.2h-1v-0.8l1.4-0.4H205.1z"/>
<path class="st0" d="M221,247.1v4.5h1v1.1h-3.2v-1.1h1v-3.2h-1v-0.8l1.4-0.4H221z"/>
<path class="st0" d="M229,247.2v4.5h1v1.1h-3.2v-1.1h1v-3.2h-1v-0.8l1.4-0.4H229z"/>
<path class="st0" d="M194.9,257.8c0-0.3,0.1-0.6,0.2-0.7c0.2-0.2,0.5-0.2,0.9-0.2h0.9c0.5,0,0.8,0.1,0.9,0.2
	c0.2,0.2,0.2,0.4,0.2,0.7v3.7c0,0.3-0.1,0.6-0.2,0.7c-0.2,0.2-0.5,0.2-0.9,0.2H196c-0.4,0-0.8-0.1-0.9-0.2c-0.2-0.2-0.2-0.4-0.2-0.7
	V257.8z M196.1,261.2c0,0.1,0,0.1,0.1,0.1h0.4c0.1,0,0.1,0,0.1-0.1v-3.1c0-0.1,0-0.1-0.1-0.1h-0.4c-0.1,0-0.1,0-0.1,0.1V261.2z"/>
<path class="st0" d="M205.1,256.9v4.5h1v1.1h-3.2v-1.1h1v-3.2h-1v-0.8l1.4-0.4H205.1z"/>
<path class="st0" d="M213.1,256.9v4.5h1v1.1h-3.2v-1.1h1v-3.2h-1v-0.8l1.4-0.4H213.1z"/>
<path class="st0" d="M221,256.9v4.5h1v1.1h-3.2v-1.1h1v-3.2h-1v-0.8l1.4-0.4H221z"/>
<path class="st0" d="M229,257v4.5h1v1.1h-3.2v-1.1h1v-3.2h-1v-0.8l1.4-0.4H229z"/>
<path class="st0" d="M197.1,266.5v4.5h1v1.1h-3.2V271h1v-3.2h-1V267l1.4-0.4H197.1z"/>
<path class="st0" d="M202.8,267.5c0-0.3,0.1-0.6,0.2-0.7c0.2-0.2,0.5-0.2,0.9-0.2h0.9c0.5,0,0.8,0.1,0.9,0.2
	c0.2,0.2,0.2,0.4,0.2,0.7v3.7c0,0.3-0.1,0.6-0.2,0.7c-0.2,0.2-0.5,0.2-0.9,0.2H204c-0.4,0-0.7-0.1-0.9-0.2c-0.2-0.2-0.2-0.4-0.2-0.7
	V267.5z M204.1,270.9c0,0.1,0,0.1,0.1,0.1h0.4c0.1,0,0.1,0,0.1-0.1v-3.1c0-0.1,0-0.1-0.1-0.1h-0.4c-0.1,0-0.1,0-0.1,0.1V270.9z"/>
<path class="st0" d="M210.8,267.5c0-0.3,0.1-0.6,0.2-0.7c0.2-0.2,0.5-0.2,0.9-0.2h0.9c0.5,0,0.8,0.1,0.9,0.2
	c0.2,0.2,0.2,0.4,0.2,0.7v3.7c0,0.3-0.1,0.6-0.2,0.7c-0.2,0.2-0.5,0.2-0.9,0.2h-0.9c-0.4,0-0.8-0.1-0.9-0.2
	c-0.2-0.2-0.2-0.4-0.2-0.7V267.5z M212,270.9c0,0.1,0,0.1,0.1,0.1h0.4c0.1,0,0.1,0,0.1-0.1v-3.1c0-0.1,0-0.1-0.1-0.1h-0.4
	c-0.1,0-0.1,0-0.1,0.1V270.9z"/>
<path class="st0" d="M221,266.5v4.5h1v1.1h-3.2V271h1v-3.2h-1V267l1.4-0.4H221z"/>
<path class="st0" d="M229,266.5v4.5h1v1.1h-3.2V271h1v-3.2h-1V267l1.4-0.4H229z"/>
<path class="st1" d="M283.8,205.5v5.2h1.1v1.2h-3.7v-1.2h1.1V207h-1.1v-1l1.6-0.5H283.8z"/>
<path class="st1" d="M192.6,245.6v6.4h1.4v1.5h-4.6V252h1.4v-4.6h-1.4v-1.2l2-0.6H192.6z"/>
<path class="st1" d="M195.6,245.7v6.4h1.4v1.5h-4.6v-1.5h1.4v-4.6h-1.4v-1.2l2-0.6H195.6z"/>
<path class="st1" d="M209.2,246.1v5.8h1.3v1.4h-4.2v-1.4h1.3v-4.2h-1.3v-1.1l1.8-0.6H209.2z"/>
<path class="st1" d="M221.4,246.4v5.6h1.2v1.3h-4v-1.3h1.2v-4h-1.2v-1l1.7-0.5H221.4z"/>
<path class="st1" d="M287.2,215.2v6h1.3v1.4h-4.3v-1.4h1.3v-4.3h-1.3v-1.1l1.8-0.6H287.2z"/>
<path class="st1" d="M285.5,215.4v5.9h1.3v1.4h-4.2v-1.4h1.3V217h-1.3V216l1.8-0.6H285.5z"/>
<path class="st1" d="M284.6,216.3v4.5h1v1.1h-3.2v-1.1h1v-3.3h-1v-0.8l1.4-0.4H284.6z"/>
<path class="st1" d="M288.6,215.4v6h1.3v1.4h-4.3v-1.4h1.3v-4.4h-1.3V216l1.8-0.6H288.6z"/>
<path class="st1" d="M202.3,257.7c0-0.3,0.1-0.6,0.2-0.7c0.2-0.2,0.5-0.2,0.9-0.2h1c0.5,0,0.8,0.1,0.9,0.2c0.2,0.2,0.2,0.4,0.2,0.7
	v3.8c0,0.3-0.1,0.6-0.2,0.7c-0.2,0.2-0.5,0.2-0.9,0.2h-1c-0.5,0-0.8-0.1-0.9-0.2c-0.2-0.2-0.2-0.4-0.2-0.7V257.7z M203.6,261.3
	c0,0.1,0,0.1,0.1,0.1h0.5c0.1,0,0.1,0,0.1-0.1V258c0-0.1,0-0.1-0.1-0.1h-0.5c-0.1,0-0.1,0.1-0.1,0.1V261.3z"/>
<path class="st1" d="M204.4,257.7c0-0.4,0.1-0.6,0.3-0.8c0.2-0.2,0.5-0.3,1-0.3h1c0.5,0,0.8,0.1,1,0.3c0.2,0.2,0.3,0.4,0.3,0.8v4
	c0,0.3-0.1,0.6-0.3,0.8c-0.2,0.2-0.5,0.3-1,0.3h-1c-0.5,0-0.8-0.1-1-0.3c-0.2-0.2-0.3-0.4-0.3-0.8V257.7z M205.8,261.4
	c0,0.1,0.1,0.2,0.2,0.2h0.5c0.1,0,0.2-0.1,0.2-0.2V258c0-0.1-0.1-0.2-0.2-0.2h-0.5c-0.1,0-0.2,0.1-0.2,0.2V261.4z"/>
<path class="st1" d="M211,256.9c0-0.5,0.1-0.8,0.3-1.1c0.2-0.2,0.7-0.3,1.3-0.3h1.4c0.7,0,1.1,0.1,1.4,0.3c0.2,0.2,0.3,0.6,0.3,1.1
	v5.5c0,0.5-0.1,0.8-0.3,1.1c-0.2,0.2-0.7,0.3-1.4,0.3h-1.4c-0.7,0-1.1-0.1-1.3-0.3c-0.2-0.2-0.3-0.6-0.3-1.1V256.9z M212.9,262
	c0,0.1,0.1,0.2,0.2,0.2h0.7c0.1,0,0.2-0.1,0.2-0.2v-4.7c0-0.1-0.1-0.2-0.2-0.2h-0.7c-0.1,0-0.2,0.1-0.2,0.2V262z"/>
<path class="st1" d="M202.5,256.2v5.6h1.2v1.3h-4v-1.3h1.2v-4h-1.2v-1l1.7-0.5H202.5z"/>
<path class="st1" d="M231.9,256.5v5.2h1.1v1.3h-3.7v-1.3h1.1V258h-1.1v-1l1.6-0.5H231.9z"/>
<path class="st1" d="M223.9,256.4v5.4h1.2v1.3h-3.8v-1.3h1.2v-3.9h-1.2v-1l1.6-0.5H223.9z"/>
<path class="st1" d="M281,226.5c0-0.4,0.1-0.7,0.3-0.9c0.2-0.2,0.6-0.3,1.1-0.3h1.2c0.6,0,1,0.1,1.1,0.3c0.2,0.2,0.3,0.5,0.3,0.9
	v4.6c0,0.4-0.1,0.7-0.3,0.9c-0.2,0.2-0.6,0.3-1.1,0.3h-1.2c-0.6,0-0.9-0.1-1.1-0.3c-0.2-0.2-0.3-0.5-0.3-0.9V226.5z M282.6,230.8
	c0,0.1,0.1,0.2,0.2,0.2h0.6c0.1,0,0.2-0.1,0.2-0.2v-4c0-0.1-0.1-0.2-0.2-0.2h-0.6c-0.1,0-0.2,0.1-0.2,0.2V230.8z"/>
<path class="st1" d="M285.7,225.4v5.5h1.2v1.3h-4v-1.3h1.2v-4H283v-1l1.7-0.5H285.7z"/>
<path class="st1" d="M219.7,265.5v6.2h1.4v1.5h-4.4v-1.5h1.3v-4.4h-1.3v-1.1l1.9-0.6H219.7z"/>
<path class="st1" d="M221.7,267.4c0-0.3,0.1-0.6,0.2-0.8c0.2-0.2,0.5-0.2,0.9-0.2h1c0.5,0,0.8,0.1,1,0.2c0.2,0.2,0.2,0.4,0.2,0.8
	v3.9c0,0.3-0.1,0.6-0.2,0.8c-0.2,0.2-0.5,0.2-1,0.2h-1c-0.5,0-0.8-0.1-0.9-0.2c-0.2-0.2-0.2-0.4-0.2-0.8V267.4z M223,271
	c0,0.1,0.1,0.2,0.1,0.2h0.5c0.1,0,0.2-0.1,0.2-0.2v-3.3c0-0.1,0-0.2-0.2-0.2h-0.5c-0.1,0-0.1,0.1-0.1,0.2V271z"/>
<path class="st1" d="M287.8,235.2v5.1h1.1v1.2h-3.6v-1.2h1.1v-3.7h-1.1v-0.9l1.5-0.5H287.8z"/>
<path class="st1" d="M219.6,265.5v6.2h1.4v1.5h-4.4v-1.5h1.3v-4.5h-1.3v-1.1l1.9-0.6H219.6z"/>
<path class="st1" d="M284.7,235.8c0-0.5,0.1-0.8,0.3-1c0.2-0.2,0.6-0.3,1.3-0.3h1.3c0.6,0,1.1,0.1,1.3,0.3c0.2,0.2,0.3,0.5,0.3,1
	v5.2c0,0.4-0.1,0.8-0.3,1c-0.2,0.2-0.6,0.3-1.3,0.3h-1.3c-0.6,0-1.1-0.1-1.3-0.3c-0.2-0.2-0.3-0.6-0.3-1V235.8z M286.5,240.6
	c0,0.1,0.1,0.2,0.2,0.2h0.6c0.1,0,0.2-0.1,0.2-0.2v-4.4c0-0.1-0.1-0.2-0.2-0.2h-0.6c-0.1,0-0.2,0.1-0.2,0.2V240.6z"/>
<path class="st0" d="M150.7,219.3v4.5h1v1.1h-3.2v-1.1h1v-3.2h-1v-0.8l1.4-0.4H150.7z"/>
<path class="st0" d="M158.6,219.4v4.5h1v1.1h-3.2v-1.1h1v-3.2h-1v-0.8l1.4-0.4H158.6z"/>
<path class="st0" d="M166.6,219.5v4.5h1v1.1h-3.2V224h1v-3.2h-1v-0.8l1.4-0.4H166.6z"/>
<path class="st0" d="M174.6,219.6v4.5h1v1.1h-3.2v-1.1h1v-3.2h-1V220l1.4-0.4H174.6z"/>
<path class="st0" d="M182.5,219.7v4.5h1v1.1h-3.2v-1.1h1v-3.2h-1v-0.8l1.4-0.4H182.5z"/>
<path class="st0" d="M148.4,230.3c0-0.3,0.1-0.6,0.2-0.7c0.2-0.2,0.5-0.2,0.9-0.2h0.9c0.5,0,0.8,0.1,0.9,0.2
	c0.2,0.2,0.2,0.4,0.2,0.7v3.7c0,0.3-0.1,0.6-0.2,0.7c-0.2,0.2-0.5,0.2-0.9,0.2h-0.9c-0.4,0-0.8-0.1-0.9-0.2
	c-0.2-0.2-0.2-0.4-0.2-0.7V230.3z M149.6,233.7c0,0.1,0,0.1,0.1,0.1h0.4c0.1,0,0.1,0,0.1-0.1v-3.1c0-0.1,0-0.1-0.1-0.1h-0.4
	c-0.1,0-0.1,0-0.1,0.1V233.7z"/>
<path class="st0" d="M158.6,229.4v4.5h1v1.1h-3.2v-1.1h1v-3.2h-1v-0.8l1.4-0.4H158.6z"/>
<path class="st0" d="M166.6,229.4v4.5h1v1.1h-3.2v-1.1h1v-3.2h-1v-0.8l1.4-0.4H166.6z"/>
<path class="st0" d="M174.6,229.4v4.5h1v1.1h-3.2v-1.1h1v-3.2h-1v-0.8l1.4-0.4H174.6z"/>
<path class="st0" d="M150.6,239v4.5h1v1.1h-3.2v-1.1h1v-3.2h-1v-0.8l1.4-0.4H150.6z"/>
<path class="st0" d="M156.4,240c0-0.3,0.1-0.6,0.2-0.7c0.2-0.2,0.5-0.2,0.9-0.2h0.9c0.5,0,0.8,0.1,0.9,0.2c0.2,0.2,0.2,0.4,0.2,0.7
	v3.7c0,0.3-0.1,0.6-0.2,0.7c-0.2,0.2-0.5,0.2-0.9,0.2h-0.9c-0.4,0-0.7-0.1-0.9-0.2c-0.2-0.2-0.2-0.4-0.2-0.7V240z M157.6,243.4
	c0,0.1,0,0.1,0.1,0.1h0.4c0.1,0,0.1,0,0.1-0.1v-3.1c0-0.1,0-0.1-0.1-0.1h-0.4c-0.1,0-0.1,0-0.1,0.1V243.4z"/>
<path class="st0" d="M164.3,240c0-0.3,0.1-0.6,0.2-0.7c0.2-0.2,0.5-0.2,0.9-0.2h0.9c0.5,0,0.8,0.1,0.9,0.2c0.2,0.2,0.2,0.4,0.2,0.7
	v3.7c0,0.3-0.1,0.6-0.2,0.7c-0.2,0.2-0.5,0.2-0.9,0.2h-0.9c-0.4,0-0.8-0.1-0.9-0.2c-0.2-0.2-0.2-0.4-0.2-0.7V240z M165.6,243.4
	c0,0.1,0,0.1,0.1,0.1h0.4c0.1,0,0.1,0,0.1-0.1v-3.1c0-0.1,0-0.1-0.1-0.1h-0.4c-0.1,0-0.1,0-0.1,0.1V243.4z"/>
<path class="st0" d="M174.6,239v4.5h1v1.1h-3.2v-1.1h1v-3.2h-1v-0.8l1.4-0.4H174.6z"/>
<path class="st0" d="M182.5,239v4.5h1v1.1h-3.2v-1.1h1v-3.2h-1v-0.8l1.4-0.4H182.5z"/>
<path class="st1" d="M189.5,208.9v5.2h1.1v1.2h-3.7v-1.2h1.1v-3.8h-1.1v-1l1.6-0.5H189.5z"/>
<path class="st1" d="M146.1,218.1v6.4h1.4v1.5h-4.6v-1.5h1.4v-4.6h-1.4v-1.2l2-0.6H146.1z"/>
<path class="st1" d="M149.1,218.1v6.4h1.4v1.5h-4.6v-1.5h1.4v-4.6h-1.4v-1.2l2-0.6H149.1z"/>
<path class="st1" d="M162.8,218.6v5.8h1.3v1.4h-4.2v-1.4h1.3v-4.2h-1.3v-1.1l1.8-0.6H162.8z"/>
<path class="st1" d="M192.9,218.7v6h1.3v1.4h-4.3v-1.4h1.3v-4.3h-1.3v-1.1l1.8-0.6H192.9z"/>
<path class="st1" d="M191.2,218.8v5.9h1.3v1.4h-4.2v-1.4h1.3v-4.2h-1.3v-1.1l1.8-0.6H191.2z"/>
<path class="st1" d="M190.3,219.8v4.5h1v1.1h-3.2v-1.1h1V221h-1v-0.8l1.4-0.4H190.3z"/>
<path class="st1" d="M155.8,230.2c0-0.3,0.1-0.6,0.2-0.7c0.2-0.2,0.5-0.2,0.9-0.2h1c0.5,0,0.8,0.1,0.9,0.2c0.2,0.2,0.2,0.4,0.2,0.7
	v3.8c0,0.3-0.1,0.6-0.2,0.7c-0.2,0.2-0.5,0.2-0.9,0.2h-1c-0.5,0-0.8-0.1-0.9-0.2c-0.2-0.2-0.2-0.4-0.2-0.7V230.2z M157.1,233.7
	c0,0.1,0,0.1,0.1,0.1h0.5c0.1,0,0.1,0,0.1-0.1v-3.2c0-0.1,0-0.1-0.1-0.1h-0.5c-0.1,0-0.1,0.1-0.1,0.1V233.7z"/>
<path class="st1" d="M158,230.1c0-0.4,0.1-0.6,0.3-0.8c0.2-0.2,0.5-0.3,1-0.3h1c0.5,0,0.8,0.1,1,0.3c0.2,0.2,0.3,0.4,0.3,0.8v4
	c0,0.3-0.1,0.6-0.3,0.8c-0.2,0.2-0.5,0.3-1,0.3h-1c-0.5,0-0.8-0.1-1-0.3c-0.2-0.2-0.3-0.4-0.3-0.8V230.1z M159.3,233.8
	c0,0.1,0.1,0.2,0.2,0.2h0.5c0.1,0,0.2-0.1,0.2-0.2v-3.4c0-0.1-0.1-0.2-0.2-0.2h-0.5c-0.1,0-0.2,0.1-0.2,0.2V233.8z"/>
<path class="st1" d="M156.1,228.7v5.6h1.2v1.3h-4v-1.3h1.2v-4h-1.2v-1l1.7-0.5H156.1z"/>
<path class="st1" d="M177.4,228.9v5.4h1.2v1.3h-3.8v-1.3h1.2v-3.9h-1.2v-1l1.6-0.5H177.4z"/>
<path class="st1" d="M186.7,229.9c0-0.4,0.1-0.7,0.3-0.9c0.2-0.2,0.6-0.3,1.1-0.3h1.2c0.6,0,1,0.1,1.1,0.3c0.2,0.2,0.3,0.5,0.3,0.9
	v4.6c0,0.4-0.1,0.7-0.3,0.9c-0.2,0.2-0.6,0.3-1.1,0.3h-1.2c-0.6,0-0.9-0.1-1.1-0.3c-0.2-0.2-0.3-0.5-0.3-0.9V229.9z M188.3,234.2
	c0,0.1,0.1,0.2,0.2,0.2h0.6c0.1,0,0.2-0.1,0.2-0.2v-4c0-0.1-0.1-0.2-0.2-0.2h-0.6c-0.1,0-0.2,0.1-0.2,0.2V234.2z"/>
<path class="st1" d="M191.4,228.8v5.5h1.2v1.3h-4v-1.3h1.2v-4h-1.2v-1l1.7-0.5H191.4z"/>
<path class="st1" d="M173.2,238v6.2h1.4v1.5h-4.4v-1.5h1.3v-4.4h-1.3v-1.1l1.9-0.6H173.2z"/>
<path class="st1" d="M175.2,239.9c0-0.3,0.1-0.6,0.2-0.8c0.2-0.2,0.5-0.2,0.9-0.2h1c0.5,0,0.8,0.1,1,0.2c0.2,0.2,0.2,0.4,0.2,0.8
	v3.9c0,0.3-0.1,0.6-0.2,0.8c-0.2,0.2-0.5,0.2-1,0.2h-1c-0.5,0-0.8-0.1-0.9-0.2c-0.2-0.2-0.2-0.4-0.2-0.8V239.9z M176.5,243.5
	c0,0.1,0.1,0.2,0.1,0.2h0.5c0.1,0,0.2-0.1,0.2-0.2v-3.3c0-0.1,0-0.2-0.2-0.2h-0.5c-0.1,0-0.1,0.1-0.1,0.2V243.5z"/>
<path class="st1" d="M151.5,239.8c0-0.4,0.1-0.6,0.2-0.8c0.2-0.2,0.5-0.2,1-0.2h1c0.5,0,0.8,0.1,1,0.2c0.2,0.2,0.2,0.4,0.2,0.8v4
	c0,0.3-0.1,0.6-0.2,0.8c-0.2,0.2-0.5,0.2-1,0.2h-1c-0.5,0-0.8-0.1-1-0.2c-0.2-0.2-0.2-0.4-0.2-0.8V239.8z M152.8,243.5
	c0,0.1,0.1,0.2,0.2,0.2h0.5c0.1,0,0.2-0.1,0.2-0.2v-3.4c0-0.1-0.1-0.2-0.2-0.2H153c-0.1,0-0.2,0.1-0.2,0.2V243.5z"/>
<path class="st1" d="M193.5,238.7v5.1h1.1v1.2H191v-1.2h1.1v-3.7H191v-0.9l1.5-0.5H193.5z"/>
<path class="st1" d="M173.1,238v6.2h1.4v1.5h-4.4v-1.5h1.3v-4.5h-1.3v-1.1l1.9-0.6H173.1z"/>
<path class="st0" d="M185.7,166v4.5h1v1.1h-3.2v-1.1h1v-3.2h-1v-0.8l1.4-0.4H185.7z"/>
<path class="st0" d="M193.7,166.1v4.5h1v1.1h-3.2v-1.1h1v-3.2h-1v-0.8l1.4-0.4H193.7z"/>
<path class="st0" d="M201.6,166.2v4.5h1v1.1h-3.2v-1.1h1v-3.2h-1v-0.8l1.4-0.4H201.6z"/>
<path class="st0" d="M209.6,166.3v4.5h1v1.1h-3.2v-1.1h1v-3.2h-1v-0.8l1.4-0.4H209.6z"/>
<path class="st1" d="M216.6,155.6v5.2h1.1v1.2H214v-1.2h1.1V157H214v-1l1.6-0.5H216.6z"/>
<path class="st1" d="M189.8,165.2v5.8h1.3v1.4H187v-1.4h1.3v-4.2H187v-1.1l1.8-0.6H189.8z"/>
<path class="st1" d="M202,165.5v5.6h1.2v1.3h-4v-1.3h1.2v-4h-1.2v-1l1.7-0.5H202z"/>
<path class="st1" d="M219.9,165.3v6h1.3v1.4H217v-1.4h1.3V167H217v-1.1l1.8-0.6H219.9z"/>
<path class="st1" d="M218.3,165.5v5.9h1.3v1.4h-4.2v-1.4h1.3v-4.2h-1.3V166l1.8-0.6H218.3z"/>
<path class="st1" d="M217.4,166.4v4.5h1v1.1h-3.2V171h1v-3.3h-1v-0.8l1.4-0.4H217.4z"/>
</svg>
