<?xml version="1.0" encoding="utf-8"?>
<!-- Generator: Adobe Illustrator 22.0.1, SVG Export Plug-In . SVG Version: 6.00 Build 0)  -->
<svg version="1.1" id="圖層_1" xmlns="http://www.w3.org/2000/svg" xmlns:xlink="http://www.w3.org/1999/xlink" x="0px" y="0px"
	 viewBox="0 0 425.2 425.2" style="enable-background:new 0 0 425.2 425.2;" xml:space="preserve">
<style type="text/css">
	.st0{fill:#FFFFFF;stroke:#332E2C;stroke-miterlimit:10;}
	.st1{fill:#FFFFFF;}
	.st2{fill:#F7F7F7;}
	.st3{fill:#DBCABF;}
	.st4{fill:#3E2A3A;}
	.st5{fill:#FFEBD5;}
	.st6{fill:#1A0237;}
	.st7{fill:none;stroke:#FF8E82;stroke-width:2.3366;stroke-linecap:round;stroke-miterlimit:10;}
	.st8{fill:none;stroke:#A9B2CD;stroke-width:2.3366;stroke-linecap:round;stroke-miterlimit:10;}
	.st9{fill:none;stroke:#FF4036;stroke-width:2.3366;stroke-linecap:round;stroke-miterlimit:10;}
	.st10{fill:none;stroke:#FF8E82;stroke-width:1.4202;stroke-linecap:round;stroke-miterlimit:10;}
	.st11{fill:none;stroke:#A9B2CD;stroke-width:1.4202;stroke-linecap:round;stroke-miterlimit:10;}
	.st12{fill:none;stroke:#FF4036;stroke-width:1.4202;stroke-linecap:round;stroke-miterlimit:10;}
	.st13{fill:#0D4947;}
	.st14{fill:#006C56;}
	.st15{fill:none;stroke:#0D4947;stroke-width:1.1316;stroke-miterlimit:10;}
	.st16{fill:none;stroke:#0C3330;stroke-width:0.8827;stroke-miterlimit:10;}
	.st17{fill:#FF7137;}
</style>
<g>
	<g>
		<line class="st0" x1="359" y1="198.6" x2="359" y2="420.2"/>
		<line class="st0" x1="24.7" y1="198.6" x2="24.7" y2="420.2"/>
	</g>
	<rect x="-0.2" y="193.5" class="st1" width="397" height="10.8"/>
</g>
<g>
	<g>
		<path class="st2" d="M186.1,176.2H32.4c-1.9,0-3.5-1.5-3.5-3.5V83.6c0-1.9,1.5-3.5,3.5-3.5h153.8c1.9,0,3.5,1.5,3.5,3.5v89.2
			C189.6,174.7,188,176.2,186.1,176.2z"/>
		<path class="st3" d="M127.4,188.7c-0.6-1.5-0.8-3.2-0.8-4.9v-7.7h-17.2h-0.8H93.1v7.7c0,1.7-0.2,3.3-0.8,4.9
			c-0.8,2.1-2.3,4.5-5.2,4.5h21.5h0.8h23.3C129.7,193.2,128.2,190.9,127.4,188.7z"/>
		<path class="st4" d="M186.1,160.9H32.4c-1.9,0-3.5-1.5-3.5-3.5V68.3c0-1.9,1.5-3.5,3.5-3.5h153.8c1.9,0,3.5,1.5,3.5,3.5v89.2
			C189.6,159.4,188,160.9,186.1,160.9z"/>
		<rect x="35.1" y="70.2" class="st5" width="148.4" height="84.4"/>
		<path class="st2" d="M354.8,176.2H201c-1.9,0-3.5-1.5-3.5-3.5V83.6c0-1.9,1.5-3.5,3.5-3.5h153.8c1.9,0,3.5,1.5,3.5,3.5v89.2
			C358.2,174.7,356.7,176.2,354.8,176.2z"/>
		<path class="st3" d="M296.1,188.7c-0.6-1.5-0.8-3.2-0.8-4.9v-7.7H278h-0.8h-15.5v7.7c0,1.7-0.2,3.3-0.8,4.9
			c-0.8,2.1-2.3,4.5-5.2,4.5h21.5h0.8h23.3C298.4,193.2,296.9,190.9,296.1,188.7z"/>
		<path class="st4" d="M354.8,160.9H201c-1.9,0-3.5-1.5-3.5-3.5V68.3c0-1.9,1.5-3.5,3.5-3.5h153.8c1.9,0,3.5,1.5,3.5,3.5v89.2
			C358.2,159.4,356.7,160.9,354.8,160.9z"/>
		<rect x="203.8" y="70.2" class="st6" width="148.4" height="84.4"/>
	</g>
	<g>
		<polyline class="st7" points="234.1,85.1 229.1,90.4 233.7,95.7 		"/>
		<polyline class="st7" points="261.6,95.7 266.5,90.4 262,85.1 		"/>
		<polyline class="st7" points="228.7,128.2 233.7,122.9 229.1,117.6 		"/>
		<line class="st7" x1="250.7" y1="85.9" x2="245" y2="95.7"/>
		<g>
			<line class="st8" x1="277.5" y1="84.1" x2="285.3" y2="84.1"/>
			<line class="st8" x1="293" y1="84.1" x2="330.1" y2="84.1"/>
		</g>
		<line class="st8" x1="293" y1="109.1" x2="330.1" y2="109.1"/>
		<line class="st8" x1="269" y1="122.6" x2="285.2" y2="122.6"/>
		<line class="st8" x1="268" y1="109.1" x2="284.2" y2="109.1"/>
		<line class="st9" x1="242.5" y1="122.7" x2="258.8" y2="122.7"/>
		<line class="st9" x1="313.8" y1="122.8" x2="330.1" y2="122.8"/>
		<line class="st8" x1="228.7" y1="109.1" x2="236.5" y2="109.1"/>
		<line class="st8" x1="250" y1="109.1" x2="257.7" y2="109.1"/>
		<g>
			<line class="st8" x1="290.6" y1="96.4" x2="306.8" y2="96.4"/>
			<line class="st8" x1="312.5" y1="96.4" x2="328.8" y2="96.4"/>
			<line class="st8" x1="272.9" y1="96.4" x2="280.7" y2="96.4"/>
		</g>
		<line class="st8" x1="294.1" y1="122.5" x2="301.8" y2="122.5"/>
	</g>
	<g>
		<g>
			<g>
				<polyline class="st10" points="102.4,108.1 105.4,104.9 102.6,101.6 				"/>
				<polyline class="st10" points="85.6,101.6 82.6,104.9 85.4,108.1 				"/>
				<polyline class="st10" points="105.6,81.9 102.6,85.1 105.4,88.3 				"/>
				<line class="st10" x1="92.3" y1="107.6" x2="95.7" y2="101.6"/>
				<g>
					<line class="st11" x1="76" y1="108.7" x2="71.3" y2="108.7"/>
					<line class="st11" x1="66.5" y1="108.7" x2="44" y2="108.7"/>
				</g>
				<line class="st11" x1="66.5" y1="93.5" x2="44" y2="93.5"/>
				<line class="st11" x1="81.1" y1="85.3" x2="71.3" y2="85.3"/>
				<line class="st11" x1="81.8" y1="93.5" x2="71.9" y2="93.5"/>
				<line class="st12" x1="97.2" y1="85.2" x2="87.4" y2="85.2"/>
				<line class="st12" x1="53.9" y1="85.2" x2="44" y2="85.2"/>
				<line class="st11" x1="105.6" y1="93.5" x2="100.9" y2="93.5"/>
				<line class="st11" x1="92.7" y1="93.5" x2="88" y2="93.5"/>
				<g>
					<line class="st11" x1="68" y1="101.2" x2="58.1" y2="101.2"/>
					<line class="st11" x1="54.7" y1="101.2" x2="44.8" y2="101.2"/>
					<line class="st11" x1="78.8" y1="101.2" x2="74.1" y2="101.2"/>
				</g>
				<line class="st11" x1="65.9" y1="85.4" x2="61.2" y2="85.4"/>
			</g>
			<g>
				<polyline class="st10" points="116.3,82.5 113.3,85.8 116.1,89 				"/>
				<polyline class="st10" points="133.1,89 136.1,85.8 133.3,82.5 				"/>
				<polyline class="st10" points="113.1,108.7 116.1,105.5 113.3,102.3 				"/>
				<line class="st10" x1="126.4" y1="83" x2="123" y2="89"/>
				<g>
					<line class="st11" x1="142.7" y1="81.9" x2="147.4" y2="81.9"/>
					<line class="st11" x1="152.1" y1="81.9" x2="174.7" y2="81.9"/>
				</g>
				<line class="st11" x1="152.1" y1="97.1" x2="174.7" y2="97.1"/>
				<line class="st11" x1="137.5" y1="105.3" x2="147.4" y2="105.3"/>
				<line class="st11" x1="136.9" y1="97.1" x2="146.8" y2="97.1"/>
				<line class="st12" x1="121.5" y1="105.4" x2="131.3" y2="105.4"/>
				<line class="st12" x1="164.8" y1="105.4" x2="174.7" y2="105.4"/>
				<line class="st11" x1="113.1" y1="97.1" x2="117.8" y2="97.1"/>
				<line class="st11" x1="126" y1="97.1" x2="130.7" y2="97.1"/>
				<g>
					<line class="st11" x1="150.7" y1="89.4" x2="160.5" y2="89.4"/>
					<line class="st11" x1="164" y1="89.4" x2="173.9" y2="89.4"/>
					<line class="st11" x1="139.9" y1="89.4" x2="144.6" y2="89.4"/>
				</g>
				<line class="st11" x1="152.8" y1="105.2" x2="157.5" y2="105.2"/>
			</g>
		</g>
		<g>
			<g>
				<polyline class="st10" points="116.3,115.3 113.3,118.5 116.1,121.7 				"/>
				<polyline class="st10" points="133.1,121.7 136.1,118.5 133.3,115.3 				"/>
				<polyline class="st10" points="113.1,141.4 116.1,138.2 113.3,135 				"/>
				<line class="st10" x1="126.4" y1="115.7" x2="123" y2="121.7"/>
				<g>
					<line class="st11" x1="142.7" y1="114.6" x2="147.4" y2="114.6"/>
					<line class="st11" x1="152.1" y1="114.6" x2="174.7" y2="114.6"/>
				</g>
				<line class="st11" x1="152.1" y1="129.9" x2="174.7" y2="129.9"/>
				<line class="st11" x1="137.5" y1="138" x2="147.4" y2="138"/>
				<line class="st11" x1="136.9" y1="129.9" x2="146.8" y2="129.9"/>
				<line class="st12" x1="121.5" y1="138.1" x2="131.3" y2="138.1"/>
				<line class="st12" x1="164.8" y1="138.2" x2="174.7" y2="138.2"/>
				<line class="st11" x1="113.1" y1="129.9" x2="117.8" y2="129.9"/>
				<line class="st11" x1="126" y1="129.9" x2="130.7" y2="129.9"/>
				<g>
					<line class="st11" x1="150.7" y1="122.1" x2="160.5" y2="122.1"/>
					<line class="st11" x1="164" y1="122.1" x2="173.9" y2="122.1"/>
					<line class="st11" x1="139.9" y1="122.1" x2="144.6" y2="122.1"/>
				</g>
				<line class="st11" x1="152.8" y1="138" x2="157.5" y2="138"/>
			</g>
			<g>
				<polyline class="st10" points="102.4,140.8 105.4,137.6 102.6,134.4 				"/>
				<polyline class="st10" points="85.6,134.4 82.6,137.6 85.4,140.8 				"/>
				<polyline class="st10" points="105.6,114.6 102.6,117.8 105.4,121.1 				"/>
				<line class="st10" x1="92.3" y1="140.4" x2="95.7" y2="134.4"/>
				<g>
					<line class="st11" x1="76" y1="141.4" x2="71.3" y2="141.4"/>
					<line class="st11" x1="66.5" y1="141.4" x2="44" y2="141.4"/>
				</g>
				<line class="st11" x1="66.5" y1="126.2" x2="44" y2="126.2"/>
				<line class="st11" x1="81.1" y1="118" x2="71.3" y2="118"/>
				<line class="st11" x1="81.8" y1="126.2" x2="71.9" y2="126.2"/>
				<line class="st12" x1="97.2" y1="118" x2="87.4" y2="118"/>
				<line class="st12" x1="53.9" y1="117.9" x2="44" y2="117.9"/>
				<line class="st11" x1="105.6" y1="126.2" x2="100.9" y2="126.2"/>
				<line class="st11" x1="92.7" y1="126.2" x2="88" y2="126.2"/>
				<g>
					<line class="st11" x1="68" y1="133.9" x2="58.1" y2="133.9"/>
					<line class="st11" x1="54.7" y1="133.9" x2="44.8" y2="133.9"/>
					<line class="st11" x1="78.8" y1="133.9" x2="74.1" y2="133.9"/>
				</g>
				<line class="st11" x1="65.9" y1="118.1" x2="61.2" y2="118.1"/>
			</g>
		</g>
	</g>
</g>
<g>
	<g>
		<path class="st13" d="M388.7,67.6c0,0-12.2-8.1-22.1,5.8c-9.9,13.9-23.8,43-11,41.2c12.8-1.7,30.8,0.6,37.2-19.2
			C399.2,75.8,398,62.4,388.7,67.6z"/>
		<path class="st14" d="M391,11.3c0,0-12.8-6.4-13.9,12.8c-1.2,19.2,12.8,63.3,30.8,54c18-9.3,7.6-54.6-4.6-61.6
			C391,9.5,391,11.3,391,11.3z"/>
		<path class="st15" d="M382.9,85.1c3.3,25.3,3.3,51.5-0.6,76.7c1.1-11.2,1.5-8.3,0,0c3.9-27.6,12.2-55,11.6-83.5"/>
		<path class="st16" d="M388.7,67.6c0,0-20.4,10.6-33.1,47.1"/>
		<path class="st16" d="M391,11.3c0,0,18.7,23.2,13.2,67.7"/>
	</g>
	<polygon class="st17" points="385.9,193.1 398,155.3 360.8,153.1 367.2,193.1 	"/>
</g>
<g>
	<rect x="6.6" y="188.7" class="st5" width="68" height="4.4"/>
	<g>
		<path class="st1" d="M21.1,171.1H6.4c-0.3,0-0.5,0.2-0.5,0.5v11.1c0,3.2,2.6,5.9,5.9,5.9h3.9c3.2,0,5.9-2.6,5.9-5.9v-11.1
			C21.6,171.3,21.4,171.1,21.1,171.1z"/>
		<path class="st1" d="M19.3,186.6c3.3-1.9,9-7.4,8-11.3c-0.3-1-0.9-1.8-1.8-2.3c-2.2-1-5.3,0.2-5.7,0.4l1,2.2
			c0.8-0.3,2.6-0.8,3.5-0.4c0.2,0.1,0.4,0.2,0.5,0.7c0.6,2.3-3.9,7-6.9,8.7L19.3,186.6z"/>
	</g>
</g>
</svg>
