<?xml version="1.0" encoding="utf-8"?>
<!-- Generator: Adobe Illustrator 22.0.1, SVG Export Plug-In . SVG Version: 6.00 Build 0)  -->
<svg version="1.1" id="圖層_1" xmlns="http://www.w3.org/2000/svg" xmlns:xlink="http://www.w3.org/1999/xlink" x="0px" y="0px"
	 viewBox="0 0 425.2 425.2" style="enable-background:new 0 0 425.2 425.2;" xml:space="preserve">
<style type="text/css">
	.st0{fill:#6161C9;}
	.st1{fill:#FFFFFF;}
	.st2{fill:#3C4AA0;}
	.st3{fill:#B4B0FA;}
	.st4{fill:#B28247;}
	.st5{fill:#7F4F21;}
	.st6{fill:#FFCB9C;}
	.st7{fill:#FCBFAC;}
	.st8{fill:#231815;}
	.st9{fill:#FF8DA3;}
	.st10{fill:#040962;}
	.st11{fill:#F9FBFC;}
	.st12{fill:#7F7FDD;}
	.st13{opacity:0.28;fill:#6161C9;}
	.st14{fill:#553F77;}
	.st15{fill:#5A91FF;}
	.st16{fill:#362656;}
	.st17{fill:#7859B5;}
	.st18{fill:#735F99;}
	.st19{fill:#FF6498;}
	.st20{fill:#FFEE4D;}
	.st21{fill:#C9CACA;}
	.st22{fill:#DCDDDD;}
</style>
<g>
	<ellipse class="st0" cx="230.1" cy="388.5" rx="6.8" ry="8.4"/>
	<ellipse class="st0" cx="301.2" cy="388.5" rx="6.8" ry="8.4"/>
</g>
<path class="st1" d="M302,370.3h-20.3c-5.6,0-10.2-4.6-10.2-10.2v-80.5h-13V360c0,5.6-4.6,10.2-10.2,10.2h-18.9h-2
	c-3.1,0-5.6,2.5-5.6,5.6v1.2v10c0,0.7,0.6,1.2,1.2,1.2h5.1c0.7,0,1.2-0.6,1.2-1.2v-4.4c0-3.1,2.5-5.6,5.6-5.6h61.6
	c3.1,0,5.6,2.5,5.6,5.6v4.4c0,0.7,0.6,1.2,1.2,1.2h5.1c0.7,0,1.2-0.6,1.2-1.2v-10v-1.2c0-3.1-2.5-5.6-5.6-5.6H302z"/>
<path class="st2" d="M272.4,288.8h-15.9c-1.1,0-1.9-0.9-1.9-1.9v-5.1c0-1.1,0.9-1.9,1.9-1.9h15.9c1.1,0,1.9,0.9,1.9,1.9v5.1
	C274.4,288,273.5,288.8,272.4,288.8z"/>
<path class="st0" d="M329.9,270.2v8.2c0,2-1.7,3.7-3.7,3.7H213l0.1-11.9H329.9z"/>
<path class="st0" d="M355.3,132.5l-25.4,137.7h-30.1c0,0,8.5-2.9,9.7-22.3c0.6-9.8-0.6-23.7-5.8-43.6h1.5c5.8,0,10.5-4.7,10.5-10.5
	v-73c0-1.1-0.1-2.2-0.4-3.3H343C350.8,117.6,356.8,124.8,355.3,132.5z"/>
<path class="st3" d="M343.6,132.5l-25.4,137.7h-18.3c0,0,8.5-2.9,9.7-22.3c0.6-9.8-0.6-23.7-5.8-43.6h1.5c5.8,0,10.5-4.7,10.5-10.5
	v-73c0-1.1-0.1-2.2-0.4-3.3h15.9C339.1,117.6,345,124.8,343.6,132.5z"/>
<path class="st4" d="M303.8,107.3L303.8,107.3c0,0-7.1-24.1-7.1-50.1c0-26-10.1-34.8-21-34.8h-23.2c-12.7,0-23.2,9.9-23.9,22.6
	c-0.6,10.6-1.6,22.3-2.9,28.9c-2.9,14-8.8,41-14,55.2c-5.2,14.2-1,26.4,11.5,26.6c0,0-1,25.7,33.2,18.7
	c32.4-6.6,54.3-16.4,50.8-55.5C306.8,114.9,305.7,110.9,303.8,107.3z"/>
<path class="st5" d="M240.3,51.7c-2.1,0-4.2-0.4-5.8-1.4c-1.6-1.1-2.5-2.7-2.7-4.8c-0.8-9.7,7.1-15.8,7.4-16.1
	c0.2-0.2,0.5-0.1,0.7,0.1c0.2,0.2,0.1,0.5-0.1,0.7c-0.1,0.1-7.8,6.1-7.1,15.2c0.2,1.9,0.9,3.2,2.2,4.1c4.3,2.8,13.3-0.1,13.4-0.1
	c0.3-0.1,0.5,0.1,0.6,0.3c0.1,0.3-0.1,0.5-0.3,0.6C248.5,50.4,244.4,51.7,240.3,51.7z"/>
<path class="st5" d="M273.9,48.5c-0.3,0-0.5-0.2-0.5-0.5c0-0.1-0.3-9.6-1.2-12.8c-0.1-0.3,0.1-0.5,0.4-0.6c0.3-0.1,0.5,0.1,0.6,0.4
	c0.9,3.3,1.2,12.6,1.2,13C274.4,48.3,274.2,48.5,273.9,48.5C273.9,48.5,273.9,48.5,273.9,48.5z"/>
<path class="st6" d="M312.7,112.3c-40.7,21.5-71.1,13.1-81.5,8.9c1.3-1.1,2.7-2.1,4.1-2.9c5.8-3.5,13.8-8.3,18.6-11.5
	c3.8-2.5,5.1-6.6,5.4-10.4c0.4-4.3-0.6-8.2-0.6-8.2h-3.4c-9.9,0-17.9-8-17.9-17.9V48h36.5l5,44c1,8.7,8.3,15.2,17,15.2h6.1
	C306.3,107.2,310.2,109.2,312.7,112.3z"/>
<path class="st7" d="M272.8,230.7c7,3.6,18.6,19.5,36.8,17.3c0.6-9.8-0.6-23.7-5.8-43.6h1.5c5.8,0,10.5-4.7,10.5-10.5v-73
	c0-3.3-1.1-6.3-3.1-8.6c-40.7,21.5-71.1,13.1-81.5,9c-2.8,2.4-5.3,5.2-7.2,8.4l-25.2,42.3c-1.6,2.6-4.4,4.2-7.4,4.2h-2.5v23.7h6.7
	c3.8,0,7.5-1.7,9.9-4.6l28.3-32.8c0,0,6.9,23.8-1.3,61.9l0,0C232.5,224.3,264.7,226.5,272.8,230.7z"/>
<path class="st6" d="M200.3,385.1c0,0-1.8,2.2-4.9,4.9c2.1,1.2,4.6,3.1,6.4,6.1c0,0,5.7-5.9,13.6-6.4c-0.9-2.5-2-4.8-3.2-6.6l0.2-19
	h-14.9L200.3,385.1z"/>
<path class="st6" d="M201.8,396.1c-1.8-3-4.2-4.9-6.4-6.1c-4.3,3.7-11.1,8.4-19.2,9.5c0,0-4.2-0.3-6.1,2.5c-0.6,1,0,2.3,1.1,2.5
	c5.5,0.9,22.1,3.1,44.7,0c1.4-0.2,2.4-1.5,2.3-2.9c-0.2-2.7-1.2-7.5-2.8-11.9C207.5,390.2,201.8,396.1,201.8,396.1z"/>
<path class="st8" d="M181.5,252.9c-11.5,3.2-4.4,38.6-4.4,38.6l0,0c0.1,0.6,5.4,42,3.7,45.1c-1.7,3.2-4.4,10.3,3.7,15.6
	c0,0-3.7,13.4,9.3,11.9h3.7l0,0h14.9l0.8-93.9h23.1C222.1,263.9,190.3,250.4,181.5,252.9z"/>
<path class="st8" d="M272.8,230.7c-8.1-4.1-40.3-6.3-40.3-6.3l0,0c0,0,0,0,0,0c0,0-37.6-8.3-46.1,0c-8.5,8.3-42.9,46.9-45.9,57.6
	c-1.9,6.9,0,11.5,0,11.5s-6.6,2.6-8.5,6.6c-4.1,8.5,4.1,15.1,4.1,15.1l0,0c0,0,5,1,11.7,9.2l29.3-32.9c0,0,0,0,0,0l0,0
	c0,0-7.1-35.4,4.4-38.6c8.8-2.4,40.6,11,54.8,17.3h63.6c0,0,8.5-2.9,9.7-22.3C291.3,250.2,279.8,234.3,272.8,230.7z"/>
<path class="st6" d="M136.1,315.1L136.1,315.1L136.1,315.1l-11.2,20.3c0,0-2.3-0.6-5.8-1.6c1.3,2.7,2.5,6.1,1.9,8.4
	c0,0,5-0.6,10.3,3.3c0.6-1.4,1.3-3,1.9-4.8l14.6-16.4C141.2,316.1,136.1,315.1,136.1,315.1z"/>
<path class="st6" d="M121,342.2c0.7-2.4-0.6-5.8-1.9-8.4c-7-2-18.5-5.7-24.9-9.6c-0.9-0.5-2-0.4-2.6,0.4c-0.3,0.4-0.5,0.8-0.5,1.3
	c0,0.5,0.1,0.9,0.4,1.3c3.8,4.7,17.5,20.8,29.3,27.1c2.2,1.2,4.9,0.6,6.3-1.4c1.2-1.6,2.6-4,4.1-7.4C126,341.5,121,342.2,121,342.2z
	"/>
<path class="st6" d="M269.1,88.3c0,0-4.9,8.2-9.8,8.2c0.4-4.3-0.6-8.2-0.6-8.2H269.1z"/>
<g>
	<path class="st9" d="M233.9,162.9c-0.2,0-0.4-0.1-0.5-0.3c-0.1-0.2-5.5-16.3,3.6-31.5c0.1-0.2,0.4-0.3,0.7-0.2
		c0.2,0.1,0.3,0.4,0.2,0.7c-8.8,14.7-3.5,30.5-3.5,30.6c0.1,0.3,0,0.5-0.3,0.6C234,162.9,233.9,162.9,233.9,162.9z"/>
	<path class="st9" d="M245.5,190.2c-0.2,0-0.5-0.2-0.5-0.4c0-0.3,0.2-0.5,0.4-0.6l52.2-7.3l-3.1-52.7c0-0.3,0.2-0.5,0.5-0.5
		c0.3,0,0.5,0.2,0.5,0.5l3.2,53.2c0,0.3-0.2,0.5-0.4,0.5L245.5,190.2C245.5,190.2,245.5,190.2,245.5,190.2z"/>
	<path class="st9" d="M245.5,204.7c-0.2,0-0.3-0.1-0.4-0.2l-1.1-1.8c-0.1-0.2-0.1-0.5,0.2-0.7c0.2-0.1,0.5-0.1,0.7,0.2l1,1.5
		l56.7-0.1h0c0.3,0,0.5,0.2,0.5,0.5c0,0.3-0.2,0.5-0.5,0.5L245.5,204.7L245.5,204.7z"/>
</g>
<path class="st1" d="M253,72.7c0,0-4.5-1.9-5.2-0.8c-0.7,1.1,2.2,2.6,6.1,2.6s6.9-2.4,6.1-3.7C259.2,69.4,253,72.7,253,72.7z"/>
<path class="st6" d="M254.2,77.7c-1.5,0-2.6-0.5-2.7-0.6c-0.2-0.1-0.3-0.4-0.2-0.7c0.1-0.2,0.4-0.3,0.7-0.2c0,0,2.1,1,4.4,0
	c0.3-0.1,0.5,0,0.7,0.3c0.1,0.3,0,0.5-0.3,0.7C255.9,77.6,255,77.7,254.2,77.7z"/>
<path class="st7" d="M252.2,68.6c-1,0-1.8-0.4-2.2-0.8c-0.1-0.1-0.2-0.2-0.2-0.4V55.1c0-2.5-2.4-3.1-2.4-3.1
	c-0.3-0.1-0.4-0.3-0.4-0.6c0.1-0.3,0.3-0.4,0.6-0.4c1.1,0.3,3.1,1.5,3.1,4.1v12.1c0.4,0.3,1.5,0.8,3-0.2c0.2-0.2,0.5-0.1,0.7,0.1
	c0.2,0.2,0.1,0.5-0.1,0.7C253.7,68.4,252.9,68.6,252.2,68.6z"/>
<g>
	<path class="st10" d="M259.5,56.9c-1.2,0-2.1,0.9-2.1,2.1c0,1.2,0.9,2.1,2.1,2.1c1.2,0,2.1-0.9,2.1-2.1
		C261.6,57.8,260.6,56.9,259.5,56.9z"/>
	<path class="st10" d="M243.3,56.9c-1.2,0-2.1,0.9-2.1,2.1c0,1.2,0.9,2.1,2.1,2.1c1.2,0,2.1-0.9,2.1-2.1
		C245.5,57.8,244.5,56.9,243.3,56.9z"/>
</g>
<circle class="st7" cx="265.7" cy="64" r="3.4"/>
<path class="st7" d="M243.3,64c0,1.9-1.5,3.4-3.4,3.4c-1,0-1.9-0.4-2.6-1.2v-4.5c0.6-0.7,1.5-1.2,2.6-1.2
	C241.8,60.6,243.3,62.1,243.3,64z"/>
<path class="st10" d="M264.7,52.5c0,0-0.1,0-0.1,0c-6-1.7-8.3-0.1-8.3-0.1c-0.2,0.2-0.5,0.1-0.7-0.1c-0.2-0.2-0.1-0.5,0.1-0.7
	c0.1-0.1,2.7-2,9.2-0.1c0.3,0.1,0.4,0.4,0.3,0.6C265.2,52.3,265,52.5,264.7,52.5z"/>
<path class="st10" d="M239.1,52.5c-0.2,0-0.4-0.1-0.4-0.3c-0.1-0.2,0-0.5,0.2-0.7c3.3-1.7,7.1-0.5,7.3-0.4c0.3,0.1,0.4,0.4,0.3,0.6
	c-0.1,0.3-0.4,0.4-0.6,0.3c0,0-3.6-1.1-6.5,0.4C239.2,52.4,239.2,52.5,239.1,52.5z"/>
<path class="st1" d="M285.8,31.2l-16.3-9.3c-1.6-2.7-4.5-4.5-7.9-4.5c-3.1,0-5.8,1.5-7.4,3.8c-4.3-2-6.8-0.8-7.8-0.1
	c-1.7-2.2-4.3-3.7-7.3-3.7c-5.1,0-9.2,4.1-9.2,9.2s4.1,9.2,9.2,9.2c5.1,0,9.2-4.1,9.2-9.2c0-1.7-0.5-3.3-1.3-4.7
	c0.8-0.5,3-1.5,6.7,0.2c-0.8,1.3-1.2,2.9-1.2,4.5c0,5.1,4.1,9.2,9.2,9.2c5.1,0,9.2-4.1,9.2-9.2c0-1.1-0.2-2.2-0.6-3.1l15.1,8.6
	c0.1,0,0.2,0.1,0.2,0.1c0.2,0,0.3-0.1,0.4-0.3C286.1,31.6,286,31.3,285.8,31.2z M239,34.8c-4.5,0-8.2-3.7-8.2-8.2s3.7-8.2,8.2-8.2
	c4.5,0,8.2,3.7,8.2,8.2S243.5,34.8,239,34.8z M261.6,34.8c-4.5,0-8.2-3.7-8.2-8.2s3.7-8.2,8.2-8.2c4.5,0,8.2,3.7,8.2,8.2
	S266.1,34.8,261.6,34.8z"/>
<path class="st11" d="M353.7,189.4C353.7,189.4,353.7,189.4,353.7,189.4l0-3.5c0-0.5-0.4-0.8-0.8-0.8h-17.1c-0.5,0-0.8,0.4-0.8,0.8
	v20.9c0,0.5,0.4,0.8,0.8,0.8h17.1c0.5,0,0.8-0.4,0.8-0.8v-4.4c0,0,0,0,0,0c3,0,5.4-2.9,5.4-6.5C359.1,192.3,356.7,189.4,353.7,189.4
	z M353.7,200.4C353.7,200.4,353.7,200.4,353.7,200.4l0-9c0,0,0,0,0,0c1.9,0,3.4,2,3.4,4.5C357.1,198.4,355.6,200.4,353.7,200.4z"/>
<g>
	<polygon class="st0" points="341,220.6 334.6,220.6 273.8,400.1 280.1,400.1 337.8,229.9 395.5,400.1 401.9,400.1 	"/>
	<polygon class="st0" points="83,220.6 22.1,400.1 28.5,400.1 86.2,229.9 143.9,400.1 150.2,400.1 89.4,220.6 	"/>
</g>
<g>
	<g>
		<polygon class="st0" points="104.9,160 99.1,183.4 93.9,205 63,205 75.2,169.7 78.5,160 		"/>
		<polygon class="st1" points="106.8,160 100.8,184.4 95.8,205 64.9,205 76.8,170.7 80.5,160 		"/>
		<path class="st12" d="M103.3,202.4H52.9c-1,0-1.7,0.8-1.7,1.7v1.7c0,1,0.8,1.7,1.7,1.7h50.3c1,0,1.7-0.8,1.7-1.7v-1.7
			C105,203.2,104.2,202.4,103.3,202.4z"/>
		<polygon class="st13" points="106.8,160 100.8,184.4 99.1,183.4 76.8,170.7 75.2,169.7 78.5,160 		"/>
	</g>
	<g>
		<path class="st12" d="M157.4,166.8H45.1c-1.6,0-3.2-1.3-3.5-2.9L27.9,91.7c-0.1-0.8,0-1.5,0.5-2.1l0.4-0.5
			c0.4-0.6,1.1-0.9,1.9-0.9H143c1.6,0,3.2,1.3,3.5,2.9l13.7,72.1c0.1,0.8,0,1.5-0.5,2.1l-0.4,0.5
			C158.9,166.5,158.2,166.8,157.4,166.8z"/>
		<path class="st1" d="M157.5,164.6H46.9c-1.6,0-3.2-1.3-3.5-2.9L30,91.2c-0.3-1.6,0.8-2.9,2.4-2.9H143c1.6,0,3.2,1.3,3.5,2.9
			l13.4,70.4C160.2,163.3,159.1,164.6,157.5,164.6z"/>
		<path class="st14" d="M155.9,162H47.5c-0.6,0-1.1-0.5-1.2-1l-13.2-69c-0.1-0.6,0.3-1,0.8-1h108.4c0.6,0,1.1,0.5,1.2,1l13.2,69
			C156.9,161.6,156.5,162,155.9,162z"/>
		<g>
			<g>
				<path class="st15" d="M38,98.1h1.7c0.5,0,0.8-0.4,0.7-0.8c-0.1-0.5-0.5-0.8-1-0.8h-1.7c-0.5,0-0.8,0.4-0.7,0.8
					C37.1,97.8,37.5,98.1,38,98.1z"/>
				<path class="st16" d="M54.5,98.1H71c0.5,0,0.8-0.4,0.7-0.8c-0.1-0.5-0.5-0.8-1-0.8H54.2c-0.5,0-0.8,0.4-0.7,0.8
					C53.6,97.8,54.1,98.1,54.5,98.1z"/>
				<path class="st17" d="M74.3,98.1H76c0.5,0,0.8-0.4,0.7-0.8c-0.1-0.5-0.5-0.8-1-0.8H74c-0.5,0-0.8,0.4-0.7,0.8
					C73.4,97.8,73.9,98.1,74.3,98.1z"/>
				<path class="st17" d="M90.8,98.1h5.4c0.5,0,0.8-0.4,0.7-0.8c-0.1-0.5-0.5-0.8-1-0.8h-5.4c-0.5,0-0.8,0.4-0.7,0.8
					C89.9,97.8,90.4,98.1,90.8,98.1z"/>
				<path class="st18" d="M79.3,98.1h8.3c0.5,0,0.8-0.4,0.7-0.8c-0.1-0.5-0.5-0.8-1-0.8H79c-0.5,0-0.8,0.4-0.7,0.8
					C78.4,97.8,78.8,98.1,79.3,98.1z"/>
				<path class="st18" d="M43,98.1h8.3c0.5,0,0.8-0.4,0.7-0.8c-0.1-0.5-0.5-0.8-1-0.8h-8.3c-0.5,0-0.8,0.4-0.7,0.8
					C42.1,97.8,42.5,98.1,43,98.1z"/>
				<path class="st18" d="M63.6,102.2c-0.1-0.5-0.5-0.8-1-0.8H44.4c-0.5,0-0.8,0.4-0.7,0.8c0.1,0.5,0.5,0.8,1,0.8h18.2
					C63.3,103.1,63.6,102.7,63.6,102.2z"/>
				<path class="st19" d="M41.1,101.4h-2.5c-0.5,0-0.8,0.4-0.7,0.8c0.1,0.5,0.5,0.8,1,0.8h2.5c0.5,0,0.8-0.4,0.7-0.8
					C42,101.8,41.6,101.4,41.1,101.4z"/>
				<path class="st18" d="M82.4,101.4H65.9c-0.5,0-0.8,0.4-0.7,0.8c0.1,0.5,0.5,0.8,1,0.8h16.5c0.5,0,0.8-0.4,0.7-0.8
					C83.3,101.8,82.8,101.4,82.4,101.4z"/>
				<path class="st17" d="M88.5,103.1c0.5,0,0.8-0.4,0.7-0.8c-0.1-0.5-0.5-0.8-1-0.8h-2.5c-0.5,0-0.8,0.4-0.7,0.8
					c0.1,0.5,0.5,0.8,1,0.8H88.5z"/>
				<path class="st18" d="M96.9,101.4h-5.4c-0.5,0-0.8,0.4-0.7,0.8c0.1,0.5,0.5,0.8,1,0.8h5.4c0.5,0,0.8-0.4,0.7-0.8
					C97.8,101.8,97.3,101.4,96.9,101.4z"/>
				<path class="st17" d="M77.9,108c0.5,0,0.8-0.4,0.7-0.8c-0.1-0.5-0.5-0.8-1-0.8h-1.7c-0.5,0-0.8,0.4-0.7,0.8
					c0.1,0.5,0.5,0.8,1,0.8H77.9z"/>
				<path class="st20" d="M39.9,108h1.7c0.5,0,0.8-0.4,0.7-0.8s-0.5-0.8-1-0.8h-1.7c-0.5,0-0.8,0.4-0.7,0.8
					C39,107.6,39.4,108,39.9,108z"/>
				<path class="st15" d="M80.2,107.2c0.1,0.5,0.5,0.8,1,0.8h8.3c0.5,0,0.8-0.4,0.7-0.8c-0.1-0.5-0.5-0.8-1-0.8h-8.3
					C80.4,106.3,80.1,106.7,80.2,107.2z"/>
				<path class="st15" d="M44.8,108h8.3c0.5,0,0.8-0.4,0.7-0.8c-0.1-0.5-0.5-0.8-1-0.8h-8.3c-0.5,0-0.8,0.4-0.7,0.8
					C43.9,107.6,44.4,108,44.8,108z"/>
				<path class="st15" d="M97.8,106.3h-5.4c-0.5,0-0.8,0.4-0.7,0.8c0.1,0.5,0.5,0.8,1,0.8h5.4c0.5,0,0.8-0.4,0.7-0.8
					C98.7,106.7,98.3,106.3,97.8,106.3z"/>
				<path class="st17" d="M56.4,108h16.5c0.5,0,0.8-0.4,0.7-0.8c-0.1-0.5-0.5-0.8-1-0.8H56.1c-0.5,0-0.8,0.4-0.7,0.8
					C55.5,107.6,55.9,108,56.4,108z"/>
				<path class="st18" d="M98.8,111.3h-5.4c-0.5,0-0.8,0.4-0.7,0.8c0.1,0.5,0.5,0.8,1,0.8h5.4c0.5,0,0.8-0.4,0.7-0.8
					C99.7,111.7,99.2,111.3,98.8,111.3z"/>
				<path class="st16" d="M90,111.3h-2.5c-0.5,0-0.8,0.4-0.7,0.8c0.1,0.5,0.5,0.8,1,0.8h2.5c0.5,0,0.8-0.4,0.7-0.8
					C90.9,111.7,90.5,111.3,90,111.3z"/>
				<path class="st18" d="M85.2,112.1c-0.1-0.5-0.5-0.8-1-0.8H67.8c-0.5,0-0.8,0.4-0.7,0.8c0.1,0.5,0.5,0.8,1,0.8h16.5
					C85,112.9,85.3,112.6,85.2,112.1z"/>
				<path class="st18" d="M45.6,112.1c0.1,0.5,0.5,0.8,1,0.8h18.2c0.5,0,0.8-0.4,0.7-0.8c-0.1-0.5-0.5-0.8-1-0.8H46.3
					C45.8,111.3,45.5,111.7,45.6,112.1z"/>
				<path class="st15" d="M43,111.3h-2.5c-0.5,0-0.8,0.4-0.7,0.8c0.1,0.5,0.5,0.8,1,0.8h2.5c0.5,0,0.8-0.4,0.7-0.8
					C43.9,111.7,43.4,111.3,43,111.3z"/>
				<path class="st15" d="M99.7,116.2h-2.1c-0.5,0-0.8,0.4-0.7,0.8c0.1,0.5,0.5,0.8,1,0.8h2.1c0.5,0,0.8-0.4,0.7-0.8
					C100.6,116.6,100.2,116.2,99.7,116.2z"/>
				<path class="st15" d="M82.1,117c-0.1-0.5-0.5-0.8-1-0.8h-1.7c-0.5,0-0.8,0.4-0.7,0.8c0.1,0.5,0.5,0.8,1,0.8h1.7
					C81.8,117.9,82.1,117.5,82.1,117z"/>
				<path class="st18" d="M76.1,116.2H59.6c-0.5,0-0.8,0.4-0.7,0.8c0.1,0.5,0.5,0.8,1,0.8h16.5c0.5,0,0.8-0.4,0.7-0.8
					C77,116.6,76.6,116.2,76.1,116.2z"/>
				<path class="st18" d="M95.3,117c-0.1-0.5-0.5-0.8-1-0.8h-9.9c-0.5,0-0.8,0.4-0.7,0.8c0.1,0.5,0.5,0.8,1,0.8h9.9
					C95.1,117.9,95.4,117.5,95.3,117z"/>
				<path class="st17" d="M46.7,117.9h9.9c0.5,0,0.8-0.4,0.7-0.8c-0.1-0.5-0.5-0.8-1-0.8h-9.9c-0.5,0-0.8,0.4-0.7,0.8
					C45.8,117.5,46.3,117.9,46.7,117.9z"/>
				<path class="st19" d="M41.8,117.9h1.7c0.5,0,0.8-0.4,0.7-0.8c-0.1-0.5-0.5-0.8-1-0.8h-1.7c-0.5,0-0.8,0.4-0.7,0.8
					C40.9,117.5,41.3,117.9,41.8,117.9z"/>
				<path class="st20" d="M42.7,122.8h1.7c0.5,0,0.8-0.4,0.7-0.8c-0.1-0.5-0.5-0.8-1-0.8h-1.7c-0.5,0-0.8,0.4-0.7,0.8
					C41.8,122.4,42.3,122.8,42.7,122.8z"/>
				<path class="st16" d="M47.7,122.8h8.3c0.5,0,0.8-0.4,0.7-0.8c-0.1-0.5-0.5-0.8-1-0.8h-8.3c-0.5,0-0.8,0.4-0.7,0.8
					C46.8,122.4,47.2,122.8,47.7,122.8z"/>
				<path class="st18" d="M91.9,121.2h-8.3c-0.5,0-0.8,0.4-0.7,0.8c0.1,0.5,0.5,0.8,1,0.8h8.3c0.5,0,0.8-0.4,0.7-0.8
					C92.8,121.5,92.4,121.2,91.9,121.2z"/>
				<path class="st18" d="M100.6,121.2h-5.4c-0.5,0-0.8,0.4-0.7,0.8c0.1,0.5,0.5,0.8,1,0.8h5.4c0.5,0,0.8-0.4,0.7-0.8
					C101.5,121.5,101.1,121.2,100.6,121.2z"/>
				<path class="st15" d="M79,122.8h1.7c0.5,0,0.8-0.4,0.7-0.8c-0.1-0.5-0.5-0.8-1-0.8h-1.7c-0.5,0-0.8,0.4-0.7,0.8
					C78.1,122.4,78.6,122.8,79,122.8z"/>
				<path class="st18" d="M59.2,122.8h16.5c0.5,0,0.8-0.4,0.7-0.8c-0.1-0.5-0.5-0.8-1-0.8H58.9c-0.5,0-0.8,0.4-0.7,0.8
					C58.3,122.4,58.8,122.8,59.2,122.8z"/>
				<path class="st18" d="M48.4,126.9c0.1,0.5,0.5,0.8,1,0.8h18.2c0.5,0,0.8-0.4,0.7-0.8c-0.1-0.5-0.5-0.8-1-0.8H49.1
					C48.7,126.1,48.4,126.5,48.4,126.9z"/>
				<path class="st19" d="M45.8,126.1h-2.5c-0.5,0-0.8,0.4-0.7,0.8c0.1,0.5,0.5,0.8,1,0.8h2.5c0.5,0,0.8-0.4,0.7-0.8
					C46.7,126.5,46.3,126.1,45.8,126.1z"/>
				<path class="st18" d="M88.1,126.9c-0.1-0.5-0.5-0.8-1-0.8H70.6c-0.5,0-0.8,0.4-0.7,0.8c0.1,0.5,0.5,0.8,1,0.8h16.5
					C87.9,127.7,88.2,127.4,88.1,126.9z"/>
				<path class="st16" d="M93.2,127.7c0.5,0,0.8-0.4,0.7-0.8c-0.1-0.5-0.5-0.8-1-0.8h-2.5c-0.5,0-0.8,0.4-0.7,0.8
					c0.1,0.5,0.5,0.8,1,0.8H93.2z"/>
				<path class="st18" d="M101.6,126.1h-5.4c-0.5,0-0.8,0.4-0.7,0.8c0.1,0.5,0.5,0.8,1,0.8h5.4c0.5,0,0.8-0.4,0.7-0.8
					C102.5,126.5,102,126.1,101.6,126.1z"/>
				<path class="st17" d="M83.2,131.9c-0.1-0.5-0.5-0.8-1-0.8h-1.7c-0.5,0-0.8,0.4-0.7,0.8c0.1,0.5,0.5,0.8,1,0.8h1.7
					C83,132.7,83.3,132.3,83.2,131.9z"/>
				<path class="st16" d="M102.5,131h-5.4c-0.5,0-0.8,0.4-0.7,0.8c0.1,0.5,0.5,0.8,1,0.8h5.4c0.5,0,0.8-0.4,0.7-0.8
					C103.4,131.4,103,131,102.5,131z"/>
				<path class="st15" d="M61.1,132.7h16.5c0.5,0,0.8-0.4,0.7-0.8c-0.1-0.5-0.5-0.8-1-0.8H60.8c-0.5,0-0.8,0.4-0.7,0.8
					C60.2,132.3,60.6,132.7,61.1,132.7z"/>
				<path class="st18" d="M49.5,132.7h8.3c0.5,0,0.8-0.4,0.7-0.8c-0.1-0.5-0.5-0.8-1-0.8h-8.3c-0.5,0-0.8,0.4-0.7,0.8
					C48.6,132.3,49.1,132.7,49.5,132.7z"/>
				<path class="st20" d="M44.6,132.7h1.7c0.5,0,0.8-0.4,0.7-0.8c-0.1-0.5-0.5-0.8-1-0.8h-1.7c-0.5,0-0.8,0.4-0.7,0.8
					C43.7,132.3,44.1,132.7,44.6,132.7z"/>
				<path class="st17" d="M85.9,132.7h8.3c0.5,0,0.8-0.4,0.7-0.8c-0.1-0.5-0.5-0.8-1-0.8h-8.3c-0.5,0-0.8,0.4-0.7,0.8
					C85,132.3,85.4,132.7,85.9,132.7z"/>
				<path class="st17" d="M60.4,137.6c0.5,0,0.8-0.4,0.7-0.8c-0.1-0.5-0.5-0.8-1-0.8h-9.9c-0.5,0-0.8,0.4-0.7,0.8
					c0.1,0.5,0.5,0.8,1,0.8H60.4z"/>
				<path class="st17" d="M103.5,136h-2.1c-0.5,0-0.8,0.4-0.7,0.8c0.1,0.5,0.5,0.8,1,0.8h2.1c0.5,0,0.8-0.4,0.7-0.8
					C104.4,136.3,103.9,136,103.5,136z"/>
				<path class="st15" d="M83.5,137.6h1.7c0.5,0,0.8-0.4,0.7-0.8c-0.1-0.5-0.5-0.8-1-0.8h-1.7c-0.5,0-0.8,0.4-0.7,0.8
					C82.6,137.2,83,137.6,83.5,137.6z"/>
				<path class="st18" d="M63.7,137.6h16.5c0.5,0,0.8-0.4,0.7-0.8c-0.1-0.5-0.5-0.8-1-0.8H63.4c-0.5,0-0.8,0.4-0.7,0.8
					C62.8,137.2,63.2,137.6,63.7,137.6z"/>
				<path class="st19" d="M45.5,137.6h1.7c0.5,0,0.8-0.4,0.7-0.8c-0.1-0.5-0.5-0.8-1-0.8h-1.7c-0.5,0-0.8,0.4-0.7,0.8
					C44.6,137.2,45.1,137.6,45.5,137.6z"/>
				<path class="st18" d="M88.5,137.6h9.9c0.5,0,0.8-0.4,0.7-0.8c-0.1-0.5-0.5-0.8-1-0.8h-9.9c-0.5,0-0.8,0.4-0.7,0.8
					C87.6,137.2,88,137.6,88.5,137.6z"/>
				<path class="st17" d="M104.4,140.9H99c-0.5,0-0.8,0.4-0.7,0.8c0.1,0.5,0.5,0.8,1,0.8h5.4c0.5,0,0.8-0.4,0.7-0.8
					C105.3,141.3,104.9,140.9,104.4,140.9z"/>
				<path class="st15" d="M95.7,140.9h-2.5c-0.5,0-0.8,0.4-0.7,0.8c0.1,0.5,0.5,0.8,1,0.8H96c0.5,0,0.8-0.4,0.7-0.8
					C96.6,141.3,96.1,140.9,95.7,140.9z"/>
				<path class="st16" d="M70.1,140.9H51.9c-0.5,0-0.8,0.4-0.7,0.8c0.1,0.5,0.5,0.8,1,0.8h18.2c0.5,0,0.8-0.4,0.7-0.8
					C71,141.3,70.5,140.9,70.1,140.9z"/>
				<path class="st18" d="M89.9,140.9H73.4c-0.5,0-0.8,0.4-0.7,0.8c0.1,0.5,0.5,0.8,1,0.8h16.5c0.5,0,0.8-0.4,0.7-0.8
					C90.8,141.3,90.4,140.9,89.9,140.9z"/>
				<path class="st16" d="M111,98.1h16.5c0.5,0,0.8-0.4,0.7-0.8c-0.1-0.5-0.5-0.8-1-0.8h-16.5c-0.5,0-0.8,0.4-0.7,0.8
					C110.1,97.8,110.5,98.1,111,98.1z"/>
				<path class="st17" d="M130.8,98.1h1.7c0.5,0,0.8-0.4,0.7-0.8c-0.1-0.5-0.5-0.8-1-0.8h-1.7c-0.5,0-0.8,0.4-0.7,0.8
					C129.9,97.8,130.3,98.1,130.8,98.1z"/>
				<path class="st18" d="M135.7,98.1h4.8c0.5,0,0.8-0.4,0.7-0.8c-0.1-0.5-0.5-0.8-1-0.8h-4.8c-0.5,0-0.8,0.4-0.7,0.8
					C134.8,97.8,135.3,98.1,135.7,98.1z"/>
				<path class="st18" d="M99.4,98.1h8.3c0.5,0,0.8-0.4,0.7-0.8c-0.1-0.5-0.5-0.8-1-0.8h-8.3c-0.5,0-0.8,0.4-0.7,0.8
					C98.5,97.8,98.9,98.1,99.4,98.1z"/>
				<path class="st18" d="M119,102.2c-0.1-0.5-0.5-0.8-1-0.8H99.9c-0.5,0-0.8,0.4-0.7,0.8c0.1,0.5,0.5,0.8,1,0.8h18.2
					C118.8,103.1,119.1,102.7,119,102.2z"/>
				<path class="st18" d="M141.2,101.4h-19.8c-0.5,0-0.8,0.4-0.7,0.8c0.1,0.5,0.5,0.8,1,0.8h19.8c0.5,0,0.8-0.4,0.7-0.8
					C142.1,101.8,141.6,101.4,141.2,101.4z"/>
				<path class="st17" d="M134.3,108c0.5,0,0.8-0.4,0.7-0.8c-0.1-0.5-0.5-0.8-1-0.8h-1.7c-0.5,0-0.8,0.4-0.7,0.8
					c0.1,0.5,0.5,0.8,1,0.8H134.3z"/>
				<path class="st15" d="M136.6,107.2c0.1,0.5,0.5,0.8,1,0.8h4.4c0.5,0,0.8-0.4,0.7-0.8c-0.1-0.5-0.5-0.8-1-0.8h-4.4
					C136.8,106.3,136.5,106.7,136.6,107.2z"/>
				<path class="st15" d="M101.3,108h8.3c0.5,0,0.8-0.4,0.7-0.8c-0.1-0.5-0.5-0.8-1-0.8H101c-0.5,0-0.8,0.4-0.7,0.8
					C100.4,107.6,100.8,108,101.3,108z"/>
				<path class="st17" d="M112.8,108h16.5c0.5,0,0.8-0.4,0.7-0.8c-0.1-0.5-0.5-0.8-1-0.8h-16.5c-0.5,0-0.8,0.4-0.7,0.8
					C111.9,107.6,112.4,108,112.8,108z"/>
				<path class="st18" d="M143.8,112.1c-0.1-0.5-0.5-0.8-1-0.8h-18.6c-0.5,0-0.8,0.4-0.7,0.8c0.1,0.5,0.5,0.8,1,0.8h18.6
					C143.5,112.9,143.8,112.6,143.8,112.1z"/>
				<path class="st18" d="M102.1,112.1c0.1,0.5,0.5,0.8,1,0.8h18.2c0.5,0,0.8-0.4,0.7-0.8c-0.1-0.5-0.5-0.8-1-0.8h-18.2
					C102.3,111.3,102,111.7,102.1,112.1z"/>
				<path class="st15" d="M138.5,117c-0.1-0.5-0.5-0.8-1-0.8h-1.7c-0.5,0-0.8,0.4-0.7,0.8c0.1,0.5,0.5,0.8,1,0.8h1.7
					C138.3,117.9,138.6,117.5,138.5,117z"/>
				<path class="st18" d="M132.6,116.2h-16.5c-0.5,0-0.8,0.4-0.7,0.8c0.1,0.5,0.5,0.8,1,0.8h16.5c0.5,0,0.8-0.4,0.7-0.8
					C133.5,116.6,133,116.2,132.6,116.2z"/>
				<path class="st18" d="M145.1,117c-0.1-0.5-0.5-0.8-1-0.8h-3.3c-0.5,0-0.8,0.4-0.7,0.8c0.1,0.5,0.5,0.8,1,0.8h3.3
					C144.9,117.9,145.2,117.5,145.1,117z"/>
				<path class="st17" d="M103.2,117.9h9.9c0.5,0,0.8-0.4,0.7-0.8c-0.1-0.5-0.5-0.8-1-0.8h-9.9c-0.5,0-0.8,0.4-0.7,0.8
					C102.3,117.5,102.7,117.9,103.2,117.9z"/>
				<path class="st16" d="M104.1,122.8h8.3c0.5,0,0.8-0.4,0.7-0.8c-0.1-0.5-0.5-0.8-1-0.8h-8.3c-0.5,0-0.8,0.4-0.7,0.8
					C103.2,122.4,103.6,122.8,104.1,122.8z"/>
				<path class="st18" d="M144.4,121.2h-4.3c-0.5,0-0.8,0.4-0.7,0.8c0.1,0.5,0.5,0.8,1,0.8h4.3c0.5,0,0.8-0.4,0.7-0.8
					C145.3,121.5,144.9,121.2,144.4,121.2z"/>
				<path class="st15" d="M135.5,122.8h1.7c0.5,0,0.8-0.4,0.7-0.8c-0.1-0.5-0.5-0.8-1-0.8h-1.7c-0.5,0-0.8,0.4-0.7,0.8
					C134.6,122.4,135,122.8,135.5,122.8z"/>
				<path class="st18" d="M115.7,122.8h16.5c0.5,0,0.8-0.4,0.7-0.8c-0.1-0.5-0.5-0.8-1-0.8h-16.5c-0.5,0-0.8,0.4-0.7,0.8
					C114.8,122.4,115.2,122.8,115.7,122.8z"/>
				<path class="st18" d="M104.9,126.9c0.1,0.5,0.5,0.8,1,0.8H124c0.5,0,0.8-0.4,0.7-0.8c-0.1-0.5-0.5-0.8-1-0.8h-18.2
					C105.1,126.1,104.8,126.5,104.9,126.9z"/>
				<path class="st18" d="M147,126.9c-0.1-0.5-0.5-0.8-1-0.8h-19c-0.5,0-0.8,0.4-0.7,0.8c0.1,0.5,0.5,0.8,1,0.8h19
					C146.8,127.7,147.1,127.4,147,126.9z"/>
				<path class="st17" d="M139.7,131.9c-0.1-0.5-0.5-0.8-1-0.8H137c-0.5,0-0.8,0.4-0.7,0.8c0.1,0.5,0.5,0.8,1,0.8h1.7
					C139.5,132.7,139.8,132.3,139.7,131.9z"/>
				<path class="st15" d="M117.5,132.7H134c0.5,0,0.8-0.4,0.7-0.8c-0.1-0.5-0.5-0.8-1-0.8h-16.5c-0.5,0-0.8,0.4-0.7,0.8
					C116.6,132.3,117.1,132.7,117.5,132.7z"/>
				<path class="st18" d="M106,132.7h8.3c0.5,0,0.8-0.4,0.7-0.8c-0.1-0.5-0.5-0.8-1-0.8h-8.3c-0.5,0-0.8,0.4-0.7,0.8
					C105.1,132.3,105.5,132.7,106,132.7z"/>
				<path class="st17" d="M142.3,132.7h5c0.5,0,0.8-0.4,0.7-0.8c-0.1-0.5-0.5-0.8-1-0.8h-5c-0.5,0-0.8,0.4-0.7,0.8
					C141.4,132.3,141.8,132.7,142.3,132.7z"/>
				<path class="st17" d="M116.8,137.6c0.5,0,0.8-0.4,0.7-0.8c-0.1-0.5-0.5-0.8-1-0.8h-9.9c-0.5,0-0.8,0.4-0.7,0.8
					c0.1,0.5,0.5,0.8,1,0.8H116.8z"/>
				<path class="st15" d="M139.9,137.6h1.7c0.5,0,0.8-0.4,0.7-0.8c-0.1-0.5-0.5-0.8-1-0.8h-1.7c-0.5,0-0.8,0.4-0.7,0.8
					C139,137.2,139.5,137.6,139.9,137.6z"/>
				<path class="st18" d="M120.1,137.6h16.5c0.5,0,0.8-0.4,0.7-0.8c-0.1-0.5-0.5-0.8-1-0.8h-16.5c-0.5,0-0.8,0.4-0.7,0.8
					C119.2,137.2,119.7,137.6,120.1,137.6z"/>
				<path class="st18" d="M144.9,137.6h3.6c0.5,0,0.8-0.4,0.7-0.8c-0.1-0.5-0.5-0.8-1-0.8h-3.6c-0.5,0-0.8,0.4-0.7,0.8
					C144,137.2,144.4,137.6,144.9,137.6z"/>
				<path class="st15" d="M149.2,140.9h-0.5c-0.5,0-0.8,0.4-0.7,0.8c0.1,0.5,0.5,0.8,1,0.8h0.5c0.5,0,0.8-0.4,0.7-0.8
					C150.1,141.3,149.7,140.9,149.2,140.9z"/>
				<path class="st16" d="M126.5,140.9h-18.2c-0.5,0-0.8,0.4-0.7,0.8c0.1,0.5,0.5,0.8,1,0.8h18.2c0.5,0,0.8-0.4,0.7-0.8
					C127.4,141.3,127,140.9,126.5,140.9z"/>
				<path class="st18" d="M146.3,140.9h-16.5c-0.5,0-0.8,0.4-0.7,0.8c0.1,0.5,0.5,0.8,1,0.8h16.5c0.5,0,0.8-0.4,0.7-0.8
					C147.2,141.3,146.8,140.9,146.3,140.9z"/>
				<path class="st15" d="M48.6,140.9h-2.5c-0.5,0-0.8,0.4-0.7,0.8c0.1,0.5,0.5,0.8,1,0.8h2.5c0.5,0,0.8-0.4,0.7-0.8
					C49.5,141.3,49.1,140.9,48.6,140.9z"/>
			</g>
			<g>
				<path class="st15" d="M47.2,146.6h1.7c0.5,0,0.8-0.4,0.7-0.8c-0.1-0.5-0.5-0.8-1-0.8h-1.7c-0.5,0-0.8,0.4-0.7,0.8
					C46.3,146.2,46.8,146.6,47.2,146.6z"/>
				<path class="st16" d="M63.7,146.6h16.5c0.5,0,0.8-0.4,0.7-0.8c-0.1-0.5-0.5-0.8-1-0.8H63.4c-0.5,0-0.8,0.4-0.7,0.8
					C62.8,146.2,63.3,146.6,63.7,146.6z"/>
				<path class="st17" d="M83.6,146.6h1.7c0.5,0,0.8-0.4,0.7-0.8c-0.1-0.5-0.5-0.8-1-0.8h-1.7c-0.5,0-0.8,0.4-0.7,0.8
					C82.7,146.2,83.1,146.6,83.6,146.6z"/>
				<path class="st17" d="M100.1,146.6h5.4c0.5,0,0.8-0.4,0.7-0.8c-0.1-0.5-0.5-0.8-1-0.8h-5.4c-0.5,0-0.8,0.4-0.7,0.8
					C99.2,146.2,99.6,146.6,100.1,146.6z"/>
				<path class="st18" d="M88.5,146.6h8.3c0.5,0,0.8-0.4,0.7-0.8c-0.1-0.5-0.5-0.8-1-0.8h-8.3c-0.5,0-0.8,0.4-0.7,0.8
					C87.6,146.2,88.1,146.6,88.5,146.6z"/>
				<path class="st18" d="M52.2,146.6h8.3c0.5,0,0.8-0.4,0.7-0.8c-0.1-0.5-0.5-0.8-1-0.8h-8.3c-0.5,0-0.8,0.4-0.7,0.8
					C51.3,146.2,51.7,146.6,52.2,146.6z"/>
				<path class="st18" d="M72.8,150.7c-0.1-0.5-0.5-0.8-1-0.8H53.6c-0.5,0-0.8,0.4-0.7,0.8c0.1,0.5,0.5,0.8,1,0.8h18.2
					C72.6,151.5,72.9,151.1,72.8,150.7z"/>
				<path class="st19" d="M50.3,149.8h-2.5c-0.5,0-0.8,0.4-0.7,0.8c0.1,0.5,0.5,0.8,1,0.8h2.5c0.5,0,0.8-0.4,0.7-0.8
					C51.2,150.2,50.8,149.8,50.3,149.8z"/>
				<path class="st18" d="M91.6,149.8H75.1c-0.5,0-0.8,0.4-0.7,0.8c0.1,0.5,0.5,0.8,1,0.8h16.5c0.5,0,0.8-0.4,0.7-0.8
					C92.5,150.2,92.1,149.8,91.6,149.8z"/>
				<path class="st17" d="M97.7,151.5c0.5,0,0.8-0.4,0.7-0.8c-0.1-0.5-0.5-0.8-1-0.8h-2.5c-0.5,0-0.8,0.4-0.7,0.8
					c0.1,0.5,0.5,0.8,1,0.8H97.7z"/>
				<path class="st18" d="M106.1,149.8h-5.4c-0.5,0-0.8,0.4-0.7,0.8c0.1,0.5,0.5,0.8,1,0.8h5.4c0.5,0,0.8-0.4,0.7-0.8
					C107,150.2,106.6,149.8,106.1,149.8z"/>
				<path class="st17" d="M87.1,156.4c0.5,0,0.8-0.4,0.7-0.8c-0.1-0.5-0.5-0.8-1-0.8h-1.7c-0.5,0-0.8,0.4-0.7,0.8
					c0.1,0.5,0.5,0.8,1,0.8H87.1z"/>
				<path class="st20" d="M49.1,156.4h1.7c0.5,0,0.8-0.4,0.7-0.8c-0.1-0.5-0.5-0.8-1-0.8h-1.7c-0.5,0-0.8,0.4-0.7,0.8
					C48.2,156.1,48.7,156.4,49.1,156.4z"/>
				<path class="st15" d="M89.4,155.6c0.1,0.5,0.5,0.8,1,0.8h8.3c0.5,0,0.8-0.4,0.7-0.8c-0.1-0.5-0.5-0.8-1-0.8h-8.3
					C89.6,154.8,89.3,155.1,89.4,155.6z"/>
				<path class="st15" d="M54.1,156.4h8.3c0.5,0,0.8-0.4,0.7-0.8c-0.1-0.5-0.5-0.8-1-0.8h-8.3c-0.5,0-0.8,0.4-0.7,0.8
					C53.2,156.1,53.6,156.4,54.1,156.4z"/>
				<path class="st15" d="M107,154.8h-5.4c-0.5,0-0.8,0.4-0.7,0.8c0.1,0.5,0.5,0.8,1,0.8h5.4c0.5,0,0.8-0.4,0.7-0.8
					C107.9,155.1,107.5,154.8,107,154.8z"/>
				<path class="st17" d="M65.6,156.4h16.5c0.5,0,0.8-0.4,0.7-0.8c-0.1-0.5-0.5-0.8-1-0.8H65.3c-0.5,0-0.8,0.4-0.7,0.8
					C64.7,156.1,65.2,156.4,65.6,156.4z"/>
				<path class="st16" d="M120.2,146.6h16.5c0.5,0,0.8-0.4,0.7-0.8c-0.1-0.5-0.5-0.8-1-0.8h-16.5c-0.5,0-0.8,0.4-0.7,0.8
					C119.3,146.2,119.7,146.6,120.2,146.6z"/>
				<path class="st17" d="M140,146.6h1.7c0.5,0,0.8-0.4,0.7-0.8c-0.1-0.5-0.5-0.8-1-0.8h-1.7c-0.5,0-0.8,0.4-0.7,0.8
					C139.1,146.2,139.5,146.6,140,146.6z"/>
				<path class="st18" d="M144.9,146.6h5.4c0.5,0,0.8-0.4,0.7-0.8c-0.1-0.5-0.5-0.8-1-0.8h-5.4c-0.5,0-0.8,0.4-0.7,0.8
					C144.1,146.2,144.5,146.6,144.9,146.6z"/>
				<path class="st18" d="M108.6,146.6h8.3c0.5,0,0.8-0.4,0.7-0.8c-0.1-0.5-0.5-0.8-1-0.8h-8.3c-0.5,0-0.8,0.4-0.7,0.8
					C107.7,146.2,108.2,146.6,108.6,146.6z"/>
				<path class="st18" d="M128.3,150.7c-0.1-0.5-0.5-0.8-1-0.8h-18.2c-0.5,0-0.8,0.4-0.7,0.8c0.1,0.5,0.5,0.8,1,0.8h18.2
					C128.1,151.5,128.3,151.1,128.3,150.7z"/>
				<path class="st18" d="M150.8,149.8h-20.2c-0.5,0-0.8,0.4-0.7,0.8c0.1,0.5,0.5,0.8,1,0.8h20.2c0.5,0,0.8-0.4,0.7-0.8
					C151.7,150.2,151.3,149.8,150.8,149.8z"/>
				<path class="st17" d="M143.5,156.4c0.5,0,0.8-0.4,0.7-0.8c-0.1-0.5-0.5-0.8-1-0.8h-1.7c-0.5,0-0.8,0.4-0.7,0.8
					c0.1,0.5,0.5,0.8,1,0.8H143.5z"/>
				<path class="st15" d="M145.8,155.6c0.1,0.5,0.5,0.8,1,0.8h5.4c0.5,0,0.8-0.4,0.7-0.8c-0.1-0.5-0.5-0.8-1-0.8h-5.4
					C146.1,154.8,145.8,155.1,145.8,155.6z"/>
				<path class="st15" d="M110.5,156.4h8.3c0.5,0,0.8-0.4,0.7-0.8c-0.1-0.5-0.5-0.8-1-0.8h-8.3c-0.5,0-0.8,0.4-0.7,0.8
					C109.6,156.1,110,156.4,110.5,156.4z"/>
				<path class="st17" d="M122.1,156.4h16.5c0.5,0,0.8-0.4,0.7-0.8c-0.1-0.5-0.5-0.8-1-0.8h-16.5c-0.5,0-0.8,0.4-0.7,0.8
					C121.2,156.1,121.6,156.4,122.1,156.4z"/>
			</g>
		</g>
	</g>
</g>
<path class="st10" d="M379.5,220.8H44.5c-1.1,0-2-0.9-2-2l0,0c0-1.1,0.9-2,2-2h334.9c1.1,0,2,0.9,2,2l0,0
	C381.5,219.9,380.6,220.8,379.5,220.8z"/>
<path class="st0" d="M402.4,217.8H21.6c-1.1,0-2-0.9-2-2v-6.2c0-1.1,0.9-2,2-2h380.9c1.1,0,2,0.9,2,2v6.2
	C404.4,216.9,403.5,217.8,402.4,217.8z"/>
<path class="st6" d="M244.4,189.7c0,0-8.1-2.7-12.9-4.2c-4.8-1.6-12.5,1.3-18,5.4c0,0-3.9,3.2-2.5,4.3c1.3,1.1,7.7-4.1,13.2-4.7
	c0,0-12.9,8.2-11.6,11.1c0.4,1,2,0.7,4,0c-0.3,0.5-0.4,1-0.1,1.3c0.7,0.8,4.4-0.6,7.8-2c-0.7,0.5-1.1,1-1.1,1.4
	c0.1,1.8,10.5-2.9,10.5-2.9s6.6,4.3,11.2,1.6C244.8,201,246.6,193.4,244.4,189.7z"/>
<path class="st21" d="M240,202.4H93.4c-1.2,0-2.2,1-2.2,2.2v0.8c0,1.2,1,2.2,2.2,2.2H240c1.2,0,2.2-1,2.2-2.2v-0.8
	C242.2,203.4,241.2,202.4,240,202.4z"/>
<path class="st21" d="M196.9,127.5l15,71c0.5,2.2-0.9,4-3.1,4H93.4c-2.2,0-4.3-1.8-4.8-4l-15-71c-0.5-2.2,0.9-3.9,3.1-3.9h115.4
	C194.3,123.5,196.5,125.3,196.9,127.5z"/>
<path class="st22" d="M193.3,127.5l15,71c0.5,2.2-0.9,4-3.1,4H93.4c-2.2,0-4.3-1.8-4.8-4l-15-71c-0.5-2.2,0.9-3.9,3.1-3.9h111.8
	C190.7,123.5,192.9,125.3,193.3,127.5z"/>
<path class="st1" d="M137.4,170.4c-4.1,0-7.4-3.3-7.4-7.4c0-4.1,3.3-7.4,7.4-7.4c4.1,0,7.4,3.3,7.4,7.4
	C144.7,167.1,141.4,170.4,137.4,170.4z M137.4,158.7c-2.4,0-4.4,2-4.4,4.4c0,2.4,2,4.4,4.4,4.4c2.4,0,4.4-2,4.4-4.4
	C141.7,160.6,139.8,158.7,137.4,158.7z"/>
</svg>
