<?xml version="1.0" encoding="utf-8"?>
<!-- Generator: Adobe Illustrator 22.0.1, SVG Export Plug-In . SVG Version: 6.00 Build 0)  -->
<svg version="1.1" id="圖層_1" xmlns="http://www.w3.org/2000/svg" xmlns:xlink="http://www.w3.org/1999/xlink" x="0px" y="0px"
	 viewBox="0 0 425.2 425.2" style="enable-background:new 0 0 425.2 425.2;" xml:space="preserve">
<style type="text/css">
	.st0{fill:#3E2A3A;}
	.st1{fill:#F69D9B;}
	.st2{fill:#005956;}
	.st3{fill:#FF4331;}
	.st4{fill:#DC2F2A;}
	.st5{fill:#CF8993;}
	.st6{fill:#F5C9A7;}
	.st7{fill:#FDE0CC;}
	.st8{fill:none;stroke:#CF8993;stroke-miterlimit:10;}
</style>
<g>
	<path class="st0" d="M203.6,76.1c8.6-0.8,16.3-5.6,20.9-12.9c2.3-3.8,2-8.5,2.3-12.8c0.8-11.6-9.2-12.5-10.5-18.7
		c-1.2-6.2-17.3-9.9-28.5-0.8c-11.1,9.1-21.8,9.6-17.6,17.5c4.1,7.8-0.3,26.7,15.3,27.9C192.1,76.9,198.5,76.6,203.6,76.1z"/>
	<g>
		<g>
			<path class="st1" d="M84.7,134.6L84.7,134.6c7.9,4.3,15,7.6,21.6,10.2c7-2.1,9.2-6.9,9-12.9c-14.4-5.2-31.4-11.7-31.4-11.7
				c0,0-8.1-6.6-8.1-10.9c-0.6-0.1-1.7,0.3-1.9,1.1c-1,3.1,0.8,6.2,0.8,6.2s-14.6-5.2-14.5-3.7c0,1.5,7.3,5,7.3,5
				s-11.6-4.2-11.1-2.7c0.2,0.5,0,0,9.4,5.2c0,0-9.5-1.8-8.3-0.5c1.6,1.7,8.3,4.3,8.3,4.3s-7.4-1.3-6.3-0.3c1.1,1,19.6,7.4,19.6,7.4
				L84.7,134.6z"/>
			<path class="st1" d="M357.4,170.2c0,0,7.2-0.5,9.2-1.6c1.6-0.9-8-2-8-2c10.5-2.1,10.2-1.7,10.5-2.1c0.9-1.2-11.4-0.7-11.4-0.7
				s8-1.2,8.5-2.6c0.5-1.4-15-0.8-15-0.8s2.7-2.4,2.6-5.7c0-0.8-0.9-1.5-1.5-1.6c-1.4,4.1-11,8-11,8c0,0-8.2,0.5-18.1,1
				c-0.8,5-1.7,10-2.5,14.9c4.8-0.6,10-1.4,15.6-2.5l0,0l6.4-1.5c0,0,19.6-0.5,21-1.2C364.8,171.1,357.4,170.2,357.4,170.2z"/>
			<path class="st2" d="M331,153.7c0,0-47.4,4.1-50.5-4.1c-2.5-6.7-33.9-46.3-45.3-60.5c-2.9-3.6-6.8-6.3-11.3-7.5
				c-14.2-3.8-26.4-4-40.9-1c-19.6,3.9-44.9,56.6-51.1,54.5c-6.2-2.1-33-11.3-33-11.3s-10.3,12.4-9.3,17.5c1,5.2,41.2,33,66,28.9
				c13.5-2.3,24-26.7,30.6-48.3l32.5-1.4l1.9-3.6c15.7,23.7,40.1,57.5,53.5,59.5c20.6,3.1,58.8,0,58.8,0L331,153.7z"/>
		</g>
		<g>
			<polygon class="st1" points="153.6,318.3 154.4,332.8 170.9,333.7 174.3,318.8 			"/>
			<path class="st0" d="M154.4,332.8c0,0-2.4,5.8,0.4,9.3l16,0.2c0,0,2.2-6.7,0-8.5L154.4,332.8z"/>
			<polygon class="st1" points="215.8,318.7 216.6,333.2 233.1,334.1 236.5,319.2 			"/>
			<path class="st3" d="M226.5,220.2c0,0,33.4-18,39.1-5.7c5.7,12.4-25.9,107.2-25.9,107.2h-28.6L226.5,220.2z"/>
			<path class="st4" d="M157.8,222.7c0,0,23.8-22.9,29.5-10.5c5.7,12.4-7,106.9-7,106.9l-33-1.2L157.8,222.7z"/>
			<path class="st0" d="M257.2,337.9c-2.4-1.6-24.1-3.8-24.1-3.8l-16.5-0.9c0,0-2.4,5.8,0.2,8.8l16,0.2
				C232.8,342.1,265.3,343.2,257.2,337.9z"/>
			<g>
				<path class="st3" d="M181,244.1c0,0-37.5,1.9-37.4-29.4c0.1-34,18.2-68,18.2-68l76.5-1.2c0,0,12.1,52.7,11.8,69.7
					c-0.4,20.5-10.2,26.1-26.3,28c-3.3,0.4-6.7,0.5-10,0.6L181,244.1z"/>
				<g>
					<g>
						<path class="st5" d="M213.3,226.9h-30.1c-21,0-38.1-18.3-38.1-40.9l9.5-82c3.3-21.9,23.6-35.9,44.2-35.9h0
							c20.8,0,41.3,14.4,44.3,36.5l8.3,81.4C251.3,208.6,234.3,226.9,213.3,226.9z"/>
						<path class="st6" d="M205.3,250.9h-13.9c-1.4,0-2.6-1.2-2.6-2.6V127.9c0-1.4,1.2-2.6,2.6-2.6h13.9c1.4,0,2.6,1.2,2.6,2.6
							v120.5C207.9,249.8,206.8,250.9,205.3,250.9z"/>
						<path class="st7" d="M209.8,131.5h-23.7c-2.9,0-5.2-2.3-5.2-5.2v-13.6c0-2.9,2.3-5.2,5.2-5.2h23.7c2.9,0,5.2,2.3,5.2,5.2v13.6
							C215,129.2,212.7,131.5,209.8,131.5z"/>
					</g>
					<g>
						<line class="st8" x1="143.1" y1="248.8" x2="143.1" y2="403"/>
						<g>
							<line class="st8" x1="143" y1="342.5" x2="252.5" y2="342.5"/>
							<g>
								<line class="st8" x1="252.5" y1="249.9" x2="252.5" y2="403"/>
								<path class="st5" d="M143.5,241.7h109.3c3.7,0,6.6,3,6.6,6.6l0,0c0,3.7-3,6.6-6.6,6.6H143.5c-3.7,0-6.6-3-6.6-6.6l0,0
									C136.9,244.7,139.9,241.7,143.5,241.7z"/>
							</g>
						</g>
					</g>
				</g>
			</g>
		</g>
	</g>
</g>
</svg>
