<?xml version="1.0" encoding="utf-8"?>
<!-- Generator: Adobe Illustrator 22.0.1, SVG Export Plug-In . SVG Version: 6.00 Build 0)  -->
<svg version="1.1" id="圖層_1" xmlns="http://www.w3.org/2000/svg" xmlns:xlink="http://www.w3.org/1999/xlink" x="0px" y="0px"
	 viewBox="0 0 425.2 425.2" style="enable-background:new 0 0 425.2 425.2;" xml:space="preserve">
<style type="text/css">
	.st0{fill:#231815;}
	.st1{fill:#FFFFFF;}
	.st2{fill:#414042;}
	.st3{fill:#2D5873;}
	.st4{fill:#BFBA9F;}
	.st5{fill:#EF606A;}
	.st6{fill:#6CD1F4;}
	.st7{fill:#7BA696;}
</style>
<path class="st0" d="M259.2,95c0,9,7.3,16.4,16.4,16.4h79.7c10.2,0,18.5,8.3,18.5,18.5V218c0,10.2-8.3,18.5-18.5,18.5H108.2
	c-9,0-16.4,7.3-16.4,16.4v69.3c0,9,7.3,16.4,16.4,16.4l192.3,0l-0.2,1.8l-192,0.3c-10.2,0-18.5-8.3-18.5-18.5v-69.3
	c0-10.2,8.3-18.5,18.5-18.5h247.1c9,0,16.4-7.3,16.4-16.4v-88.1c0-9-7.3-16.4-16.4-16.4h-79.7c-10.2,0-18.5-8.3-18.5-18.5"/>
<g>
	<g>
		<path class="st1" d="M247.7,65c-1.1,0-2.2,0.1-3.2,0.1c-9.1-23.2-31.7-39.6-58.2-39.6c-26.5,0-49.1,16.4-58.2,39.7
			c-1.4-0.1-2.8-0.2-4.3-0.2C100.1,65,81,84.1,81,107.8s19.2,42.8,42.8,42.8c10.7,0,49.7,0,62.5,0c12.5,0,50.9,0,61.4,0
			c23.6,0,42.8-19.2,42.8-42.8S271.3,65,247.7,65z"/>
		<path class="st2" d="M247.7,152.7H123.8c-24.8,0-45-20.2-45-45c0-24.8,20.2-45,45-45c1,0,1.9,0,2.9,0.1c4.8-11.3,12.6-21,22.8-28
			c10.8-7.5,23.6-11.5,36.8-11.5c13.2,0,26,4,36.8,11.5c10.2,7,18,16.7,22.8,28c0.6,0,1.2,0,1.8,0c24.8,0,45,20.2,45,45
			C292.6,132.6,272.4,152.7,247.7,152.7z M123.8,67.2c-22.4,0-40.6,18.2-40.6,40.6s18.2,40.6,40.6,40.6h123.9
			c22.4,0,40.6-18.2,40.6-40.6S270,67.2,247.7,67.2c-0.9,0-1.9,0-3.1,0.1l-1.6,0.1l-0.6-1.5c-4.4-11.1-11.9-20.6-21.8-27.5
			c-10.1-7-22-10.7-34.3-10.7c-12.4,0-24.2,3.7-34.4,10.7c-9.9,6.9-17.4,16.4-21.8,27.6l-0.6,1.5l-1.6-0.2
			C126.5,67.2,125.1,67.2,123.8,67.2z"/>
	</g>
	<rect x="184.2" y="151.1" class="st2" width="4.4" height="50"/>
	<polygon class="st2" points="239.5,201.1 235.1,201.1 235.1,177.9 137.2,177.9 137.2,201.1 132.9,201.1 132.9,173.5 239.5,173.5 	
		"/>
	<g>
		<path class="st3" d="M194.5,175.7c0,4.5-3.6,8.1-8.1,8.1s-8.1-3.6-8.1-8.1c0-4.5,3.6-8.1,8.1-8.1S194.5,171.2,194.5,175.7z"/>
		<path class="st2" d="M186.4,186c-5.7,0-10.3-4.6-10.3-10.3s4.6-10.3,10.3-10.3c5.7,0,10.3,4.6,10.3,10.3S192,186,186.4,186z
			 M186.4,169.8c-3.3,0-5.9,2.7-5.9,5.9c0,3.3,2.7,5.9,5.9,5.9c3.3,0,5.9-2.7,5.9-5.9C192.3,172.4,189.6,169.8,186.4,169.8z"/>
	</g>
	<g>
		<polygon class="st4" points="201.3,102.8 201.3,73.8 186.4,73.8 171.5,73.8 171.5,102.8 159.9,103.4 186.4,126.6 212.8,103.4 		
			"/>
		<path class="st2" d="M186.4,129.5l-31.9-28.1l14.8-0.7V71.7h34.2v29.1l14.8,0.7L186.4,129.5z M165.4,105.3l21,18.4l21-18.4
			l-8.2-0.4V76h-25.5v28.9L165.4,105.3z"/>
	</g>
</g>
<g>
	<g>
		<rect x="228.2" y="198.6" class="st4" width="97.9" height="63.1"/>
		<path class="st2" d="M328.3,263.9H226v-67.5h102.2V263.9z M230.4,259.6h93.5v-58.7h-93.5V259.6z"/>
	</g>
	<g>
		<rect x="242.7" y="207.8" class="st5" width="73.6" height="44.4"/>
		<g>
			<path class="st2" d="M314.1,210v40.1h-69.2V210H314.1L314.1,210z M318.5,205.6h-77.9v48.8h77.9V205.6L318.5,205.6z"/>
		</g>
	</g>
	<rect x="232.5" y="222" class="st2" width="4.4" height="15.6"/>
</g>
<g>
	<g>
		<rect x="166.1" y="198.9" class="st4" width="41.7" height="61.6"/>
		<path class="st2" d="M210,262.7H164v-65.9H210V262.7z M168.3,258.3h37.4v-57.2h-37.4V258.3z"/>
	</g>
	<g>
		<g>
			<rect x="175.1" y="208.2" class="st5" width="23.5" height="37.8"/>
			<path class="st2" d="M196.4,210.4v33.5h-19.1v-33.5H196.4L196.4,210.4z M200.8,206h-27.9v42.2h27.9V206L200.8,206z"/>
		</g>
	</g>
	<rect x="179.5" y="251.9" class="st2" width="13.5" height="4.4"/>
</g>
<g>
	<g>
		<rect x="40.9" y="190.5" class="st4" width="102.2" height="72.2"/>
		<path class="st2" d="M145.2,264.9H38.7v-76.5h106.5V264.9z M43,260.5h97.8v-67.8H43V260.5z"/>
	</g>
	<g>
		<rect x="49.1" y="199.7" class="st5" width="85.2" height="51.4"/>
		<g>
			<path class="st2" d="M132.1,201.9V249H51.2v-47.1H132.1L132.1,201.9z M136.5,197.5H46.9v55.8h89.6V197.5L136.5,197.5z"/>
		</g>
	</g>
	<g>
		<rect x="29.5" y="262.7" class="st4" width="122.6" height="9.3"/>
		<path class="st2" d="M154.2,274.2h-127v-13.7h127V274.2z M31.6,269.8h118.2v-5H31.6V269.8z"/>
	</g>
</g>
<g>
	<path class="st2" d="M344.6,109.1h-23.2V95.5c0-6.3,5.1-11.4,11.4-11.4h0.3c6.3,0,11.4,5.1,11.4,11.4V109.1z M323.6,106.9h18.8
		V95.5c0-5.1-4.1-9.2-9.2-9.2h-0.3c-5.1,0-9.2,4.1-9.2,9.2V106.9z"/>
	<g>
		<path class="st3" d="M347.4,127.4h-28.9v-14c0-5.7,4.6-10.3,10.3-10.3h8.3c5.7,0,10.3,4.6,10.3,10.3V127.4z"/>
		<path class="st2" d="M348.5,128.5h-31.1v-15.1c0-6.3,5.1-11.4,11.4-11.4h8.3c6.3,0,11.4,5.1,11.4,11.4V128.5z M319.6,126.3h26.8
			v-12.9c0-5.1-4.1-9.2-9.2-9.2h-8.3c-5.1,0-9.2,4.1-9.2,9.2V126.3z"/>
	</g>
	<circle class="st2" cx="332.9" cy="112.5" r="4.3"/>
	<g>
		<path class="st6" d="M332.9,112.5v10.3V112.5z"/>
		<rect x="331.1" y="112.5" class="st2" width="3.6" height="10.3"/>
	</g>
</g>
<g>
	<g>
		<g>
			<rect x="143.4" y="334.7" class="st4" width="59.2" height="35.8"/>
			<path class="st2" d="M203.7,371.6h-61.3v-38h61.3V371.6z M144.5,369.4h57v-33.6h-57V369.4z"/>
		</g>
		<g>
			<rect x="148.3" y="339.4" class="st4" width="48.8" height="26.5"/>
			<path class="st2" d="M198.3,366.9h-51v-28.7h51V366.9z M149.4,364.8h46.7v-24.3h-46.7V364.8z"/>
		</g>
		<path class="st2" d="M160.4,353.8c-2.7,0-4.8-2.2-4.8-4.8c0-2.7,2.2-4.8,4.8-4.8c2.7,0,4.8,2.2,4.8,4.8
			C165.2,351.6,163,353.8,160.4,353.8z M160.4,346.4c-1.4,0-2.6,1.2-2.6,2.6c0,1.4,1.2,2.6,2.6,2.6s2.6-1.2,2.6-2.6
			C163,347.5,161.8,346.4,160.4,346.4z"/>
		<polygon class="st2" points="154.4,366.6 152.8,365.1 162.3,355.7 167.1,359.6 177.5,349 192.7,365.1 191.1,366.6 177.5,352.1 
			167.3,362.6 162.4,358.6 		"/>
		<g>
			
				<rect x="156.4" y="362.2" transform="matrix(0.7071 -0.7071 0.7071 0.7071 -209.0679 220.1466)" class="st2" width="9.7" height="0.6"/>
			
				<rect x="160.9" y="363.1" transform="matrix(0.7071 -0.7071 0.7071 0.7071 -208.7755 222.7078)" class="st2" width="7" height="0.6"/>
			
				<rect x="163.4" y="358.9" transform="matrix(0.7071 -0.7071 0.7071 0.7071 -203.4144 227.3686)" class="st2" width="18.8" height="0.6"/>
			
				<rect x="168" y="360" transform="matrix(0.7071 -0.7071 0.7071 0.7071 -203.2648 229.872)" class="st2" width="15.7" height="0.6"/>
			
				<rect x="172.6" y="361.1" transform="matrix(0.7071 -0.7071 0.7071 0.7071 -203.1154 232.3748)" class="st2" width="12.7" height="0.6"/>
			
				<rect x="177.2" y="362.2" transform="matrix(0.7071 -0.7071 0.7071 0.7071 -202.9657 234.8764)" class="st2" width="9.7" height="0.6"/>
			
				<rect x="181.7" y="363.2" transform="matrix(0.7071 -0.7071 0.7071 0.7071 -202.8195 237.3154)" class="st2" width="6.7" height="0.6"/>
			
				<rect x="186.3" y="364.3" transform="matrix(0.7071 -0.7071 0.7071 0.7071 -202.6698 239.8188)" class="st2" width="3.7" height="0.6"/>
		</g>
	</g>
	<g>
		<g>
			<rect x="130.8" y="320.7" class="st7" width="59.2" height="35.8"/>
			<path class="st2" d="M191.1,357.6h-61.3v-38h61.3V357.6z M131.9,355.4h57v-33.6h-57V355.4z"/>
		</g>
		<g>
			<rect x="135.7" y="325.4" class="st7" width="48.8" height="26.5"/>
			<path class="st2" d="M185.7,352.9h-51v-28.7h51V352.9z M136.8,350.8h46.7v-24.3h-46.7V350.8z"/>
		</g>
		<path class="st2" d="M147.8,339.8c-2.7,0-4.8-2.2-4.8-4.8c0-2.7,2.2-4.8,4.8-4.8c2.7,0,4.8,2.2,4.8,4.8
			C152.6,337.6,150.4,339.8,147.8,339.8z M147.8,332.4c-1.4,0-2.6,1.2-2.6,2.6c0,1.4,1.2,2.6,2.6,2.6c1.4,0,2.6-1.2,2.6-2.6
			C150.4,333.5,149.2,332.4,147.8,332.4z"/>
		<polygon class="st2" points="141.8,352.6 140.2,351.1 149.7,341.7 154.5,345.6 164.9,335 180.1,351.1 178.5,352.6 164.9,338.1 
			154.7,348.5 149.8,344.6 		"/>
		<g>
			
				<rect x="143.8" y="348.1" transform="matrix(0.7071 -0.7071 0.7071 0.7071 -202.8497 207.1341)" class="st2" width="9.7" height="0.6"/>
			
				<rect x="148.3" y="349.1" transform="matrix(0.7071 -0.7071 0.7071 0.7071 -202.5573 209.6954)" class="st2" width="7" height="0.6"/>
			
				<rect x="150.8" y="344.9" transform="matrix(0.7071 -0.7071 0.7071 0.7071 -197.1962 214.356)" class="st2" width="18.8" height="0.6"/>
			
				<rect x="155.4" y="346" transform="matrix(0.7071 -0.7071 0.7071 0.7071 -197.0464 216.8596)" class="st2" width="15.7" height="0.6"/>
			
				<rect x="160" y="347.1" transform="matrix(0.7071 -0.7071 0.7071 0.7071 -196.8973 219.3623)" class="st2" width="12.7" height="0.6"/>
			
				<rect x="164.6" y="348.1" transform="matrix(0.7071 -0.7071 0.7071 0.7071 -196.7475 221.8639)" class="st2" width="9.7" height="0.6"/>
			
				<rect x="169.1" y="349.2" transform="matrix(0.7071 -0.7071 0.7071 0.7071 -196.6013 224.3031)" class="st2" width="6.7" height="0.6"/>
			
				<rect x="173.7" y="350.3" transform="matrix(0.7071 -0.7071 0.7071 0.7071 -196.4516 226.8064)" class="st2" width="3.7" height="0.6"/>
		</g>
	</g>
</g>
<g>
	<polygon class="st2" points="374.1,374.3 371.3,374.3 371.3,361.9 306.6,361.9 306.6,374.3 303.8,374.3 303.8,359 374.1,359 	"/>
	<rect x="337.5" y="347.9" class="st2" width="2.9" height="26.4"/>
	<g>
		<polygon class="st4" points="328.8,296.8 328.8,290.7 309.3,290.7 309.3,296.8 297.5,296.8 297.5,350.9 380.4,350.9 380.4,296.8 
					"/>
		<path class="st2" d="M381.8,352.3h-85.7v-57h11.8v-6.1h22.3v6.1h51.6V352.3z M298.9,349.5h80v-51.3h-51.6v-6.1h-16.6v6.1h-11.8
			V349.5z"/>
	</g>
	<g>
		<polygon class="st3" points="380.4,350.9 297.5,350.9 303.8,302 386.6,302 		"/>
		<path class="st2" d="M381.6,352.3H296l6.6-51.7h85.6L381.6,352.3z M299.1,349.5h80.1l5.9-46.2H305L299.1,349.5z"/>
	</g>
	<g>
		<polygon class="st4" points="380.4,350.9 297.5,350.9 310,308.5 392.9,308.5 		"/>
		<path class="st2" d="M381.5,352.3h-85.8l13.3-45.2h85.8L381.5,352.3z M299.4,349.5h79.9L391,310h-79.9L299.4,349.5z"/>
	</g>
	<g>
		<polygon class="st4" points="334.7,374.2 334.7,371.6 326.5,371.6 326.5,374.2 321.5,374.2 321.5,396.9 356.4,396.9 356.4,374.2 
					"/>
		<path class="st2" d="M357.8,398.4h-37.7v-25.6h5v-2.6h11v2.6h21.7V398.4z M323,395.5h32v-19.9h-21.7V373h-5.3v2.6h-5V395.5z"/>
	</g>
	<g>
		<polygon class="st4" points="290.2,374.2 290.2,371.6 282,371.6 282,374.2 277,374.2 277,396.9 311.9,396.9 311.9,374.2 		"/>
		<path class="st2" d="M313.3,398.4h-37.7v-25.6h5v-2.6h11v2.6h21.7V398.4z M278.5,395.5h32v-19.9h-21.7V373h-5.3v2.6h-5V395.5z"/>
	</g>
	<g>
		<polygon class="st4" points="378.6,374.2 378.6,371.6 370.4,371.6 370.4,374.2 365.4,374.2 365.4,396.9 400.3,396.9 400.3,374.2 
					"/>
		<path class="st2" d="M401.7,398.4H364v-25.6h5v-2.6h11v2.6h21.7V398.4z M366.9,395.5h32v-19.9h-21.7V373h-5.3v2.6h-5V395.5z"/>
	</g>
</g>
</svg>
